<svg xmlns="http://www.w3.org/2000/svg" width="297mm" height="297mm" viewBox="0 0 297 297">
   <g transform="translate(-43.456 -280.147)">
      <path d="M81.872 454.805a3479.482 3479.482 0 0 1 197.837-3.266s12.926 1.213 19.399 1.034c.983-.028 2.933-.32 2.933-.32s-.397-1.566-1.94-2.906c-2.027-1.759-4.845-3.804-7.034-3.85-1.042-.021-1.754 1.134-2.682 1.61-.834.426-1.676.874-2.583 1.11-1.823.473-3.739.52-5.621.574-52.93 1.55-93.029.208-139.495 2.06-20.298.81-60.814 3.954-60.814 3.954z" fill="#f5ac79" paint-order="fill markers stroke"/>
      <path style="line-height:normal;font-variant-ligatures:normal;font-variant-position:normal;font-variant-caps:normal;font-variant-numeric:normal;font-variant-alternates:normal;font-feature-settings:normal;text-indent:0;text-align:start;text-decoration-line:none;text-decoration-style:solid;text-decoration-color:#000;text-transform:none;text-orientation:mixed;shape-padding:0;isolation:auto;mix-blend-mode:normal" d="M202.98 460.062c3.07 6.958 2.577 14.914 2.266 22.119-1.024-6.705-2.35-13.918-7.664-18.879.457-.407 1.075-1.2 2.203-1.798a30.011 30.011 0 0 1 3.196-1.442zM186.275 402.64c4.352 9.915 12.554 17.256 19.499 23.452-.275 1.119-.516 1.748-.757 2.68-.746-.594-1.379-1.185-1.958-1.697a92.834 92.834 0 0 1-6.05-5.889c-4.47-4.767-9.162-10.882-10.34-15.822-.23-.964-.255-1.854-.394-2.724z" color="#000" font-weight="400" font-family="sans-serif" white-space="normal" overflow="visible" fill="#f5ac79"/>
      <path d="M193.052 411.417c.925-.885 1.502-2.413 1.802-5.531.36 2.88.712 5.172-.29 7.262-1.12-1.29-.62-.697-1.512-1.73z" fill="#f5ac79"/>
      <path style="line-height:normal;font-variant-ligatures:normal;font-variant-position:normal;font-variant-caps:normal;font-variant-numeric:normal;font-variant-alternates:normal;font-feature-settings:normal;text-indent:0;text-align:start;text-decoration-line:none;text-decoration-style:solid;text-decoration-color:#000;text-transform:none;text-orientation:mixed;shape-padding:0;isolation:auto;mix-blend-mode:normal" d="M208.578 417.212l-.046.203a188.139 188.139 0 0 1-3.07 11.83c-2.423 8.194-6.363 18.272-11.796 28.271 3.437-4.025 6.817-7.802 9.522-12.192 1.08-1.752 1.828-3.756 2.638-5.584.703-1.6 1.117-2.64 1.589-3.994.187-.537.382-1.242.492-1.635 1.47-5.238 2.524-10.793 3.288-15.807a34.244 34.244 0 0 0-2.317-.98l-.3-.112zM212.486 410.796c.131-.508.252-1.01.423-1.539.317-.975.667-1.555 1.2-2.71-1.364 1.421-2.672 2.62-4.157 4.801.806-.168 1.43-.26 2.321-.489.07-.018.145-.045.213-.063z" color="#000" font-weight="400" font-family="sans-serif" white-space="normal" overflow="visible" fill="#f5ac79"/>
      <path d="M203.555 448.218c-.386 1.246-.732 3.038-.775 10.742-4.65 1.84-8.105 5.857-11.868 8.84-4.863 3.857-8.69 8.924-13.89 11.832-3.82 2.135-8.361 3.61-12.712 4.756 2.785-1.262 5.567-2.715 8.07-4.386 3.53-2.356 6.4-5.498 9.353-8.393 4.707-4.617 8.631-8.795 13.506-14.46z" style="line-height:normal;font-variant-ligatures:normal;font-variant-position:normal;font-variant-caps:normal;font-variant-numeric:normal;font-variant-alternates:normal;font-feature-settings:normal;text-indent:0;text-align:start;text-decoration-line:none;text-decoration-style:solid;text-decoration-color:#000;text-transform:none;text-orientation:mixed;shape-padding:0;isolation:auto;mix-blend-mode:normal" color="#000" font-weight="400" font-family="sans-serif" white-space="normal" overflow="visible" fill="#f5ac79"/>
      <path style="line-height:normal;font-variant-ligatures:normal;font-variant-position:normal;font-variant-caps:normal;font-variant-numeric:normal;font-variant-alternates:normal;font-feature-settings:normal;text-indent:0;text-align:start;text-decoration-line:none;text-decoration-style:solid;text-decoration-color:#000;text-transform:none;text-orientation:mixed;shape-padding:0;isolation:auto;mix-blend-mode:normal" d="M223.034 407.157c-2.433 2.681-4.363 5.17-5.357 7.447-.941 2.16-1.123 4.247-1.013 6.349a9.738 9.738 0 0 0-1.892-1.871c-1.65-1.212-3.653-2.078-5.512-2.776-1.86-.698-3.586-1.232-4.608-1.706-.503-.233-.805-.477-.857-.55 0 0 .016-.044.116-.134.06-.054.383-.216.87-.35.489-.135 1.141-.272 1.915-.42 1.547-.299 3.578-.656 5.845-1.235 3.269-.835 6.95-2.484 10.492-4.754z" color="#000" font-weight="400" font-family="sans-serif" white-space="normal" overflow="visible" fill="#e45743"/>
      <path style="line-height:normal;font-variant-ligatures:normal;font-variant-position:normal;font-variant-caps:normal;font-variant-numeric:normal;font-variant-alternates:normal;font-feature-settings:normal;text-indent:0;text-align:start;text-decoration-line:none;text-decoration-style:solid;text-decoration-color:#000;text-transform:none;text-orientation:mixed;shape-padding:0;isolation:auto;mix-blend-mode:normal" d="M184.6 416.843c2.161.433 4.569 1.321 6.94 2.655 4.702 2.643 9.248 7.015 11.7 12.838-.588 1.767-.962 3.026-1.316 4.18-.946-4.49-3.965-9.112-8.11-12.874-3.684-3.345-7.874-5.59-11.76-6.768.871 0 1.538-.232 2.546-.032z" color="#000" font-weight="400" font-family="sans-serif" white-space="normal" overflow="visible" fill="#f5ac79"/>
      <path style="line-height:normal;font-variant-ligatures:normal;font-variant-position:normal;font-variant-caps:normal;font-variant-numeric:normal;font-variant-alternates:normal;font-feature-settings:normal;text-indent:0;text-align:start;text-decoration-line:none;text-decoration-style:solid;text-decoration-color:#000;text-transform:none;text-orientation:mixed;shape-padding:0;isolation:auto;mix-blend-mode:normal" d="M185.942 390.546c1.698-.336 3.318-.33 5.092.416 4.718 1.984 6.858 5.736 7.508 10.063.486 3.23-.049 6.663-.891 9.895-.236-2.173-.695-4.122-1.568-5.2-.332-.411-.724-.726-1.204-.845-.479-.118-1.01 0-1.45.32-.654.466-1.155 1.742-1.672 3.018-1.736-4.829-3.403-7.573-5.049-8.452-.894-.478-1.87-.377-2.546.186-.676.563-1.103 1.47-1.35 2.58-.496 2.223-.257 5.33 1.012 8.41.898 2.179 2.56 4.196 4.625 5.976-1.527-.58-3.267-1.318-4.408-1.62-.977-.258-1.802-.42-2.481-.49-.68-.068-1.203-.063-1.65.109a1.09 1.09 0 0 0-.58.48c-.133.244-.13.536-.056.771.146.471.49.848 1.013 1.304.877.762 2.669 1.783 4.742 2.875-4.942 2.83-14.29 3.27-21.672 2.048-3.879-.642-7.194-1.724-8.916-2.949-.861-.612-1.279-1.221-1.325-1.758-.046-.536.234-1.168 1.186-1.935 5.307-4.277 10.844-7.309 13.909-10.917 1.532-1.803 2.441-3.804 2.264-6.118-.152-1.996-1.277-4.24-3.16-6.75 5.387 2.006 9.697 1.42 13.232.255 1.936-.638 3.697-1.335 5.395-1.672zM239.367 401.593c5.308.778 8.126 2.302 9.604 4.178 1.478 1.876 1.698 4.203 1.576 6.807-.12 2.604-.595 5.43-.368 8.184.17 2.053 1.04 4 2.468 5.79-7.367-3.525-14.298-3.313-20.03-1.85-3.141.802-5.94 1.917-8.289 2.863-2.226.896-3.982 1.564-5.24 1.766.443-.502 1.2-1.211 2.075-2.048.96-.917 1.973-1.93 2.65-2.927.338-.499.6-.995.702-1.515.101-.521.016-1.1-.356-1.538a1.283 1.283 0 0 0-.991-.446c-.35.017-.65.141-.94.308-.58.332-1.143.843-1.684 1.316-.542.473-1.073.905-1.403 1.052-.165.074-.25.068-.26.066-.016-.002-.038.002-.116-.17-.932-2.026-.822-4.48.092-7.044.912-2.565 2.626-5.212 4.802-7.543 4.35-4.663 10.542-8.007 15.71-7.249zM208.757 380.314c2.2-.166 4.486-.113 6.76.147 4.546.52 9.029 1.87 12.605 3.898 3.576 2.028 6.23 4.723 7.23 7.92.661 2.107.173 3.844-1.086 5.503-1.26 1.659-3.324 3.183-5.729 4.594-4.306 2.528-9.367 4.704-13.098 7.084 1.014-1.791 2.011-3.566 2.23-4.641.146-.719.146-1.315-.066-1.81a1.554 1.554 0 0 0-1.2-.906c-1.014-.144-2.156.406-3.424 1.334-.995.728-2.03 1.914-3.036 3.13-.115-3.866-1.497-10.328-3.304-14.657-.49-1.176-1-2.17-1.541-2.896-.27-.364-.548-.66-.862-.88-.314-.218-.682-.363-1.074-.324-.391.039-.748.257-1.026.571-.278.314-.507.727-.715 1.256-.415 1.058-.752 2.596-1.017 4.763-.056.451-.185.643-.308.732-.122.088-.308.131-.627.069-.64-.123-1.648-.723-2.577-1.58-.929-.858-1.805-1.962-2.334-3.014-.527-1.051-.674-2.007-.394-2.62 0-.001 0 0 0 0 1.516-3.13 4.54-5.267 8.366-6.5 1.915-.617 4.027-1.003 6.227-1.169z" color="#000" font-weight="400" font-family="sans-serif" white-space="normal" overflow="visible" fill="#e45743"/>
      <path style="line-height:normal;font-variant-ligatures:normal;font-variant-position:normal;font-variant-caps:normal;font-variant-numeric:normal;font-variant-alternates:normal;font-feature-settings:normal;text-indent:0;text-align:start;text-decoration-line:none;text-decoration-style:solid;text-decoration-color:#000;text-transform:none;text-orientation:mixed;shape-padding:0;isolation:auto;mix-blend-mode:normal" d="M157.389 371.78c.98.06 1.888.45 2.715 1.225 6.303 5.907 15.227 6.718 21.898 7.084 3.335.183 6.14.272 7.664.736.762.232 1.123.522 1.238.836.115.314.053.87-.493 1.78-3.158 5.264-9.145 7.08-14.428 7.56-5.284.48-9.765-.385-9.765-.385l-1.217-.234.65 1.052s2.109 3.436 2.866 8.284c.173 1.105-.03 1.914-.498 2.563-.466.649-1.233 1.155-2.264 1.498-2.063.687-5.13.687-8.349.108-3.22-.578-6.6-1.724-9.353-3.234-2.752-1.51-4.85-3.393-5.599-5.322-.817-2.107-.597-5 .381-8.041.979-3.04 2.696-6.214 4.742-8.885 2.046-2.671 4.426-4.838 6.66-5.894 1.116-.527 2.172-.793 3.152-.732z" color="#000" font-weight="400" font-family="sans-serif" white-space="normal" overflow="visible" fill="#e45743"/>
      <path d="M208.86 410.574c.683-1.303 1.105-1.757 1.325-2.002-4.337-4.567-6.812-14.434-6.984-18.565-.59 13.436 4.368 20.274 5.659 20.567z" fill="#f5ac79"/>
      <path style="line-height:normal;font-variant-ligatures:normal;font-variant-position:normal;font-variant-caps:normal;font-variant-numeric:normal;font-variant-alternates:normal;font-feature-settings:normal;text-indent:0;text-align:start;text-decoration-line:none;text-decoration-style:solid;text-decoration-color:#000;text-transform:none;text-orientation:mixed;shape-padding:0;isolation:auto;mix-blend-mode:normal" d="M222.18 423.42c-.66 1.014-1.231 1.969-2.052 3.023-1.342 1.725-2.823 3.238-3.988 3.698-1.243.393-2.781.935-4.287 1.46 3.928-2.577 6.956-5.149 10.332-8.18zM204.808 448.522c.656 5.828 2.104 10.34 4.326 13.463 2.631 3.698 6.024 5.95 9.344 7.92 3.32 1.97 6.57 3.67 9.007 6.222 2.07 2.167 3.369 5.234 3.88 9.396-3.272-5.319-5.322-7.872-7.197-9.028-2.131-1.314-4.127-1.448-8.366-4.2-6.254-4.06-9.516-7.215-10.924-11.072-1.179-3.226-.9-7.37-.07-12.7z" color="#000" font-weight="400" font-family="sans-serif" white-space="normal" overflow="visible" fill="#f5ac79"/>
      <path style="line-height:normal;font-variant-ligatures:normal;font-variant-position:normal;font-variant-caps:normal;font-variant-numeric:normal;font-variant-alternates:normal;font-feature-settings:normal;text-indent:0;text-align:start;text-decoration-line:none;text-decoration-style:solid;text-decoration-color:#000;text-transform:none;text-orientation:mixed;shape-padding:0;isolation:auto;mix-blend-mode:normal" d="M236.128 425.768c-.351.783-1.466 3.377-3.594 6.581-1.215 1.83-2.618 3.603-4.057 4.803-1.44 1.199-2.858 1.792-4.183 1.485-5-1.159-8.94.034-12.45 2.17-2.91 1.77-5.606 4.217-8.46 6.494a178.642 178.642 0 0 0 3.135-6.79c.723-1.646 1.418-3.207 2.004-4.412.294-.602.56-1.115.784-1.498.224-.383.438-.642.472-.671l.03-.026.026-.03c.236-.266.992-.705 2.022-1.117 1.03-.411 2.338-.836 3.759-1.264 2.841-.858 6.119-1.74 8.582-2.676 4.422-1.683 7.96-2.651 11.93-3.049z" color="#000" font-weight="400" font-family="sans-serif" white-space="normal" overflow="visible" fill="#e45743"/>
      <flowRoot xml:space="preserve" style="line-height:1.25" transform="translate(-3136.043 408.756)" font-style="normal" font-weight="400" font-size="40" font-family="sans-serif" letter-spacing="0" word-spacing="0" fill="#e45743" fill-opacity="1" stroke="none">
         <flowRegion fill="#e45743" fill-opacity="1">
            <path d="M-74.953-232.797h325.269v98.995H-74.953z"/>
         </flowRegion>
         <flowPara/>
      </flowRoot>
   </g>
</svg>