<svg width="297mm" height="297mm" viewBox="0 0 297 297" xmlns="http://www.w3.org/2000/svg"><path d="M88.034 19.36a1.508 1.508 0 0 0-.018 0 1.483 1.483 0 0 0-.71.242 1.483 1.483 0 0 0-.154.11 1.499 1.499 0 0 0-.04.039 1.117 1.117 0 0 0-.017.013L35.792 56.312l-.014.01a1.487 1.487 0 0 0-.201.122 1.485 1.485 0 0 0-.15.114 1.48 1.48 0 0 0-.293.377 1.483 1.483 0 0 0-.052.1c-.01.022-.018.044-.026.066l-.01.014-26.23 44.09-.004.004a1.483 1.483 0 0 0-.328.972L.062 167.954a1.483 1.483 0 0 0 .03.942l.005.018a1.468 1.468 0 0 0 .075.166l.013.027 25.612 71.292c.032.158.09.31.171.45l.014.031.004.004c.104.18.244.334.412.456l40.17 39.443.004.004c.191.25.457.432.758.521l40.126 15.491a1.483 1.483 0 0 0 1.37.061 1.47 1.47 0 0 0 .11-.052l.023-.014a1.49 1.49 0 0 0 .105-.07c.385-.265.622-.697.64-1.165l3.363-17.076.022-.1.01-.044.003-.053.004-.026.004-.026a.639.639 0 0 0 .004-.097 1.44 1.44 0 0 0 0-.131L113 252.644a1.484 1.484 0 0 0-1.576-1.476l-20.028 1.253-11.497-2.063-.044-.018-9.697-5.01-7.625-11.133-6.468-12.07a1.483 1.483 0 0 0-.57-.736l-9.534-9.049a1.485 1.485 0 0 0-.25-.258l-3.736-4.213 8.453-1.108 13.332 8.453 13.67 16.568.013.013a1.507 1.507 0 0 0 .127.131c.022.023.046.045.07.066l.013.009c.034.028.07.054.105.079l.018.009c.04.025.08.049.123.07l.004.004a1.497 1.497 0 0 0 .224.087l.035.014c.006 0 .012.003.018.004h.004c.006 0 .012.003.018.004l17.781 4.844c.383.178.825.185 1.213.018l.014-.004 14.794-3.81c.087-.009.174-.025.258-.049.383-.101.71-.352.907-.696l.004-.004a1.53 1.53 0 0 0 .135-.315l9.399-19.792a1.483 1.483 0 0 0-1.147-2.107l-16.283-2.146a1.478 1.478 0 0 0-.254-.053l-20.385-5.731-13.07-8.637-9.407-13.66-5.707-26.33v-.022l2.729-25.595 10.656-15.832c.358-.379.49-.918.35-1.42l-2.807-20.25 4.02-17.843 21.72 5.286.013.004a1.139 1.139 0 0 0 .03.014l.01.004 17.085 10.06c0 .002.003.003.004.005.385.326.91.433 1.392.285h.004l36.806-4.98h.048l36.79 4.98c.472.145.986.044 1.37-.268l17.124-10.086.048-.017 21.72-5.291 4.02 17.847-2.812 20.265v.009a1.483 1.483 0 0 0 .363 1.41l10.647 15.82 2.729 25.602-5.711 26.34-9.407 13.66-13.07 8.636-20.37 5.728h-.008l-.01.004a1.35 1.35 0 0 0-.017 0l-.023.004a1.589 1.589 0 0 0-.123.023c-.006 0-.011.003-.017.004l-.075.022h-.004l-16.279 2.146a1.483 1.483 0 0 0-1.143 2.107l9.355 19.717.385 20.462v.04l-.11 25.296v.175c.004.043.008.085.014.127a43.662 43.662 0 0 0 .035.197l.014.048 3.35 17.041c.022.526.32 1 .784 1.248h.004a1.484 1.484 0 0 0 1.458-.017l40.013-15.447.013-.004c.259-.06.496-.189.688-.372a1.446 1.446 0 0 0 .105-.105c.021-.025.042-.05.061-.075l.014-.018 40.17-39.443a1.484 1.484 0 0 0 .38-.403c.104-.157.177-.332.215-.516v-.004l25.63-71.353c.171-.333.21-.718.11-1.078l-8.427-65.786v-.004a1.55 1.55 0 0 0-.013-.245 1.483 1.483 0 0 0-.285-.705l-.004-.004a1.508 1.508 0 0 0-.04-.049c0-.003-.003-.006-.004-.009l-26.247-44.116a1.483 1.483 0 0 0-.692-.74l-51.29-36.53a1.483 1.483 0 0 0-.924-.426 1.513 1.513 0 0 0-.052-.01L148.69.003zm60.658-15.675l35.751 38.44-53.361-8.97zm-3.793.131l-17.006 28.656-34.227-11.339zm8.711.346l52.573 17.611-17.173 20.505zM89.825 22.986l36.106 11.961-31.095 38.085zm118.53.82L223.72 67.12l-32.387-22.98zm3.504.99l45.618 32.491-29.913 11.808zm-126.71.004L69.4 69.096 39.535 57.288zm2.155 2.785l4.725 47.226-19.796-4.822zm43.55 8.54l55.079 9.255-36.903 34.109zm-2.237 2.344l17.75 42.334-33 4.467zm-4.043 2.833l-14.186 43.542-14.43-8.5zm62.8 6.784l-2.986 37.293-32.584-4.41zm5.274.627L223.17 70.37l-19.06 4.642zm-2.484 1.725l11.2 25.695-13.915 8.194zm-153.48 9.727l26.361 29.523-24.627 5.076a.855.855 0 0 0-.022.005h-.014a1.477 1.477 0 0 0-.113.013 1.498 1.498 0 0 0-.145.027 1.483 1.483 0 0 0-.197.056l-24.951 5.142zm5.033 1.178L68.555 71.95 65.06 87.48zm213.56 0l-23.378 26.142-3.495-15.535zm5.85.18l22.49 37.81-29.252-10.569zm-3.455 1.594l-6.24 25.152-16.898.723zm-9.175 28.25l-18.26 16.186 2.147-15.504zm6.162.656l29.151 10.533-23.037 16.03zm-190.04.372l2.264 16.35-23.908-11.892zm184.68 2.221l-10.498 29.773-8.628-12.815zm3.004.394l5.764 25.051-16.459 5.278zm-216.56 3.333l-31.69 61.819 7.27-56.786zm2.843.95l17.173 27.973-50.112 36.29zm3.854.605l24.127 12-8.768 13.025zm242.14 5.742l-18.968 73.517-4.248-57.364zm1.945 4.34l7.384 57.67-26.725 17.283zm-29.768 13.62l-13.775 25.377-2.159-20.27zm1.962 2.602l4.182 56.493-19.16-28.897zm-202.8 4.616l-2.326 21.89L8.947 164.83zm-5.571 25.844l-19.603 21.132-24.421-9.18zm3.762.307l4.809 22.2-24.487-.99zm188.61.648l18.7 28.2-23.474-6.162zM3.99 170.905l25.616 9.63-3.355 52.342zm288.64 1.112l-22.043 61.35-4.218-44.37zM34.26 181.14l24.35.986-8.22 20.133zm202.57 1.288l20.992 5.514-28.135 4.861zm-175.71 1.406l7.23 10.494-14.658 7.69zm-26.343 2.873l13.27 17.374-7.95 1.046zm-2.676 1.41l5.37 18.6-8.02 22.787zm231.38 1.857l4.38 46.034-38.402-40.152zm-37.24 6.81l33.876 35.422-44.44-28.433zm-154.88.42l9.762 6.456-13.918 7.437zm-3.28.614l-4.179 13.967-10.165-6.443zm17.075 7.835l16.538 4.647-20.85 16.813zm126.57.026l5.418 37.713-22.634-32.878zm-129.79.902l-4.204 20.908-10.682-12.95zm132.94.206l50.896 32.558-45.01 8.361zm-175.3 2.847l3.338 3.758-10.14 15.565zm67.398 1.791l12.18 1.608-7.003 14.75zm83.012 0l-5.176 16.354-7.003-14.746zm2.62 1.564l22.353 32.462-28.082-14.378zm-90.646.898l-6.333 20.059-13.862-3.775zm2.895.683l5.133 16.205-11.155 2.873zm-59.813.985l7.218 6.854-19.993 12.762zm9.062 9.193l4.866 9.07-25.003 3.789zm132.51 9.526l30.228 15.478-29.98 25.148.097-22.165v-.004a1.492 1.492 0 0 0 0-.105l-.004-.118zm-127.14 2.461l-2.137 13.406-24.324-9.39zm2.663 2.142l5.496 8.028-1.02 24.846-6.579-19.691zm203.07 3.591l-35.31 34.67-8.474-26.537zm-231.78 1.625l23.895 9.223 7.077 21.184zm37.096 4.765l6.972 3.604-7.905 19.117zm148.24 3.149l8.404 26.304-37.914-1.542zm-138.46 1.436l8.102 1.454-16.016 17.672zm29.733.78l.087 19.774-15.793-18.789zm-18.775 1.945l17.282 20.567-37.306 1.52zm18.543 23.484l-2.725 13.822-32.116-12.4zm77.375 0l34.844 1.423-32.12 12.403z" style="font-feature-settings:normal;font-variant-alternates:normal;font-variant-caps:normal;font-variant-ligatures:normal;font-variant-numeric:normal;font-variant-position:normal;isolation:auto;mix-blend-mode:normal;shape-padding:0;text-decoration-color:#000;text-decoration-line:none;text-decoration-style:solid;text-indent:0;text-orientation:mixed;text-transform:none" color="#000" fill="#fff" white-space="normal"/></svg>