<?xml version="1.0" encoding="UTF-8"?>
<!-- Created with Inkscape (http://www.inkscape.org/) -->
<svg width="297mm" height="297mm" version="1.1" viewBox="0 0 297 297" xmlns="http://www.w3.org/2000/svg" xmlns:cc="http://creativecommons.org/ns#" xmlns:dc="http://purl.org/dc/elements/1.1/" xmlns:rdf="http://www.w3.org/1999/02/22-rdf-syntax-ns#"> 
 <title>github low poly</title>
 <metadata>
  <rdf:RDF>
   <cc:Work rdf:about="">
    <dc:format>image/svg+xml</dc:format>
    <dc:type rdf:resource="http://purl.org/dc/dcmitype/StillImage"/>
    <dc:title>github low poly</dc:title>
    <dc:creator>
     <cc:Agent>
      <dc:title>Kevyan Uehara de Moraes</dc:title>
     </cc:Agent>
    </dc:creator>
    <cc:license rdf:resource="http://creativecommons.org/licenses/by-nc-sa/4.0/"/>
    <dc:rights>
     <cc:Agent>
      <dc:title>Github</dc:title>
     </cc:Agent>
    </dc:rights>
   </cc:Work>
   <cc:License rdf:about="http://creativecommons.org/licenses/by-nc-sa/4.0/">
    <cc:permits rdf:resource="http://creativecommons.org/ns#Reproduction"/>
    <cc:permits rdf:resource="http://creativecommons.org/ns#Distribution"/>
    <cc:requires rdf:resource="http://creativecommons.org/ns#Notice"/>
    <cc:requires rdf:resource="http://creativecommons.org/ns#Attribution"/>
    <cc:prohibits rdf:resource="http://creativecommons.org/ns#CommercialUse"/>
    <cc:permits rdf:resource="http://creativecommons.org/ns#DerivativeWorks"/>
    <cc:requires rdf:resource="http://creativecommons.org/ns#ShareAlike"/>
   </cc:License>
  </rdf:RDF>
 </metadata>
 
 
 <g transform="translate(0 5.2283e-6)">
  <path  d="m88.034 19.36c-0.0045-2e-5 -9e-3 -2e-5 -0.01345 0-0.0015-2e-6 -3e-3 -2e-6 -0.0045 0-0.04848 0.0036-0.09675 0.0096-0.14463 0.01794-0.09728 0.01677-0.19264 0.04321-0.28467 0.07893-0.04629 0.01812-0.09165 0.03855-0.13589 0.06122-6e-3 3e-3 -0.01198 6e-3 -0.01794 9e-3 -0.0374 0.02032-0.07391 0.04224-0.10943 0.0657-6e-3 3e-3 -0.01198 6e-3 -0.01794 9e-3 -0.02686 0.01665-0.05319 0.03414-0.07893 0.05247-0.02541 0.0182-0.05024 0.03719-0.07445 0.05696-0.0134 0.01291-0.02656 0.02607-0.03947 0.03947-6e-3 0.0044-0.01199 0.0089-0.01794 0.01345l-51.303 36.548-0.01345 9e-3c-0.02667 0.01378-0.05292 0.02836-0.07871 0.04373-0.04216 0.02428-0.08309 0.05062-0.12266 0.07893-0.03306 0.02202-0.06523 0.04536-0.09642 0.06996-0.01036 0.0086-0.0206 0.01735-0.03072 0.02624-0.0075 0.0059-0.015 0.01189-0.02242 0.01794-0.02722 0.02531-0.05347 0.05164-0.07871 0.07893-0.01655 0.01858-0.03262 0.03757-0.04821 0.05696-0.02442 0.02833-0.04775 0.05758-0.06996 0.08768-0.0248 0.03405-0.04814 0.06913-0.06996 0.10517-9e-3 0.01591-0.01779 0.03198-0.02624 0.04821-0.01877 0.03288-0.03627 0.06646-0.05247 0.10068-0.0093 0.02169-0.01802 0.0436-0.02624 0.0657-3e-3 0.0045-6e-3 0.0089-9e-3 0.01345l-26.23 44.09c-0.0015 1e-3 -0.00299 3e-3 -0.00448 4e-3 -0.21971 0.27238-0.33605 0.61366-0.32846 0.96352-9.1e-6 3e-3 -9.1e-6 6e-3 0 9e-3l-8.422 65.773c-0.071939 0.24191-0.08097 0.49817-0.026236 0.74454 0.0027706 0.0146 0.0057608 0.0292 0.0089695 0.0437 0.0042993 0.0132 0.0087845 0.0264 0.013454 0.0395 0.01013 0.0384 0.0218 0.0764 0.034981 0.11391 0.0014578 6e-3 0.0029527 0.0119 0.0044847 0.0179 0.010727 0.0296 0.022393 0.0589 0.034981 0.0877 0.01237 0.0267 0.025531 0.053 0.039466 0.0789 0.004398 9e-3 0.008883 0.0175 0.013454 0.0262l25.612 71.292c0.03196 0.15868 0.08968 0.31106 0.17087 0.4511 0.0044 0.0103 0.0089 0.0205 0.01345 0.0307 0.0015 1e-3 3e-3 3e-3 0.0045 4e-3 0.10396 0.17888 0.24419 0.33404 0.41168 0.4555l40.17 39.443c0.0015 1e-3 3e-3 3e-3 0.0045 4e-3 0.19098 0.2496 0.4563 0.4321 0.7577 0.52117l40.126 15.491c0.37348 0.21662 0.82281 0.25976 1.2307 0.11817 0.0477-0.0166 0.0944-0.0356 0.14014-0.0569 0.0372-0.016 0.0737-0.0335 0.10943-0.0525 8e-3 -4e-3 0.015-9e-3 0.0224-0.0135 0.036-0.0218 0.0711-0.0452 0.10516-0.07 0.3849-0.26579 0.62189-0.69756 0.63944-1.165l3.3636-17.076 0.0224-0.10068c3e-3 -0.0145 6e-3 -0.0291 9e-3 -0.0437 2e-3 -0.0175 3e-3 -0.035 4e-3 -0.0525 1e-3 -9e-3 3e-3 -0.0174 4e-3 -0.0262 1e-3 -9e-3 3e-3 -0.0174 4e-3 -0.0262 2e-3 -0.0145 3e-3 -0.0291 4e-3 -0.0437 1.1e-4 -0.0102 1.1e-4 -0.0205 0-0.0307 6e-5 -7e-3 6e-5 -0.0149 0-0.0224 2e-3 -0.0438 2e-3 -0.0876 0-0.1314l-0.11391-25.362c-3e-3 -0.85415-0.72419-1.5296-1.5767-1.4759l-20.028 1.2526-11.497-2.0628c-0.01448-6e-3 -0.02906-0.0122-0.04373-0.0179l-9.6965-5.0103-7.6249-11.133-6.4687-12.07c-0.10597-0.29997-0.30558-0.55793-0.56936-0.73579l-9.5345-9.0483c-0.07244-0.0959-0.15627-0.18271-0.24964-0.25841l-3.7358-4.2132 8.4527-1.108 13.332 8.4527 13.669 16.568c0.0045 5e-3 0.0089 9e-3 0.01345 0.0134 0.03054 0.035 0.06272 0.0686 0.09642 0.10068 0.01009 0.0104 0.02033 0.0206 0.03072 0.0307 0.02261 0.0227 0.04594 0.0446 0.06996 0.0657 0.0045 3e-3 0.0089 6e-3 0.01345 9e-3 0.03387 0.0278 0.06896 0.0542 0.10517 0.0789 6e-3 3e-3 0.01194 6e-3 0.01794 9e-3 0.03975 0.0253 0.08068 0.0486 0.12266 0.07 0.0015 1e-3 3e-3 3e-3 0.0045 4e-3 0.03861 0.0192 0.07804 0.0367 0.11817 0.0525 0.03461 0.013 0.06969 0.0247 0.10517 0.035 0.0116 5e-3 0.02326 9e-3 0.03498 0.0135 6e-3 1e-3 0.01195 3e-3 0.01794 4e-3h0.0045c6e-3 1e-3 0.01195 3e-3 0.01794 4e-3l17.781 4.8439c0.38335 0.17864 0.82472 0.18515 1.2132 0.0179 0.0045-1e-3 9e-3 -3e-3 0.01346-4e-3l14.794-3.8103c0.0874-8e-3 0.17386-0.0245 0.25839-0.0482 0.38309-0.10168 0.70956-0.35244 0.90659-0.69635l4e-3 -4e-3c0.0154-0.0273 0.03-0.055 0.0437-0.0832 0.0371-0.0746 0.0678-0.1523 0.0919-0.23211l9.3987-19.792c0.43155-0.90966-0.14917-1.9758-1.1475-2.1066l-16.283-2.146c-0.083-0.0249-0.16797-0.0425-0.25401-0.0525l-20.385-5.7316-13.069-8.6366-9.4074-13.66-5.7067-26.33v-0.0225l2.7285-25.595 10.656-15.832c0.35788-0.37864 0.49088-0.91729 0.35037-1.419l-2.8073-20.251 4.0205-17.843 21.719 5.2862 0.01345 0.0045c0.0087 0.0046 0.01745 0.0091 0.02624 0.01346 0.0015 2e-6 3e-3 2e-6 0.0045 0l9e-3 0.0045 17.085 10.06c1e-3 0.0015 3e-3 3e-3 4e-3 0.0045 0.38558 0.32563 0.91027 0.43288 1.3927 0.28467h4e-3l36.806-4.9796c0.0146 2.15e-4 0.0291 2.15e-4 0.0437 0h4e-3l36.789 4.9796c0.47291 0.14508 0.98701 0.04489 1.3708-0.26716l17.124-10.086c0.0162-0.0057 0.0322-0.01168 0.0482-0.01794l21.719-5.2906 4.0205 17.847-2.8117 20.265c-1e-5 3e-3 -1e-5 6e-3 0 9e-3 -0.1338 0.5013 4e-3 1.0361 0.36351 1.4102l10.647 15.819 2.7285 25.603-5.711 26.339-9.4074 13.66-13.069 8.6366-20.37 5.7286h-9e-3c-3e-3 1e-3 -6e-3 3e-3 -9e-3 4e-3 -3e-3 -1e-5 -6e-3 -1e-5 -9e-3 0-3e-3 -1e-5 -6e-3 -1e-5 -9e-3 0-7e-3 1e-3 -0.0149 3e-3 -0.0224 4e-3 -0.0412 6e-3 -0.0821 0.0132-0.12266 0.0224-6e-3 1e-3 -0.0119 3e-3 -0.0179 4e-3 -0.025 7e-3 -0.0498 0.0143-0.0744 0.0224h-4e-3l-16.279 2.146c-0.99645 0.13342-1.5744 1.1985-1.1431 2.1066l9.3549 19.717 0.3854 20.462v0.0395l-0.10943 25.297v0.10917c-4.9e-4 0.0219-4.9e-4 0.0438 0 0.0657 3e-3 0.0425 7e-3 0.0848 0.0135 0.12692 6e-3 0.05 0.0149 0.0997 0.0262 0.14889 3e-3 0.0161 6e-3 0.0322 9e-3 0.0482 4e-3 0.0161 9e-3 0.0322 0.0135 0.0482l3.3504 17.041c0.0215 0.52564 0.31979 1.0006 0.78396 1.2482h4e-3c0.0865 0.0469 0.17748 0.0851 0.27155 0.11392 0.39656 0.1244 0.82713 0.0767 1.1869-0.13141l40.012-15.447 0.0135-4e-3c0.25837-0.0604 0.49582-0.18892 0.6876-0.37227 0.024-0.0211 0.0474-0.043 0.07-0.0657 0.0119-0.013 0.0236-0.0261 0.035-0.0395 0.0212-0.0242 0.0416-0.049 0.0612-0.0745 5e-3 -6e-3 9e-3 -0.0119 0.0135-0.0179l40.17-39.443c0.0224-0.0169 0.0443-0.0344 0.0657-0.0525 0.10304-0.0838 0.19437-0.18099 0.27153-0.28907 0.0151-0.02 0.0297-0.0404 0.0437-0.0612 0.10367-0.15709 0.1765-0.33248 0.2146-0.5168v-4e-3l25.63-71.353c0.17095-0.33251 0.21003-0.71731 0.10943-1.0774l-8.4264-65.786v-4e-3c1e-3 -0.0321 1e-3 -0.0643 0-0.0964-2e-3 -0.0498-7e-3 -0.0995-0.0135-0.14889-4e-3 -0.0264-8e-3 -0.0527-0.0134-0.0789-0.0406-0.22704-0.13358-0.44148-0.27155-0.6263l-4e-3 -4e-3c-0.0128-0.0163-0.026-0.0324-0.0395-0.0482-1e-3 -3e-3 -3e-3 -6e-3 -4e-3 -9e-3l-26.247-44.116c-0.13663-0.32029-0.38159-0.58231-0.69197-0.74016l-51.29-36.531c-0.19458-0.1925-0.43862-0.3274-0.70512-0.38979-0.0348-0.0087-0.0699-0.01622-0.10517-0.02242-0.0378-6e-3 -0.0758-0.01044-0.11391-0.01346-0.0174-0.0033-0.0349-0.0063-0.0525-9e-3l-60.275-19.354zm60.658-15.675 35.751 38.44-53.361-8.9695zm-3.7928 0.1314-17.006 28.656-34.227-11.339zm8.7111 0.346 52.573 17.611-17.173 20.505zm-63.785 18.824 36.106 11.961-31.095 38.085zm118.53 0.81898 15.364 43.315-32.387-22.98zm3.5037 0.98981 45.618 32.492-29.913 11.808zm-126.71 0.004485-15.749 44.296-29.865-11.808zm2.1548 2.7855 4.7256 47.226-19.796-4.822zm43.551 8.5403 55.078 9.2542-36.903 34.109zm-2.238 2.3431 17.751 42.334-33.001 4.4672zm-4.0424 2.8336-14.186 43.542-14.431-8.5009zm62.8 6.7841-2.9869 37.293-32.584-4.4103zm5.2731 0.62627 30.522 21.657-19.06 4.6424zm-2.4832 1.7256 11.199 25.695-13.914 8.1943zm-153.48 9.7272 26.361 29.523-24.627 5.076c-0.0075 0.0014-0.01496 0.0029-0.02242 0.0045-0.0045-2e-5 -9e-3 -2e-5 -0.01345 0-0.03813 3e-3 -0.07613 0.0075-0.11391 0.01345-0.04854 0.0064-0.09673 0.01511-0.14441 0.02623-0.06694 0.01441-0.1328 0.03345-0.1971 0.05696l-24.951 5.1417zm5.0322 1.1781 26.838 10.607-3.4949 15.53zm213.56 0-23.378 26.142-3.4949-15.535zm5.8512 0.17961 22.489 37.809-29.252-10.568zm-3.4556 1.5942-6.241 25.152-16.897 0.72265zm-9.1753 28.249-18.259 16.187 2.146-15.504zm6.1622 0.65695 29.151 10.533-23.037 16.029zm-190.04 0.37226 2.2643 16.349-23.908-11.891zm184.68 2.2205-10.498 29.773-8.6279-12.815zm3.0044 0.39416 5.7636 25.051-16.459 5.2775zm-216.56 3.3329-31.691 61.819 7.2702-56.786zm2.8424 0.95038 17.173 27.973-50.112 36.29zm3.8541 0.60439 24.127 12-8.768 13.025zm242.14 5.7417-18.968 73.517-4.2482-57.364zm1.9446 4.3402 7.384 57.671-26.725 17.282zm-29.768 13.621-13.774 25.376-2.1592-20.269zm1.9621 2.6015 4.1826 56.493-19.161-28.897zm-202.8 4.6161-2.3256 21.889-44.646 12.123zm-5.5709 25.844-19.603 21.132-24.421-9.1797zm3.7621 0.30657 4.8088 22.2-24.487-0.98981zm188.61 0.64818 18.701 28.2-23.475-6.1621zm-238.73 13.288 25.616 9.6308-3.3548 52.341zm288.64 1.1124-22.043 61.35-4.2176-44.37zm-258.37 9.1228 24.351 0.98541-8.2206 20.133zm202.57 1.2876 20.992 5.514-28.135 4.8614zm-175.71 1.4059 7.2308 10.494-14.659 7.6906zm-26.343 2.873 13.27 17.374-7.9491 1.0467zm-2.676 1.4102 5.3694 18.6-8.0191 22.787zm231.38 1.857 4.3796 46.034-38.401-40.152zm-37.24 6.8103 33.876 35.422-44.44-28.433zm-154.88 0.42044 9.7622 6.4556-13.918 7.4366zm-3.2803 0.61316-4.1782 13.967-10.165-6.4424zm17.076 7.8352 16.538 4.6468-20.851 16.813zm126.57 0.0262 5.4176 37.713-22.634-32.878zm-129.79 0.90221-4.2044 20.908-10.682-12.951zm132.94 0.20585 50.896 32.558-45.01 8.3607zm-175.3 2.8468 3.3373 3.7577-10.139 15.565zm67.398 1.7913 12.18 1.6073-7.003 14.751zm83.012 0-5.1767 16.354-7.003-14.746zm2.619 1.5635 22.354 32.462-28.082-14.378zm-90.645 0.89783-6.333 20.059-13.862-3.7752zm2.8949 0.68323 5.1329 16.205-11.155 2.873zm-59.813 0.98541 7.2176 6.8541-19.993 12.762zm9.0615 9.1928 4.8658 9.0702-25.003 3.7884zm132.51 9.5257 30.228 15.478-29.979 25.148 0.0964-22.165v-4e-3c6.2e-4 -0.0248 6.2e-4 -0.0497 0-0.0745 1.1e-4 -0.0102 1.1e-4 -0.0205 0-0.0307l-4e-3 -0.11817zm-127.14 2.4613-2.1373 13.406-24.324-9.3899zm2.6628 2.1416 5.4964 8.0279-1.0205 24.846-6.5782-19.691zm203.07 3.5913-35.309 34.669-8.4746-26.536zm-231.78 1.6248 23.895 9.2235 7.0775 21.184zm37.096 4.765 6.9724 3.6045-7.9052 19.117zm148.24 3.149 8.4045 26.304-37.914-1.5416zm-138.46 1.4365 8.1023 1.454-16.016 17.672zm29.733 0.77957 0.0877 19.774-15.793-18.789zm-18.775 1.9446 17.282 20.567-37.306 1.5197zm18.543 23.484-2.7242 13.822-32.116-12.399zm77.375 0 34.844 1.4234-32.12 12.403z" style="color-rendering:auto;color:#000000;dominant-baseline:auto;fill:#fff;font-feature-settings:normal;font-variant-alternates:normal;font-variant-caps:normal;font-variant-ligatures:normal;font-variant-numeric:normal;font-variant-position:normal;image-rendering:auto;isolation:auto;mix-blend-mode:normal;shape-padding:0;shape-rendering:auto;solid-color:#000000;text-decoration-color:#000000;text-decoration-line:none;text-decoration-style:solid;text-indent:0;text-orientation:mixed;text-transform:none;white-space:normal"/>
 </g>
</svg>
