<svg xmlns="http://www.w3.org/2000/svg" width="297mm" height="297mm" viewBox="0 0 297 297">
   <g transform="translate(-43.456 -280.147)">
      <flowRoot xml:space="preserve" style="line-height:1.25" transform="translate(-3136.043 408.756)" font-style="normal" font-weight="400" font-size="40" font-family="sans-serif" letter-spacing="0" word-spacing="0" fill="#e45743" fill-opacity="1" stroke="none">
         <flowRegion fill="#e45743" fill-opacity="1">
            <path d="M-74.953-232.797h325.269v98.995H-74.953z"/>
         </flowRegion>
         <flowPara/>
      </flowRoot>
      <path d="M161.23 452.349l-8.322-3.41-62.576 5.875zm-8.322-3.41l8.322 3.41 38.67-3.61zm46.993-.2l-38.67 3.61 67.13.017zm0 0l28.46 3.627 31.697-3.833zm28.46 3.627l31.697-3.833 28.111 3.015zm31.697-3.833l28.111 3.015 4.19-3.526zm28.111 3.015l4.19-3.526 9.742 4.786zm4.19-3.526l9.742 4.786-3.256-6.412zm6.486-1.626l3.256 6.412 6.46-4.17zm3.256 6.412l6.46-4.17 1.76 2.846zm-3.256-6.412l9.715 2.242-7.033-3.85zm-78.616 34.861l7.197 9.028-2.368-7.433zm4.83 1.595l-4.83-1.595-.833-3.683zm-4.83-1.595l-8.365-4.2 7.532.517zm-.833-3.683l-7.532-.517-.03-4.082zM204.7 471.56l7.164 5.497-.03-4.082zm7.134 1.415l-7.134-1.415-.26-5.978zm-11.368-8.683l3.974 1.29-3.57-12.298zm4.234 7.268l-4.234-7.268 3.974 1.29zm-1.69-51.193l2.372 1.17-5.57 10.336zm-3.198 11.506l5.57-10.335-3.308 14.23zm0 0l2.262 3.895-6.241 7.32zm2.262 3.895l-6.241 7.32 2.947 1.117zm-6.241 7.32l2.947 1.117-10.445 14.037zm25.01-10.978l11.93-3.048-3.594 6.581zm8.336 3.533l-8.336-3.533.095 9.82zm-12.9 5.86l4.66.428-.096-9.82zm4.564-9.393l-4.563 9.393-9.826-4.305zm-4.563 9.393l-9.826-4.305-4.321 11.68zm10.814-36.939l1.979 7.622-11.986 3.14zm-10.007 10.762l11.986-3.14-7.51 7.147zm11.986-3.14l-1.979-7.622 9.564 9.274zm-1.979-7.622l9.564 9.274 2.602-11.775zm9.564 9.274l2.602-11.775 8.525 6.319zm0 0l11.127-5.456.008 8.217zm11.135 2.76l-11.135-2.76 13.545 12.76zm2.41 10l-13.545-12.76 5.4 10.228zm-21.13-14.412l7.585 1.652-4.669 8.887zm12.984 11.88l-5.399-10.228-4.669 8.887zm-10.068-1.341l-2.916-10.54-7.51 7.148zm-14.902-7.399l4.476 4.007-6.18 3.357zm4.476 4.007l10.426 3.392-10.375 2.072zm.05 5.464l10.376-2.072-11.659 5.237zm-3.262.239l-2.995 5.237-6.767 2.385zm-8.952-11.462l8.733-4.845-5.686 7.418zm3.047 2.573l-3.047-2.573-1.051 5.652zm-4.098 3.079l1.051-5.652-10.389 1.915zm0 0l4.098-3.079-.683 6.378zm1.824-14.18l-1.756 5.56-2.638.712zm-11.29-6.248l.932-8.587 1.28 6.558zm2.213-2.03l-2.214 2.03 3.798 3.922zm-2.214 2.03l3.798 3.922-1.638 2.553zm3.798 3.922l-1.638 2.553 2.396 4.51zm.758 7.064l-.758-7.064 2.413 4.013zm-9.006 26.323l-3.358-6.525 4.675 2.346zm1.317-4.179l-4.675-2.346-.435-4.403zm-4.675-2.346l-.435-4.403-6.148-2.672zm-9.266-12.516l8.83 8.113-6.147-2.672zm2.683 5.44l-2.683-5.44-1.745 1.55zm-4.428-3.89l1.745-1.55-6.547-1.724zm17.204 8.102l.756-2.678-14.002-11.073zm-13.246-13.751l14.002 11.073-11.269-11.7zm0 0l2.733-.626-5.894-5.505zm-3.161-6.131l5.894 5.505-7-10.419zm7.965-2.79l.163 6.255-1.644-1.816zm24.142 3.01l.894-6.155 10.933-.632zm.894-6.155l-3.535-12.654 14.468 12.022zm10.933-.632l-14.468-12.022 21.578 3.834zm-14.468-12.022l21.578 3.834-9.728-10.944zm0 0l11.85-7.11-13.533-3.009zm-14.353 4.227l-5.551-7.399 6.876 1.904zm1.325-5.495l-6.876-1.904 8.616.077zm1.74-1.827l-8.616-.077 18.22-6.947zm-8.616-.077l18.22-6.947-12.689 1.602zm8.616.077l9.605-7.024-5.746 11.675zm3.859 4.651l4.34 12.758 3.09-14.314zm0 0l7.43-1.556-1.684-10.119zm4.34 12.758l3.09-14.314 3.534 12.654zm-38.335 3.674l.371 7.34-10.584 4.91zm-10.213 12.25l10.584-4.91-1.687 7.671zm10.584-4.91l-1.687 7.671 7.822-.386zm-22.626-.058l6.366-5.79 5.676 10.758zm22.255-7.282l-10.213 12.25-5.676-10.759zm.371 7.34l-.371-7.34 5.615 4.664zm5.244-2.676l-5.615-4.664 6.368-1.766zm-21.504-3.173l15.889-1.49-7.16-5.57zm8.73-7.06l7.159 5.57 1.44-9.069zm12.774 10.233l.753-6.43 5.175 8.671zm-4.174-13.732l-1.441 9.068 6.368-1.766zm-8.6 3.498l3.522-5.519 5.078 2.021zm8.6-3.498l4.927 7.302 1.76-7.91zm17.735-8.2l-7.428 6.885 7.761 4.857zm-7.428 6.885l7.761 4.857-3.062 2.68zm7.428-6.886l-7.428 6.886 2.117-9.581zm3.675 6.277l-3.675-6.277 3.178 13.68zm-3.342 5.466l-.333-11.743 3.178 13.68zm2.845 1.938l.497-7.404 1.148 12.597zm-23.069-13.09l12.463 6.295 2.117-9.581zm12.463 6.295l-12.463-6.295 8.844 7.002zm-10.307 1.315l6.688-.608-8.844-7.002zm-5.078-2.02l5.078 2.02-8.808-8.981zm-3.73-6.961l8.808 8.981-2.156-7.61zm37.787 102.559l-2.99-12.078 2.907-1.6zm-2.99-12.078l2.907-1.6-6.437-4.226zm-3.53-5.826l6.437 4.226-1.927-7.297zm3.123-7.793l-4.573 2.643 4.96-11.866zm-4.573 2.643l4.96-11.866-12.255 18.064zm4.96-11.866l-12.255 18.064 3.34-8.641zm-12.255 18.064l3.34-8.641-8.353 8.263zm0 0l-5.013-.378-1.653 6.503zm-5.013-.378l-1.653 6.503-9.055 3.947zm-1.653 6.503l-9.055 3.947 3.044 1.028zm-9.055 3.947l3.044 1.028-13.926 5.487zm-21.294-86.932l-10.55-4.526 13.345-1.875zm2.795-6.401l-13.345 1.875 8.769-12.13zm-2.795 6.401l2.795-6.401 7.209 6.895zm-10.55-4.526l8.769-12.13-11.551 5.374zm11.65-19.673l-12.022 3.58 9.141 3.963zm-14.432 12.917l11.551-5.374-9.14-3.964zm11.551-5.374l4.576 10.255 6.372-6.52zm2.881-7.543l-2.881 7.543 11.78-2.542zm-12.022 3.58l12.022-3.58-4.12-5.29zm12.022-3.58l-4.12-5.29 7.373-.79zm8.9 5l-11.781 2.543 11.031 3.753zm-.75 6.296l-6.455 6.502 9.971 2.834zm.754 13.397l-7.209-6.895 9.971 2.834zm-8.904-24.693l8.9 5 3.966-5.791zm12.866-.791l-12.866.791 3.253-6.08zm-3.967 5.792l-.832 6.276 11.064.638zm3.967-5.792l-3.967 5.792 15.086.339zm6.265 12.706l-10.232-6.914 15.086.339zm4.854-6.575l-4.854 6.575 10.599-3.465zm-11.119-6.131l11.119 6.13 1.165-4.336zm20.55 3.907l-9.431 2.224 5.745 3.11zm-8.266-2.113l-1.165 4.337 9.432-2.224z" fill="none" stroke="#fff" stroke-width=".529" stroke-miterlimit="2"/>
   </g>
</svg>