<svg xmlns="http://www.w3.org/2000/svg" width="231.628" height="108.431" viewBox="0 0 61.285 28.689">
   <path d="M41.249 6.945v9.412l-.033.324q-.032.552.065.714.195.227.909.033.454-.163.584-.422.097-.195.065-.65v-.454h5.387v10.126q-.032.324-.26.422-.324.162-1.135.162-.682-.032-1.493-.097-.487-.033-1.526-.098l-.519-.032-.032.357q1.363.292 2.077.519.876.292.973.552l.26.876q1.623-.227 2.369-.714.779-.552.876-1.623v-9.8q.552-.098.682-.228.13-.162-.162-.422h4.77l-.032.39q-.033.519.065.649.13.227.681.13.617-.228.78-.455.129-.162.096-.649v-8.6h.033q.746 0 .973-.162.422-.227-.519-.909L55.755 5.29l-1.038.909h-6.945l2.11-3.376q.875 0 .973-.227.097-.162-.292-.39H60.59q.487 0 .649-.161.162-.163-.26-.455L58.87 0l-1.59 1.655H37.42L35.666.585q.714 10.936.228 16.615-.552 6.329-2.986 11.035l.357.227q2.823-4.511 3.732-10.742.779-5.485.422-15.513h10.71l-1.234 3.992h-3.991l-1.753-.942zm1.59-.227h12.267v3.992H42.84zm0 4.51h12.267v4.155H42.84zm-6.231 15.546l.26.325q2.596-1.655 4.413-3.148 2.142-1.785 4.122-4.057 1.07-.097 1.103-.357 0-.195-.52-.454l-1.752-.747q-1.59 2.564-3.44 4.609-1.85 2.044-4.186 3.83zm15.026-7.886l-.098.325q2.759 1.492 4.966 3.537 1.59 1.428 2.369 2.661.714.844 1.2.65.487-.228.293-1.364-.552-1.59-2.532-2.953-2.077-1.396-6.198-2.856zm-29.37-6.718h-8.536V2.012q1.785-.292 1.752-.552 0-.162-.973-.454L14.182.91 11.878.357l.195 2.629v22.523H3.018L0 25.444l.39.714 3.115-.13H28.17q.519 0 .649-.162.195-.195-.227-.487l-2.467-1.883-1.623 2.013H13.695v-12.82h11.878q.487 0 .65-.194.162-.163-.26-.455l-2.142-1.557z" style="-inkscape-font-specification:'Batang, Normal';font-variant-ligatures:normal;font-variant-caps:normal;font-variant-numeric:normal;font-feature-settings:normal;text-align:start" font-family="Batang" aria-label="上原" font-weight="400" font-size="40" letter-spacing="0" word-spacing="0" fill="#d4aa00"/>
</svg>