<svg xmlns="http://www.w3.org/2000/svg" width="297mm" height="297mm" viewBox="0 0 297 297">
   <g transform="translate(-43.456 -280.147)">
      <g fill="#fff">
         <path d="M81.872 454.805a3479.599 3479.599 0 0 1 197.837-3.266s12.926 1.213 19.399 1.034c.983-.027 2.933-.32 2.933-.32s-.397-1.566-1.94-2.906c-2.027-1.759-4.845-3.804-7.034-3.85-1.042-.022-1.754 1.134-2.682 1.61-.834.426-1.676.874-2.583 1.11-1.823.473-3.739.52-5.621.575-52.93 1.548-93.029.207-139.495 2.059-20.298.81-60.814 3.954-60.814 3.954z" paint-order="fill markers stroke"/>
         <path d="M202.981 460.062c3.07 6.958 2.576 14.914 2.265 22.119-1.024-6.705-2.35-13.918-7.664-18.879.458-.407 1.075-1.2 2.204-1.798a30.011 30.011 0 0 1 3.195-1.442zM186.276 402.64c4.351 9.915 12.553 17.256 19.498 23.452-.275 1.119-.516 1.749-.756 2.68-.747-.594-1.38-1.185-1.959-1.697a92.831 92.831 0 0 1-6.049-5.889c-4.47-4.767-9.163-10.882-10.34-15.822-.23-.963-.256-1.854-.394-2.723z" style="line-height:normal;font-variant-ligatures:normal;font-variant-position:normal;font-variant-caps:normal;font-variant-numeric:normal;font-variant-alternates:normal;font-feature-settings:normal;text-indent:0;text-align:start;text-decoration-line:none;text-decoration-style:solid;text-decoration-color:#000;text-transform:none;text-orientation:mixed;shape-padding:0;isolation:auto;mix-blend-mode:normal" color="#000" font-weight="400" font-family="sans-serif" white-space="normal" overflow="visible"/>
         <path d="M193.052 411.417c.925-.885 1.502-2.413 1.802-5.531.36 2.88.712 5.172-.29 7.262-1.12-1.29-.62-.697-1.512-1.73z"/>
         <path d="M208.578 417.212l-.046.203a188.092 188.092 0 0 1-3.07 11.83c-2.422 8.194-6.362 18.272-11.795 28.271 3.437-4.025 6.817-7.802 9.522-12.192 1.08-1.752 1.827-3.756 2.638-5.583.703-1.602 1.117-2.642 1.589-3.995.187-.537.381-1.242.492-1.635 1.469-5.238 2.524-10.793 3.288-15.807a34.283 34.283 0 0 0-2.618-1.092zM212.486 410.796c.132-.508.252-1.01.424-1.539.317-.975.666-1.555 1.2-2.71-1.365 1.421-2.672 2.62-4.158 4.801.807-.168 1.43-.26 2.322-.489.068-.017.144-.045.212-.063z" style="line-height:normal;font-variant-ligatures:normal;font-variant-position:normal;font-variant-caps:normal;font-variant-numeric:normal;font-variant-alternates:normal;font-feature-settings:normal;text-indent:0;text-align:start;text-decoration-line:none;text-decoration-style:solid;text-decoration-color:#000;text-transform:none;text-orientation:mixed;shape-padding:0;isolation:auto;mix-blend-mode:normal" color="#000" font-weight="400" font-family="sans-serif" white-space="normal" overflow="visible"/>
         <path style="line-height:normal;font-variant-ligatures:normal;font-variant-position:normal;font-variant-caps:normal;font-variant-numeric:normal;font-variant-alternates:normal;font-feature-settings:normal;text-indent:0;text-align:start;text-decoration-line:none;text-decoration-style:solid;text-decoration-color:#000;text-transform:none;text-orientation:mixed;shape-padding:0;isolation:auto;mix-blend-mode:normal" d="M203.555 448.218c-.386 1.246-.732 3.038-.774 10.742-4.65 1.84-8.106 5.857-11.868 8.84-4.863 3.857-8.69 8.924-13.89 11.832-3.82 2.135-8.362 3.61-12.713 4.756 2.785-1.262 5.567-2.715 8.071-4.386 3.529-2.356 6.4-5.498 9.353-8.393 4.707-4.617 8.63-8.795 13.505-14.461zM223.034 407.157c-2.433 2.681-4.363 5.17-5.356 7.448-.942 2.159-1.124 4.246-1.013 6.348a9.74 9.74 0 0 0-1.893-1.871c-1.65-1.212-3.653-2.078-5.512-2.776-1.86-.698-3.585-1.232-4.607-1.706-.503-.233-.806-.477-.858-.55.005-.008.015-.044.117-.134.06-.053.383-.216.87-.35.489-.135 1.14-.272 1.915-.42 1.547-.298 3.578-.656 5.845-1.235 3.269-.835 6.95-2.483 10.492-4.754zM184.6 416.843c2.162.433 4.569 1.321 6.941 2.655 4.702 2.643 9.247 7.015 11.7 12.838-.588 1.767-.963 3.026-1.316 4.18-.947-4.49-3.965-9.112-8.11-12.874-3.685-3.345-7.874-5.589-11.761-6.768.871.004 1.539-.232 2.546-.03z" color="#000" font-weight="400" font-family="sans-serif" white-space="normal" overflow="visible"/>
         <path d="M185.942 390.546c1.699-.336 3.319-.33 5.092.416 4.719 1.984 6.858 5.736 7.509 10.063.485 3.23-.05 6.663-.892 9.895-.236-2.173-.695-4.122-1.568-5.2-.331-.411-.724-.726-1.203-.845-.48-.119-1.01.006-1.451.32-.653.466-1.154 1.742-1.671 3.018-1.736-4.83-3.404-7.573-5.05-8.452-.894-.478-1.869-.377-2.545.186-.677.563-1.104 1.47-1.351 2.58-.495 2.223-.256 5.33 1.013 8.41.897 2.179 2.56 4.196 4.624 5.976-1.526-.58-3.267-1.318-4.408-1.62-.976-.258-1.802-.42-2.48-.49-.68-.068-1.204-.063-1.65.109a1.087 1.087 0 0 0-.58.48c-.133.244-.13.536-.057.771.146.471.49.848 1.013 1.304.876.762 2.669 1.783 4.741 2.875-4.94 2.83-14.29 3.27-21.672 2.048-3.878-.642-7.193-1.724-8.916-2.949-.86-.612-1.278-1.221-1.325-1.758-.046-.536.235-1.168 1.187-1.935 5.307-4.277 10.844-7.309 13.908-10.917 1.532-1.804 2.442-3.804 2.265-6.118-.153-1.997-1.277-4.24-3.161-6.75 5.388 2.006 9.698 1.42 13.233.255 1.936-.638 3.697-1.335 5.395-1.672zM239.367 401.593c5.309.778 8.127 2.303 9.605 4.178 1.477 1.876 1.697 4.203 1.576 6.807-.122 2.604-.596 5.43-.368 8.184.17 2.053 1.04 4 2.468 5.79-7.367-3.525-14.298-3.313-20.031-1.85-3.14.802-5.939 1.917-8.288 2.863-2.226.896-3.982 1.564-5.24 1.766.442-.502 1.199-1.211 2.074-2.048.96-.917 1.974-1.93 2.65-2.927.339-.499.6-.995.702-1.515.102-.521.011-1.1-.355-1.538a1.283 1.283 0 0 0-.992-.446c-.35.012-.65.141-.94.308-.58.333-1.142.843-1.684 1.316-.541.473-1.072.905-1.403 1.052-.165.074-.25.068-.26.065-.011-.001-.037.002-.116-.169-.933-2.026-.822-4.48.09-7.045.913-2.565 2.627-5.212 4.803-7.543 4.35-4.663 10.542-8.007 15.71-7.249zM208.758 380.314c2.2-.166 4.486-.113 6.759.147 4.547.52 9.029 1.87 12.605 3.898 3.576 2.028 6.23 4.723 7.231 7.92.66 2.107.173 3.844-1.087 5.503-1.259 1.659-3.324 3.183-5.728 4.594-4.307 2.528-9.368 4.704-13.099 7.084 1.014-1.791 2.011-3.566 2.23-4.642.146-.718.146-1.314-.065-1.81a1.554 1.554 0 0 0-1.2-.905c-1.014-.144-2.156.406-3.424 1.334-.995.728-2.03 1.914-3.036 3.13-.115-3.866-1.497-10.328-3.304-14.657-.49-1.176-1-2.17-1.541-2.896-.27-.364-.548-.66-.862-.88-.314-.218-.682-.363-1.074-.324-.391.038-.748.258-1.026.571-.278.314-.507.727-.715 1.256-.415 1.058-.752 2.596-1.017 4.763-.055.451-.185.643-.308.732-.122.09-.307.13-.627.07-.64-.124-1.648-.724-2.577-1.581-.929-.858-1.805-1.962-2.334-3.014-.527-1.05-.674-2.007-.394-2.62v-.005c1.517-3.13 4.54-5.267 8.366-6.5 1.915-.616 4.027-1.002 6.227-1.168z" style="line-height:normal;font-variant-ligatures:normal;font-variant-position:normal;font-variant-caps:normal;font-variant-numeric:normal;font-variant-alternates:normal;font-feature-settings:normal;text-indent:0;text-align:start;text-decoration-line:none;text-decoration-style:solid;text-decoration-color:#000;text-transform:none;text-orientation:mixed;shape-padding:0;isolation:auto;mix-blend-mode:normal" color="#000" font-weight="400" font-family="sans-serif" white-space="normal" overflow="visible"/>
         <path d="M157.39 371.78c.98.06 1.887.45 2.714 1.225 6.303 5.907 15.227 6.718 21.898 7.084 3.335.183 6.14.272 7.664.736.762.232 1.124.522 1.239.836.114.314.052.87-.494 1.78-3.157 5.264-9.145 7.08-14.428 7.56-5.283.48-9.764-.385-9.764-.385l-1.217-.234.65 1.052s2.108 3.436 2.866 8.284c.173 1.105-.031 1.914-.498 2.563-.467.649-1.233 1.155-2.265 1.498-2.063.687-5.129.687-8.348.108-3.22-.578-6.601-1.724-9.353-3.234-2.753-1.51-4.85-3.393-5.6-5.322-.817-2.107-.596-5.001.382-8.041s2.695-6.214 4.741-8.885c2.046-2.671 4.426-4.838 6.66-5.894 1.117-.527 2.173-.793 3.152-.731z" style="line-height:normal;font-variant-ligatures:normal;font-variant-position:normal;font-variant-caps:normal;font-variant-numeric:normal;font-variant-alternates:normal;font-feature-settings:normal;text-indent:0;text-align:start;text-decoration-line:none;text-decoration-style:solid;text-decoration-color:#000;text-transform:none;text-orientation:mixed;shape-padding:0;isolation:auto;mix-blend-mode:normal" color="#000" font-weight="400" font-family="sans-serif" white-space="normal" overflow="visible"/>
         <path d="M208.86 410.574c.684-1.303 1.105-1.757 1.325-2.002-4.337-4.567-6.812-14.434-6.983-18.565-.591 13.436 4.367 20.274 5.658 20.567z"/>
         <path d="M222.181 423.42c-.661 1.014-1.232 1.969-2.052 3.023-1.342 1.725-2.823 3.238-3.988 3.698h-.005c-1.243.393-2.782.935-4.287 1.46 3.928-2.577 6.956-5.149 10.332-8.18zM204.809 448.523c.655 5.827 2.103 10.339 4.325 13.462 2.632 3.698 6.024 5.95 9.345 7.92 3.32 1.97 6.569 3.67 9.007 6.222 2.069 2.166 3.368 5.234 3.88 9.396-3.273-5.319-5.323-7.872-7.197-9.028-2.132-1.314-4.128-1.448-8.366-4.2-6.254-4.06-9.516-7.215-10.925-11.072-1.178-3.226-.9-7.37-.07-12.7zM236.128 425.768c-.35.783-1.465 3.377-3.594 6.581-1.214 1.83-2.618 3.604-4.057 4.803-1.44 1.199-2.857 1.792-4.183 1.485-5-1.159-8.94.034-12.449 2.17-2.911 1.77-5.607 4.217-8.461 6.494a178.56 178.56 0 0 0 3.135-6.79c.723-1.646 1.419-3.207 2.005-4.412.293-.602.56-1.115.784-1.498.223-.383.437-.642.472-.671l.03-.026.026-.03c.236-.267.992-.706 2.022-1.117 1.03-.412 2.338-.836 3.759-1.265 2.841-.857 6.119-1.739 8.582-2.676 4.422-1.682 7.96-2.65 11.93-3.048z" style="line-height:normal;font-variant-ligatures:normal;font-variant-position:normal;font-variant-caps:normal;font-variant-numeric:normal;font-variant-alternates:normal;font-feature-settings:normal;text-indent:0;text-align:start;text-decoration-line:none;text-decoration-style:solid;text-decoration-color:#000;text-transform:none;text-orientation:mixed;shape-padding:0;isolation:auto;mix-blend-mode:normal" color="#000" font-weight="400" font-family="sans-serif" white-space="normal" overflow="visible"/>
      </g>
      <flowRoot xml:space="preserve" style="line-height:1.25" transform="translate(-3136.043 408.756)" font-style="normal" font-weight="400" font-size="40" font-family="sans-serif" letter-spacing="0" word-spacing="0" fill="#e45743" fill-opacity="1" stroke="none">
         <flowRegion fill="#e45743" fill-opacity="1">
            <path d="M-74.953-232.797h325.269v98.995H-74.953z"/>
         </flowRegion>
         <flowPara/>
      </flowRoot>
   </g>
</svg>