<svg width="297mm" height="297mm" version="1.1" viewBox="0 0 297 297" xmlns="http://www.w3.org/2000/svg" xmlns:cc="http://creativecommons.org/ns#" xmlns:dc="http://purl.org/dc/elements/1.1/" xmlns:rdf="http://www.w3.org/1999/02/22-rdf-syntax-ns#">
 <title>Instagram logo</title>
 <metadata>
  <rdf:RDF>
   <cc:Work rdf:about="">
    <dc:format>image/svg+xml</dc:format>
    <dc:type rdf:resource="http://purl.org/dc/dcmitype/StillImage"/>
    <dc:title>Instagram logo</dc:title>
    <dc:creator>
     <cc:Agent>
      <dc:title>Kevyan Uehara de Moraes</dc:title>
     </cc:Agent>
    </dc:creator>
    <cc:license rdf:resource="http://creativecommons.org/licenses/by-nc-sa/4.0/"/>
    <dc:rights>
     <cc:Agent>
      <dc:title>instagram</dc:title>
     </cc:Agent>
    </dc:rights>
   </cc:Work>
   <cc:License rdf:about="http://creativecommons.org/licenses/by-nc-sa/4.0/">
    <cc:permits rdf:resource="http://creativecommons.org/ns#Reproduction"/>
    <cc:permits rdf:resource="http://creativecommons.org/ns#Distribution"/>
    <cc:requires rdf:resource="http://creativecommons.org/ns#Notice"/>
    <cc:requires rdf:resource="http://creativecommons.org/ns#Attribution"/>
    <cc:prohibits rdf:resource="http://creativecommons.org/ns#CommercialUse"/>
    <cc:permits rdf:resource="http://creativecommons.org/ns#DerivativeWorks"/>
    <cc:requires rdf:resource="http://creativecommons.org/ns#ShareAlike"/>
   </cc:License>
  </rdf:RDF>
 </metadata>
 <g transform="translate(0 5.2283e-6)">
  <path d="m87.785 1.3592-33.455 5.9159-29.063 18.235-16.034 23.332-8.1643 39.182-1.0695 60.834 3.3122 80.578 8.791 25.098 39.133 34.537 59.838 7.9283 98.191-0.76153 34.869-6.4158 38.358-31.274 11.325-29.794 3.1819-62.298-0.99-78.328-6.7376-35.699-17.546-26.847-32.908-19.532-56.559-5.4973-61.272-0.55208-33.202 1.3591zm37.344 1.9236 52.3 0.5387-28.753 22.424zm-6.8945 0.067872-11.751 22.028-15.361-20.842zm67.168 0.78948 47.418 4.5289-32.875 17.944zm-3.62 0.43523 14.588 22.541-43.083-0.31489zm-60.335-0.27242 23.03 22.465-35.023 0.01486zm-36.078 0.79077-8.7135 22.604-18.268-17.886zm3.0287 1.2622 15.22 20.649-23.866 1.7755zm151.23 3.885 26.6 15.739-29.188 6.2455zm-3.3333 0.26114-2.5781 21.921-29.286-4.5238zm-182.33 0.79876 5.7283 20.832-29.004-6.2506zm4.1858 2.8584 15.883 15.55-10.881 2.6318zm-29.609 14.616 30.17 6.4977-23.672 23.672zm240 0.06391-6.4439 30.097-23.658-23.658zm-119.94 1.2084 50.67 0.36864 35.1 5.4275 27.171 27.171 5.1894 30.71-0.80002 119.78-11.758 33.669-45.164 19.396-60.408 0.99205-74.651-2.811-23.861-10.324-14.452-19.682-5.5978-37.94 2.4283-121.79 3.0824-11.941 27.277-27.277 14.727-3.556 29.202-2.1703zm-123 0.649 6.1149 28.37-18.612-10.189zm245.85 0.20362 13.885 21.311-20.04 7.4411zm-64.158 39.736 19.361 19.355 16.477-8.613-1.6922-24.188-22.249-4.7082zm-195.67-17.433 16.652 20.973-23.314 11.108zm5.4288 1.5681 15.119 8.277-2.0955 8.1234zm267.55 1.2135-15.463 32.251-4.2178-24.946zm-62.533 0.45061 15.516 3.2898-10.058 22.908zm65.073 1.8292 5.361 28.703-21.211 4.3548zm-67.985 0.25601 5.0845 24.423-12.738-12.739zm19.57 6.7588 0.98692 14.19-9.3766 4.9065zm-115.93 10.908-36.267 26.896-14.963 45.669 9.3241 36.886 31.504 31.334 36.138 8.8194 27.445-5.0008 26.075-16.531 20.304-33.301 2.3141-34.04-19.915-40.867-37.496-21.989zm40.643 1.3426-15.11 19.927-20.823-18.214zm-135.65 0.50689-24.344 61.753 0.85637-50.562zm141.26 0.87174 30.248 17.741-26.116 7.0494zm-3.1836 0.83206 3.967 23.803-18.461-4.6736zm-41.608 1.0202 21.268 18.598-29.745 12.675zm-3.7109 1.1713-8.3166 30.688-21.035-8.9272zm-91.536 1.9252-2.1339 106.96-23.422-42.13zm263.77 6.3965 0.82821 66.688-23.035-62.121zm-91.769 9.3279-8.4037 26.179-17.707-19.135zm-52.309 1.988 22.285 5.6464 20.813 22.497 4.0399 19.042-6.6039 24.118-12.43 13.827-14.848 7.4449-27.248-0.15878-19.048-11.302-12.677-21.428 1.1956-28.718 10.252-16.372zm55.101 0.0295 16.125 33.073-24.534-6.8612zm66.147 0.96773 23.61 63.673-24.316 41.442zm-178.46 4.8131 19.415 8.2398-8.2142 13.126zm-3.2271 0.8999 12.115 23.122-24.234 13.866zm107.21 22.962 22.753 6.3568-19.522 8.8684zm-94.677 3.6956-1.0061 24.229-22.957-10.522zm115.86 6.9726-22.506 25.415 4.7504-17.34zm4.3791 0-1.8433 27.054-24.447 2.6318zm-145.35 9.8066 23.025 10.562-15.559 18.96zm-72.126 3.9093 22.889 41.176-20.102 27.538zm97.551 8.8965 10.527 17.799-25.728 0.72579zm116.5 7.9109-16.353 26.821-8.3218-24.165zm75.784 0.56066-2.6318 52.638-20.959-12.423zm-103.32 3.8517 7.6638 22.245-17.418-11.389zm-77.308 8.7225-1.0253 26.01-25.507-25.26zm3.236 1.1277 15.55 9.2255-16.527 15.512zm59.959 4.0975-1.7857 22.884-9.5647-17.194zm3.2757 0.12162 18.583 12.148-20.548 13.023zm-38.767 6.385 20.91 0.12163 9.7094 17.451zm-6.6871 1.0266 11.728 23.338-28.96-7.1697zm4.3881 1.4324 32.513 18.655-21.195 3.8658zm-110.81 1.3594 4.7452 32.168-24.398-5.2598zm243.05 16.261 19.836 11.756-8.8094 23.45zm-2.9275 1.6206 11.269 35.97-21.187-7.5755zm-260.08 12.313 23.155 4.9923-16.391 14.49zm26.412 6.4874 11.829 16.106-28.158-1.6641zm222.73 12.715 21.453 7.6676-31.437 25.57zm-3.6521 0.76421-10.402 34.631-29.526-17.481zm-234.84 4.2818 29.46 1.7409 2.3656 26.412zm32.847 2.7867 19.782 8.5624-17.479 17.161zm27.732 9.8591 64.995 2.4488-32.381 22.675zm-4.9296 0.33409 31.693 24.417-49.968-6.4823zm134 1.321-0.19842 22.318-51.115-21.472zm3.2655 1.1943 27.872 16.508-28.061 5.0998zm-62.208 5e-3 52.368 21.989-84.677 0.63364z" color="#000000" color-rendering="auto" dominant-baseline="auto" fill="#fff" image-rendering="auto" shape-rendering="auto" solid-color="#000000" style="font-feature-settings:normal;font-variant-alternates:normal;font-variant-caps:normal;font-variant-ligatures:normal;font-variant-numeric:normal;font-variant-position:normal;isolation:auto;mix-blend-mode:normal;shape-padding:0;text-decoration-color:#000000;text-decoration-line:none;text-decoration-style:solid;text-indent:0;text-orientation:mixed;text-transform:none;white-space:normal"/>
 </g>
</svg>
