<?xml version="1.0" encoding="UTF-8" standalone="no"?>
<!-- Created with Inkscape (http://www.inkscape.org/) -->

<svg
   xmlns:dc="http://purl.org/dc/elements/1.1/"
   xmlns:cc="http://creativecommons.org/ns#"
   xmlns:rdf="http://www.w3.org/1999/02/22-rdf-syntax-ns#"
   xmlns:svg="http://www.w3.org/2000/svg"
   xmlns="http://www.w3.org/2000/svg"
   xmlns:sodipodi="http://sodipodi.sourceforge.net/DTD/sodipodi-0.dtd"
   xmlns:inkscape="http://www.inkscape.org/namespaces/inkscape"
   width="297mm"
   height="187.15327mm"
   viewBox="0 0 297 187.15327"
   version="1.1"
   id="svg8"
   sodipodi:docname="autunm leaf wireframe.svg"
   inkscape:version="0.92.3 (unknown)">
  <title
     id="title211">autunm leaf wireframe</title>
  <defs
     id="defs2" />
  <sodipodi:namedview
     id="base"
     pagecolor="#0d0d0d"
     bordercolor="#666666"
     borderopacity="1.0"
     inkscape:pageopacity="0"
     inkscape:pageshadow="2"
     inkscape:zoom="0.42150236"
     inkscape:cx="592.0432"
     inkscape:cy="545.14082"
     inkscape:document-units="px"
     inkscape:current-layer="layer1"
     showgrid="false"
     units="mm"
     inkscape:object-paths="true"
     inkscape:snap-intersection-paths="true"
     inkscape:snap-smooth-nodes="true"
     inkscape:snap-page="true"
     inkscape:showpageshadow="false"
     showborder="true"
     inkscape:window-width="1085"
     inkscape:window-height="809"
     inkscape:window-x="67"
     inkscape:window-y="27"
     inkscape:window-maximized="1"
     inkscape:snap-bbox="true"
     inkscape:bbox-nodes="true"
     fit-margin-top="0"
     fit-margin-left="0"
     fit-margin-right="0"
     fit-margin-bottom="0" />
  <metadata
     id="metadata5">
    <rdf:RDF>
      <cc:Work
         rdf:about="">
        <dc:format>image/svg+xml</dc:format>
        <dc:type
           rdf:resource="http://purl.org/dc/dcmitype/StillImage" />
        <dc:title>autunm leaf wireframe</dc:title>
        <dc:creator>
          <cc:Agent>
            <dc:title>Kevyan Uehara de Moraes</dc:title>
          </cc:Agent>
        </dc:creator>
        <cc:license
           rdf:resource="http://creativecommons.org/licenses/by-nc-sa/4.0/" />
      </cc:Work>
      <cc:License
         rdf:about="http://creativecommons.org/licenses/by-nc-sa/4.0/">
        <cc:permits
           rdf:resource="http://creativecommons.org/ns#Reproduction" />
        <cc:permits
           rdf:resource="http://creativecommons.org/ns#Distribution" />
        <cc:requires
           rdf:resource="http://creativecommons.org/ns#Notice" />
        <cc:requires
           rdf:resource="http://creativecommons.org/ns#Attribution" />
        <cc:prohibits
           rdf:resource="http://creativecommons.org/ns#CommercialUse" />
        <cc:permits
           rdf:resource="http://creativecommons.org/ns#DerivativeWorks" />
        <cc:requires
           rdf:resource="http://creativecommons.org/ns#ShareAlike" />
      </cc:License>
    </rdf:RDF>
  </metadata>
  <g
     inkscape:label="Layer 1"
     inkscape:groupmode="layer"
     id="layer1"
     transform="translate(-5.4006828e-7,-109.84673)">
    <g
       id="g223"
       transform="matrix(0.13193359,0,0,0.13193359,-30.941175,89.173914)"
       style="fill:none;stroke:#ffffff;stroke-width:1.68606281;stroke-miterlimit:4;stroke-dasharray:none;stroke-opacity:1"
       inkscape:export-filename="/home/uehara/Desktop/works/png/leaf wireframe.png"
       inkscape:export-xdpi="480"
       inkscape:export-ydpi="480">
      <path
         id="path1006"
         style="fill:none;stroke:#ffffff;stroke-width:2.57507992;stroke-linecap:butt;stroke-linejoin:miter;stroke-miterlimit:4;stroke-dasharray:none;stroke-opacity:1"
         d="m 2237.1723,1267.9939 -16.3389,6.6334 -59.1281,12.6105 59.1281,-12.6105 -104.8632,8.3085 45.7351,4.302 -42.8514,14.996 -2.8837,-19.298 -61.5595,20.3206 -77.494,-32.3705 20.3588,41.5727 -31.5574,-17.0412 11.1986,-24.5315 -37.1087,32.7113 37.1087,-32.7113 -59.3648,21.1233 -9.2227,-9.5552 -15.0265,16.7124 15.0265,-16.7124 -27.9815,15.3492 27.9815,-15.3492 -35.6219,8.5328 40.3198,-13.8348 83.75,-59.783 -13.2837,47.251 13.2837,-47.251 111.6768,57.855 43.4455,-67.0383 34.5372,58.3624 -77.9827,8.6759 -124.9605,-10.604 -70.4663,12.532 -174.355,-37.9702 134.0352,51.805 -134.0352,-51.805 125.7306,55.8948 -125.7306,-55.8948 103.8066,52.4866 -103.8066,-52.4866 24.4153,83.5014 -24.4153,-83.5014 -13.4534,80.4341 -6.9758,-23.8577 20.4292,-56.5764 -86.5333,41.2394 5.9793,-30.3332 -47.8341,47.3744 47.8341,-47.3744 -40.1941,34.764 40.1941,-34.764 -64.7755,39.8762 64.7755,-39.8762 -63.1145,34.764 -89.0372,18.2071 56.8156,-7.9825 32.2216,-10.2246 63.1145,-34.764 -2.0583,-5.2299 -173.0015,46.8103 13.7475,8.6193 -13.7475,-8.6193 6.231,15.3673 -6.231,-15.3673 73.4091,-99.8297 -86.6963,98.1255 86.6963,-98.1255 -107.956,79.3802 -9.6331,-18.0635 117.5891,-61.3167 -163.0981,63.7024 19.3467,-25.6247 -92.4265,7.5612 5.0483,-7.5612 h 87.3782 l 143.7514,-38.0777 99.5924,53.0194 0.4698,-68.9252 76.1035,57.3574 19.7307,-65.5515 300.1367,40.1724 -48.337,-88.3719 31.475,12.532 16.862,75.8399 -48.337,-88.3719 -15.9723,-9.1579 -24.4283,8.194 -78.4525,-58.3216 78.4525,58.3216 -89.2574,-59.2856 -122.1417,103.6291 20.6702,-87.4822 -119.323,94.2302 -4.8941,-73.6306 -93.759,90.9825 37.9526,-80.7579 -37.9526,80.7579 -12.3728,-73.6007 12.3728,73.6007 -77.5129,-63.1416 -63.8894,99.2912 -3.2884,-98.8091 -83.1504,98.8091 -56.8428,-79.0473 31.4749,88.2053 -13.4489,-0.9836 13.4489,0.9836 -17.4351,-18.3656 -14.0398,-69.8397 -15.5244,59.6151 15.5244,-59.6151 -28.8116,48.7088 28.8116,-48.7088 -78.3066,38.1432 -19.4067,-14.0434 -6.5036,13.3618 -12.955,-6.1348 19.4586,-7.227 -41.7147,4.8412 22.2561,2.3858 -22.2561,-2.3858 -1.9745,-4.8412 -5.1675,-4.8199 -12.1245,4.8896 -6.6437,21.4719 6.6437,-21.4719 12.1245,-4.8896 -15.4463,-4.3125 86.8522,-85.3388 -22.5492,87.7232 205.2919,-128.6928 -138.5838,112.305 138.5838,-112.305 41.8101,84.8312 95.8341,-104.593 -41.8101,106.521 41.8101,-106.521 39.8772,92.9018 49.3804,-109.2897 142.1659,77.8423 -21.9034,-97.60411 21.9034,97.60411 -11.0985,-95.67615 -10.8049,-1.92796 -120.2625,19.76181 -89.2576,16.3879 -137.6442,19.7618 -182.7427,40.9696 -77.513,3.856 -9.3392,81.4828 9.3392,-81.4828 -13.6577,80.1193 13.6577,-80.1193 -23.6231,75.3479 9.9654,4.7714 -9.9654,-4.7714 -10.2976,-7.1572 33.9207,-68.1907 -71.4573,49.7863 -28.1352,-36.7725 1.5608,16.664 c 0,0 26.5744,20.1085 26.5744,20.1085 l -26.9066,-11.9289 -12.2907,9.8839 5.3148,-7.1573 6.9759,-2.7266 0.3322,-8.1796 -13.2873,0.6816 11.7265,-17.3456 -35.64356,10.1882 -3.32181,-8.1796 38.96537,-2.0086 -1.4093,-7.7118 109.4578,-111.34107 -177.57458,102.65697 177.57458,-102.65697 -181.22854,96.18137 181.22854,-96.18137 -179.56773,83.23017 179.56773,-83.23017 -205.81004,65.84817 205.81004,-65.84817 -205.81004,61.41747 205.81004,-61.41747 -218.43295,44.37637 218.43295,-44.37637 -213.7824,33.12927 213.7824,-33.12927 -253.31201,14.38401 4.80064,-15.83 -36.02571,14.12588 36.02571,-14.12588 -43.33369,8.67273 43.33369,-8.67273 -36.02571,2.1971 36.02571,-2.1971 -53.29916,-4.61935 3.97272,-4.05657 49.32644,8.67592 -4.80064,15.83 -9.63326,10.22467 9.63326,-10.22467 39.52961,18.74526 -4.65055,11.2471 12.62291,17.0411 v 4.4307 c 0,0 26.24231,17.382 26.24231,17.382 l 179.56773,-83.23017 87.848,92.06117 76.3385,-128.6326 106.4043,88.145 -31.2989,-103.2676 145.4543,89.7717 -36.4078,-111.82302 36.4078,111.82302 41.3404,-122.42692 -41.3404,122.42692 65.2988,-116.64297 -23.9584,-5.78395 -5.6375,-4.33796 -75.1641,9.15793 68.1175,-15.42387 -68.1175,15.42387 -77.0431,-86.75923 77.0431,86.75923 -87.3782,-88.20522 0.7633,107.06329 -14.8566,-108.50927 -87.3783,129.95809 -92.1817,-93.28807 -54.858,122.38855 -54.4939,-103.62907 -34.2938,109.89502 -164.95091,-97.63964 -0.41005,92.81968 -38.123,-91.79724 -16.37098,78.78335 -6.10707,-80.01127 -14.06193,78.2538 20.169,1.75747 -19.83683,4.37733 -11.29415,15.67783 11.29415,-15.67783 -0.33217,-6.1348 -3.654,-14.31455 17.71593,-63.93925 c 0,0 -36.98245,45.19402 -36.98245,45.19402 l -15.61253,-13.63289 52.59498,-31.56113 -42.96172,20.99562 42.96172,-20.99562 -81.1626,-1.83946 81.1626,1.83946 -71.52934,-7.29263 71.52934,7.29263 -91.7924,-17.17648 21.32604,-0.65738 -17.73404,-16.38784 -26.84472,-8.17563 26.84472,8.17563 -32.15962,-13.96963 32.15962,13.96963 -27.84126,-19.42278 27.84126,19.42278 85.85152,28.43775 77.04319,-105.55706 187.9103,93.50715 -74.6944,-100.2551 230.7062,73.92903 -143.1822,-87.5329 269.0357,57.46548 -125.8535,30.06742 -156.0118,26.32607 L 948.1079,863.1176 895.493,758.52454 704.75703,816.22107 895.493,758.52454 680.50777,799.52078 895.493,758.52454 l -225.61505,32.47568 10.62982,8.52056 -10.62982,-8.52056 4.31837,-16.01866 221.29668,-16.45702 -221.29668,16.45702 -28.62395,-28.9889 -4.59421,11.26613 33.21816,17.72277 -33.21816,-17.72277 -24.58142,-15.67783 29.17563,4.4117 8.45596,-3.85598 -46.03802,-73.26335 -47.73226,-6.02234 47.73226,6.02234 -14.84628,16.47192 14.84628,-16.47192 1.09844,44.07856 -1.09844,-44.07856 -13.84974,28.05991 -0.99654,-11.58799 14.84628,-16.47192 1.09844,44.07856 44.93958,29.18479 -38.62815,-13.84779 -8.9689,-4.08988 2.65747,-11.24712 6.31143,15.337 38.62815,13.84779 32.79089,-72.46924 174.38017,82.10915 -77.23926,-81.97153 96.03028,0.51427 -18.79102,81.45726 117.44385,-90.61519 25.36796,86.75923 47.4473,-103.62907 -47.4473,103.62907 92.076,-87.72321 82.3238,57.347 c 0,0 -82.3238,-57.347 -82.3238,-57.347 0,0 -44.6287,-15.90586 -44.6287,-15.90586 l -7.9861,-4.33796 -63.88949,12.53188 -41.34032,-61.69544 41.34032,61.69544 -48.38696,-61.69544 -52.14508,74.22733 21.60967,-86.7592 -62.36653,85.9561 12.95508,-80.43408 -110.61646,81.28615 55.47432,-75.83299 -78.18914,3.48467 22.71482,72.34832 -144.85649,-77.16827 13.62349,73.74532 -49.47376,-27.76232 4.84509,19.5684 -12.15308,-5.25384 7.30799,-14.31456 35.85027,-45.983 -51.79499,31.32765 51.79499,-31.32765 -52.79153,16.33146 6.28375,-12.4755 -21.23192,7.36316 14.94817,5.11234 0.99654,14.99619 -0.99654,-14.99619 6.28375,-12.4755 4.69774,-5.78393 -30.5802,-33.20476 52.1525,-32.37812 -80.05576,7.83892 80.05576,-7.83892 -66.76848,24.88004 66.76848,-24.88004 -21.5723,65.58288 21.5723,-65.58288 33.39147,61.72689 65.26645,-64.45348 68.6196,70.71943 12.21417,-76.15531 -12.21417,76.15531 56.37308,-59.76747 -44.15891,-16.38784 -9.86529,-4.81997 -103.19009,-47.34313 60.86982,49.64134 -122.98777,-41.88763 60.78924,45.41459 -87.69595,1.02246 26.90671,-46.43705 -26.90671,46.43705 -33.30118,-41.75073 -32.86069,39.72307 c 0,0 32.86069,-39.72307 32.86069,-39.72307 l -67.34982,51.29377 20.92743,-20.79017 46.42239,-30.5036 -71.336,21.30138 71.336,-21.30138 -59.70965,11.07671 -3.98618,-7.15727 63.69583,-3.91944 -5.23187,-3.57864 23.57673,-50.20546 52.16065,43.72983 3.27288,-27.34198 -55.43353,-16.38785 -57.45925,12.71499 33.88252,37.49047 h -59.79267 l 25.91015,-37.49047 -41.19051,29.31073 41.19051,-29.31073 -64.11103,18.40441 2.32526,-7.4981 61.78577,-10.90631 -65.77195,4.77151 3.98618,6.1348 -3.98618,-6.1348 -22.92052,-10.22467 24.91361,-23.85757 65.10759,20.44934 -46.69309,-30.59841 38.46435,6.50099 8.22874,24.09742 -65.10759,-20.44934 -57.13523,17.72276 57.13523,-17.72276 -74.74084,15.67784 -0.99656,-12.61043 -9.25598,-45.27515 9.25598,45.27515 -32.55378,-36.46801 -1.99309,-4.77152 -45.64525,-50.30719 15.74891,41.44582 29.89634,8.86137 -29.89634,-8.86137 7.308,6.13481 M 2237.1723,1267.9939 Z m -515.8137,-300.76524 3.7583,9.63993 -49.7964,2.89197 -70.4661,16.86984 -93.9553,13.0139 4.6977,3.374 -118.8531,10.1219 -18.7911,9.6399 18.7911,-9.6399 -73.7548,20.2438 -108.988,20.2438 -18.791,10.1219 18.791,-10.1219 -96.304,13.9779 -101.0018,5.302 1.4093,7.7118 -69.52608,-16.3959 m -642.10697,-710.27388 1.99309,4.77152 -24.58143,-7.49808 1.32872,9.2022 m 149.95839,21.54741 -74.221,16.28388 -19.9309,-3.0674 z m 85.44193,19.03289 -40.07757,20.42691 1.32873,-8.86139 m 410.34136,149.90302 -40.95548,11.30599 -108.43317,4.59987 53.29103,0.85329 -53.29103,-0.85329 -24.89811,4.33796 -108.98794,-10.60391 -13.15373,5.78396 -41.81004,-1.92797 -4.69774,5.78393 m 494.20404,48.19957 -64.82916,21.2078 0.93967,-8.67592 -99.5925,17.83385 -0.93954,-5.30196 0.93954,5.30196 m 485.27819,125.31887 4.6978,6.74795 m 172.7187,311.03195 -68.8984,6.1212 3.7583,4.3379 -57.7823,-6.2659 -9.3955,6.748 9.3955,-6.748 -149.3887,26.5098 -31.0052,0.964 -66.7081,23.1358 v -6.748 l -43.6892,6.748 -5.1675,-4.8199 M 888.44637,252.42906 954.88976,354.06588 m 76.40174,153.71091 -84.12313,-158.46659 7.72139,4.75568 m 63.91944,147.79595 12.4823,5.91496 m -648.32374,-138.70476 -19.73057,-37.59567 5.63732,-4.33796 -25.36789,-12.0499 6.10709,-1.44597 m 126.83941,77.6013 -8.92573,-12.04989 10.33506,5.78393 -32.88429,-40.48762 15.50259,8.67592 -39.46115,-32.29372 h 9.8653 m 156.43528,107.00305 3.83075,-3.94102 -9.63325,-13.29209 5.97926,-1.70409 -30.22852,-31.01486 19.59871,14.65538 -74.07649,-76.68505 7.64019,0.34081 m 180.23999,155.50253 -11.49176,-21.21849 5.3149,-0.34082 -11.95854,-6.81644 -22.92051,-44.64775 -18.60219,-24.88004 -12.29073,-29.65155 -36.87215,-41.2395 0.66437,-9.20221 H 568.5626 l -25.91017,-18.74524 25.91017,18.74524 -2.65747,-9.88386 m 202.29858,-23.34633 5.97926,-4.94192 -34.21471,-20.44935 2.98964,-3.74904 -18.93435,-18.06359 3.98617,-7.83892 M 839.82459,395.82279 834.65706,372.205 768.20371,260.51012 M 904.55242,515.87738 839.82459,395.82279 m 106.40427,189.66531 -8.94476,-5.79778 -31.55723,-64.41543 m 335.55633,-81.8057 -98.3787,-169.72125 m 177.385,336.0509 -73.08,-140.41885 -5.9263,-25.9108 m 79.0063,166.32965 -16.8582,-17.72277 m 87.2052,213.08013 -27.9939,-64.99278 -42.3531,-130.36458 m 194.6584,163.59477 10.9618,6.1348 -54.8098,-127.4676 6.6437,-2.72656 -37.5365,-62.0297 -26.2425,-78.38915 -14.616,-8.17973 -55.1087,-112.90201 -49.1963,-56.14592 4.6506,-12.26961 -9.9654,8.17974 m 285.5295,564.79955 -60.3104,-119.00381 m -14.3838,-339.37408 7.0466,9.63992 -12.6839,-40.48765 m 33.8238,72.78135 5.6374,-9.15791 -26.7773,-23.13579 -29.5959,-14.94187 22.5493,5.30195 -5.6373,-30.84773 -32.4146,-35.66767 m 140.463,255.9397 -74.2246,-147.49068 45.5682,67.47941 m 75.4871,222.682 -4.3162,-35.42669 -27.9515,-60.00846 11.2746,4.81996 -31.9448,-51.57354 6.1072,-0.482 m 85.0293,256.90371 -38.1986,-114.23298 20.8169,37.59566 m 52.6149,162.91454 -40.8704,-85.79523 5.6372,-0.48199 m 135.8239,-28.6185 -8.9843,-58.62274 -9.3957,-5.78393 -5.1674,-22.17179 14.5631,27.95572 2.3489,-34.22168 -16.912,6.26596 4.2279,-12.04991 -22.7842,-41.45162 10.1002,-1.928 -31.475,-60.24944 4.6978,-6.74794 m 440.1734,595.21093 -41.8037,-76.1016 -3.758,-44.8256 -14.0935,-26.9917 v -33.7397 m -985.5541,-489.93201 20.4292,33.23018 18.6021,69.52776 m -39.0313,-102.75794 -32.0555,-89.6363 m -27.3743,-42.44717 27.3743,42.44717 m -60.7892,-133.43199 33.4149,90.98482 m -65.9686,-133.92843 32.5537,42.94361 m 12.9477,310.53386 -61.0709,-141.70672 -71.87553,-152.79264 -58.722,-96.88114 -32.8843,-38.55964 -1.98772,-29.87393 9.50414,30.83791 38.5216,42.41563 52.6149,95.91714 75.63381,153.27463 58.722,137.85076 0.4698,6.26595 z m -777.96182,-354.49994 15.98576,35.90079 13.6235,26.99177 7.73705,1.98144 -37.34631,-64.874 m 70.9495,75.42446 -9.86529,-33.25772 -19.73057,-16.38786 -6.80675,-24.07478 12.91384,22.62881 19.2608,13.49587 8.92574,24.58178 5.16751,17.35185 m 85.96895,23.61778 -1.40932,-13.49587 -22.54923,-34.70369 -23.95856,-23.6178 -27.51669,-14.18088 37.38199,14.18088 29.59585,32.29372 17.3817,31.8117 -1.40933,6.26596 m 110.86706,36.63167 -5.8025,-17.23311 -24.24926,-32.71895 -27.23888,-29.65155 -27.2389,-32.37812 -24.24926,-23.51675 31.88945,23.85756 27.90324,32.37815 38.53306,43.96609 10.62981,16.35948 3.65399,14.99618 7.44386,5.387 m 92.07603,42.41563 -6.17686,-21.55931 -34.87905,-51.46419 -30.89292,-54.53159 -36.20778,-50.44171 -16.60908,-9.88386 -23.2527,-8.86138 12.6229,14.65537 13.28727,4.08987 13.28724,9.20221 24.24927,35.1047 24.91361,35.78635 18.93435,32.71896 22.58835,36.80883 6.64364,7.15726 3.03581,18.32651 m 115.09503,53.01953 -6.51785,-22.60842 -37.53653,-67.14203 -37.20434,-67.48284 -34.21469,-61.0072 -20.26308,-22.8351 -33.55033,-21.81265 0.66437,-14.65537 26.9067,18.74523 30.56071,36.46801 57.13523,100.54262 51.48813,98.15685 11.45741,24.1129 -15.97237,-23.2563 4.34542,-0.84349 -41.35316,-66.13266 -9.96543,-32.0373 -27.23891,-35.44554 -29.89632,-65.09708 -4.31837,4.08988 -26.24234,-40.55789 5.97926,17.72279 -32.88596,-36.46802 M 946.22886,585.4881 905.72687,515.27489 835.30438,372.81111 774.18297,255.5682 742.9579,231.36981 728.00972,205.4673 l -10.62979,3.0674 6.64362,4.77152 15.94471,21.81263 28.23545,25.39127 72.08338,136.32897 96.99701,182.85123 -2.32993,6.27978 m 288.44223,129.17482 -23.3568,-53.99804 -40.5261,-104.97331 -59.1283,-132.23909 -65.7718,-133.60239 -21.2597,-55.89487 53.8134,98.83848 60.457,132.23911 51.8204,122.69607 51.9382,129.34403 -32.3396,-58.45298 m 191.5934,136.05427 -70.347,-195.35736 -79.0593,-166.32135 -95.6682,-173.13778 -2.6575,3.40823 101.6476,191.54221 59.1282,127.46757 59.1283,147.91692 21.7208,64.96356 m 190.7289,86.75922 -49.6807,-114.23229 -47.834,-128.83088 -63.779,-140.41885 -67.765,-118.60619 -46.5054,-70.89108 -30.5607,-21.13098 20.5953,29.31072 5.3148,4.08987 104.305,169.04793 71.7513,151.32514 43.848,121.3328 53.2638,118.03982 m 144.6909,70.85338 -30.5353,-81.45728 -32.4146,-114.23298 -32.4145,-95.91714 -35.2332,-79.52928 -53.5544,-115.19698 -21.1399,-32.2937 -29.5959,-6.74793 v -8.19394 l 22.5493,5.30195 -38.0519,-66.5154 40.8706,-0.96398 -8.456,36.63165 39.4612,63.62344 39.9308,76.63732 28.6564,80.01127 25.8376,52.05554 18.3212,58.80348 23.4888,69.40737 17.3817,76.63732 35.2332,86.27722 z M 429.7107,480.51098 l 9.63327,-19.76768 16.60907,15.67782 -1.32871,-7.49808 H 514.417 l 5.23187,3.57864 70.50551,-10.05427 -10.29762,5.36795 10.29762,-5.36795 51.82033,-2.38576 m 113.05538,52.1631 -52.18556,-2.52176 -28.64821,7.95764 -33.55032,-4.43068 -65.1076,7.15727 -22.58835,-6.13481 -71.08684,5.45316 4.92497,-7.48082 m 393.20223,158.09458 -41.6964,-6.10506 -54.33388,5.59079 -43.3275,-4.73872 -53.81341,4.6011 -77.41959,-8.02405 -1.40932,7.22994 -43.21935,-15.42386 1.40932,6.26595 -1.40932,-6.26595 -4.51291,9.40152 m 651.86385,55.66791 -33.7109,-0.97448 -82.1781,20.6283 -92.2217,9.74791 4.6977,3.85596 -4.6977,-3.85596 -108.5182,10.60391 -34.29361,-6.74795 -215.62702,-5.78393 8.45596,-3.85598 -27.24701,-2.40997 -9.72023,-8.0296 -0.66435,9.88385 m 748.87186,54.05724 -66.2387,20.58287 -59.6148,9.48455 -49.0087,13.35055 -107.0031,12.97552 -2.3488,5.78396 -132.9466,5.30195 -66.29811,6.95343 -63.35998,-5.98943 24.82693,7.01187 -24.82693,-7.01187 2.34888,5.78395 -2.34888,-5.78395 -68.11748,-12.04991 -17.73404,-16.38784 v 0 l 17.73404,16.38784 -54.96376,-21.68979 m 856.87093,56.87548 -80.8016,4.81997 3.0534,5.78393 -89.6683,13.07414 -19.3782,8.97718 -82.8567,12.47164 7.7513,2.65096 -154.791,26.44952 -9.3955,10.12191 -79.3922,-3.85596 -169.11917,2.40997 3.75821,-7.22993 -53.08465,-1.44599 -1.40933,-11.5679 m 728.56824,156.04328 -12.7889,7.498 m 12.7889,-7.498 37.5365,0.3408 z m 0,0 93.3429,-9.8838 z m 191.5463,-31.4474 -98.2034,21.5636 m 207.3674,-38.1924 -83.1503,17.5928 -26.0137,-0.964 m 123.2572,-24.3408 4.228,9.1579 -18.3212,-1.4459 m 147.9792,61.6954 -40.4006,-0.9639 -211.3991,49.1634 v -4.8199 l -95.8342,13.014 -2.8186,-6.266 -97.2436,22.1718 -1.4095,-4.8199 -142.3419,42.8976 0.9396,-6.748 -88.3178,6.748 1.879,-6.748 -20.879,16.0132 -4.4889,-6.8552 m 850.0505,-24.1407 -99.3989,-0.2745 -55.7234,9.4578 -264.144,15.9213 6.039,5.8915 -82.6123,5.6763 2.0583,5.2299 -161.3123,50.1997 9.1606,2.7714 -16.6771,3.9766 4.2282,2.8919 m 692.9191,-43.3795 -70.4664,16.3877 -7.5163,-7.7118 -131.5372,-4.3381 6.5767,-6.2659 -6.5767,6.2659 -63.8896,6.2661 m -360.7876,-389.93462 -77.513,11.0859 -110.8671,22.1718 -73.2851,14.45987 -95.8342,23.13579 -68.5872,13.49589 -117.9137,1.44598 -130.59767,-2.89197 -49.32644,-8.67592 -32.54031,8.48726 31.13098,-20.05516 54.49398,13.01389 165.36096,4.81996 88.7877,-6.26595 148.9188,-29.40174 186.9707,-40.00563 75.1641,-9.15793 -7.0466,-6.26594 -145.1606,-71.33536 -10.3351,-1.44599 -14.0933,-1.44598 -88.7875,17.83383 -92.0761,19.76183 -108.0483,17.83384 -204.35252,13.49587 h -32.41452 l -23.48877,-1.44597 -70.46636,-17.83386 -31.64728,-8.44145 -23.31648,-13.24834 37.22972,5.30195 85.85152,28.43775 129.65809,-0.964 135.2954,-11.08591 156.905,-26.99175 124.9603,-29.40174 -153.1467,-77.1193 -117.9139,20.24382 -85.4991,13.01387 -113.2159,6.74795 -68.58724,-3.37396 -98.65289,-4.81997 -82.6805,-4.33795 -18.79105,-6.26595 -10.38458,1.85425 -25.578,9.88386 26.24235,-19.76771 36.96724,10.43957 104.75997,4.33797 102.41109,5.30194 142.81181,-3.85596 171.9379,-29.88372 26.7773,-4.33798 -106.6392,-53.50151 -44.6287,-15.90586 -72.81526,16.86984 -98.65283,9.15793 -97.71334,-0.48199 -93.95513,-0.96401 h -80.33163 l -41.81003,-9.15791 -5.92223,3.13557 -24.91362,6.13479 29.42653,-15.53631 44.62867,8.19392 133.41629,2.89199 98.18311,-0.96399 38.05184,1.44598 100.53204,-12.53189 63.88949,-12.53188 -20.2004,-12.53189 -85.02941,-36.63167 h -7.04664 l -30.53541,-12.53187 -50.26599,6.74792 -54.96375,4.33796 -77.51299,3.37397 -56.84285,-1.92798 -65.29882,-2.89197 -46.50778,3.85596 -37.50882,-18.88016 42.20656,13.09623 54.96377,-3.85599 133.88605,6.26595 81.74097,-8.19393 67.64768,-7.71193 -93.01557,-43.86161 -44.15891,-16.38784 -84.55962,5.78395 -91.13648,2.89196 -67.1779,-0.48199 -30.29288,-0.7131 -29.56416,4.08988 34.48913,-11.5707 66.23838,2.40996 83.15029,-1.92797 66.70814,-3.37397 42.27981,-1.92799 9.86529,4.81997 -9.86529,-4.81997 -103.19009,-47.34313 -63.77885,7.8389 -58.46397,4.77153 -63.77885,3.74904 -26.24234,4.08986 -14.28382,5.11235 23.91709,-24.88003 15.28036,8.17974 H 514.417 l 72.41557,-6.13482 49.82723,-4.77151 5.31491,2.04494 -48.54745,-24.95622 -55.43353,-16.38785 -57.45925,12.71499 -65.77195,4.77151 67.10068,-13.6329 38.74884,-11.56552 -46.97758,-12.5319 -54.02421,-9.15791 -78.59204,15.8734 -14.94816,23.17591 15.94472,-10.56548 18.93434,-9.54303 55.8065,-6.13481 18.4145,-10.14907 -15.55986,-2.65692 -87.84802,-29.40175 -23.2978,8.80714 -23.25271,1.70412 -22.25617,-2.04493 20.92745,-7.15727 22.58834,2.72656 25.29089,-4.03562 m 1905.41006,908.0798 -50.7357,-1.4458 -77.9827,8.6759 -124.9605,-10.604 -70.4663,12.532 -4.6979,5.302 38.5217,-5.7841 30.0658,-5.784 85.9689,7.23 53.0846,4.8199 74.6944,-10.6039 46.5077,-4.338 -94.8948,-66.5153 -90.1968,6.266 -161.6029,13.0138 -157.8447,12.5319 -76.5733,11.5678 -75.164,25.0639 -84.09,30.3657 -7.5165,6.748 -2.9091,17.6923 7.1373,-14.8004 8.8075,-1.8998 -8.8075,1.8998 12.4489,-6.8685 99.0026,-34.5666 53.1491,-18.4045 81.3844,-10.9064 137.8555,-10.9062 118.2565,-10.9064 156.2849,-9.1833 -9.6219,-6.7071 -106.639,-69.4073 -31.475,-12.532 -15.9723,-9.1579 -24.4283,8.194 -142.8119,28.4376 -68.5872,15.9059 -98.6528,6.748 -98.6531,17.3519 -141.4023,36.1496 h -86.4388 l -25.3679,9.158 -11.7879,25.9413 16.2768,-19.0861 19,-9.2652 h 87.3782 l 143.7514,-38.0777 100.0622,-15.9058 95.8342,-8.1941 251.7997,-48.1995 -15.9723,-9.1579 -102.8808,-50.1276 -10.8049,-0.964 -102.8808,16.8699 -123.5512,20.2439 -44.1588,8.1939 -60.1312,8.6759 -66.2385,10.6038 -67.1778,0.4821 -48.387,6.7479 -91.6062,13.0139 -49.3265,11.086 -48.3868,13.0138 h -43.6892 l -23.9357,21.5416 18.7682,-26.3615 48.8567,-1.9281 66.7081,-16.3878 53.5544,-8.6759 74.6943,-11.0859 52.1452,-7.712 54.024,1.928 77.0434,-12.5319 196.3661,-32.7757 108.9881,-16.3878 14.0932,-7.712 -134.3557,-71.33535 -10.8049,-1.92796 -123.0812,20.2438 -97.7134,18.79781 -125.9,17.3519 -56.3729,11.0859 -69.5269,16.8698 -57.3126,12.5319 -77.513,3.856 -60.601,7.712 -38.9915,5.3018 -55.57453,-7.1936 -21.93844,-0.5182 7.98689,-8.6841 68.11678,8.6841 121.2022,-13.014 76.1036,-6.2659 94.8948,-20.2438 87.848,-20.2438 115.0949,-13.9779 163.4819,-29.40174 46.0381,-12.5319 m -641.2438,-323.4191 8.456,0.482 -69.7616,-142.42973 m 1186.4119,726.07277 41.1906,5.794 -86.7523,-126.7212 98.3785,111.0434 -98.3785,-111.0434 104.6899,74.2345 -118.7834,-134.9659 116.7905,77.3669 -116.7905,-77.3669 102.1744,-5.7938 -107.8115,-33.2479 75.2577,-45.82288 -84.1835,9.19121 85.1801,-41.22852 -90.3476,-2.15109 80.7144,-43.17828 7.9722,-25.22086 -7.9722,25.22086 0.9965,-20.10854 -0.9965,20.10854 -11.9586,-3.40822 -68.7558,46.5865 59.7869,-83.39534 -73.4105,29.41183 47.168,-51.56529 7.3082,-20.44933 -7.3082,20.44933 26.2425,22.15346 -73.4105,29.41183 47.168,-51.56529 -54.2146,4.32971 48.9,-16.5993 -61.584,-34.49225 62.9126,18.13278 -21.5918,-21.81266 -41.3208,3.67988 37.3346,-5.72481 -49.5487,-13.555 39.9155,-8.25761 -11.2942,-8.17975 -28.6213,16.43736 5.7006,-63.81168 -5.7006,63.81168 -0.9429,-63.13004 0.9429,63.13004 -2.936,-58.0177 -134.0036,32.71291 119.7198,-68.84008 -119.7198,68.84008 113.0762,-72.58913 -137.7393,1.97677 105.5176,-48.32862 -30.8929,1.36329 35.5435,-13.6329 -6.3115,6.13481 -29.232,7.49809 -74.6247,46.96533 24.6631,70.61236 136.9396,25.30479 -108.5182,72.29935 c 0,0 127.3091,1.44597 127.3091,1.44597 l -104.5249,115.43799 112.9809,-69.16641 -112.9809,69.16641 119.5579,-47.47659 -107.1089,104.59311 120.7836,-33.88882 -106.2207,83.53432 111.3435,-45.9448 -78.459,128.8481 91.1363,-54.4655 -91.1363,54.4655 108.9878,17.3518 -17.8515,-71.8173 -12.6773,-74.3826 -5.1228,-37.58952 -13.6747,-70.70429 -6.577,-21.68982 -8.456,-46.27158 -18.7909,-73.74532 -136.9396,-25.30479 -24.6631,-70.61236 -23.9586,-53.01952 98.5833,6.05419 -98.5833,-6.05419 72.0089,-25.98311 -23.9172,-3.74904 17.6057,-7.15729 -2.9896,-19.42687 2.9896,19.42687 -7.9724,-14.99617 7.9724,14.99617 -6.6437,-3.74905 -10.962,10.90634 -48.0917,29.73215 37.1298,-31.09545 -37.1298,31.09545 29.1573,-44.04669 -29.1573,44.04669 29.1573,-44.04669 -13.6194,-6.13482 -15.5379,50.18151 10.8875,-48.13657 -19.8133,40.42464 -0.782,-93.25213 0.782,93.25213 -10.7473,-81.66415 -109.9851,115.40385 120.7324,-33.7397 -93.9552,100.73708 123.0813,-32.7757 -110.3973,76.15532 134.6166,4.4524 -121.9325,1.33155 142.3418,73.50433 -126.8393,-39.76463 7.7513,90.13319 119.088,-50.36856 -102.8807,123.14991 119.0881,-52.29652 -82.4457,154.96156 93.0156,-106.76201 -93.0156,106.76201 115.0949,-12.5318 -22.0793,-94.23021 -10.5699,-48.19955 -16.2074,-70.85339 -20.4093,-74.83588 -24.2193,-80.60772 -29.1261,-67.96138 -120.7324,33.7397 86.7321,-153.23514 -124.6958,77.01957 108.7512,-77.3604 -154.8772,-14.15853 153.2164,-0.156 -57.1353,-24.88004 29.8964,1.70411 -9.9655,-9.88385 10.9619,-12.61043 -1.6608,11.24715 -9.3011,1.36328 -19.9309,8.17974 -96.0811,25.03604 72.164,-41.73634 -72.164,41.73634 56.5514,-47.18949 -25.2457,9.54302 17.2735,-9.54302 -9.9656,-0.68165 2.6574,-15.67784 7.3082,16.35949 -17.2735,9.54302 -31.3057,37.64647 13.3679,-61.16322 -13.3679,61.16322 10.046,-81.27175 -10.046,81.27175 -0.916,-54.6876 -15.0565,45.04769 -6.8674,-76.06252 6.8674,76.06252 -12.8467,-88.33213 12.8467,88.33213 -18.1615,-76.74416 18.1615,76.74416 -130.5975,1.44598 112.436,-78.19014 -112.436,78.19014 186.5009,101.33959 -146.5701,-24.70227 186.0311,106.03905 -157.3747,-26.02778 178.7495,88.20522 -152.9119,-36.14968 171.4682,89.65121 -154.7913,-34.46271 126.6046,42.17463 -101.4715,30.84772 134.8256,-16.38785 -117.4439,93.02517 135.8239,-28.6185 -100.5907,114.89572 128.2488,-7.22994 -27.6581,-107.66578 -18.38,-64.40667 -5.1674,-22.17179 -18.5563,-53.50153 -21.3748,-62.17744 -39.461,-81.33678 -55.9034,-102.78557 -130.5975,1.44598 103.467,-89.43728 -142.9282,25.81384 120.0076,-40.46922 -111.5516,3.83757 85.9737,-13.03977 -18.9343,-7.15725 18.9343,7.15725 -33.8825,-4.4307 -52.0912,17.47047 37.8074,-34.17076 -37.8074,34.17076 19.8696,-35.19323 -22.2563,-6.47561 5.6472,-5.11236 -5.6472,5.11236 2.3867,41.66884 -11.6877,-33.14829 -29.1829,34.11227 -10.0144,-75.6926 10.0144,75.6926 -11.3432,-65.46794 11.3432,65.46794 -22.9697,-75.6926 22.9697,75.6926 -29.6132,-72.28438 29.6132,72.28438 -118.2723,20.32953 133.7749,40.88392 -15.5026,-61.21345 -118.2723,20.32953 133.7749,49.07786 -64.0502,72.00388 93.6461,-65.25595 -29.8671,205.6748 51.007,-173.3811 -2.8409,303.57526 70.9583,-155.60258 -70.9583,155.60258 91.6285,-108.849 -91.6285,108.849 123.8962,-13.41385 -74.5476,126.28286 107.109,-11.56789 -32.5614,-114.71497 -32.2677,-95.43515 -20.6702,-46.75358 -68.1174,-147.97268 -21.1399,-32.2937 -45.0985,-76.15532 -162.818,-48.086 116.9279,-31.35565 -50.8238,0.34082 38.2009,-27.6066 2.6575,15.33699 -40.8584,12.26961 -66.1041,31.01483 44.8444,-43.28444 -37.5365,9.88386 24.9136,-11.24715 -16.9411,-1.70412 -7.9725,12.95127 -7.3079,33.40058 -36.8721,-79.41161 36.8721,79.41161 -30.5607,-21.13098 -1.9932,-43.62528 1.9932,43.62528 -33.2182,-64.41544 33.2182,64.41544 -30.5607,-55.89487 30.5607,55.89487 -123.5715,-27.94744 93.0108,-27.94743 -21.2597,-13.97373 -71.7511,41.92116 45.841,-42.6028 15.2804,-16.70029 -15.2804,16.70029 25.9101,0.68164 -71.7511,41.92116 123.5715,27.94744 -27.8503,145.18204 48.4456,-115.87132 -48.4456,115.87132 53.7604,-111.78145 -53.7604,111.78145 158.0654,57.26648 -79.0591,109.06317 150.8104,42.26197 -80.4634,153.09539 124.3114,-31.76259 24.1379,106.47194 29.1259,11.56788 -53.2638,-118.03982 -43.848,-121.3328 -71.7513,-151.32514 -104.305,-169.04793 -5.3148,-4.08987 -20.5953,-29.31072 -123.5715,-27.94744 19.2665,-44.98856 26.5745,2.38576 -26.5745,-2.38576 -19.2665,44.98856 0.9965,-69.52777 -0.9965,69.52777 -4.6506,-40.21705 4.6506,40.21705 -29.5642,-63.39297 29.5642,63.39297 -29.5642,-49.41926 26.9067,52.82749 -62.4501,-72.936 62.4501,72.936 -129.5508,-29.31072 233.8558,224.94277 -180.0424,-126.10429 180.0424,126.10429 -119.2532,7.3277 175.475,115.36838 -122.9903,7.4981 204.0884,206.06403 -204.0884,-206.06403 -52.4847,-122.86648 -60.7892,-133.43199 -53.8134,-98.83848 43.8479,-34.08225 85.7029,63.39297 -85.7029,-63.39297 23.2528,-9.54303 -23.2528,9.54303 16.6091,-16.35948 -16.6091,16.35948 -43.8479,34.08225 19.2665,-41.58035 -14.9482,12.61043 -4.3183,28.96992 -19.59878,-46.35185 19.59878,46.35185 -27.57106,-38.17213 27.57106,38.17213 -53.81347,-36.80884 12.95521,-12.2696 -12.95521,12.2696 26.24241,-1.36329 27.57106,38.17213 -64.44321,-19.42688 10.62974,-17.38196 -10.62974,17.38196 85.70291,75.32175 -133.01331,-33.08306 47.3104,-42.23869 -47.3104,42.23869 16.74967,-40.8754 -16.74967,40.8754 -2.18468,-30.30991 18.93435,-10.56549 -18.93435,10.56549 2.18468,30.30991 -22.11557,-45.64693 22.11557,45.64693 -29.42356,-45.98775 -9.09804,3.57212 -0.53522,-11.75186 0.53522,11.75186 -7.51642,-0.96398 46.03802,43.37961 -13.15372,-4.81997 -51.81327,-19.01431 18.92897,-19.54533 -18.92897,19.54533 -62.45013,22.15345 32.88596,-23.51675 -32.88596,23.51675 17.27345,-19.08607 -17.27345,19.08607 -12.95509,-32.37813 12.95509,32.37813 -14.61599,-24.53921 14.61599,24.53921 -34.21471,-33.05977 34.21471,33.05977 172.9854,93.742 -112.51131,22.8948 112.51131,-22.8948 -41.4415,165.96469 174.38793,128.53467 -174.38793,-128.53467 41.4415,-165.96469 -112.51131,22.8948 5.16753,23.61779 -45.21591,102.42408 140.34549,87.72323 -140.34549,-87.72323 142.67542,81.44345 -142.67542,-81.44345 45.21591,-102.42408 -96.5345,4.25412 24.91362,-139.56679 -42.85143,-32.20773 14.61598,6.81646 28.23545,25.39127 -56.47088,-5.96439 56.47088,5.96439 5.97926,-4.94192 c 0,0 -5.97926,4.94192 -5.97926,4.94192 l -64.44321,-0.85205 7.97233,-5.11234 56.47088,5.96439 -71.75122,21.64223 -10.29763,17.38194 82.04885,-39.02417 -82.04885,39.02417 -4.31837,4.08988 -54.1456,-19.08607 33.88252,-3.74903 20.26308,22.8351 -63.1145,40.55785 8.9689,-59.64392 -8.9689,59.64392 -27.23887,-73.61763 27.23887,73.61763 -27.57106,-63.73378 -8.63672,13.29207 36.20778,50.44171 97.32919,20.44935 -66.43627,34.08224 103.64061,33.4006 -68.76156,18.06359 105.7693,48.91256 -99.59244,-27.35325 -11.49176,-21.21849 -80.58427,-21.19714 73.94063,14.03988 -81.38449,-19.42688 81.38449,19.42688 -85.03848,-34.42306 43.51578,-35.10473 -54.14559,18.74525 4.98271,-89.6363 -27.23887,8.17974 13.95163,-17.38195 -13.95163,17.38195 22.25616,81.45656 -51.48814,-70.20943 29.23198,-11.24713 -29.23198,11.24713 -14.94816,-6.13481 -2.98965,-11.58795 h -5.64708 l 8.63673,11.58795 -7.64019,-0.34081 -15.28035,-3.0674 15.28035,3.0674 -17.9378,9.88384 -6.99039,59.20026 79.40597,-7.05443 -80.8153,13.32039 105.06456,19.39856 -24.24926,-32.71895 -79.40597,7.05443 -2.64287,-57.49613 -14.73883,25.68443 -13.49661,-44.42968 13.49661,44.42968 -16.48624,-35.22747 -13.10961,2.93375 h -9.8653 l -18.87997,9.67668 42.83853,13.94112 -62.0104,24.58178 84.55963,10.12191 -22.54923,-34.70369 -76.10365,-17.35185 -5.26794,-7.15476 -13.99286,-6.34111 -6.10709,1.44597 -4.48148,2.16855 24.21205,14.21931 -23.7379,22.70726 -0.47415,-36.92657 0.47415,36.92657 -21.40159,-47.15123 21.40159,47.15123 -7.73705,-1.98144 -30.6058,-45.85144 -41.26989,0.54384 3.73338,-7.36029 37.53651,6.81645 30.6058,45.85144 7.73705,1.98144 33.60319,10.55046 9.86528,4.33795 85.96895,23.61778 7.51641,-1.44598 110.86706,36.63167 11.27461,1.44598 83.62008,39.52365 8.45595,2.89198 106.63908,50.12755 8.92573,0.482 128.71854,63.62344 11.27469,-0.482 133.88594,58.32146 8.9258,6.74795 110.0025,8.54442 -110.4723,-14.81037 71.441,-87.94757 -128.7203,-48.5672 69.2905,-83.51627 -145.69224,-70.19464 79.72364,-63.73379 m 686.2755,267.80274 6.1951,-1.62673 -62.0985,-101.15884 m 100.0622,177.37441 -44.1588,-74.58884 m 135.7652,387.40403 -32.8257,-103.80982 16.6184,31.02847 m 52.8497,175.44639 -41.81,-98.80908 5.1676,-3.85596 m 115.0949,-117.60694 -12.2142,-5.54297 -16.2072,-92.06117 -4.2021,17.22529 -20.461,-87.83765 -3.7583,7.22993 -20.2003,-60.24945 m 91.6062,334.74599 8.2211,3.37399 -18.791,-51.57354 -3.9932,-65.31042 -2.3489,29.40173 m 16.912,84.10824 20.6701,60.49051 m 37.5821,125.8008 -23.0192,-76.1553 -13.1537,-15.9058 -1.4092,-33.7397 m 120.7836,-33.88882 -1.9303,-40.82056 -11.7444,-29.88373 -1.8792,-24.09978 -4.6978,2.40996 -2.3488,-49.64554 -6.1072,3.37396 -6.5768,-54.46551 m 53.0846,271.36362 -12.6773,-40.6429 7.0402,1.6012 -12.163,-39.19072 3.2372,2.55905 m -243.3437,76.63737 -36.1728,-97.84518 -27.7168,-107.48503 -18.3213,-64.58742 -33.3541,-14.45987 28.1867,-7.71192 -39.9311,-115.67897 -40.4006,-82.42127 -54.9638,-101.70108 15.9725,9.63991 45.0984,89.16919 38.9913,78.56531 26.7772,66.99738 12.684,43.37962 12.6841,5.78395 15.5025,33.7397 -17.8514,0.48198 25.3677,88.68723 16.4423,73.74533 36.6424,102.66504 m 151.2678,79.5293 -36.1729,-92.0611 -22.0793,-94.47121 -11.2746,-50.60953 -5.6374,-33.25771 -10.3349,-36.14969 -20.6702,-76.1553 -23.4888,-78.08331 -29.1261,-67.96138 8.9258,7.71193 23.9586,53.01952 24.898,70.85337 28.1865,97.36313 8.9259,52.05552 13.1537,63.14144 13.1536,58.80352 14.5629,49.6455 32.8845,82.9033 -9.8653,-6.748 m 152.02,97.134 -33.1669,-73.0342 -17.8515,-71.8173 -12.6837,-73.7454 -5.1677,-38.55963 -13.6234,-70.37138 -6.577,-21.68982 -8.456,-46.27158 -18.7909,-73.74532 12.2141,19.27981 12.684,51.09155 7.0466,47.23558 13.6236,53.98351 5.1675,43.37961 8.9258,36.63167 5.6371,39.0417 14.0935,60.7314 18.3211,53.5015 27.2406,67.4257 m 38.0583,55.0012 -22.446,-8.3085 -27.9031,11.5879 -31.225,1.0226 -42.8514,14.996 -64.4432,1.0226 -57.1352,9.2022 -35.5435,-9.5432 3.9861,-7.498 -25.9101,8.1798 -22.2561,-11.588 -24.2492,7.1572 -12.955,-1.3632 -7.6404,-6.8164 -8.3046,4.0898 -21.924,-3.4082 -79.3913,31.0148 -37.8687,-3.0673 -16.2769,13.6328 9.3011,-37.4905 -66.1041,-15.337 -41.8548,17.0412 7.64,-12.6104 -24.5814,5.1122 1.661,-5.1122 -21.5918,10.5654 -10.6298,-0.3408 -60.457,12.9512 -15.9448,16.7002 -3.3219,-33.0596 -13.2872,-1.7042 -21.2597,-18.7453 -21.2596,-1.3632 11.6265,-16.7003 -45.509,2.3857 -30.2285,-6.4756 -42.8513,-11.5879 -13.9517,1.704 -16.2768,19.0861 -1.661,-26.9249 -3.9862,-17.382 -29.5642,-10.2246 -13.2872,-10.9063 -49.495,-10.5656 -25.9103,-0.6816 -11.294,5.4532 -1.661,-11.588 -11.6264,2.045 -10.6297,-4.4308 -25.9102,16.7004 -4.9827,-8.1798 11.6264,-13.2921 -3.3218,-9.2021 -4.3185,-1.3635 -2.6575,14.9963 -7.3079,-19.7677 -4.6505,3.4082 -5.6471,-10.5654 -37.5366,-18.4044 -39.1973,-2.045 -2.6575,-6.8165 7.9723,-0.3408 6.9759,-2.7266 0.3322,-8.1796 -13.2873,0.6816 -23.91706,-7.1574 -3.32181,-8.1796 -16.60916,-9.2022 -31.8894,7.498 17.93785,-16.7003 -3.65396,-6.4756 1.66081,-12.9512 -26.24231,-17.382 v -4.4307 l -24.91361,-16.3594 12.2907,-0.6817 4.65055,-11.2471 -49.16287,-8.52059 -1.32874,-5.79398 10.962,-4.43069 -31.22507,-1.70412 -7.30798,-5.45315 7.30798,-6.47563 -17.27345,-6.81645 -28.56759,4.43069 -2.98964,-10.22466 14.28379,-5.45317 -0.33217,-6.1348 -7.97237,-3.06741 4.31837,-11.24714 -19.26652,-18.74523 -25.91017,-11.58797 10.29764,-2.04492 9.63326,-10.56551 -38.20088,-22.83508 9.63326,-5.45317 -20.26306,-9.88385 -10.32124,-9.09883 -40.50255,-8.62394 27.57107,-7.49808 -5.3149,-5.794 4.31836,-5.45315 -24.24926,-16.70029 -22.92054,3.40822 12.29072,-11.92878 4.31837,-16.01866 -43.51578,-11.58795 10.29762,-6.13482 -24.58142,-15.67783 -25.578,9.88386 8.30454,-14.99619 17.93781,-4.77152 -1.66091,-3.40822 -8.9689,-4.08988 h -6.97581 l 9.63328,-11.24712 -14.94818,-16.01865 -27.23888,-9.88385 26.24234,-1.70414 -32.88598,-22.49426 -24.91362,6.13479 17.27345,-20.79015 7.30799,-14.31456 -15.94472,-14.65535 -20.92743,-4.77151 19.93089,-10.22468 -14.94817,-5.11234 -16.2769,-26.24332 11.62636,-20.10853 -14.61598,-7.49808 -13.28728,-17.04112 -13.61943,-8.52057 -29.56416,4.08988 20.92743,-20.79017 -24.91361,-9.20222 11.62635,-10.22467 -30.22852,-3.06741 -14.28382,5.11235 23.91709,-24.88003 -22.92052,-10.90632 -8.96891,1.02246 11.29417,-8.52056 -26.9067,-16.35947 -32.22162,-6.13481 -17.60561,-2.04492 -15.94472,10.56548 14.94816,-23.17591 -55.80649,-34.76389 -22.25617,-2.04493 13.61945,-13.29208 -38.76791,-45.3018 m 2019.2344,951.20775 -10.6298,-27.2657 11.6262,-15.6778 6.3114,-36.8089 -1.9929,-57.599 -14.6161,-83.1607 -32.5538,-79.07078 0.9966,-32.03731 -9.6332,-45.32937 9.9653,-20.10854 -1.9931,-5.11232 -6.9757,5.11232 -12.9551,16.70032 -8.9689,-36.80884 -18.9343,-42.60279 -4.9828,2.38575 -2.3254,18.06358 -5.3146,-12.26959 1.3286,-16.35947 -16.2768,-33.05978 -5.315,11.24712 -3.9862,-2.04493 -9.6332,-21.81261 0.9964,-24.88006 -12.2906,16.70031 -22.9207,-47.37432 -6.6435,0.68164 -1.9931,5.11234 -14.2838,-36.12717 0.3322,-9.2022 -6.9758,5.45315 -32.2217,-46.35185 -1.6609,-6.1348 6.3115,-6.13481 -7.6403,-2.04493 -9.6331,5.11235 -7.9724,4.43068 -10.2977,6.1348 -26.5744,-32.0373 -6.3115,-10.90633 0.9965,-15.33699 -3.9861,-4.08988 -4.9828,4.4307 1.3287,11.24712 -10.962,10.90634 -10.9619,-1.3633 -7.9725,-12.95124 -7.3079,-22.83512 -6.3115,16.7003 -4.6504,2.04494 -20.5953,-52.82749 -9.9653,11.58798 -23.253,-37.83129 -15.9446,-0.34083 -1.6608,-14.31453 -27.2389,-23.17593 -0.6644,-11.24713 7.3079,-8.17975 -5.6471,-3.0674 -7.9724,3.40822 -2.9895,9.20221 -19.9309,8.17974 -23.9171,-16.7003 h -9.6333 l -5.9793,-5.45315 h -7.9722 l 0.3321,-7.15729 -7.6403,-9.2022 -4.3183,6.1348 1.6609,9.54304 -7.3079,10.22467 -17.9378,-23.51675 -3.3219,-20.10853 -10.962,26.58415 -21.9239,-31.01483 -5.9793,-12.26961 -5.3148,11.58797 -8.969,-11.24714 -22.9206,-14.65538 -25.5779,-9.2022 -14.9481,-24.19838 -3.9862,17.04113 -14.9482,2.72655 -14.2838,-16.70029 -17.9378,-1.02247 -16.6091,-11.58797 -9.3011,-18.4044 3.6539,23.51676 -9.301,8.52055 -39.1973,-41.58033 -1.3288,10.22466 -11.6265,-10.22466 -6.6435,3.40822 -16.2769,-7.15727 -9.9654,-11.92879 -2.6575,-15.33699 -34.2147,18.74522 -3.9862,8.86138 -21.2597,-12.26961 -12.6229,-1.36329 -23.9169,-18.06358 6.9758,16.35946 -7.9725,12.95127 -44.18,-46.01103 4.3182,14.65535 -23.5847,-14.99616 -7.6403,-5.794 2.6575,8.52057 -21.2597,-13.97373 -10.6297,-17.38193 -0.6645,-26.58415 -14.6159,43.28444 -24.9136,-7.83891 -1.6609,5.45315 -18.27,-24.53921 -5.6471,29.31072 -24.9136,-23.17592 v 13.97371 l -35.5434,-20.10851 -6.6437,-6.81645 -8.3045,-26.92496 -8.3046,43.28444 -24.5814,-7.4981 -16.2768,-15.33702 1.3286,27.94745 -23.91708,-17.38193 -7.97228,8.17972 -13.2872,-10.90631 -13.28738,-27.94743 0.33217,40.21703 -5.3148,-6.47561 -5.31494,23.85757 -30.56073,1.36329 -15.94472,-16.35948 -2.98963,26.92497 -19.93089,-15.33702 -7.30799,-0.34082 -9.63326,-8.17974 -8.96892,-19.08605 -16.94125,49.41926 -29.56417,-1.3633 -15.61251,4.43068 -30.22854,-13.29206 -1.6609,7.83892 -19.59872,-8.52056 -11.95854,-17.04113 -5.64708,-3.0674 -4.98271,6.1348 6.64362,4.77152 1.32873,14.99617 -13.61945,26.24334 -11.29416,-2.38576 3.32183,7.4981 -7.30801,22.49428 -38.20088,-16.7003 -29.56416,-21.131 -13.61944,1.02246 12.95507,13.63291 -0.33219,25.56168 -36.20777,-13.97371 -0.33219,9.88385 -25.2458,3.40821 -23.2527,-8.86138 12.6229,14.65537 -0.66436,21.47182 -36.2078,-6.47563 6.97582,17.72276 -17.93781,-17.72276 h -5.64708 l -23.25272,-12.26961 8.96891,20.44935 -2.65745,12.95124 -9.63326,1.70413 -28.23544,-18.74525 -2.98963,9.20221 -50.4916,-11.24713 8.63672,23.85756 -38.53306,-10.56549 -26.9067,-28.96992 2.32527,26.24333 -20.92744,-10.22466 -15.94472,-17.72277 -0.99654,17.04112 -40.19396,-20.10852 2.65745,13.29207 -19.70575,5.91431 m 2234.02802,1267.7391 -5.9794,-45.3294 -19.6335,30.297 19.6335,-30.297 -29.4984,4.2695 6.9102,-83.681 -12.078,41.7473 -16.1575,-88.7808 1.5945,41.0631 -58.7297,-101.0479 -15.9645,16.6987 -90.9979,-97.1329 -13.7621,21.9415 13.7621,-21.9415 -19.8692,6.9996 -31.9512,-40.0593 31.9512,40.0593 -40.588,-43.1267 -54.3068,-23.3886 -87.8479,-66.9974 -18.7911,-2.4099 8.9258,-4.3381 -40.4008,-8.1939 40.4008,8.1939 -56.3731,-17.3518 -94.8947,-62.1775 -7.9861,12.0499 2.3489,-13.0138 -2.3489,13.0138 2.3489,-13.0138 -17.3818,2.8919 -147.0398,-93.50714 12.6841,22.17179 -12.6841,-22.17179 -1.8791,10.6039 -8.456,-14.94185 -136.7047,-59.28548 -0.9396,-10.60391 0.9396,10.60391 -7.9862,-11.5679 -15.9722,5.78395 0.4696,-6.74793 -13.1537,-3.85597 -0.4696,-6.74793 -144.691,-64.58743 -3.7583,-10.12192 -6.5768,8.67593 0.4697,-8.19393 -0.4697,8.19393 -152.677,-86.27722 152.677,86.27722 -160.6633,-88.68721 -127.3092,-54.9475 -7.0466,-9.63991 -45.5682,-10.60391 36.6424,3.85596 -56.8428,-16.38785 -77.04314,-41.93361 -7.98627,5.30194 -3.28842,-4.81994 -3.75822,4.81994 3.75822,-4.81994 -34.29363,-7.71193 34.29363,7.71193 -42.7496,-13.4959 -85.96894,-50.12754 85.96894,50.12754 -94.89467,-50.60954 -42.27981,-9.63991 44.15891,16.38784 -1.8791,-6.74793 -42.27981,-9.63991 -64.35927,-40.48764 64.35927,40.48764 -72.81522,-43.37962 -88.78761,-33.7397 5.16753,-5.78395 -5.16753,5.78395 -6.10708,-7.22993 6.10708,7.22993 -6.10708,-7.22993 -49.32645,-9.15792 49.32645,9.15792 -66.70813,-16.86984 -44.15893,-19.76183 44.15893,19.76183 -51.67534,-18.31585 4.69776,5.78395 -4.69776,-5.78395 -49.32645,-3.37396 -36.6425,-20.24382 36.6425,20.24382 -46.50778,-24.58177 -41.34024,-4.81998 7.73705,-5.73048 -7.73705,5.73048 v -7.71192 l -70.93614,-38.55965 -0.93955,-6.74795 0.93955,6.74795 -16.91192,-8.19393 m 2234.02802,1267.7391 6.3114,-35.1047 -12.2908,-10.2247 -22.5882,-79.4115 -28.2355,-47.0335 -57.1352,-59.9848 -108.9555,-80.4342 -49.8273,-33.0597 -8.6368,-3.0674 -55.2463,-36.8845 -85.9688,-53.0195 -10.8049,-7.23 -151.2678,-79.5293 -5.6372,-0.9639 -97.2436,-52.53758 -63.8896,-34.22168 -13.6235,-8.19393 -137.6443,-69.88939 -7.0466,-0.96399 -15.5026,-0.96398 -13.6233,-10.6039 -148.4493,-74.70935 -6.1071,0.482 -153.1467,-78.08329 -7.9863,-2.40999 -128.2487,-62.65944 -8.9258,-4.33795 -139.99304,-62.65943 -11.27469,0.482 -128.71854,-63.62344 -8.92573,-0.482 -106.63908,-50.12755 -8.45595,-2.89198 -83.62008,-39.52365 -11.27461,-1.44598 -110.86706,-36.63167 -7.51641,1.44598 -46.038,-11.56789 -9.39552,-2.89198 -30.53543,-9.15791 -9.86528,-4.33795 -41.34024,-12.5319 -44.6287,-29.88374 -27.24699,-15.42386 -15.97237,-1.44598 -6.10708,4.33795 23.019,3.85598 26.77723,16.38785 36.64249,25.06377 7.51642,4.81995 87.84802,29.40175 9.39554,1.92798 44.62867,7.22993 46.97758,12.5319 17.38168,7.71192 55.43353,16.38785 57.31263,27.47376 93.01558,43.86161 11.27462,5.78395 44.15891,16.38784 38.05182,17.83384 54.96375,26.02777 8.45597,5.78397 30.53541,12.53187 h 7.04664 l 85.02941,36.63167 20.2004,12.53189 13.6235,5.78394 38.9913,14.45988 108.5182,53.9835 13.6235,7.22995 63.8895,30.84771 83.1502,43.37962 18.7911,8.19393 10.3351,1.44599 145.1606,71.33536 7.0466,6.26594 5.6375,4.33796 23.9584,5.78395 97.2436,48.68156 47.9171,25.54577 14.5632,11.56789 54.4939,27.95575 79.8618,43.3796 15.0329,10.1219 54.4939,26.5099 48.3869,23.6177 15.9723,9.1579 31.475,12.532 106.639,69.4073 14.5631,11.0859 80.3317,55.4294 6.1071,14.9419 48.8566,33.2577 55.9034,41.9337 47.9172,52.0555 26.777,32.2937 14.563,47.7177 5.1678,41.9337 9.8649,26.0275 z"
         inkscape:connector-curvature="0" />
    </g>
  </g>
</svg>
