<?xml version="1.0" encoding="UTF-8" standalone="no"?>
<!-- Created with Inkscape (http://www.inkscape.org/) -->

<svg
   xmlns:dc="http://purl.org/dc/elements/1.1/"
   xmlns:cc="http://creativecommons.org/ns#"
   xmlns:rdf="http://www.w3.org/1999/02/22-rdf-syntax-ns#"
   xmlns:svg="http://www.w3.org/2000/svg"
   xmlns="http://www.w3.org/2000/svg"
   xmlns:sodipodi="http://sodipodi.sourceforge.net/DTD/sodipodi-0.dtd"
   xmlns:inkscape="http://www.inkscape.org/namespaces/inkscape"
   width="297mm"
   height="297mm"
   viewBox="0 0 297 297"
   version="1.1"
   id="svg8"
   sodipodi:docname="eye wireframe.svg"
   inkscape:version="0.92.3 (unknown)">
  <title
     id="title439">rainbowed eye wireframe</title>
  <defs
     id="defs2" />
  <sodipodi:namedview
     id="base"
     pagecolor="#0d0d0d"
     bordercolor="#666666"
     borderopacity="1.0"
     inkscape:pageopacity="0"
     inkscape:pageshadow="2"
     inkscape:zoom="0.35355339"
     inkscape:cx="419.97166"
     inkscape:cy="625.9846"
     inkscape:document-units="px"
     inkscape:current-layer="layer1"
     showgrid="false"
     units="mm"
     inkscape:object-paths="true"
     inkscape:snap-intersection-paths="true"
     inkscape:snap-smooth-nodes="true"
     inkscape:snap-page="true"
     inkscape:window-width="1085"
     inkscape:window-height="809"
     inkscape:window-x="67"
     inkscape:window-y="27"
     inkscape:window-maximized="1"
     inkscape:measure-start="0,0"
     inkscape:measure-end="0,0" />
  <metadata
     id="metadata5">
    <rdf:RDF>
      <cc:Work
         rdf:about="">
        <dc:format>image/svg+xml</dc:format>
        <dc:type
           rdf:resource="http://purl.org/dc/dcmitype/StillImage" />
        <dc:title>rainbowed eye wireframe</dc:title>
        <dc:creator>
          <cc:Agent>
            <dc:title>Kevyan Uehara de Moraes</dc:title>
          </cc:Agent>
        </dc:creator>
        <cc:license
           rdf:resource="http://creativecommons.org/licenses/by-nc-sa/4.0/" />
      </cc:Work>
      <cc:License
         rdf:about="http://creativecommons.org/licenses/by-nc-sa/4.0/">
        <cc:permits
           rdf:resource="http://creativecommons.org/ns#Reproduction" />
        <cc:permits
           rdf:resource="http://creativecommons.org/ns#Distribution" />
        <cc:requires
           rdf:resource="http://creativecommons.org/ns#Notice" />
        <cc:requires
           rdf:resource="http://creativecommons.org/ns#Attribution" />
        <cc:prohibits
           rdf:resource="http://creativecommons.org/ns#CommercialUse" />
        <cc:permits
           rdf:resource="http://creativecommons.org/ns#DerivativeWorks" />
        <cc:requires
           rdf:resource="http://creativecommons.org/ns#ShareAlike" />
      </cc:License>
    </rdf:RDF>
  </metadata>
  <g
     inkscape:label="Layer 1"
     inkscape:groupmode="layer"
     id="layer1"
     transform="translate(0,5.2282763e-6)">
    <g
       id="g1735"
       transform="translate(-10.00232,-3.6177927)"
       style="fill:none;stroke:#ffffff;stroke-width:0.52916668;stroke-miterlimit:4;stroke-dasharray:none;stroke-linejoin:round">
      <path
         id="path1674"
         style="opacity:1;vector-effect:none;fill:none;fill-opacity:1;stroke:#ffffff;stroke-width:0.79375002;stroke-linecap:butt;stroke-linejoin:round;stroke-miterlimit:4;stroke-dasharray:none;stroke-dashoffset:0;stroke-opacity:1"
         d="m 157.20553,153.55866 -3.74622,-0.86453 7.27631,4.0344 z m -3.74622,-0.86453 7.27631,4.0344 -5.47524,0.57634 z m 7.27632,4.03439 -5.47525,0.57635 12.39135,0.72041 z m 6.9161,1.29676 -6.9161,-1.29676 2.08924,-2.73763 z m -4.82686,-4.03439 -3.45805,-3.8903 1.3688,6.62794 z m -2.08925,2.73764 -3.96234,-8.86126 2.59354,2.23332 z m -3.53009,-3.16987 -3.74622,-0.86453 -0.36022,-5.11502 z m -0.43225,-5.69139 0.43225,5.69139 3.53009,3.16987 z m -3.67419,-0.28816 4.10644,5.97955 -0.43225,-5.69139 z m 6.26773,2.52148 -2.59354,-2.23332 3.16988,-5.2591 z m 3.45805,3.8903 -3.45805,-3.8903 3.45805,-5.47525 z m -3.45805,-3.8903 0.57634,-7.49242 2.88171,2.01717 z m 0.57634,-7.49242 -3.16988,5.2591 -0.79247,-4.82685 z m -3.16988,5.2591 -3.67419,-0.28816 2.88172,-4.53869 z m -0.79247,-4.82685 -2.88172,4.53869 0.86455,-5.76343 z m 3.96235,-0.43225 -3.96235,0.43225 5.97953,-4.17848 z m -3.96235,0.43225 -2.0172,-1.22473 7.99673,-2.95375 z m 3.96235,-0.43225 2.01718,-3.74623 0.86453,5.7634 z m 2.88171,2.01717 -0.86453,-5.7634 6.05159,5.76342 z m 5.18706,2e-5 -6.05159,-5.76342 12.82364,3.60213 z m -6.05159,-5.76342 12.82364,3.60213 -5.40325,-5.83545 z m 12.82364,3.60213 -6.77205,2.16129 4.10644,1.94513 z m -2.66561,4.10642 -4.10644,-1.94513 3.16989,5.33115 z m -4.10644,-1.94513 3.16989,5.33115 -8.35695,-5.33117 z m -14.04829,-2.80968 7.9967,-2.95374 1.20068,-4.83803 z m 7.9967,-2.95374 7.42039,-2.23332 -6.21971,-2.60471 z m 7.42039,-2.23332 5.40325,5.83545 1.58492,-1.8731 z m 5.40325,5.83545 -2.66561,4.10642 4.97096,2.01722 z m 1.58492,-1.8731 -1.58492,1.8731 3.09782,-0.21612 z m -1.58492,1.8731 2.30535,6.12364 0.79247,-6.33976 z m 3.09782,-0.21612 -0.79247,6.33976 2.16931,-1.62456 z m -3.53012,10.51823 2.73765,-4.17847 -4.97096,-2.01722 z m -2.23331,-6.19569 -0.93655,3.38602 3.16986,2.80967 z m 2.23331,6.19569 -2.01717,3.60213 -1.15269,-6.4118 z m -2.01717,3.60213 -3.89031,-1.94517 2.73762,-4.46663 z m -9.50964,-2.37742 4.82686,4.03439 0.79247,-3.60214 z m 4.82686,4.03439 0.79247,-3.60214 3.89031,1.94517 z m 0.79247,-3.60214 -5.61933,-0.43225 8.35695,-4.03438 z m -8.50104,6.91611 7.70857,-3.31397 -12.39135,-0.72041 z m -4.68278,-4.03438 -1.80107,-4.61074 -4.25051,0.43225 z m -4.39461,1.44085 4.39461,-1.44085 -6.05158,-4.17849 z m 4.39461,-1.44085 -4.39461,1.44085 9.07739,2.59354 z m -6.05158,-4.17849 4.25051,-0.43225 -2.95375,-5.61932 z m 4.25051,-0.43225 -2.95375,-5.61932 2.59353,0.5043 z m -0.36022,-5.11502 -2.59353,-0.5043 3.45808,-5.25913 z m 0.86453,-5.76343 9.1974,-7.79177 -6.24366,-0.63721 z m 9.1974,-7.79177 6.21971,2.60471 3.64608,-3.27345 z m 9.86579,-0.66874 -3.64608,3.27345 8.93334,-2e-5 z m -3.64608,3.27345 6.98817,3.96235 1.94517,-3.96237 z m 6.98819,3.96233 1.94515,-3.96235 4.17845,4.75483 z m 1.51288,1.657 -1.51288,-1.657 6.1236,0.79248 z m 4.61072,-0.86452 -4.61072,0.86452 4.68273,0.4323 z m -4.61072,0.86452 1.37688,4.71519 3.30589,-4.28294 z m 1.37688,4.71519 3.37792,-1.61736 -0.0721,-2.66558 z m -2.16935,1.62457 -0.0721,7.06017 2.24141,-8.68474 z m 2.16935,-1.62457 -2.24138,8.68473 3.05645,-1.96041 z m -2.16935,1.62457 -2.73763,4.17846 2.6656,2.8817 z m -2.73765,4.17847 2.66562,2.88169 -3.8903,5.97955 z m -2.01717,3.60213 0.79249,5.25911 1.22468,-8.86124 z m -4.68278,1.65697 4.68278,-1.65697 -4.32254,6.62791 z m 4.68278,-1.65697 0.79249,5.25911 -5.11503,1.3688 z m -4.68278,1.65697 -7.70857,3.31398 8.06877,1.65697 z m -16.78596,0.72044 9.07739,2.59353 -5.18708,1.80107 z m 3.89035,4.39459 4.61072,2.37741 0.57632,-4.17847 z m 4.61072,2.37741 0.57632,-4.17847 8.06877,1.65698 z m 13.61607,-32.13103 -9.82189,0.63722 12.63155,-2.65442 z m -9.82189,0.63722 2.25741,-3.51893 10.37414,0.86451 z m 9.82189,-0.63722 2.80966,-2.0172 2.5215,5.25911 z m 2.80966,-2.0172 -10.37418,-0.8645 0.72047,-2.0172 z m -10.37418,-0.8645 0.72047,-2.0172 -9.22147,4.8989 z m -2.25737,3.51892 2.25737,-3.51892 -8.501,2.8817 z m 2.97784,-5.53612 9.65371,2.8817 -4.32259,-3.31396 z m 9.65371,2.8817 2.5215,5.25911 4.25049,0.64839 z m 2.5215,5.25911 4.25051,0.64839 -0.0721,4.10644 z m 4.25049,0.64839 -6.77199,-5.9075 6.69995,0.21614 z m -6.77199,-5.9075 -4.32259,-3.31396 11.02254,3.5301 z m 6.84408,13.97628 -3.37797,1.61737 3.73817,4.86648 z m -0.14413,-3.96234 0.0721,1.29677 2.95377,3.67417 z m 0.072,1.29677 0.0721,2.66557 2.88169,1.0086 z m -0.072,-1.29677 3.02581,4.97094 -2.95377,-9.07738 z m 0.072,-4.10644 2.95377,9.07738 -0.46828,-6.88007 z m 2.95377,9.07738 -0.46828,-6.88007 1.62097,4.64674 z m -2.52148,5.47525 -0.3602,-6.48385 2.88168,1.0086 z m -2.44949,5.61934 -1.28868,-10.48582 3.73817,4.86648 z m -3.53009,-1.80109 3.05644,-1.9604 0.47369,3.76147 z m -3.89027,5.97955 3.8903,-5.97955 -1.58497,6.98816 z m 2.30533,1.00861 1.58497,-6.98816 3.53007,1.80107 z m -9.50964,3.31397 2.08928,-2.95378 5.11503,-1.3688 z m 7.20431,-4.32258 -7.20431,4.32258 9.50964,-3.31397 z m -13.76019,3.89031 8.64512,-2.5215 -2.08924,2.95377 z m -4.61073,-2.37741 -2.8817,2.16128 -1.00861,-6.55588 z m -7.79455,-12.81502 2.24727,2.80108 1.29676,-6.05157 z m 2.24727,2.80108 -2.24727,-2.80108 3.90424,8.42042 z m -2.24727,-2.80108 3.90424,8.42042 -2.8817,2.0172 z m 3.90424,8.42042 1.00861,6.55588 -3.89031,-4.53868 z m -2.8817,2.0172 -2.73763,-5.76341 1.71509,-4.67421 z m -1.02254,-10.43762 -2.36346,1.50433 0.64837,3.16988 z m -1.71509,4.67421 h -3.89029 l 6.62792,5.76341 z m -3.89029,0 0.5043,3.81826 6.12362,1.94515 z m 6.62792,5.76341 -6.12362,-1.94515 10.01393,6.48383 z m -2.73763,-5.76341 h -3.89029 l 3.24192,-3.16988 z m -0.64837,-3.16988 2.36346,-1.50433 -0.20215,-8.2935 z m 2.36346,-1.50433 3.54403,-3.25049 -3.74618,-5.04301 z m 3.54403,-3.25049 -3.74621,-5.04299 7.20426,-0.21613 z m -3.74623,-5.04299 7.20428,-0.21613 2.95378,-8.429 z m 10.15803,-8.64512 -3.6021,-1.44087 12.8236,-3.45804 z m -3.6021,-1.44087 3.45802,-2.73761 9.36558,-0.72043 z m 3.45802,-2.73761 9.36558,-0.72043 -4.61077,-1.44085 z m 9.36558,-0.72043 -4.61077,-1.44085 9.94189,1.00859 z m -12.8236,3.45804 -6.05161,0.72044 9.50963,-3.45805 z m 3.6021,1.44087 -3.6021,-1.44087 -7.92473,3.38602 z m -3.6021,-1.44087 -7.92473,3.38602 1.87312,-2.66558 z m -6.55593,10.08599 -1.3688,-6.69997 11.52683,-1.94515 z m -7.85264,0.28817 5.69138,9.50964 2.16131,-9.79783 z m 7.85269,-0.28819 -8.71719,-2.73761 7.34834,-3.96234 z m -8.71719,-2.7376 8.71714,2.73762 -7.85264,0.28816 z m -3.24192,7.49244 3.24192,-7.49244 0.8645,3.02579 z m 9.7978,5.04299 -5.69138,-9.50965 -2.16127,9.79781 z m -7.85265,0.28816 -1.94515,-5.33115 4.10642,-4.46665 z m 7.85265,-0.28816 -3.24192,3.16988 -4.61073,-2.88172 z m -3.24192,3.16988 -1.29677,6.33974 -3.31396,-9.22146 z m 0.5043,3.81826 5.76342,9.6537 4.25051,-3.16987 z m -0.5043,-3.81826 0.5043,3.81826 -1.80107,2.52149 z m -1.29677,6.33975 1.80107,-2.52149 -0.0721,5.83545 z m 1.80107,-2.52149 -0.0721,5.83545 5.83546,3.81826 z m 5.76342,9.6537 4.25051,-3.16987 5.7634,3.5301 z m 4.25051,-3.16987 5.7634,3.5301 -2.8817,-5.69138 z m 5.7634,3.5301 -2.88166,-5.69139 4.61072,2.37741 z m 1.72903,-3.31397 -1.72903,3.31397 10.41366,3.60238 z m -1.72903,3.31397 -10.01393,-0.36022 20.42759,3.9626 z m -10.01393,-0.36022 -1.80107,1.5129 22.22869,2.4497 z m -1.80106,1.51289 1.80106,-1.51289 -5.83546,-3.81826 z m -4.0344,-5.33115 -4.61071,0.57634 8.64511,4.75481 z m 4.03439,5.33116 -8.64513,-4.75481 6.48385,5.61933 z m -8.6451,-4.75482 4.61071,-0.57634 -11.38274,-8.64511 z m 4.61071,-0.57634 -1.72901,-3.31397 -9.65372,-5.33116 z m -11.38274,-8.64511 9.65373,5.33115 -9.7978,-14.12038 z m -0.14409,-8.78922 9.79782,14.12036 -3.31396,-9.22146 z m 6.48386,4.8989 -6.48386,-4.8989 4.53871,-0.43225 z m -1.94515,-5.33115 -4.53871,0.43225 7.78063,-7.9247 z m -0.50432,-8.50104 -4.03437,8.93328 7.7806,-7.92468 z m 11.09458,-2.95375 1.87312,-2.66558 -9.22146,6.62792 z m 1.87312,-2.66558 -9.22146,6.62793 6.05158,-9.22146 z m -3.16988,-2.59353 -6.05159,9.22146 -3.74623,-1.0086 z m 12.67951,-0.86452 -9.50963,3.45805 4.32254,-4.89889 z m -9.50963,3.45805 -3.16988,-2.59353 7.49242,-2.30536 z m 9.50963,-3.45805 4.75481,-2.16128 -9.9419,0.72044 z m 4.75481,-2.16128 -9.9419,0.72044 1.59022,-1.58851 z m 9.94189,1.00859 -9.94189,-1.00859 9.98739,-0.66431 z m -9.94189,-1.00859 -8.35166,-0.86808 18.33905,0.20377 z m -17.43432,3.0258 -1.51327,-1.24489 9.00569,-1.06047 z m 7.49242,-2.30536 1.59024,-1.58852 -10.59593,2.64899 z m -9.00569,1.06047 -9.37325,6.11302 10.88652,-4.86814 z m -8.28455,9.45775 9.79782,-8.21286 -10.88652,4.86813 z m -4.03437,8.93328 4.03437,-8.93328 -5.36785,2.56452 z m 4.03437,-8.93328 -5.36785,2.56452 4.27915,-5.90925 z m -5.36787,2.56453 1.3335,6.36875 -3.7787,1.17064 z m 1.47757,15.15798 -0.14407,-8.78923 -3.7787,1.17064 z m 6.772,9.22146 -6.77199,-9.22148 2.30537,8.93329 z m -4.46663,-0.28817 4.46663,0.28817 -0.86448,5.90748 z m 3.60213,6.19566 0.8645,-5.90749 6.48385,5.61933 z m 26.51172,-17.14617 8.35695,-4.03438 -8.35695,-5.33117 z m 19.66765,-22.40526 1.04528,-0.62441 -12.06782,-2.90569 z m -11.02254,-3.5301 0.0455,-1.6729 12.0223,4.57858 z m 18.15473,7.70856 -7.13219,-4.17846 1.04528,-0.62441 z m -6.08691,-4.80287 -12.02232,-4.57859 29.34797,3.40192 z m -0.97322,6.31577 -0.0721,-5.69136 7.13219,4.17846 z m 2.48547,2.19731 -2.48547,-2.19731 7.06017,-1.5129 z m 1.62097,4.64674 -1.62099,-4.64674 4.57472,-3.71021 z m 2.95375,-8.35694 -2.95376,8.35696 2.73761,-0.21613 z m -2.95375,8.35694 2.7376,-0.21611 -0.14408,6.98813 z m 2.73762,-0.21612 -0.1441,6.98814 1.80107,-0.72042 z m -0.20264,6.91722 1.85961,-0.6495 -1.5129,5.04299 z m 1.85961,-0.6495 -1.5129,5.04299 1.65699,-0.86451 z m -1.80107,0.72042 -2.59352,-6.77202 -1.15269,2.23333 z m 2.52151,-7.42039 -2.16128,-7.70857 -0.21613,8.14082 z m -0.72043,6.69996 -1.65698,-6.26771 2.37741,-0.43225 z m -1.80108,0.72043 -3.74621,-4.53869 4.03438,8.86126 z m 0.28817,4.32257 -4.03438,-8.86126 0.79244,10.01395 z m -4.03438,-8.86126 -2.52148,5.47525 3.31392,4.5387 z m -2.52148,5.47525 -2.44948,5.61932 5.76342,-1.08063 z m -2.44945,5.61932 -5.11507,5.18709 8.35694,-0.0721 z m 3.24188,5.11503 -3.24188,-5.11503 5.76339,-1.08063 z m -15.73784,9.87011 -8.6846,-6.91636 6.55585,0.43228 z m -22.22866,-2.4497 -2.16128,0.86452 12.60189,3.78562 z m 22.22866,2.4497 -22.22865,-2.44971 10.4406,4.65015 z m -15.28252,2.85274 -9.10742,-4.43792 12.60189,3.78562 z m 33.54187,-18.91851 3.24192,-1.15268 -2.08925,5.97953 z m 1.15268,4.82686 -1.1527,-4.82685 -2.5215,6.19566 z m -3.6742,1.36881 -8.35694,0.0721 3.53008,4.61072 z m -8.35694,0.0721 -9.50964,3.31397 13.03972,1.29676 z m -9.50964,3.31397 2.12876,6.48407 10.91096,-5.18731 z m 2.12878,6.48408 10.91094,-5.18732 5.57316,0.17667 z m 10.91094,-5.18732 5.57316,0.17667 -0.7463,-4.85945 z m 5.57316,0.17667 -0.74629,-4.85946 3.67421,-1.36881 z m 2.92789,-6.22827 -2.92789,6.22827 3.64833,-5.21966 z m 0.72045,1.0086 -3.64834,5.21967 3.07759,-0.89861 z m 1.3688,-6.98813 -2.08925,5.97953 3.46987,-3.34816 z m 1.38062,2.63137 -3.46984,3.34816 0.72041,1.00861 z m -1.38062,-2.63137 1.38062,2.63136 0.27637,-3.49587 z m 1.38062,2.63137 0.27637,-3.49588 1.65697,0.43226 z m 3.73441,-1.11848 -6.48383,5.47524 4.68276,-7.42038 z m -1.80107,-1.94514 -1.65696,-0.43227 2.16126,-4.46664 z m -1.80106,-4.61074 0.1441,4.17847 2.16128,-4.46665 z m 2.30538,-0.28818 -0.50432,4.89892 2.80965,-4.25054 z m -0.50432,4.89892 1.80107,1.94514 1.00861,-6.19568 z m 1.80107,1.94514 -6.48385,5.47524 5.9165,1.80107 z m -0.56732,7.27631 0.56732,-7.27631 2.8817,-1.0086 z m 3.44904,-8.28491 -2.8817,1.0086 1.00856,-6.19568 z m -1.87314,-5.18708 1.87315,5.18709 0.8645,-7.34836 z m 2.73767,-2.16126 -2.73764,2.16126 -0.1441,-9.07737 z m -5.04302,1.51289 2.30535,0.64837 -0.14405,-9.07736 z m -1.58493,-6.41179 -0.72042,6.69995 2.30535,-0.28816 z m 10e-6,-1e-5 1.58494,6.41179 2.16126,-8.42899 z m -2.1613,-7.70858 2.16129,7.70859 3.74623,-2.0172 z m 5.90751,5.69138 -5.90749,-5.69137 8.48237,3.8634 z m 2.57488,-1.82797 -8.48237,-3.8634 -6.08697,-4.80288 z m -14.56934,-8.66628 14.56934,8.66628 0.71319,-1.63013 z m 14.56938,8.6663 -2.57491,1.82796 4.89352,2.74444 z m 0.30677,8.74405 -2.88168,-6.91609 4.89348,2.74443 z m -0.86448,7.34836 -3.44908,8.2849 5.83925,-6.37216 z m -9.93631,10.80489 -19.56169,5.90926 3.05649,3.46404 z m -57.20751,-10.51671 -3.92277,-7.61859 0.61131,10.18836 z m -3.31146,2.56977 3.31147,-2.56979 2.30537,8.93329 z m 5.61684,6.3635 -1.43963,4.74184 -4.17721,-11.10534 z m -1.43963,4.74184 1.43963,-4.74184 3.60214,6.19567 z m 5.04177,1.45383 -5.04177,-1.45383 10.68177,5.20405 z m -5.04177,-1.45383 10.68182,5.20405 -5.89326,-0.21176 z m 10.6818,5.20406 -5.64005,-3.75022 7.34835,-0.28816 z m 10.81567,0.39954 -9.10735,-4.43794 -1.7083,4.03839 z m -4.07531,3.46405 -12.6336,-4.07536 16.70891,0.61131 z m 22.41442,-2.85274 -3.05654,-3.46405 -15.28252,2.85274 z m 29.31776,-31.69821 -2.01175,4.17166 3.00591,2.94272 z m -2.8763,11.52 0.86451,-7.34835 3.00595,2.94273 z m 2.3902,1.91275 -2.39017,-1.91274 3.87038,-4.40563 z m -5.83925,6.37216 5.83925,-6.37216 -2.84633,5.22648 z m 5.83925,-6.37216 -2.85133,5.23616 5.80741,-2.25326 z m 0.4861,-13.43275 0.99416,7.11438 9.21895,-2.92477 z m -1.60541,-6.20255 -0.71319,1.63013 12.54763,8.73655 z m 1.60541,6.20255 -2.31856,-4.5724 12.53167,8.76201 z m 10.21311,4.18961 -11.81852,-10.39216 12.83736,8.762 z m 1.01884,-1.63016 -1.01884,1.63016 9.2714,3.87158 z m -1.01884,1.63016 -9.21895,2.92477 18.49035,0.94681 z m -7.74313,12.22604 -2.95608,-2.9829 1.48026,-6.31837 z m 17.01453,-8.35446 -18.4904,-0.94681 1.47584,9.30126 z m -17.01458,8.35446 -15.28251,5.90925 18.54281,-3.26028 z m -15.28251,5.90925 0.57075,-4.32106 5.91648,1.80107 z m 0,0 -16.50518,9.37331 35.04803,-12.63358 z m -16.50518,9.37331 -18.33911,-0.61131 -4.07531,3.46405 z m -22.41444,2.85272 -12.63358,-4.07534 -13.24486,1.83391 z m -17.42214,-9.06763 -11.96032,-7.76761 7.78311,-3.33773 z m -11.96032,-7.76761 7.78311,-3.33773 -10.8089,-5.16331 z m 7.78311,-3.33773 -10.8089,-5.16331 10.19759,-5.02505 z m 8.96577,16.09763 -13.24486,1.83391 -19.56172,-8.76198 z m -13.24486,1.83391 -19.56167,-8.76198 6.72429,5.70546 z m 13.24486,-1.83391 -32.80653,-6.92807 28.01797,1.93578 z m -4.78856,-4.99229 -28.01797,-1.93578 16.05765,-5.83183 z m -11.96032,-7.76761 -16.0577,5.83183 13.03191,-14.33287 z m 7.1718,-13.52609 -10.19759,5.02505 12.64279,-12.56444 z m 2.4452,-7.53939 4.27912,-5.90926 -35.251725,19.96921 z m -12.64279,12.56444 12.64279,-12.56444 -30.972605,14.05995 z m -22.201435,14.33285 -9.169514,-6.72431 25.063409,12.4298 z m 9.169535,0 -18.339075,-6.72433 25.063405,12.42981 z m -18.339049,-6.72431 18.339049,6.72431 -5.297915,-12.83734 z m 13.041134,-6.11303 18.329815,-1.49551 -13.03186,14.33287 z m 35.251725,-19.96921 9.3733,-6.11302 -55.832288,27.71236 z m -35.251774,19.96921 35.251824,-19.96921 -46.459038,21.59934 z m 7.235334,-16.76856 37.38974,-9.31367 -55.832288,27.71236 z m 37.38974,-9.31367 -3.96193,-4.51854 -33.42781,13.83221 z m 0,0 -3.96193,-4.51854 14.55784,1.86956 z m -37.38974,9.31367 33.42781,-13.83221 -14.40854,-1.72902 z m 66.32472,-11.75889 -18.33903,-0.20376 14.83552,-6.19211 z m -32.89691,-2.07332 14.55784,1.86956 14.83556,-6.19211 z m 60.20179,13.68807 -15.28256,-7.03616 17.32565,-1.17665 z m -27.30488,-11.61475 -3.50351,-6.39587 32.85148,9.79781 z m 29.34797,3.40192 -2.04309,8.21283 17.6043,3.02584 z m 10.79427,16.97483 -12.83736,-8.762 17.6043,3.02584 z m -10.79427,-16.97481 -32.85148,-9.79781 25.93537,-2.30536 z m -76.65342,-7.20427 14.40854,1.72901 24.20634,-9.50964 z m 14.40854,1.72901 24.20634,-9.50964 5.18706,5.18709 z m 29.3934,-4.32255 -5.18706,-5.18709 31.12244,2.88172 z m -43.80194,2.59353 38.61488,-7.78062 -16.42573,-7.20426 z m 38.61488,-7.78062 31.12243,2.88173 -17.00207,-11.23867 z m 31.12244,2.88172 -17.00208,-11.23867 25.93537,6.91611 z m -31.12244,-2.88172 14.12036,-8.35694 -30.54609,1.15268 z m -57.63415,23.34185 19.01927,-15.56123 -34.580491,19.5956 z m 19.01927,-15.56122 22.18915,-14.98489 -32.27513,10.37414 z m -34.580491,19.59559 34.580491,-19.59559 -28.240737,6.91609 z m 6.339754,-12.6795 28.240737,-6.91609 -10.08598,-4.61075 z m -9.221081,27.04382 -11.959475,3.07002 30.402023,-21.46871 z m 18.442548,-18.39869 -15.561221,4.03437 -14.840802,17.43434 z m -15.561221,4.03437 6.339754,-12.6795 -21.180556,30.11383 z m 6.339754,-12.6795 -21.180556,30.11383 22.04507,-39.91163 z m 0,0 18.154757,-11.52684 -17.290243,1.72904 z m 0.864514,-9.7978 17.290243,-1.72904 12.39134,-17.29023 z m 17.290243,-1.72904 32.27513,-10.37414 -19.88379,-6.91609 z m 12.39134,-17.29023 19.88379,6.91609 15.56121,-12.967691 z m 19.88379,6.91609 30.54609,-1.15268 -14.98488,-11.815011 z m 30.54609,-1.15269 -14.98488,-11.814988 27.08805,2.593538 z m -80.111463,13.25586 29.681583,-19.01926 -15.27304,-4.322576 z m 14.408543,-23.341836 15.27304,4.322576 22.47731,-15.561216 z m 15.27304,4.322576 22.47731,-15.561216 12.96769,9.509628 z m 35.445,-6.051588 -12.96769,-9.509628 22.7655,-1.729038 z m 27.08805,2.593538 -27.08805,-2.593551 9.79781,-11.238653 z m 13.8322,16.13756 -25.93537,-6.9161 12.10318,-9.221473 z M 189.04845,97.221257 171.7582,83.389066 l 28.24074,8.068776 z m 8.50102,-17.002054 -25.79127,3.169863 28.24074,8.068776 z m -20.17195,-6.916089 20.17195,6.916089 -25.79127,3.169863 z m 20.17195,6.916089 2.44947,11.238639 12.82359,-0.864513 z M 177.37752,73.303114 159.94319,72.150415 171.7582,83.389066 Z M 171.7582,83.389066 159.94319,72.150415 148.9927,85.118104 Z m -31.84287,-8.93329 -18.87518,7.204276 27.95255,3.458052 z m 20.02786,-2.305361 -10.95049,12.967689 -9.07737,-10.66234 z m -10.95049,12.967689 -27.95255,-3.458062 -9.7978,14.696702 z M 96.833807,119.69859 90.205876,116.5287 111.24235,96.356744 Z m -6.627931,-3.16989 21.036474,-20.171956 -7.06019,-2.8817 z m 21.036474,-20.171956 -7.06019,-2.8817 16.85799,-11.814992 z M 88.044601,109.7567 104.18216,93.475044 90.205876,116.52871 Z m 2.161275,6.77201 -2.161275,-6.77203 -7.636527,12.82361 z m 112.674764,-3.16988 -13.8322,-16.13756 29.10525,19.59562 z m 15.27305,3.45804 -29.10524,-19.595613 10.95049,-5.763402 z m -5.33116,-26.223541 -12.82359,0.864526 22.76548,19.307425 z m 9.94189,20.171971 -9.94189,-20.171971 10.37415,11.670921 z m 9.7978,4.32256 -9.36554,-12.82361 -0.43226,8.50105 z m -14.40853,1.72901 -18.15475,-25.359015 22.76548,19.307425 z m -17.29024,12.9677 -6.91611,-12.10317 23.63001,16.42573 z m 16.7139,4.32256 -23.63,-16.42574 8.93329,-4.32257 z m 8.14029,19.58034 -22.82192,6.9281 17.01453,-8.35446 z m -5.80739,-1.42636 -8.25253,-5.50173 9.98462,3.46404 z m 5.80739,1.42636 -5.80734,-1.42636 1.73204,-2.03769 z m -4.0753,-3.46405 -9.98462,-3.46404 4.76694,-5.73616 z m -5.21768,-9.2002 -15.56121,-11.23865 16.7139,4.32256 z m 1.15269,-6.91609 -14.69671,-20.74831 19.88378,16.42575 z m 5.18707,-4.32256 -19.88378,-16.42574 15.27305,3.45806 z m 0,-19.01927 -4.61073,6.05157 13.54403,8.93331 z m 8.9333,14.98488 -8.9333,-14.9849 9.7978,4.32257 z m 5.33115,4.03439 -5.33115,-4.03439 0.8645,-10.66232 z m -5.33115,-4.03439 -13.54403,-8.93329 14.6967,18.15474 z m 1.15267,9.22145 -14.6967,-18.15474 4.61073,12.96768 z m 4.17848,-5.18706 -5.33115,-4.03439 7.34835,26.3676 z m -5.33115,-4.03439 1.15267,9.22145 6.19564,17.14615 z m 1.15267,9.22145 -10.08597,-5.18706 16.28161,22.33321 z m -10.08597,-5.18706 -5.18707,4.32256 21.46872,18.01065 z m -5.18707,4.32256 -1.15269,6.91609 22.62141,11.09456 z m -1.15269,6.91609 5.21768,9.2002 17.40373,1.89436 z m 5.21768,9.2002 4.0753,3.46405 13.32839,-1.56969 z m 4.0753,3.46405 -22.82197,6.9281 36.1504,-8.49778 z m -19.56163,9.57708 -3.26029,-2.64898 36.15035,-8.49779 z m -130.790922,-18.06286 5.042986,-22.6214 9.797802,-6.05158 z m 14.840788,-28.67298 -14.840788,28.673 4.760718,-0.27624 z m -15.417139,43.08152 22.04507,-39.91164 -6.627931,-3.16988 z m -3.8e-5,-1e-5 5.337107,-14.68475 -4.760718,0.27622 z m 11.959513,-3.07001 11.207214,-1.63013 -13.041111,6.11301 z m 0,0 -1.833871,4.4829 -10.125604,-1.41288 z m 7.335643,11.20721 -9.16954,-6.72433 -10.125578,-1.41286 z m 10.242395,14.19604 5.65147,-8.49056 -15.893865,-5.70548 z m 18.48881,-5.43405 -12.83731,-3.0565 34.40423,14.8303 z m 21.56692,11.77381 -21.56688,-11.7738 25.87844,2.24143 z m 26.72598,-12.3851 -22.4144,2.85275 21.91195,8.37967 z m 35.04801,-12.63358 -35.04801,12.63358 33.5017,0.5701 z m -1.54631,13.20368 1.54631,-13.20368 32.8901,-11.14675 z m -34.00415,10.66232 0.50247,-11.23241 33.50168,0.57008 z m -26.22353,1.15268 4.31158,-9.53235 21.91196,8.37965 z m -50.298125,-20.5358 -19.295118,-8.13719 29.537513,22.33323 z m 10.242395,14.19605 5.6515,-8.49056 34.40423,14.83031 z m 112.09841,-1.72903 -11.815,-3.74623 34.43641,-24.35042 z m -11.815,-3.74622 11.815,3.74623 -23.91817,11.81499 z m -34.00415,10.66232 34.00415,-10.66232 -12.10317,15.56122 z m -6.62792,10.6623 6.62792,-10.6623 -26.22353,1.15268 z m -33.13964,-1.44084 13.54403,-8.06878 -40.05573,-6.33975 z m -26.5117,-14.40853 1.15269,8.93328 -30.690203,-31.26652 z m 1.15269,8.93328 -30.690203,-31.26652 19.739709,27.52029 z m 25.35901,5.47524 -26.5117,-14.40852 1.15269,8.93329 z m 33.13964,1.44085 -19.59561,-9.50962 -13.54403,8.06877 z m 28.5289,-5.7634 -21.90098,-4.8989 -6.62792,10.6623 z m -28.5289,5.7634 -33.13964,-1.44085 11.815,12.10317 z m 28.5289,-5.7634 -28.5289,5.7634 17.86658,10.08597 z m 23.91817,-11.815 -23.91817,11.815 17.29025,0.86451 z m 7.78062,-2.59354 -7.78062,2.59354 22.62141,-28.09666 z m -14.40854,15.27304 6.62792,-12.6795 7.78062,-2.59353 z m -17.29025,-0.8645 17.29025,0.86451 -27.95257,14.98486 z m -10.66232,15.84937 -17.86658,-10.08597 -21.32464,10.66232 z M 94.528446,187.13054 74.788737,159.61023 89.341364,190.3004 Z m -5.187082,3.16986 -14.552627,-30.69018 9.365551,29.24933 z m 5.187082,-3.16986 -5.187082,3.16986 20.460136,15.84939 z m 10.950494,3.74622 -10.950494,-3.74622 19.883784,14.98486 z m 8.93329,11.23865 -19.883784,-14.98487 15.273044,19.01926 z m -4.61074,4.03439 -20.460126,-15.8494 6.051592,12.39135 z m -20.460126,-15.8494 -5.187076,-1.44085 11.238668,13.8322 z m -5.187076,-1.44085 -7.92469,-14.98488 -1.440899,-14.26445 z m -7.92469,-14.98488 7.92469,14.98489 -1.440849,4.61074 z m 6.483841,19.59562 1.440849,-4.61073 11.238668,13.83218 z m 59.939511,14.98489 -11.815,-12.10319 -16.42572,5.76341 z m -11.23865,7.20426 -17.00207,-13.54403 28.24072,6.33977 z m -17.00207,-13.54403 -8.93329,-11.23866 25.35901,5.47524 z m -4.61074,4.03439 4.61074,-4.03439 17.00207,13.54402 z m -14.984882,3.45805 -12.103169,-16.13755 12.679517,9.22144 z m 14.984882,-3.45805 -14.408534,-3.45805 21.036474,15.56122 z m 6.62792,12.10318 -6.62792,-12.10318 21.61281,9.50963 z m -21.612802,-8.64513 0.576348,-6.91611 21.036454,15.56124 z m 21.612822,14.55262 -21.612822,-14.55262 21.612822,8.64512 z m 14.98487,-8.50103 -14.98487,2.59353 46.97181,8.64512 z m 11.23865,-7.20426 -11.23865,7.20426 39.76755,3.45805 z m 20.74829,18.44291 -31.98694,-11.23865 39.76755,3.45805 z m 18.44293,-19.01926 -39.19122,0.57633 28.5289,10.66233 z m 42.36111,-30.25792 -14.40854,15.27304 12.67951,-0.57635 z m -14.40854,15.27304 12.67951,-0.57635 -19.88378,15.84939 z m -27.95257,14.98488 27.95257,-14.98489 -7.20427,15.27305 z m -10.66232,11.23866 10.66232,-11.23866 20.7483,0.28816 z m -7.78061,7.7806 7.78061,-7.7806 26.22354,-3.16987 z m 7.78061,-7.7806 31.41062,-10.9505 -5.18708,7.78063 z m 26.22354,-3.16989 5.18708,-7.78061 16.71391,-7.49243 z m 5.18708,-7.78061 16.71391,-7.49243 3.16987,-8.35696 z m 19.88378,-15.84939 1.72903,-14.69669 14.84079,-25.50312 z m -3.16987,8.35696 3.16987,-8.35696 8.35695,-5.7634 z m 11.52682,-14.12036 -8.35695,5.7634 16.56982,-40.19981 z m 10.37414,-27.80848 -2.16127,-6.62793 -8.21287,34.43641 z m -10.37414,27.80848 10.37414,-27.80848 1.0086,9.07739 z m 4.75482,-0.72043 6.62792,-18.01066 -11.38274,18.73109 z m -4.75482,0.72043 4.75482,-0.72043 -12.67952,15.84938 z m -7.9247,15.12896 7.9247,-15.12896 -11.52682,14.12036 z m -25.50311,14.26444 21.90099,-15.27304 -12.39135,14.26446 z m 9.50964,-1.00858 12.39135,-14.26446 3.60212,1.0086 z m -9.50964,1.0086 9.50964,-1.0086 -18.73111,10.95047 z m -9.22147,9.94188 9.22147,-9.94188 -34.00415,10.95047 z m -46.53957,4.46663 21.75689,-3.45803 -46.97181,-8.64513 z m 0,0 -25.21494,-12.10315 v 5.9075 z m 11.38276,1.72903 -11.38276,-1.72902 21.75689,-3.45804 z m 18.73109,-0.57633 16.42572,-5.61933 -24.78268,1.00859 z m -18.73109,0.57633 10.37413,-5.18707 8.35696,4.61074 z" />
    </g>
  </g>
</svg>
