<?xml version="1.0" encoding="UTF-8" standalone="no"?>
<!-- Created with Inkscape (http://www.inkscape.org/) -->

<svg
   xmlns:dc="http://purl.org/dc/elements/1.1/"
   xmlns:cc="http://creativecommons.org/ns#"
   xmlns:rdf="http://www.w3.org/1999/02/22-rdf-syntax-ns#"
   xmlns:svg="http://www.w3.org/2000/svg"
   xmlns="http://www.w3.org/2000/svg"
   xmlns:sodipodi="http://sodipodi.sourceforge.net/DTD/sodipodi-0.dtd"
   xmlns:inkscape="http://www.inkscape.org/namespaces/inkscape"
   width="231.81775mm"
   height="297.00006mm"
   viewBox="0 0 231.81775 297.00006"
   version="1.1"
   id="svg8"
   sodipodi:docname="lighthouse wireframe.svg"
   inkscape:version="0.92.3 (unknown)">
  <title
     id="title2352">lighthouse wireframe</title>
  <defs
     id="defs2" />
  <sodipodi:namedview
     id="base"
     pagecolor="#0d0d0d"
     bordercolor="#666666"
     borderopacity="1.0"
     inkscape:pageopacity="0"
     inkscape:pageshadow="2"
     inkscape:zoom="0.35355339"
     inkscape:cx="414.40899"
     inkscape:cy="417.94061"
     inkscape:document-units="px"
     inkscape:current-layer="layer1"
     showgrid="false"
     units="mm"
     inkscape:object-paths="true"
     inkscape:snap-intersection-paths="true"
     inkscape:snap-smooth-nodes="true"
     inkscape:snap-page="true"
     inkscape:showpageshadow="false"
     showborder="true"
     inkscape:window-width="1085"
     inkscape:window-height="809"
     inkscape:window-x="67"
     inkscape:window-y="27"
     inkscape:window-maximized="1"
     inkscape:measure-start="304.565,813.63"
     inkscape:measure-end="304.565,756.639"
     inkscape:snap-midpoints="true"
     inkscape:snap-bbox="true"
     inkscape:bbox-nodes="true"
     fit-margin-top="0"
     fit-margin-left="0"
     fit-margin-right="0"
     fit-margin-bottom="0" />
  <metadata
     id="metadata5">
    <rdf:RDF>
      <cc:Work
         rdf:about="">
        <dc:format>image/svg+xml</dc:format>
        <dc:type
           rdf:resource="http://purl.org/dc/dcmitype/StillImage" />
        <dc:title>lighthouse wireframe</dc:title>
        <dc:creator>
          <cc:Agent>
            <dc:title>Kevyan Uehara de Moraes</dc:title>
          </cc:Agent>
        </dc:creator>
        <cc:license
           rdf:resource="http://creativecommons.org/licenses/by-nc-sa/4.0/" />
      </cc:Work>
      <cc:License
         rdf:about="http://creativecommons.org/licenses/by-nc-sa/4.0/">
        <cc:permits
           rdf:resource="http://creativecommons.org/ns#Reproduction" />
        <cc:permits
           rdf:resource="http://creativecommons.org/ns#Distribution" />
        <cc:requires
           rdf:resource="http://creativecommons.org/ns#Notice" />
        <cc:requires
           rdf:resource="http://creativecommons.org/ns#Attribution" />
        <cc:prohibits
           rdf:resource="http://creativecommons.org/ns#CommercialUse" />
        <cc:permits
           rdf:resource="http://creativecommons.org/ns#DerivativeWorks" />
        <cc:requires
           rdf:resource="http://creativecommons.org/ns#ShareAlike" />
      </cc:License>
    </rdf:RDF>
  </metadata>
  <g
     inkscape:label="Layer 1"
     inkscape:groupmode="layer"
     id="layer1"
     transform="translate(-2.2907834e-8,5.1845997e-6)">
    <path
       id="path1246-9"
       style="opacity:1;vector-effect:none;fill:none;fill-opacity:1;stroke:#ffffff;stroke-width:1.19756806;stroke-linecap:butt;stroke-linejoin:bevel;stroke-miterlimit:4;stroke-dasharray:none;stroke-dashoffset:0;stroke-opacity:1"
       d="m 211.17672,95.461608 -66.99471,-33.18948 0.0352,-12.422405 66.95956,-35.541073 M 67.25789,42.709396 81.955788,42.719957 67.25789,71.711574 Z m 62.25954,29.002375 -47.561642,0.01056 -14.697898,26.468132 z m -79.535222,141.464509 9.056994,21.9722 -1.9533,33.4534 z M 67.25789,98.190735 h 76.9551 L 129.5143,71.706143 Z m 62.25954,-26.478964 14.69951,26.456816 V 71.711771 Z m 30.54691,26.478994 h -15.85135 l 0.003,-26.478964 z m -15.8474,-26.478964 h 15.8474 V 98.190765 Z M 51.406555,98.190765 H 67.25789 l -0.003,-26.478964 z M 67.253952,71.711801 H 51.406555 V 98.190765 Z M 125.4593,207.58311 67.25789,98.190765 h 76.9551 z M 81.955788,71.722875 V 42.72047 L 67.253952,71.711771 Z m 0,-29.002616 47.561642,28.991542 -47.561642,0.01056 z M 129.51743,71.711801 81.955788,42.720259 129.51743,42.709698 Z m 14.69949,0 -14.69949,-29.002375 -0.005,28.996747 z m 0,0 -14.69949,-29.002375 h 14.69949 z M 81.955788,71.722362 67.256276,98.179178 V 71.722392 Z M 105.7366,0.44607009 129.51743,42.708913 81.955803,42.719475 Z M 129.51743,42.708913 h 14.69949 L 105.7366,0.44610027 Z m -47.561642,0.006 H 67.256291 L 105.73661,0.45210508 Z m 62.261132,-0.006 h 11.88557 L 105.72859,0.46073511 Z m -76.964642,-0.0015 H 55.368405 L 105.74063,0.45877374 Z m 7.28061,253.693387 5.289169,-17.96123 -27.907114,17.96123 z m 23.871684,0 -18.582515,-17.96123 -5.289169,17.96123 z m 49.051878,-110.22765 18.142,55.82315 6.58851,-13.37043 z m 3.7e-4,-0.001 18.14182,55.82461 6.58805,-13.37086 39.48069,67.77538 h 19.67387 z m 5.33731,7.01353 -8.58114,-94.994959 -18.75369,109.392349 9.37954,-9.35357 9.15953,3.55171 3.45808,-15.60778 z M 62.352078,215.62856 67.25789,98.190886 125.4593,207.58273 l -12.73423,12.69896 -20.131951,-34.4829 -7.210001,25.35137 -7.742015,-4.8802 z m 11.769872,66.47961 -3.552767,-34.99492 -6.550256,41.4973 z m -3.552767,-34.99462 -30.828846,49.28754 h 12.174606 l 12.103984,-7.79023 z m -40.989654,49.28754 20.403101,-83.22496 -0.561887,67.64295 -9.680406,15.58201 z m 20.403101,-83.22496 7.1038,55.42608 -7.665687,12.21687 z m 32.046347,67.34805 -3.396008,-23.23324 19.771603,39.11015 z m -11.459794,-33.41063 9.978748,23.27831 1.481046,10.13231 -2.207267,-2.08473 -5.69976,3.66903 z m 48.320557,49.28754 H 98.404572 l 22.458438,-18.42351 z m 1.97327,-18.42351 10.64442,18.42351 h -12.62711 z m 0,0 50.795,18.42351 h -40.15058 z m -4.62625,-15.06855 7.00589,15.9944 -2.37964,-0.92585 -5.57004,4.5693 z m 0,0 -0.94379,19.63785 -9.79975,8.03912 z m -37.603791,-5.61809 28.682281,28.81529 -1.82203,4.47977 -7.088648,5.81509 z m 55.712871,15.79643 -0.92587,9.45046 10.44226,3.56941 z m 0,0 -11.10319,5.81606 10.17732,3.6344 z m 16.72026,5.88203 0.6993,10.21658 19.89261,7.21511 z m 0,0 -7.20387,7.13784 7.90317,3.07874 z m -34.82934,-16.06037 10.70169,14.05846 -3.6958,1.93594 z m 69.66462,33.49206 -27.56548,-30.18761 5.18318,23.29777 8.13893,6.88984 z m 0,0 h 25.76635 L 158.3359,266.21348 Z m -27.56548,-30.18761 -7.2698,12.75592 12.45298,10.54185 z m -99.296698,-31.065 6.145247,20.54752 -8.098019,12.90638 z m 113.147738,-6.52232 12.81488,52.68112 26.66591,15.09381 z m 2e-5,0 -6.01185,42.02457 18.82669,10.65655 z m -51.45076,15.62839 11.75201,29.80589 -5.54976,2.90705 -10.70169,-14.05846 z m -50.166942,2.85906 24.717925,16.91918 -0.396951,9.38445 -16.257324,-16.12637 1.915023,13.10097 z m 24.71797,16.91923 14.142682,16.65427 -2.11466,5.41912 -12.425018,-12.68899 z m 37.200962,10.0276 -11.75199,-29.80589 21.76713,31.64549 1.3589,10.2072 -9.51639,-13.01987 z m 15.40315,3.8703 -5.38801,-2.0307 1.3589,10.2072 z m -27.15514,-33.67619 -25.448972,19.77829 14.142682,16.65427 6.80672,-17.7777 z m 51.45076,-15.62839 -28.32473,57.48108 7.20387,-7.13784 7.2698,-12.75592 7.8392,4.43725 z m -24.73044,-42.45356 18.14196,55.82399 -4.27568,8.67683 z m -3.45815,15.60862 17.32443,48.8922 -13.86635,-64.50105 z m -23.26217,42.47333 38.16165,11.33999 -11.00652,22.3362 -5.38748,-2.0305 z m 29.31767,8.71193 -6.0555,-51.18526 17.32443,48.8922 -2.42495,4.92112 z m 9e-5,-3.9e-4 -15.2152,-54.73619 9.15971,3.55093 z m -91.014351,-17.81722 5.701329,-13.55234 0.543074,33.94061 z m 5.701223,-13.55228 9.667011,28.14449 -3.83866,-2.62753 -5.285066,8.42353 z m 12.900271,-15.32633 -3.23326,43.47082 -9.666799,-28.14461 z m 0,0 3.93688,18.25964 -7.17014,25.21118 z m 0,0 -24.358994,14.91067 5.757606,13.96788 5.701117,-13.55222 z m 0,0 7.742015,4.88024 -3.805135,13.3794 z m 14.952016,-20.47112 -7.509638,71.2493 -10.675638,-7.30736 z m 29.254521,39.34935 1.94509,20.01433 13.65893,4.05883 z m 0,1e-5 -7.57114,24.12635 6.4597,-5.0203 3.05653,0.90827 z m 12.9912,-26.91899 -6.63588,36.82616 9.24861,14.16596 12.6023,3.74485 z m -42.245721,-12.43037 18.695251,65.79802 -16.001142,12.43568 -10.203747,-6.9844 z m 0,1e-5 27.093721,46.23499 -5.41034,17.24071 -2.98813,2.32231 z m 42.245721,12.43036 -22.11377,22.05253 6.96177,11.7521 2.1608,-6.88565 6.35532,9.90718 z M 0.28073048,95.461608 67.275452,62.272128 67.240298,49.849708 0.28073048,14.308635"
       inkscape:connector-curvature="0" />
  </g>
</svg>
