<?xml version="1.0" encoding="UTF-8" standalone="no"?>
<!-- Created with Inkscape (http://www.inkscape.org/) -->

<svg
   xmlns:dc="http://purl.org/dc/elements/1.1/"
   xmlns:cc="http://creativecommons.org/ns#"
   xmlns:rdf="http://www.w3.org/1999/02/22-rdf-syntax-ns#"
   xmlns:svg="http://www.w3.org/2000/svg"
   xmlns="http://www.w3.org/2000/svg"
   xmlns:sodipodi="http://sodipodi.sourceforge.net/DTD/sodipodi-0.dtd"
   xmlns:inkscape="http://www.inkscape.org/namespaces/inkscape"
   width="297mm"
   height="297mm"
   viewBox="0 0 297 297"
   version="1.1"
   id="svg8"
   sodipodi:docname="lighthouse wireframe.svg"
   inkscape:version="0.92.3 (unknown)">
  <title
     id="title2352">lighthouse wireframe</title>
  <defs
     id="defs2" />
  <sodipodi:namedview
     id="base"
     pagecolor="#0d0d0d"
     bordercolor="#666666"
     borderopacity="1.0"
     inkscape:pageopacity="0"
     inkscape:pageshadow="2"
     inkscape:zoom="0.35355339"
     inkscape:cx="414.40899"
     inkscape:cy="417.94038"
     inkscape:document-units="px"
     inkscape:current-layer="layer1"
     showgrid="false"
     units="mm"
     inkscape:object-paths="true"
     inkscape:snap-intersection-paths="true"
     inkscape:snap-smooth-nodes="true"
     inkscape:snap-page="true"
     inkscape:showpageshadow="false"
     showborder="true"
     inkscape:window-width="1085"
     inkscape:window-height="809"
     inkscape:window-x="67"
     inkscape:window-y="27"
     inkscape:window-maximized="1"
     inkscape:measure-start="304.565,813.63"
     inkscape:measure-end="304.565,756.639"
     inkscape:snap-midpoints="true" />
  <metadata
     id="metadata5">
    <rdf:RDF>
      <cc:Work
         rdf:about="">
        <dc:format>image/svg+xml</dc:format>
        <dc:type
           rdf:resource="http://purl.org/dc/dcmitype/StillImage" />
        <dc:title>lighthouse wireframe</dc:title>
        <dc:creator>
          <cc:Agent>
            <dc:title>Kevyan Uehara de Moraes</dc:title>
          </cc:Agent>
        </dc:creator>
        <cc:license
           rdf:resource="http://creativecommons.org/licenses/by-nc-sa/4.0/" />
      </cc:Work>
      <cc:License
         rdf:about="http://creativecommons.org/licenses/by-nc-sa/4.0/">
        <cc:permits
           rdf:resource="http://creativecommons.org/ns#Reproduction" />
        <cc:permits
           rdf:resource="http://creativecommons.org/ns#Distribution" />
        <cc:requires
           rdf:resource="http://creativecommons.org/ns#Notice" />
        <cc:requires
           rdf:resource="http://creativecommons.org/ns#Attribution" />
        <cc:prohibits
           rdf:resource="http://creativecommons.org/ns#CommercialUse" />
        <cc:permits
           rdf:resource="http://creativecommons.org/ns#DerivativeWorks" />
        <cc:requires
           rdf:resource="http://creativecommons.org/ns#ShareAlike" />
      </cc:License>
    </rdf:RDF>
  </metadata>
  <g
     inkscape:label="Layer 1"
     inkscape:groupmode="layer"
     id="layer1"
     transform="translate(0,5.2282763e-6)">
    <path
       id="path1246-9"
       style="opacity:1;vector-effect:none;fill:none;fill-opacity:1;stroke:#ffffff;stroke-width:0.79375005;stroke-linecap:butt;stroke-linejoin:bevel;stroke-miterlimit:4;stroke-dasharray:none;stroke-dashoffset:0;stroke-opacity:1"
       d="m 211.70856,113.39649 -44.4042,-21.998038 0.0233,-8.233593 44.3809,-23.556682 m -95.38963,18.824062 9.74179,0.0072 -9.74179,19.215689 z m 41.26572,19.222818 -31.52393,0.0075 -9.74179,17.543123 z m -52.71607,93.762903 6.00299,14.56321 -1.29465,22.17297 z m 11.45035,-76.2126 h 51.00596 l -9.74231,-17.554033 z m 41.26572,-17.550303 9.74286,17.535623 V 97.655057 Z m 20.24654,17.550323 h -10.5063 l 0.002,-17.550301 z M 167.32751,97.655079 h 10.50368 v 17.550301 z m -61.51487,17.550301 h 10.50629 l -0.002,-17.550301 z m 10.50368,-17.550301 h -10.50368 v 17.550301 z m 38.5786,90.055721 -38.57599,-72.50542 h 51.00596 z m -28.8342,-90.048377 v -19.22284 l -9.7444,19.215474 z m 0,-19.222979 31.52393,19.215635 -31.52393,0.0075 z m 31.52393,19.215635 -31.52393,-19.215635 31.52393,-0.0072 z m 9.74285,0 -9.74285,-19.222818 -0.003,19.219088 z m 0,0 -9.74285,-19.222818 h 9.74285 z m -41.26678,0.0073 -9.74286,17.535621 V 97.662401 Z m 15.76196,-47.24204 15.76197,28.011878 -31.52392,0.0072 z m 15.76197,28.011878 h 9.74285 L 141.82268,50.420361 Z m -31.52393,0.0036 h -9.74285 l 25.50482,-28.01188 z m 41.26678,-0.0036 h 7.87777 l -33.3879,-28.002453 z m -51.01229,-0.0011 h -7.87665 l 33.38679,-28.002452 z m 4.8256,168.148383 3.50567,-11.90473 -18.49688,11.90473 z m 15.82219,0 -12.31652,-11.90473 -3.50567,11.90473 z m 32.51166,-73.05906 12.02455,36.99967 4.36687,-8.86194 z m 2.5e-4,-8.5e-4 12.02442,37.00064 4.36657,-8.86223 26.16787,44.92163 h 13.03987 z m 3.53757,4.64858 -5.68759,-62.96281 -12.42997,72.50542 6.21677,-6.19956 6.07095,2.35408 2.29202,-10.34486 z m -59.94513,14.87537 3.25158,-77.83788 38.57599,72.50509 -8.44027,8.41689 -13.34349,-22.85532 -4.7788,16.80293 -5.13142,-3.23461 z m 7.80109,44.06279 -2.35478,-23.19469 -4.34152,27.50448 z m -2.35478,-23.19469 -20.433408,32.66786 h 8.069348 l 8.02254,-5.16338 z m -27.168008,32.66786 13.523208,-55.16164 -0.37242,44.83386 -6.416188,10.32778 z m 13.523208,-55.16164 4.70841,36.7365 -5.08083,8.09736 z m 21.24037,44.6384 -2.25088,-15.39903 13.10465,25.92227 z m -7.59557,-22.14462 6.61393,15.4289 0.98164,6.71571 -1.46298,-1.38176 -3.77781,2.43184 z M 150.5406,246.5795 H 136.963 l 14.88549,-12.21113 z m 1.30789,-12.21113 7.05514,12.21113 h -8.36927 z m 0,0 33.667,12.21113 h -26.61186 z m -3.06629,-9.98746 4.64352,10.60111 -1.57723,-0.61365 -3.69183,3.02854 z m 0,0 -0.62554,13.016 -6.49529,5.32834 z m -24.92385,-3.72368 19.01066,19.09882 -1.20764,2.9692 -4.69837,3.85425 z m 36.92658,10.4699 -0.61367,6.26378 6.92115,2.36581 z m 0,0 -7.35921,3.85489 6.74554,2.40889 z m 11.08221,3.89862 0.4635,6.77156 13.18485,4.78219 z m 0,0 -4.77473,4.73097 5.23823,2.04059 z m -23.08494,-10.64484 7.0931,9.31797 -2.44958,1.28314 z m 46.17382,22.19859 -18.27044,-20.0084 3.43542,15.4418 5.39449,4.5666 z m 0,0 H 212.034 l -35.34842,-20.0084 z m -18.27044,-20.0084 -4.81844,8.45465 8.25386,6.98715 z m -65.81401,-20.58993 4.07308,13.61893 -5.36738,8.55437 z m 74.9945,-4.323 8.49372,34.91713 17.67421,10.0042 z m 1e-5,0 -3.98466,27.85395 12.47836,7.06318 z m -34.10164,10.35852 7.78925,19.75539 -3.67839,1.9268 -7.0931,-9.31797 z m -33.25073,1.89499 16.38308,11.21406 -0.2631,6.22003 -10.77538,-10.68859 1.26928,8.68335 z m 16.38311,11.21409 9.37379,11.03848 -1.4016,3.5918 -8.23532,-8.41028 z m 24.65686,6.64631 -7.78924,-19.75539 14.42729,20.97468 0.90068,6.76535 -6.30748,-8.62959 z m 10.20923,2.56524 -3.57118,-1.34595 0.90068,6.76535 z m -17.99847,-22.32063 -16.86762,13.10908 9.37379,11.03848 4.51151,-11.78309 z m 34.10164,-10.35852 -18.77367,38.09855 4.77473,-4.73097 4.81844,-8.45465 5.19583,2.94102 z m -16.39137,-28.13829 12.02452,37.00023 -2.83393,5.75102 z m -2.29207,10.34542 11.48266,32.40583 -9.19064,-42.7514 z m -15.4182,28.15139 25.2936,7.51616 -7.29514,14.80447 -3.57083,-1.34582 z m 19.4318,5.77428 -4.0136,-33.92567 11.48266,32.40583 -1.60726,3.26172 z m 6e-5,-2.6e-4 -10.08466,-36.27923 6.07107,2.35356 z m -60.32446,-11.80928 3.77885,-8.98251 0.35995,22.49589 z m 3.77878,-8.98247 6.40731,18.65421 -2.54427,-1.74153 -3.50295,5.58313 z m 8.55032,-10.15832 -2.14301,28.81253 -6.40717,-18.65429 z m 0,0 2.60937,12.10252 -4.75238,16.71001 z m 0,0 -16.14518,9.88282 3.81615,9.25793 3.77871,-8.98243 z m 0,0 5.13142,3.23463 -2.52205,8.86789 z m 9.91022,-13.56829 -4.9774,47.22415 -7.07583,-4.84333 z m 19.38994,26.08081 1.28921,13.26553 9.05316,2.6902 z m 0,1e-5 -5.01816,15.99098 4.2815,-3.32746 2.02587,0.602 z m 8.61059,-17.84195 -4.39827,24.40844 6.12999,9.38922 8.35283,2.48209 z m -28.00053,-8.23887 12.39124,43.61103 -10.60558,8.24239 -6.76306,-4.62927 z m 0,1e-5 17.95776,30.64462 -3.58598,11.42717 -1.98054,1.53923 z m 28.00053,8.23886 -14.65704,14.61645 4.61427,7.78931 1.43218,-4.56382 4.21232,6.5665 z M 71.926362,113.39649 116.33057,91.398452 116.30727,83.164856 71.926362,59.608175" />
  </g>
</svg>
