<?xml version="1.0" encoding="UTF-8" standalone="no"?>
<!-- Created with Inkscape (http://www.inkscape.org/) -->

<svg
   xmlns:dc="http://purl.org/dc/elements/1.1/"
   xmlns:cc="http://creativecommons.org/ns#"
   xmlns:rdf="http://www.w3.org/1999/02/22-rdf-syntax-ns#"
   xmlns:svg="http://www.w3.org/2000/svg"
   xmlns="http://www.w3.org/2000/svg"
   xmlns:sodipodi="http://sodipodi.sourceforge.net/DTD/sodipodi-0.dtd"
   xmlns:inkscape="http://www.inkscape.org/namespaces/inkscape"
   width="297mm"
   height="297mm"
   viewBox="0 0 297 297"
   version="1.1"
   id="svg8"
   sodipodi:docname="lion.svg"
   inkscape:version="0.92.3 (unknown)">
  <title
     id="title10">lion</title>
  <defs
     id="defs2" />
  <sodipodi:namedview
     id="base"
     pagecolor="#0d0d0d"
     bordercolor="#666666"
     borderopacity="1.0"
     inkscape:pageopacity="0"
     inkscape:pageshadow="2"
     inkscape:zoom="0.5447411"
     inkscape:cx="684.58948"
     inkscape:cy="535.14207"
     inkscape:document-units="px"
     inkscape:current-layer="layer1"
     showgrid="false"
     units="mm"
     inkscape:object-paths="true"
     inkscape:snap-intersection-paths="true"
     inkscape:snap-smooth-nodes="true"
     inkscape:snap-page="true"
     inkscape:window-width="1085"
     inkscape:window-height="809"
     inkscape:window-x="67"
     inkscape:window-y="27"
     inkscape:window-maximized="1" />
  <metadata
     id="metadata5">
    <rdf:RDF>
      <cc:Work
         rdf:about="">
        <dc:format>image/svg+xml</dc:format>
        <dc:type
           rdf:resource="http://purl.org/dc/dcmitype/StillImage" />
        <dc:title>lion</dc:title>
        <dc:creator>
          <cc:Agent>
            <dc:title>Kevyan Uehara de Moraes</dc:title>
          </cc:Agent>
        </dc:creator>
        <cc:license
           rdf:resource="http://creativecommons.org/licenses/by-nc-sa/4.0/" />
      </cc:Work>
      <cc:License
         rdf:about="http://creativecommons.org/licenses/by-nc-sa/4.0/">
        <cc:permits
           rdf:resource="http://creativecommons.org/ns#Reproduction" />
        <cc:permits
           rdf:resource="http://creativecommons.org/ns#Distribution" />
        <cc:requires
           rdf:resource="http://creativecommons.org/ns#Notice" />
        <cc:requires
           rdf:resource="http://creativecommons.org/ns#Attribution" />
        <cc:prohibits
           rdf:resource="http://creativecommons.org/ns#CommercialUse" />
        <cc:permits
           rdf:resource="http://creativecommons.org/ns#DerivativeWorks" />
        <cc:requires
           rdf:resource="http://creativecommons.org/ns#ShareAlike" />
      </cc:License>
    </rdf:RDF>
  </metadata>
  <g
     inkscape:label="Layer 1"
     inkscape:groupmode="layer"
     id="layer1"
     transform="translate(0,5.9756107e-6)">
    <g
       id="g2068"
       style="stroke:#ffffff;stroke-width:0.50126882;stroke-miterlimit:4;stroke-dasharray:none"
       transform="matrix(1.0556545,0,0,1.0556545,14.054428,-45.256392)">
      <path
         inkscape:connector-curvature="0"
         id="path2047"
         d="m 127.35755,225.25332 v 7.20347"
         style="opacity:1;vector-effect:none;fill:none;fill-opacity:1;stroke:#ffffff;stroke-width:0.50126882;stroke-linecap:square;stroke-linejoin:bevel;stroke-miterlimit:4;stroke-dasharray:none;stroke-dashoffset:0;stroke-opacity:1;paint-order:fill markers stroke" />
      <path
         id="path2014-2"
         style="opacity:1;vector-effect:none;fill:none;fill-opacity:1;stroke:#ffffff;stroke-width:0.50126882;stroke-linecap:square;stroke-linejoin:bevel;stroke-miterlimit:4;stroke-dasharray:none;stroke-dashoffset:0;stroke-opacity:1;paint-order:fill markers stroke"
         d="m 181.16757,132.61656 11.45352,0.64829 -10.66114,3.24158 m -0.79238,-3.88987 0.79238,3.88988 M 139.29343,97.32967 127.35755,116.1761 m 20.7988,-18.23519 -11.29017,15.51437 2.42725,-16.12561 -11.93588,36.7996 m 28.13363,-31.50222 -8.25198,10.39602 0.91715,-15.08216 -17.06913,38.66458 m 31.43317,-27.45859 -7.35736,5.02872 0.32815,-11.54857 -16.5651,39.21558 m 36.20304,-30.25804 -15.21179,11.52335 2.60306,-13.96104 -17.29911,34.47837 m 44.47412,-18.08862 -17.67622,-0.19563 3.10994,-13.75643 -21.92099,35.77644 m 36.48727,-21.82438 -8.52783,7.07991 -9.88613,1.79474 m 19.25065,3.82395 -8.57215,-1.72881 -10.6785,-2.09514 m -43.92389,-18.2352 v 17.95317 m 69.7297,21.61044 6.55517,7.8518 m -11.98646,-8.29633 5.43129,0.44453 0.72035,-4.61023 m -6.15164,4.1657 11.98646,8.29633 -8.72654,-2.59146 m 0,0 10.16724,12.31616 m -14.64964,-8.95437 14.64964,8.95437 -8.02791,-0.49894 m 0,0 9.90081,9.86346 m -16.16598,-7.97882 16.16598,7.97882 -7.76149,-0.59305 m 13.59631,11.97455 -13.59631,-11.97455 m -5.63698,2.17782 19.23329,9.79673 -9.72515,-0.36107 m -12.27565,-18.99925 8.40449,7.38577 m -2.13932,-9.27041 -6.26517,1.88464 -7.24534,-2.46623 m 6.88878,-7.87384 6.62173,8.45543 m -2.13933,-11.81722 -4.4824,3.36179 -7.89726,-1.77882 m 9.11974,-7.28784 3.25992,5.70487 m 2.89172,-9.87057 -6.15164,4.1657 -11.35282,0.87674 m 12.47342,-8.21157 -8.22337,3.09713 m 11.38141,-9.00574 -3.15805,5.90861 5.03105,3.16913 m -7.27551,-12.89423 -8.86029,4.03396 m 8.86028,-4.03396 5.40252,3.81649 m -14.2628,0.21747 -22.90707,12.67812 m 21.53841,1.22459 17.50446,-5.04244 -13.25441,-0.072 m -4.25005,5.11444 4.25005,-5.11447 m 9.00436,33.20805 -7.99587,-3.38564 m 17.50401,12.8213 -9.50814,-9.43566 5.63698,-2.17782 m -60.16734,86.74669 -7.77976,-11.88574 -3.88988,12.82219 m 19.52143,-4.75429 -9.22045,-9.65267 1.36866,13.47051 -6.26703,-17.36039 m 18.15277,11.02133 -9.36452,-9.86877 5.33057,12.38999 -10.94929,-18.29685 m 20.52992,16.78411 -12.38998,-14.55103 6.8433,13.54255 -11.5976,-16.3519 m 22.25876,13.97475 -13.47051,-14.6951 8.35603,18.08073 -13.39847,-20.09771 m 4.10598,-3.38564 14.40697,20.09772 -4.46616,-14.91121 m 45.95776,-51.50579 13.7528,13.85467 m -29.81611,-17.45551 29.81611,17.45551 -16.91085,-5.90861 m 0,0 13.44718,17.1146 m -27.36093,-21.45802 27.36093,21.45802 -15.28089,-4.99176 m 0,0 10.39101,13.7528 m -26.64907,-20.13419 26.64907,20.13419 -17.82771,-8.76104 m 0,0 11.00224,21.29137 m -24.28976,-24.02034 24.28976,24.02034 -17.62396,-7.84419 m 0,0 6.11236,19.86516 m -19.40536,-26.53271 19.40536,26.53271 -7.13108,-2.64869 m -12.27428,-23.88402 12.27427,23.88402 -10.28913,-12.53033 m 0,0 6.3161,15.994 m -15.07251,-23.89002 15.07251,23.89002 -7.23295,-7.02921 m 0,0 2.03745,9.77977 m -22.41107,-37.37377 22.41107,37.37377 -7.86004,-7.91153 m 0.32147,9.94898 -0.32147,-9.94898 m -17.7813,-22.9291 18.10277,32.87808 -9.18175,-12.4702 m -5.69075,-26.94102 20.37362,27.594 -7.83956,-16.86081 m 6.77127,-3.45767 1.98514,11.35369 m -17.90591,-33.58897 17.90591,33.58897 -8.75641,-7.89602 m 13.39847,-12.96627 6.6658,16.17615 m -26.59527,-33.65783 26.59527,33.65783 -13.293,-6.66755 m 11.09336,-18.15278 8.82136,11.37315 m -30.86401,-24.48348 30.86401,24.48348 -13.28752,-2.72897 m 8.64418,-18.72905 12.08004,16.46626 m -36.13967,-30.44101 36.13967,30.44101 -16.25806,-6.38139 m 4.17802,-10.08487 13.91375,4.34342 m -37.57373,-23.97987 37.57373,23.97987 -12.90526,-11.5469 m -1.4407,-9.22046 17.50401,12.8213 m -40.26701,-22.61803 40.26701,22.61803 -16.06331,-3.60084 m -24.51706,-24.03104 36.70921,16.0184 -13.63285,-1.20782 m -3.02546,-18.29684 14.51899,10.23425 m -34.83281,-10.9546 34.83281,10.9546 -13.51051,-0.58159 15.64983,9.852 m -4.27865,-21.08763 -14.61274,-4.82813 -19.46381,2.92461 m 0,0 34.07655,1.90352 -12.37966,1.58297 m 13.39838,-20.53128 -14.2628,0.21747 0.28814,-5.76279 m -23.19521,18.44091 37.16987,-12.89559 -11.38141,9.00571 m -13.27175,-16.64615 0.73774,-9.07028 m -16.85619,24.70794 16.11844,-15.63766 m 18.41397,-8.87465 -18.41396,8.87465 m -24.11428,105.60914 9.94081,5.18651 m -12.10185,-13.97475 12.10185,13.97475 -8.92102,-20.40788 m -20.82936,22.56892 3.88988,9.58064 m -2.89443,-13.40187 2.89443,13.40187 1.51273,-5.47465 m 0,0 4.89837,3.88988 m -4.89137,-12.59731 4.89137,12.59731 -1.72884,-8.64418 m 3.38564,-0.57627 2.23308,6.48313 m -14.1909,-20.16976 14.1909,20.16976 -5.61872,-5.90686 m 7.13145,-3.3136 1.00849,5.54668 m -11.66964,-16.27987 11.66964,16.27987 -4.7543,-2.80935 m 7.85179,-6.12297 0.93646,5.40262 m -11.88575,-12.89424 11.88575,12.89424 -5.04244,-2.01698 m -10.66115,-10.73319 -5.04244,-7.41958 m 5.40261,26.22067 0.007,-8.70743 m -3.17653,-3.9707 3.16954,12.67813 -4.40717,-7.92722 m -0.99545,3.82123 2.23308,-8.57214 m -2.23312,-6.33907 8.57218,14.2629 -6.33906,-7.92383 z m 5.04248,0.21611 6.91534,13.47052 -11.95782,-13.68663 z m 3.81785,-0.14407 6.8433,10.87726 -10.66115,-10.73319 z m 10.94928,7.49162 -10.94928,-7.49162 m 8.78824,-1.29662 2.16104,8.78824 -6.57622,-8.13682 m 10.8263,-13.61769 14.55103,29.46224 -17.78131,-22.9291 m 3.23028,-6.53314 12.53405,10.73319 m -9.1495,-25.69295 9.1495,25.69295 -13.4131,-17.95059 m 6.8821,-12.49736 13.30227,26.99028 -15.92077,-22.23528 m 4.97148,-9.02783 17.57649,21.75451 -19.92947,-17.48168 m 2.35298,-4.27283 22.04265,13.11033 m -19.8816,-24.05962 19.8816,24.05962 -20.97059,-18.5421 m 1.48863,-11.17922 23.65998,19.63645 -24.05962,-13.97475 m 0.86442,-12.24592 24.20369,19.01719 -24.66847,-12.43297 m 0.15141,-11.59807 23.07636,14.81058 -22.76299,-9.79673 m -0.57629,-9.22046 21.32231,10.37301 -21.05939,-6.1664 m -1.64598,-6.97275 21.69688,3.48649 -20.31382,-0.72035 m -3.45766,-6.91534 25.78846,-3.88988 -23.71386,8.03908 m -5.67634,-9.04757 26.79694,-13.54254 -23.1952,18.44091 m -6.3305,-8.65041 19.5849,-20.9559 -16.85614,24.70794 m -9.94176,-6.42369 14.69605,-20.51733 -7.48305,23.18898 m -13.50821,-4.45429 16.23695,-27.66701 -9.94175,29.44965 m -14.13406,-7.01978 16.15198,-23.58242 -8.31312,28.81956 m -7.83886,-5.23714 5.77896,-23.15021 -9.50859,20.67399 m -53.81006,-1.5127 -11.453521,0.64829 10.661139,3.24158 m 0.792382,-3.88987 -0.792382,3.88988 m 42.666522,-39.176774 11.93588,18.846434 m -20.7988,-18.235198 11.29017,15.514378 -2.42725,-16.125614 11.93588,36.799604 m -28.133631,-31.50223 8.251981,10.39603 -0.91715,-15.082168 17.06913,38.664588 m -31.43317,-27.4586 7.357361,5.02873 -0.32815,-11.54858 16.565099,39.21559 M 79.585985,111.5846 94.797773,123.10795 92.194712,109.1469 109.49382,143.62528 m -44.474118,-18.08862 17.676224,-0.19563 -3.109941,-13.75643 21.920985,35.77644 m -36.487268,-21.82438 8.527829,7.07991 9.886136,1.79474 m -19.250651,3.82395 8.572145,-1.72881 10.678504,-2.09514 m 43.923885,-18.2352 v 17.95317 m -69.7297,21.61044 -6.555168,7.8518 m 11.986463,-8.29633 -5.431295,0.44453 -0.720347,-4.61023 m 6.151642,4.1657 -11.986463,8.29633 8.72654,-2.59146 m 0,0 -10.167236,12.31616 m 14.649632,-8.95437 -14.649632,8.95437 8.02791,-0.49894 m 0,0 -9.900814,9.86346 m 16.165981,-7.97882 -16.165981,7.97882 7.761491,-0.59305 m -13.596311,11.97455 13.596311,-11.97455 m 5.636983,2.17782 -19.233294,9.79673 9.72515,-0.36107 m 12.275651,-18.99925 -8.40449,7.38577 m 2.139323,-9.27041 6.265167,1.88464 7.245334,-2.46623 m -6.888779,-7.87384 -6.621722,8.45543 m 2.139326,-11.81722 4.482396,3.36179 7.897265,-1.77882 m -9.119738,-7.28784 -3.259923,5.70487 m -2.891719,-9.87057 6.151642,4.1657 11.352813,0.87674 m -12.473413,-8.21157 8.223361,3.09713 m -11.381409,-9.00574 3.15805,5.90861 -5.031044,3.16913 m 7.275513,-12.89423 8.860282,4.03396 m -8.86028,-4.03396 -5.402521,3.81649 m 14.262801,0.21747 22.907069,12.67812 m -21.538409,1.22459 -17.504455,-5.04244 13.254403,-0.072 m 4.250052,5.11444 -4.250052,-5.11447 m -9.00435,33.20805 7.995864,-3.38564 m -17.504008,12.8213 9.508144,-9.43566 -5.636983,-2.17782 m 60.167337,86.74669 7.77976,-11.88574 3.88988,12.82219 m -19.52143,-4.75429 9.22045,-9.65267 -1.36866,13.47051 6.26703,-17.36039 m -18.15277,11.02133 9.36452,-9.86877 -5.33057,12.38999 10.94929,-18.29685 m -20.529924,16.78411 12.389984,-14.55103 -6.8433,13.54255 11.5976,-16.3519 m -22.25876,13.97475 13.47051,-14.6951 -8.356034,18.08073 13.398474,-20.09771 m -4.10598,-3.38564 -14.406967,20.09772 4.466159,-14.91121 m -45.95776,-51.50579 -13.7528,13.85467 m 29.816112,-17.45551 -29.816112,17.45551 16.910851,-5.90861 m 0,0 -13.447183,17.1146 m 27.360933,-21.45802 -27.360933,21.45802 15.280891,-4.99176 m 0,0 -10.391005,13.7528 m 26.649066,-20.13419 -26.649066,20.13419 17.827707,-8.76104 m 0,0 L 53.07563,240.0532 M 77.365391,216.03286 53.07563,240.0532 70.699592,232.20901 m 0,0 -6.112356,19.86516 m 19.405356,-26.53271 -19.405356,26.53271 7.131079,-2.64869 M 83.992592,225.54146 71.718317,249.42548 82.00745,236.89515 m 0,0 -6.316099,15.994 m 15.07251,-23.89002 -15.07251,23.89002 7.232954,-7.02921 m 0,0 -2.037453,9.77977 m 22.411068,-37.37377 -22.411068,37.37377 7.860038,-7.91153 m -0.321466,9.94898 0.321466,-9.94898 m 17.7813,-22.9291 -18.102764,32.87808 9.181746,-12.4702 m 5.690748,-26.94102 -20.373615,27.594 7.839556,-16.86081 m -6.771269,-3.45767 -1.985142,11.35369 m 17.905915,-33.58897 -17.905913,33.58897 8.756407,-7.89602 m -13.398468,-12.96627 -6.665799,16.17615 m 26.595271,-33.65783 -26.595271,33.65783 13.293,-6.66755 m -11.09336,-18.15278 -8.821359,11.37315 m 30.864011,-24.48348 -30.864011,24.48348 13.287518,-2.72897 m -8.644178,-18.72905 -12.080042,16.46626 m 36.139665,-30.44101 -36.139665,30.44101 16.258061,-6.38139 m -4.178019,-10.08487 -13.91375,4.34342 m 37.573728,-23.97987 -37.573728,23.97987 12.905261,-11.5469 m 1.440696,-9.22046 -17.504008,12.8213 m 40.267009,-22.61803 -40.267009,22.61803 16.063312,-3.60084 m 24.517056,-24.03104 -36.709207,16.0184 13.632847,-1.20782 m 3.025463,-18.29684 -14.518987,10.23425 m 34.832806,-10.9546 -34.832806,10.9546 13.510501,-0.58159 -15.649824,9.852 m 4.278649,-21.08763 14.612738,-4.82813 19.463809,2.92461 m 0,0 -34.076547,1.90352 12.379661,1.58297 m -13.398386,-20.53128 14.262803,0.21747 -0.288139,-5.76279 m 23.195208,18.44091 -37.169872,-12.89559 11.381409,9.00571 m 13.271761,-16.64615 -0.737741,-9.07028 m 16.856185,24.70794 -16.118442,-15.63766 m -18.413967,-8.87465 18.413965,8.87465 m 24.114273,105.60914 -9.940808,5.18651 m 12.101848,-13.97475 -12.101848,13.97475 8.921018,-20.40788 m 20.82936,22.56892 -3.88988,9.58064 m 2.89443,-13.40187 -2.89443,13.40187 -1.51273,-5.47465 m 0,0 -4.89837,3.88988 m 4.89137,-12.59731 -4.89137,12.59731 1.72884,-8.64418 m -3.38564,-0.57627 -2.23308,6.48313 m 14.1909,-20.16976 -14.1909,20.16976 5.61872,-5.90686 m -7.13145,-3.3136 -1.00849,5.54668 m 11.66964,-16.27987 -11.66964,16.27987 4.7543,-2.80935 m -7.85179,-6.12297 -0.93646,5.40262 m 11.88575,-12.89424 -11.88575,12.89424 5.04244,-2.01698 m 10.66115,-10.73319 5.04244,-7.41958 m -5.40261,26.22067 -0.007,-8.70743 m 3.17653,-3.9707 -3.16953,12.67813 4.40716,-7.92722 m 0.99545,3.82123 -2.23308,-8.57214 m 2.23312,-6.33907 -8.57218,14.2629 6.33906,-7.92383 z m -5.04248,0.21611 -6.91534,13.47052 11.95782,-13.68663 z m -3.81784,-0.14407 -6.84331,10.87726 10.66115,-10.73319 z m -10.94929,7.49162 10.94929,-7.49162 m -8.78825,-1.29662 -2.16104,8.78824 6.57623,-8.13682 m -10.82629,-13.61769 -14.55103,29.46224 17.7813,-22.9291 m -3.23027,-6.53314 -12.534059,10.73319 m 9.149504,-25.69295 -9.149501,25.69295 13.413096,-17.95059 m -6.882097,-12.49736 -13.302271,26.99028 15.920775,-22.23528 m -4.971483,-9.02783 -17.576493,21.75451 19.929474,-17.48168 m -2.352981,-4.27283 -22.042652,13.11033 m 19.881604,-24.05962 -19.881604,24.05962 20.970592,-18.5421 m -1.488633,-11.17922 -23.659978,19.63645 24.059623,-13.97475 m -0.864415,-12.24592 -24.203697,19.01719 24.668467,-12.43297 m -0.151406,-11.59807 -23.076365,14.81058 22.763001,-9.79673 m 0.576281,-9.22046 -21.322305,10.37301 21.059391,-6.1664 m 1.645981,-6.97275 -21.696886,3.48649 20.313819,-0.72035 m 3.457665,-6.91534 -25.788459,-3.88988 23.713861,8.03908 m 5.676342,-9.04757 -26.79695,-13.54254 23.195208,18.44091 m 6.330501,-8.65041 -19.584904,-20.9559 16.856145,24.70794 m 9.941749,-6.42369 -14.696045,-20.51733 7.483055,23.18898 m 13.50819,-4.45429 -16.236947,-27.66701 9.941747,29.44965 m 14.13406,-7.01978 -16.15198,-23.58242 8.31312,28.81956 m 7.83886,-5.23714 -5.77896,-23.15021 9.50859,20.67399 m 4e-5,29.62134 v 25.55732 m 0,4.78801 v 31.15737 m 16.62202,-54.49896 3.76932,3.10711 m -37.01336,-3.10711 -3.76929,3.10711 M 136.1458,139.9641 h -8.78825 m 8.78825,0 -8.78825,-5.83482 m 20.90067,27.12546 10.50651,-6.3074 -4.92898,7.55534 m -5.57753,-1.24794 -9.72883,2.49588 -11.17184,-14.13386 14.11882,-6.05092 -2.94698,20.18478 12.02337,-20.04071 z m 0,0 5.57753,1.24794 m -5.57753,-1.24794 -7.74232,4.22771 m 0,0 -13.15835,-1.73183 h 11.17184 z m 0,0 -13.15835,0.96779 m 13.15835,-0.96779 -7.45348,5.60299 m 0,0 9.77108,-0.94229 m 2.7251,-2.3176 -5.0427,-2.3431 2.3176,4.6607 m 2.7251,-2.3176 2.69962,-6.57081 1.93558,6.54531 m -17.13138,3.28539 -5.70487,-4.6352 m 5.70487,4.6352 -5.70487,2.54682 m 0,0 10.81528,2.29213 m -2.13019,4.77073 2.13019,-4.77073 -5.11041,-4.83895 9.18532,1.73187 m 0,0 -4.07491,3.10708 6.39248,-1.01869 m -8.52267,5.78942 -8.68509,-7.06286 m 17.20776,1.27344 -8.52267,5.78942 8.54817,-0.56848 m 0.4873,7.5245 -0.4873,-7.5245 -5.16743,9.1813 h -12.06583 l 8.68509,-8.61282 3.38074,8.61282 m 7.91796,-14.27493 -0.35653,2.97977 -2.4195,-3.10708 m 9.47418,-2.97981 -3.64197,1.55356 2.47044,2.21573 -5.52662,-0.66217 2.16482,2.8015 m 0.94232,-7.00374 1.24794,-0.22922 m -1.60449,1.88464 0.35655,-1.65542 -2.69962,3.0307 -3.82019,-1.24793 m 5.22094,-3.10712 -1.40075,4.35505 m 3.94756,-3.25992 -1.50262,-2.8015 0.25468,3.03072 -1.29887,-1.32435 -5.17004,1.24794 -0.0509,1.85918 1.42621,1.45168 2.39401,-0.20375 2.34307,-1.37528 z m 3.00524,-0.22921 -1.83373,0.48389 -2.67413,-3.05618 -1.04419,1.70637 -3.59101,-1.68087 -1.57903,2.92881 -1.14607,-0.61121 1.09514,2.47039 -1.6809,0.20377 3.10711,1.24791 -0.78954,0.84045 3.18355,-1.0442 -0.40752,1.17154 2.75059,-2.54682 0.30559,0.99326 1.2989,-2.8779 1.17151,0.25468 m -2.67413,-3.05618 3.64195,-5.29737 m 0.86591,7.86966 7.52074,-8.50966 -8.38665,0.64 z m 0,0 8.09702,0.7108 m -8.75919,0.84275 2.67415,6.13783 6.08504,-6.98058 z m -1.17153,3.76929 3.84568,2.36854 5.22063,5.26534 m -12.42811,-5.49455 0.0764,3.84569 7.13108,-3.61648 z m -4.91535,2.29213 4.99176,1.55356 -2.59776,-3.66742 m -1.9067,9.63836 16.85616,-4.32208 m 0,0 -12.3517,-1.64886 -4.50446,5.97094 m 4.35493,14.32401 10.34018,-7.6968 -12.61176,-1.91885 14.77281,-9.03044 m -27.58934,17.28835 -6.98738,-6.52146 12.06583,-4.78801 z m 5.07845,-11.30947 -1.11654,11.59761 m 10.37301,-5.11447 -9.25647,-6.48314 5.65473,-1.6568 m -17.72056,13.54255 6.98738,-0.57628 3.96191,0.28814 m -3.96191,-0.28814 2.08901,5.18651 m -4.10599,1.36862 2.01698,-6.55513 0.072,5.61872 m -2.08898,0.93641 -4.9704,-5.97885 m 3.02546,6.55517 -3.02546,-6.55517 m 9.07639,4.61023 1.8729,-4.89837 m 0.14407,6.19499 10.22894,-11.30946 -10.37301,5.11447 z m 0,0 12.08723,3.948 m -13.52792,-2.43526 13.52792,2.43526 -14.89659,-1.28271 m 0,0 4.93439,13.32644 10.84124,-4.82633 z m -1.0445,13.54255 5.97889,-0.21611 -7.16747,-10.30098 m 2.80941,19.73755 4.35806,-9.43657 4.43014,8.13994 m -11.59761,-18.44092 1.18858,10.51709 1.62083,9.22046 m -7.05946,-14.91121 5.43863,5.69075 -3.42166,-8.0679 m -3.81784,10.01284 7.2395,-1.94494 -7.2395,-1.51273 m 9.65267,-13.18237 -6.62721,-0.86442 m 5.25854,2.01697 -5.25854,-2.01697 m 0,0 3.02546,5.04243 m -3.02546,-5.04243 0.79238,7.49162 m -0.79238,-7.49162 -1.22459,9.86877 m 7.8518,-9.00435 -4.68218,-1.44074 m 6.12287,-0.072 -6.12296,0.072 m 6.12296,-0.072 -4.03395,-0.86441 m -5.25854,11.3815 -1.80087,-3.28726 3.02546,-6.58151 m -3.02546,14.04679 1.80087,-4.17802 2.01697,-2.37715 2.23308,-2.44919 2.23308,-3.02546 1.36867,-1.15255 1.44069,-1.51274 -2.01697,-1.29662 -2.01698,0.43221 -2.08901,0.93645 -1.94494,0.57628 -3.02546,-0.43221 m 26.68194,-35.39076 0.66217,-1.55355 -4.50786,-2.57229 -4.6352,0.0255 -2.7251,2.31759 -0.58576,2.67416 2.31757,2.08839 m 9.47418,-2.9798 -1.17153,3.76928 -3.3618,2.13934 -2.52135,0.17827 -2.394,2.11386 -0.0255,-5.22097 2.77603,0.12733 3.05618,-1.55355 2.47041,-2.62322 z m -3.50135,39.12264 9.23508,-16.77019 2.16104,-10.94929 0.86442,-12.24592 -0.57628,-9.22046 -3.45767,-6.91534 -3.60174,-4.89837 -4.61023,-6.33906 -9.07639,-0.14407 -5.33057,-3.60174 -8.78825,9.65266 m 0,75.63656 8.86033,7.27552 8.7882,-1.29663 6.4111,-12.96627 -2.73733,-22.47486 -3.60174,-8.13994 M 118.5693,139.9641 h 8.78825 m -8.78825,0 8.78825,-5.83482 m -20.90067,27.12546 -10.506511,-6.3074 4.928981,7.55534 m 5.57753,-1.24794 9.72883,2.49588 11.17184,-14.13386 -14.11882,-6.05092 2.94698,20.18478 -12.02337,-20.04071 z m 0,0 -5.57753,1.24794 m 5.57753,-1.24794 7.74232,4.22771 m 0,0 13.15835,-1.73183 h -11.17184 z m 0,0 13.15835,0.96779 m -13.15835,-0.96779 7.45348,5.60299 m 0,0 -9.77108,-0.94229 m -2.7251,-2.3176 5.0427,-2.3431 -2.3176,4.6607 m -2.7251,-2.3176 -2.69962,-6.57081 -1.93558,6.54531 m 17.13138,3.28539 5.70487,-4.6352 m -5.70487,4.6352 5.70487,2.54682 m 0,0 -10.81528,2.29213 m 2.13019,4.77073 -2.13019,-4.77073 5.11041,-4.83895 -9.18532,1.73187 m 0,0 4.07491,3.10708 -6.39248,-1.01869 m 8.52267,5.78942 8.68509,-7.06286 m -17.20776,1.27344 8.52267,5.78942 -8.54817,-0.56848 m -0.4873,7.5245 0.4873,-7.5245 5.16743,9.1813 h 12.06583 l -8.68509,-8.61282 -3.38074,8.61282 m -7.91796,-14.27493 0.35653,2.97977 2.4195,-3.10708 m -9.47418,-2.97981 3.64197,1.55356 -2.47044,2.21573 5.52662,-0.66217 -2.16482,2.8015 m -0.94232,-7.00374 -1.24794,-0.22922 m 1.60449,1.88464 -0.35655,-1.65542 2.69962,3.0307 3.82019,-1.24793 m -5.22094,-3.10712 1.40075,4.35505 m -3.94756,-3.25992 1.50262,-2.8015 -0.25468,3.03072 1.29887,-1.32435 5.17004,1.24794 0.0509,1.85918 -1.42621,1.45168 -2.39401,-0.20375 -2.34307,-1.37528 z m -3.00524,-0.22921 1.83373,0.48389 2.67413,-3.05618 1.04419,1.70637 3.59101,-1.68087 1.57903,2.92881 1.14607,-0.61121 -1.09514,2.47039 1.6809,0.20377 -3.10711,1.24791 0.78954,0.84045 -3.18355,-1.0442 0.40752,1.17154 -2.75059,-2.54682 -0.30559,0.99326 -1.2989,-2.8779 -1.17151,0.25468 m 2.67413,-3.05618 -3.64195,-5.29737 m -0.86591,7.86966 -7.520738,-8.50966 8.386648,0.64 z m 0,0 -8.097019,0.7108 m 8.759189,0.84275 -2.674151,6.13783 -6.085038,-6.98058 z m 1.17153,3.76929 -3.845681,2.36854 -5.220621,5.26534 m 12.428102,-5.49455 -0.0764,3.84569 -7.131079,-3.61648 z m 4.91535,2.29213 -4.99176,1.55356 2.59776,-3.66742 m 1.9067,9.63836 -16.856152,-4.32208 m 0,0 12.351692,-1.64886 4.50446,5.97094 m -4.35493,14.32401 -10.340176,-7.6968 12.611756,-1.91885 -14.772802,-9.03044 m 27.589332,17.28835 6.98738,-6.52146 -12.06583,-4.78801 z m -5.07845,-11.30947 1.11654,11.59761 m -10.37301,-5.11447 9.25647,-6.48314 -5.65473,-1.6568 m 17.72056,13.54255 -6.98738,-0.57628 -3.96191,0.28814 m 3.96191,-0.28814 -2.08901,5.18651 m 4.10599,1.36862 -2.01698,-6.55513 -0.072,5.61872 m 2.08898,0.93641 4.9704,-5.97885 m -3.02546,6.55517 3.02546,-6.55517 m -9.07639,4.61023 -1.8729,-4.89837 m -0.14407,6.19499 -10.22894,-11.30946 10.37301,5.11447 z m 0,0 -12.08723,3.948 m 13.52792,-2.43526 -13.52792,2.43526 14.89659,-1.28271 m 0,0 -4.93439,13.32644 -10.84124,-4.82633 z m 1.0445,13.54255 -5.97889,-0.21611 7.16747,-10.30098 m -0.72035,17.43243 -6.44712,-7.13145 -4.43014,8.13994 m 11.59761,-18.44092 -1.18858,10.51709 -1.62082,9.22045 m 7.05945,-14.9112 -5.43863,5.69075 3.42166,-8.0679 m 3.81784,10.01284 -7.2395,-1.94494 7.2395,-1.51273 m -9.65267,-13.18237 6.62721,-0.86442 m -5.25854,2.01697 5.25854,-2.01697 m 0,0 -3.02546,5.04243 m 3.02546,-5.04243 -0.79238,7.49162 m 0.79238,-7.49162 1.22459,9.86877 m -7.8518,-9.00435 4.68218,-1.44074 m -6.12287,-0.072 6.12296,0.072 m -6.12296,-0.072 4.03395,-0.86441 m 5.25854,11.3815 1.80087,-3.28726 -3.02546,-6.58151 m 3.02546,14.04679 -1.80087,-4.17802 -2.01697,-2.37715 -2.23308,-2.44919 -2.23308,-3.02546 -1.36867,-1.15255 -1.44069,-1.51274 2.01697,-1.29662 2.01698,0.43221 2.08901,0.93645 1.94494,0.57628 3.02546,-0.43221 m -26.68194,-35.39076 -0.66217,-1.55355 4.50786,-2.57229 4.6352,0.0255 2.7251,2.3176 0.58576,2.67416 -2.31757,2.08839 m -9.47418,-2.97981 1.17153,3.76929 3.3618,2.13933 2.52135,0.17827 2.394,2.11386 0.0255,-5.22097 -2.77603,0.12734 -3.05618,-1.55356 -2.47041,-2.62322 z m 3.50135,39.12265 -9.235076,-16.77019 -2.161043,-10.94929 -0.864418,-12.24592 0.576279,-9.22046 3.45767,-6.91534 3.601741,-4.89837 4.610227,-6.33906 9.07639,-0.14407 5.33057,-3.60174 8.78825,9.65266 m 0,75.63656 -8.86032,7.27551 -8.78821,-1.29662 -6.4111,-12.96627 2.73733,-22.47486 3.60174,-8.13994"
         inkscape:connector-curvature="0" />
    </g>
  </g>
</svg>
