<?xml version="1.0" encoding="UTF-8" standalone="no"?>
<!-- Created with Inkscape (http://www.inkscape.org/) -->

<svg
   xmlns:dc="http://purl.org/dc/elements/1.1/"
   xmlns:cc="http://creativecommons.org/ns#"
   xmlns:rdf="http://www.w3.org/1999/02/22-rdf-syntax-ns#"
   xmlns:svg="http://www.w3.org/2000/svg"
   xmlns="http://www.w3.org/2000/svg"
   xmlns:sodipodi="http://sodipodi.sourceforge.net/DTD/sodipodi-0.dtd"
   xmlns:inkscape="http://www.inkscape.org/namespaces/inkscape"
   width="297mm"
   height="210.11287mm"
   viewBox="0 0 297 210.11287"
   version="1.1"
   id="svg8"
   sodipodi:docname="owl.svg"
   inkscape:version="0.92.3 (unknown)"
   inkscape:export-filename="D:\asd\works\png\owl.svg.png"
   inkscape:export-xdpi="300"
   inkscape:export-ydpi="300">
  <title
     id="title815">owl</title>
  <defs
     id="defs2" />
  <sodipodi:namedview
     id="base"
     pagecolor="#0d0d0d"
     bordercolor="#666666"
     borderopacity="1.0"
     inkscape:pageopacity="0"
     inkscape:pageshadow="2"
     inkscape:zoom="0.41582468"
     inkscape:cx="568.31506"
     inkscape:cy="601.69827"
     inkscape:document-units="px"
     inkscape:current-layer="layer1"
     showgrid="false"
     units="mm"
     inkscape:object-paths="true"
     inkscape:snap-intersection-paths="true"
     inkscape:snap-smooth-nodes="true"
     inkscape:snap-page="true"
     inkscape:snap-midpoints="true"
     inkscape:window-width="1085"
     inkscape:window-height="809"
     inkscape:window-x="67"
     inkscape:window-y="27"
     inkscape:window-maximized="1"
     inkscape:snap-bbox="true"
     inkscape:bbox-nodes="true"
     fit-margin-top="0"
     fit-margin-left="0"
     fit-margin-right="0"
     fit-margin-bottom="0" />
  <metadata
     id="metadata5">
    <rdf:RDF>
      <cc:Work
         rdf:about="">
        <dc:format>image/svg+xml</dc:format>
        <dc:type
           rdf:resource="http://purl.org/dc/dcmitype/StillImage" />
        <dc:title>owl</dc:title>
        <dc:creator>
          <cc:Agent>
            <dc:title>Kevyan Uehara de Moraes</dc:title>
          </cc:Agent>
        </dc:creator>
        <cc:license
           rdf:resource="http://creativecommons.org/licenses/by-nc-sa/4.0/" />
      </cc:Work>
      <cc:License
         rdf:about="http://creativecommons.org/licenses/by-nc-sa/4.0/">
        <cc:permits
           rdf:resource="http://creativecommons.org/ns#Reproduction" />
        <cc:permits
           rdf:resource="http://creativecommons.org/ns#Distribution" />
        <cc:requires
           rdf:resource="http://creativecommons.org/ns#Notice" />
        <cc:requires
           rdf:resource="http://creativecommons.org/ns#Attribution" />
        <cc:prohibits
           rdf:resource="http://creativecommons.org/ns#CommercialUse" />
        <cc:permits
           rdf:resource="http://creativecommons.org/ns#DerivativeWorks" />
        <cc:requires
           rdf:resource="http://creativecommons.org/ns#ShareAlike" />
      </cc:License>
    </rdf:RDF>
  </metadata>
  <g
     inkscape:label="Layer 1"
     inkscape:groupmode="layer"
     id="layer1"
     transform="translate(1.2222013e-8,-86.887125)">
    <path
       id="path1570-1"
       style="opacity:1;vector-effect:none;fill:none;fill-opacity:1;stroke:#ffffff;stroke-width:1.18802345;stroke-linecap:square;stroke-linejoin:bevel;stroke-miterlimit:4;stroke-dasharray:none;stroke-dashoffset:0;stroke-opacity:1;paint-order:fill markers stroke"
       d="m 185.71374,274.59719 0.9716,16.98479 -17.72891,-16.36514 m -57.67014,-0.61966 -0.97161,16.98479 17.7289,-16.36515 m 20.45641,-121.96278 v 56.9336 m -25.71662,85.97268 21.26853,-22.59551 m -21.26853,22.59551 21.26853,-22.59551 m -10.7481,-19.29146 -10.52043,41.88697 M 98.752515,90.848412 126.30468,104.76224 m 6.99912,149.51111 -26.49593,9.15668 -8.961875,23.5736 z m -26.49593,9.15668 -17.144442,-4.67575 -7.208455,20.2616 z m -14.41692,-29.80793 14.41692,29.80793 7.51161,-25.03984 m -34.592059,11.79187 9.936007,8.57222 2.727522,-25.13218 m 0,0 -12.663529,16.55996 -7.403278,19.67714 17.339285,-11.10492 m -32.535462,1.16894 22.599455,-9.74116 1.948254,-19.28749 m 0,0 -20.846096,7.20844 -3.701613,21.82021 z m -43.95124,-20.62595 23.105144,27.83439 10.130825,-16.55996 m 26.690044,-41.56343 9.781022,17.63339 -13.776089,-9.78103 m 0,0 -10.194311,0.41328 14.189378,-8.26564 m 0.82655,16.94458 -2.617468,9.50549 -2.204149,-18.59771 -6.199259,11.43414 m 32.098278,0.13785 -12.12293,-1.79086 6.06146,7.30133 -15.015932,-7.99015 7.576862,11.43417 m -25.348016,-25.62352 2.755226,5.51042 -2.204178,7.85236 6.19923,3.16849 1.23984,8.67894 7.163568,-1.51537 4.132839,6.47476 6.061491,-4.54608 6.19921,1.51534 1.23986,-4.95936 m 0.82655,33.47586 -21.92853,-4.7681 -10.715275,-2.72752 -10.715271,-9.35154 -33.235969,-11.2744 m 33.235969,-72.69436 16.082428,40.4767 -50.760962,-5.99299 44.423974,10.67685 -42.981409,27.5338 43.532457,-14.17102 -10.296488,25.44542 17.735558,-13.59799 -7.020287,22.94953 18.316694,-17.99014 -7.601419,20.71766 19.86212,-23.7484 m 25.83012,-81.07219 -29.54965,-19.49315 -48.288437,3.13377 38.507412,-21.593699 -58.574182,2.111382 M 96.482256,169.27484 70.960404,137.57434 108.53354,109.3084 Z m 0,0 41.600934,-40.47329 -1.44648,40.98382 m -4.50184,22.86826 4.50184,-22.86826 -40.154454,-0.51053 m 17.837224,69.11541 18.98432,15.88316 3.60843,-26.49075 m -24.65916,-17.90891 24.65916,17.90891 m -24.65916,-17.90891 2.06641,28.5165 22.59275,-10.60759 m -17.35783,-28.37874 17.35783,28.37874 m -40.429974,-58.50782 -9.439424,8.7762 m 9.439424,-8.7762 1.168192,10.70483 m -1.168192,-10.70483 15.495294,18.5572 20.15732,4.82159 m 4.77736,35.12903 -4.77736,-35.12903 -12.58047,6.75029 m 17.35783,28.37874 -3.60843,26.49075 m 3.60843,-26.49075 11.58778,-17.59496 m -67.794166,-27.4528 6.336988,-4.68386 m 61.457178,-70.18834 -10.41682,20.93879 m -29.54965,-19.49315 17.77114,-4.5461 m 11.77851,24.03925 -11.77851,-24.03925 22.19533,3.10046 m 0,45.39134 -10.41682,-24.45255 h 10.41682 m -11.8633,40.98384 11.8633,-16.53129 m 0,56.9336 -11.8633,-40.40231 M 16.409917,87.504749 l 29.327902,1.190912 53.014696,2.152751 9.781025,18.459928 m -37.573136,28.26594 -34.678534,34.4837 1.442565,38.21064 m 58.757821,-40.99384 35.652614,23.37879 16.36514,17.53407 M 21.475309,93.544248 70.960404,137.57428 40.178333,92.959793 Z M 13.48755,105.42846 70.960404,137.57428 6.8635672,93.544248 M 0.23958252,106.40259 13.48755,105.42846 6.8635672,93.544248 H 21.475322 l -5.065405,-6.039499 23.768429,5.455044 20.066757,19.482327 10.715301,25.13216 z M 148.50001,281.54857 136.91223,227.7826 m -39.261782,-47.80298 14.327102,7.85236 7.57685,11.5719 m -7.57685,-11.5719 -4.54608,9.78103 -8.954472,-0.68881 -4.821617,-9.09222 3.995067,-7.85236 -10.607616,-1.92866 -3.581762,10.1943 3.995052,11.02086 8.403408,7.16357 10.19433,1.92866 7.43907,-3.44402 6.06147,-5.51045 -7.30133,10.46983 -12.260701,3.03073 -11.296407,-4.95939 -7.43907,-11.84743 -0.551048,-13.36278 m 67.794166,98.81373 -15.19621,-27.27522 m 15.19621,27.27522 v -71.36093 m 25.71667,85.97268 -21.26855,-22.59551 m 21.26855,22.59551 -21.26855,-22.59551 m 10.74809,-19.29146 10.52046,41.88697 M 198.2475,90.848412 170.69537,104.76224 m -6.99915,149.51111 26.49597,9.15668 8.96185,23.5736 z m 26.49597,9.15668 17.14441,-4.67575 7.20846,20.2616 z m 14.41689,-29.80793 -14.41689,29.80793 -7.51163,-25.03984 m 34.59204,11.79187 -9.936,8.57222 -2.72752,-25.13218 m 0,0 12.66352,16.55996 7.40328,19.67714 -17.33928,-11.10492 m 32.53547,1.16894 -22.59947,-9.74116 -1.94824,-19.28749 m 0,0 20.84608,7.20844 3.70163,21.82021 z m 42.29809,-18.42179 -21.45201,25.63023 -10.13081,-16.55996 m -26.69003,-41.56343 -9.78101,17.63339 13.77608,-9.78103 m 0,0 10.19429,0.41328 -14.18936,-8.26564 m -0.82658,16.94458 2.61748,9.50549 2.20417,-18.59771 6.19922,11.43414 m -32.09824,0.13785 12.12294,-1.79086 -6.06147,7.30133 15.0159,-7.99015 -7.57684,11.43417 m 25.34799,-25.62352 -2.75521,5.51042 2.20418,7.85236 -6.19925,3.16849 -1.23983,8.67894 -7.16356,-1.51537 -4.13282,6.47476 -6.0615,-4.54608 -6.19923,1.51534 -1.23983,-4.95936 m -0.82656,33.47586 21.92852,-4.7681 10.71528,-2.72752 10.71527,-9.35154 31.58282,-9.07025 m -31.58282,-74.89851 -16.08245,40.4767 50.76099,-5.99299 -44.424,10.67685 41.32828,29.73795 -41.87931,-16.37517 10.29649,25.44542 -17.73557,-13.59799 7.0203,22.94953 -18.31668,-17.99014 7.6014,20.71766 -19.86213,-23.7484 m -25.83013,-81.0722 29.54968,-19.49315 48.28841,3.13376 -38.50741,-21.593693 58.57419,2.111381 m -56.30391,76.314992 25.52185,-31.70051 -37.57313,-28.26593 z m 0,0 -41.60096,-40.47329 1.4465,40.98382 m 4.50184,22.86826 -4.50184,-22.86826 40.15446,-0.51053 m -17.83722,69.11541 -18.98434,15.88315 -3.60843,-26.49074 m 24.65916,-17.90891 -24.65916,17.90891 m 24.65916,-17.90891 -2.06639,28.5165 -22.59277,-10.60759 m 17.35786,-28.37874 -17.35786,28.37874 m 40.42999,-58.50782 9.4394,8.77619 m -9.4394,-8.77619 -1.16818,10.70482 m 1.16818,-10.70482 -15.4953,18.5572 -20.15732,4.82159 m -4.77737,35.12903 4.77737,-35.12903 12.58049,6.75029 m -17.35786,28.37874 3.60843,26.49074 m -3.60843,-26.49079 -11.58778,-17.59496 m 67.79416,-27.4528 -6.33699,-4.68386 m -61.45717,-70.18828 10.41681,20.93879 m 29.54968,-19.49313 -17.77113,-4.54612 m -11.77855,24.03925 11.77855,-24.03925 -22.19536,3.10046 m 0,45.39134 10.41681,-24.45255 h -10.41681 m 11.86331,40.98384 -11.86331,-16.53129 m 0,56.9336 11.86331,-40.40231 m 120.22679,-82.280581 -29.32789,1.190912 -53.01472,2.152751 -9.781,18.459948 m 37.57313,28.26592 34.67854,34.4837 -3.09572,40.4148 m -57.10467,-43.198 -35.65262,23.37879 -16.36515,17.53407 M 275.5247,93.544248 226.03963,137.57428 256.82169,92.959793 Z m 7.98776,11.884212 -57.47283,32.14582 64.09681,-44.030032 m 6.62399,12.858342 -13.24797,-0.97413 6.62398,-11.884212 H 275.5247 l 5.06541,-6.039499 -23.76842,5.455044 -20.06678,19.482327 -10.71528,25.13216 z M 148.50001,281.54857 160.08779,227.7826 m 39.26181,-47.80298 -14.32712,7.85236 -7.57683,11.5719 m 7.57683,-11.5719 4.54611,9.78103 8.95443,-0.68881 4.82165,-9.09222 -3.99507,-7.85236 10.60758,-1.92866 3.58178,10.1943 -3.99507,11.02086 -8.40339,7.16357 -10.19432,1.92866 -7.43906,-3.44402 -6.06147,-5.51045 7.3013,10.46983 12.26073,3.03073 11.29638,-4.95939 7.43908,-11.84743 0.55103,-13.36278 m -67.79416,98.81373 15.19621,-27.27522 m -15.19621,27.27522 v -71.36093"
       inkscape:connector-curvature="0"
       sodipodi:nodetypes="cccccccccccccccccccccccccccccccccccccccccccccccccccccccccccccccccccccccccccccccccccccccccccccccccccccccccccccccccccccccccccccccccccccccccccccccccccccccccccccccccccccccccccccccccccccccccccccccccccccccccccccccccccccccccccccccccccccccccccccccccccccccccccccccccccccccccccccccccccccccccccccccccccccccccccccccccccccccccccccccccccccccccccccccccccccccccccccccccccccccccccccccccccccccccc" />
  </g>
</svg>
