<?xml version="1.0" encoding="UTF-8" standalone="no"?>
<!-- Created with Inkscape (http://www.inkscape.org/) -->

<svg
   xmlns:dc="http://purl.org/dc/elements/1.1/"
   xmlns:cc="http://creativecommons.org/ns#"
   xmlns:rdf="http://www.w3.org/1999/02/22-rdf-syntax-ns#"
   xmlns:svg="http://www.w3.org/2000/svg"
   xmlns="http://www.w3.org/2000/svg"
   xmlns:sodipodi="http://sodipodi.sourceforge.net/DTD/sodipodi-0.dtd"
   xmlns:inkscape="http://www.inkscape.org/namespaces/inkscape"
   width="297mm"
   height="297mm"
   viewBox="0 0 297 297"
   version="1.1"
   id="svg8"
   sodipodi:docname="owl.svg"
   inkscape:version="0.92.3 (unknown)"
   inkscape:export-filename="D:\asd\works\png\owl.svg.png"
   inkscape:export-xdpi="300"
   inkscape:export-ydpi="300">
  <title
     id="title815">owl</title>
  <defs
     id="defs2" />
  <sodipodi:namedview
     id="base"
     pagecolor="#0d0d0d"
     bordercolor="#666666"
     borderopacity="1.0"
     inkscape:pageopacity="0"
     inkscape:pageshadow="2"
     inkscape:zoom="0.41582468"
     inkscape:cx="568.31506"
     inkscape:cy="601.6983"
     inkscape:document-units="px"
     inkscape:current-layer="layer1"
     showgrid="false"
     units="mm"
     inkscape:object-paths="true"
     inkscape:snap-intersection-paths="true"
     inkscape:snap-smooth-nodes="true"
     inkscape:snap-page="true"
     inkscape:snap-midpoints="true"
     inkscape:window-width="1085"
     inkscape:window-height="809"
     inkscape:window-x="67"
     inkscape:window-y="27"
     inkscape:window-maximized="1" />
  <metadata
     id="metadata5">
    <rdf:RDF>
      <cc:Work
         rdf:about="">
        <dc:format>image/svg+xml</dc:format>
        <dc:type
           rdf:resource="http://purl.org/dc/dcmitype/StillImage" />
        <dc:title>owl</dc:title>
        <dc:creator>
          <cc:Agent>
            <dc:title>Kevyan Uehara de Moraes</dc:title>
          </cc:Agent>
        </dc:creator>
        <cc:license
           rdf:resource="http://creativecommons.org/licenses/by-nc-sa/4.0/" />
      </cc:Work>
      <cc:License
         rdf:about="http://creativecommons.org/licenses/by-nc-sa/4.0/">
        <cc:permits
           rdf:resource="http://creativecommons.org/ns#Reproduction" />
        <cc:permits
           rdf:resource="http://creativecommons.org/ns#Distribution" />
        <cc:requires
           rdf:resource="http://creativecommons.org/ns#Notice" />
        <cc:requires
           rdf:resource="http://creativecommons.org/ns#Attribution" />
        <cc:prohibits
           rdf:resource="http://creativecommons.org/ns#CommercialUse" />
        <cc:permits
           rdf:resource="http://creativecommons.org/ns#DerivativeWorks" />
        <cc:requires
           rdf:resource="http://creativecommons.org/ns#ShareAlike" />
      </cc:License>
    </rdf:RDF>
  </metadata>
  <g
     inkscape:label="Layer 1"
     inkscape:groupmode="layer"
     id="layer1"
     transform="translate(0,5.2282763e-6)">
    <path
       id="path1570-1"
       style="opacity:1;vector-effect:none;fill:none;fill-opacity:1;stroke:#ffffff;stroke-width:0.79375002;stroke-linecap:square;stroke-linejoin:bevel;stroke-miterlimit:4;stroke-dasharray:none;stroke-dashoffset:0;stroke-opacity:1;paint-order:fill markers stroke;"
       d="m 173.36348,203.7177 0.64915,11.34799 -11.84515,-10.93399 m -38.53095,-0.41401 -0.64916,11.34799 11.84515,-10.93399 m 13.66747,-81.48657 v 38.03885 m -17.18196,57.44063 14.21007,-15.09666 m -14.21007,15.09666 14.21007,-15.09666 m -7.18109,-12.88914 -7.02898,27.9858 m -16.05565,-137.174341 18.40833,9.296197 m 4.6763,99.892344 -17.70263,6.11782 -5.98767,15.75015 z m -17.70263,6.11782 -11.45466,-3.12399 -4.81616,13.53731 z m -9.63233,-19.91547 9.63233,19.91547 5.0187,-16.72978 m -23.11187,7.87846 6.63851,5.72733 1.82233,-16.79148 m 0,0 -8.46084,11.06415 -4.946327,13.14682 11.584837,-7.41949 m -21.737806,0.781 15.099296,-6.50833 1.30168,-12.88648 m 0,0 -13.92783,4.81615 -2.473146,14.57866 z m -29.36499,-13.78075 15.43716,18.5969 6.768673,-11.06415 m 17.832327,-27.76963 6.53496,11.78133 -9.20417,-6.53496 m 0,0 -6.81109,0.27612 9.4803,-5.52249 m 0.55224,11.32112 -1.7488,6.35087 -1.47265,-12.42562 -4.14189,7.63945 m 21.44571,0.0921 -8.09965,-1.19652 4.04982,4.87821 -10.03254,-5.33843 5.0623,7.63947 m -16.93568,-17.11975 1.84084,3.68166 -1.47267,5.24637 4.14187,2.11695 0.82837,5.79863 4.78617,-1.01246 2.76126,4.32596 4.04984,-3.03736 4.14186,1.01244 0.82838,-3.31348 m 0.55224,22.36611 -14.65103,-3.18569 -7.15916,-1.82233 -7.159157,-6.24801 -22.205833,-7.53273 m 22.205833,-48.56903 10.745097,27.04356 -33.914746,-4.00408 29.680836,7.13349 -28.71702,18.39606 29.08519,-9.46803 -6.879357,17.00076 11.849597,-9.08518 -4.69044,15.33319 12.23787,-12.01969 -5.07871,13.84202 13.27041,-15.86694 M 141.54025,106.3078 121.79734,93.28391 89.534556,95.377661 115.26238,80.950339 76.127414,82.361004 M 113.74556,133.34904 96.693733,112.16909 121.79734,93.28387 Z m 0,0 27.79469,-27.04128 -0.96643,27.38238 m -3.0078,15.27889 3.0078,-15.27889 -26.82826,-0.3411 m 11.91752,46.17784 12.68393,10.61196 2.41089,-17.69917 m -16.47544,-11.96542 16.47544,11.96542 m -16.47544,-11.96542 1.38062,19.05263 15.09482,-7.08721 m -11.59723,-18.96059 11.59723,18.96059 m -27.01234,-39.09063 -6.30673,5.86361 m 6.30673,-5.86361 0.7805,7.15218 m -0.7805,-7.15218 10.35282,12.39856 13.46764,3.22143 m 3.19188,23.47064 -3.19188,-23.47064 -8.40535,4.51005 m 11.59723,18.96059 -2.41089,17.69917 m 2.41089,-17.69917 7.7421,-11.75566 m -45.29508,-18.34195 4.23391,-3.12941 M 148.5,92.317954 141.54025,106.30772 m -19.74291,-13.023889 11.87337,-3.037375 m 7.86954,16.061264 -7.86954,-16.061264 14.82929,2.071498 m 0,30.327166 -6.95975,-16.3374 H 148.5 m -7.92618,27.38239 7.92618,-11.04499 m 0,38.03885 -7.92618,-26.99386 m -80.326716,-54.973845 19.59475,0.79568 35.420526,1.438314 6.53496,12.333572 M 96.693733,112.16905 73.524084,135.20853 74.4879,160.73807 M 113.74556,133.349 137.56602,148.96899 148.5,160.68397 M 63.631427,82.751417 96.693733,112.16905 76.127414,82.360924 Z m -5.336834,7.940162 38.39914,21.477471 -42.824799,-29.417633 m -4.42566,8.591 8.851319,-0.650838 -4.425659,-7.940162 h 9.762502 l -3.384332,-4.035152 15.880319,3.644659 13.407133,13.016658 7.159177,16.791468 z M 148.5,208.3621 140.7579,172.43963 m -26.23184,-31.93844 9.57232,5.24637 5.06229,7.73149 m -5.06229,-7.73149 -3.03736,6.53496 -5.98272,-0.46021 -3.22145,-6.07475 2.66921,-5.24637 -7.08723,-1.28859 -2.39307,6.81108 2.6692,7.36333 5.61454,4.78617 6.8111,1.28859 4.97024,-2.30104 4.04983,-3.68168 -4.87821,6.99517 -8.1917,2.02491 -7.54743,-3.3135 -4.97024,-7.91558 -0.36817,-8.92803 M 148.5,208.3621 138.34701,190.1388 M 148.5,208.3621 v -47.67813 m 17.18199,57.44063 -14.21008,-15.09666 m 14.21008,15.09666 -14.21008,-15.09666 m 7.18108,-12.88914 7.029,27.9858 m 16.05563,-137.174341 -18.40831,9.296197 m -4.67632,99.892344 17.70266,6.11782 5.98765,15.75015 z m 17.70266,6.11782 11.45464,-3.12399 4.81616,13.53731 z m 9.63231,-19.91547 -9.63231,19.91547 -5.01872,-16.72978 m 23.11186,7.87846 -6.6385,5.72733 -1.82233,-16.79148 m 0,0 8.46083,11.06415 4.94633,13.14682 -11.58483,-7.41949 m 21.73781,0.781 -15.09931,-6.50833 -1.30167,-12.88648 m 0,0 13.92782,4.81615 2.47316,14.57866 z m 28.26048,-12.30809 -14.33266,17.12424 -6.76866,-11.06415 m -17.83232,-27.76963 -6.53495,11.78133 9.20416,-6.53496 m 0,0 6.81108,0.27612 -9.48029,-5.52249 m -0.55226,11.32112 1.74881,6.35087 1.47266,-12.42562 4.14187,7.63945 m -21.44569,0.0921 8.09966,-1.19652 -4.04983,4.87821 10.03252,-5.33843 -5.06229,7.63947 m 16.93567,-17.11975 -1.84083,3.68166 1.47267,5.24637 -4.14188,2.11695 -0.82837,5.79863 -4.78616,-1.01246 -2.76125,4.32596 -4.04985,-3.03736 -4.14187,1.01244 -0.82836,-3.31348 m -0.55225,22.36611 14.65103,-3.18569 7.15916,-1.82233 7.15916,-6.24801 21.10132,-6.06008 m -21.10132,-50.04168 -10.74511,27.04356 33.91476,-4.00408 -29.68085,7.13349 27.61252,19.86871 -27.98068,-10.94068 6.87936,17.00076 -11.84961,-9.08518 4.69045,15.33319 -12.23786,-12.01969 5.0787,13.84202 -13.27042,-15.86694 m -17.25779,-54.16649 19.74292,-13.02389 32.26277,2.093751 -25.72782,-14.427322 39.13497,1.410665 M 183.25445,133.34907 200.30628,112.16912 175.20267,93.2839 Z m 0,0 -27.7947,-27.04128 0.96644,27.38238 m 3.0078,15.27889 -3.0078,-15.27889 26.82826,-0.3411 m -11.91752,46.17784 -12.68394,10.61196 -2.41089,-17.69917 m 16.47544,-11.96542 -16.47544,11.96542 m 16.47544,-11.96542 -1.38061,19.05263 -15.09483,-7.08721 m 11.59725,-18.96059 -11.59725,18.96059 m 27.01235,-39.09063 6.30672,5.86361 m -6.30672,-5.86361 -0.78049,7.15218 m 0.78049,-7.15218 -10.35282,12.39856 -13.46764,3.22143 m -3.19189,23.47064 3.19189,-23.47064 8.40536,4.51005 m -11.59725,18.96059 2.41089,17.69917 M 156.2421,172.43967 148.5,160.68401 m 45.29508,-18.34195 -4.23391,-3.12941 M 148.5,92.317995 155.45975,106.30776 M 175.20267,93.283872 163.32931,90.246497 M 155.45975,106.30776 163.32931,90.246497 148.5,92.317995 m 0,30.327165 6.95975,-16.3374 H 148.5 m 7.92619,27.38239 L 148.5,122.64516 m 0,38.03885 7.92619,-26.99386 m 80.32671,-54.973844 -19.59474,0.79568 -35.42054,1.438313 -6.53495,12.333573 m 25.10361,18.885218 23.16965,23.03948 -2.06833,27.0022 M 183.25445,133.34904 159.43399,148.96903 148.5,160.68401 m 84.86857,-77.932593 -33.06229,29.417633 20.56631,-29.808126 z m 5.33683,7.940162 -38.39912,21.477471 42.82478,-29.417633 m 4.42566,8.591 -8.85132,-0.650838 4.42566,-7.940162 h -9.76249 l 3.38433,-4.035152 -15.88031,3.644659 -13.40715,13.016658 -7.15916,16.791468 z M 148.5,208.3621 l 7.7421,-35.92247 m 26.23186,-31.93844 -9.57233,5.24637 -5.06228,7.73149 m 5.06228,-7.73149 3.03738,6.53496 5.98269,-0.46021 3.22147,-6.07475 -2.66921,-5.24637 7.08721,-1.28859 2.39308,6.81108 -2.66921,7.36333 -5.61453,4.78617 -6.8111,1.28859 -4.97023,-2.30104 -4.04983,-3.68168 4.87819,6.99517 8.19172,2.02491 7.54741,-3.3135 4.97025,-7.91558 0.36816,-8.92803 M 148.5,208.3621 158.65299,190.1388 M 148.5,208.3621 v -47.67813"
       inkscape:connector-curvature="0"
       sodipodi:nodetypes="cccccccccccccccccccccccccccccccccccccccccccccccccccccccccccccccccccccccccccccccccccccccccccccccccccccccccccccccccccccccccccccccccccccccccccccccccccccccccccccccccccccccccccccccccccccccccccccccccccccccccccccccccccccccccccccccccccccccccccccccccccccccccccccccccccccccccccccccccccccccccccccccccccccccccccccccccccccccccccccccccccccccccccccccccccccccccccccccccccccccccccccccccccccccccc" />
  </g>
</svg>
