<?xml version="1.0" encoding="UTF-8" standalone="no"?>
<!-- Created with Inkscape (http://www.inkscape.org/) -->

<svg
   xmlns:dc="http://purl.org/dc/elements/1.1/"
   xmlns:cc="http://creativecommons.org/ns#"
   xmlns:rdf="http://www.w3.org/1999/02/22-rdf-syntax-ns#"
   xmlns:svg="http://www.w3.org/2000/svg"
   xmlns="http://www.w3.org/2000/svg"
   xmlns:sodipodi="http://sodipodi.sourceforge.net/DTD/sodipodi-0.dtd"
   xmlns:inkscape="http://www.inkscape.org/namespaces/inkscape"
   width="297mm"
   height="224.93225mm"
   viewBox="0 0 297 224.93225"
   version="1.1"
   id="svg8"
   sodipodi:docname="owl2.svg"
   inkscape:version="0.92.3 (unknown)"
   inkscape:export-filename="D:\asd\works\png\owl2.svg.png"
   inkscape:export-xdpi="300"
   inkscape:export-ydpi="300">
  <title
     id="title815">owl v2</title>
  <defs
     id="defs2" />
  <sodipodi:namedview
     id="base"
     pagecolor="#0d0d0d"
     bordercolor="#666666"
     borderopacity="1.0"
     inkscape:pageopacity="0"
     inkscape:pageshadow="2"
     inkscape:zoom="0.41582467"
     inkscape:cx="593.65591"
     inkscape:cy="598.55424"
     inkscape:document-units="px"
     inkscape:current-layer="layer1"
     showgrid="false"
     units="mm"
     inkscape:object-paths="true"
     inkscape:snap-intersection-paths="true"
     inkscape:snap-smooth-nodes="true"
     inkscape:snap-page="true"
     inkscape:snap-midpoints="true"
     inkscape:window-width="1085"
     inkscape:window-height="809"
     inkscape:window-x="67"
     inkscape:window-y="27"
     inkscape:window-maximized="1"
     inkscape:snap-bbox="true"
     inkscape:bbox-nodes="true"
     fit-margin-top="0"
     fit-margin-left="0"
     fit-margin-right="0"
     fit-margin-bottom="0" />
  <metadata
     id="metadata5">
    <rdf:RDF>
      <cc:Work
         rdf:about="">
        <dc:format>image/svg+xml</dc:format>
        <dc:type
           rdf:resource="http://purl.org/dc/dcmitype/StillImage" />
        <dc:title>owl v2</dc:title>
        <dc:creator>
          <cc:Agent>
            <dc:title>Kevyan Uehara de Moraes</dc:title>
          </cc:Agent>
        </dc:creator>
        <cc:license
           rdf:resource="http://creativecommons.org/licenses/by-nc-sa/4.0/" />
      </cc:Work>
      <cc:License
         rdf:about="http://creativecommons.org/licenses/by-nc-sa/4.0/">
        <cc:permits
           rdf:resource="http://creativecommons.org/ns#Reproduction" />
        <cc:permits
           rdf:resource="http://creativecommons.org/ns#Distribution" />
        <cc:requires
           rdf:resource="http://creativecommons.org/ns#Notice" />
        <cc:requires
           rdf:resource="http://creativecommons.org/ns#Attribution" />
        <cc:prohibits
           rdf:resource="http://creativecommons.org/ns#CommercialUse" />
        <cc:permits
           rdf:resource="http://creativecommons.org/ns#DerivativeWorks" />
        <cc:requires
           rdf:resource="http://creativecommons.org/ns#ShareAlike" />
      </cc:License>
    </rdf:RDF>
  </metadata>
  <g
     inkscape:label="Layer 1"
     inkscape:groupmode="layer"
     id="layer1"
     transform="translate(-1.4075797e-8,-72.067753)">
    <path
       id="path1221-5"
       style="opacity:1;vector-effect:none;fill:none;fill-opacity:1;stroke:#ffffff;stroke-width:1.18814003;stroke-linecap:square;stroke-linejoin:bevel;stroke-miterlimit:4;stroke-dasharray:none;stroke-dashoffset:0;stroke-opacity:1;paint-order:fill markers stroke"
       d="m 204.60906,218.80278 -5.45504,53.38152 16.1703,-56.10904 20.84609,7.20845 -37.01639,48.90059 72.86384,-54.94012 M 174.21667,281.341 148.5,296.18849 M 174.21667,281.341 152.94811,258.74548 m 10.7481,-19.29147 10.52046,41.88699 24.93735,-9.1567 m -35.45781,-32.73029 26.49594,9.15671 8.96187,23.57358 z m 40.91285,-20.65123 -14.41691,29.80794 -7.5116,-25.03985 m 89.33731,-6.32669 -35.84745,6.03953 -10.13081,-16.55996 m -26.69002,-41.56345 -9.78101,17.63339 13.77608,-9.78101 m 0,0 10.19428,0.41329 -14.18935,-8.26567 m -0.82657,16.94458 2.61747,9.50549 2.20417,-18.59769 6.19921,11.43414 m -32.09824,0.13786 12.12295,-1.79088 -6.06146,7.30132 15.0159,-7.99014 -7.57682,11.43415 m 25.34797,-25.6235 -2.75523,5.51044 2.20418,7.85234 -6.19925,3.16851 -1.23983,8.67891 -7.16355,-1.51535 -4.13283,6.47476 -6.06146,-4.54611 -6.19926,1.51537 -1.23982,-4.95938 m -0.82656,33.47585 21.92851,-4.76808 10.71526,-2.72752 10.71528,-9.35151 45.97826,10.52043 m -45.97826,-94.48922 -16.08244,40.47669 50.76096,-5.99298 -44.42396,10.67685 55.7237,49.32866 -56.27475,-35.96588 10.29649,25.44545 -17.73557,-13.59803 7.02029,22.94954 -18.31667,-17.99013 7.60141,20.71765 -19.86213,-23.74839 m -25.83011,-81.07219 29.54967,-19.49316 48.28839,3.133755 -38.5074,-21.593687 58.57417,2.111365 M 200.51777,154.45558 226.0396,122.75507 188.46649,94.48915 Z m 0,0 -41.60095,-40.47327 1.44647,40.98382 m 4.50185,22.86822 -4.50185,-22.86822 40.15448,-0.51055 m -17.83722,69.11539 -18.98434,15.88315 -3.60843,-26.49073 m 24.65915,-17.90889 -24.65915,17.90889 m 24.65915,-17.90889 -2.06638,28.51647 -22.59277,-10.60758 m 17.35784,-28.37871 -17.35784,28.37871 m 40.42999,-58.50781 9.43939,8.77618 m -9.43939,-8.77618 -1.16819,10.70483 m 1.16819,-10.70483 -15.49531,18.55721 -20.15732,4.82156 m -4.77736,35.12904 4.77736,-35.12904 12.58048,6.75033 m -17.35784,28.37871 3.60843,26.49073 M 160.08778,212.96329 148.5,195.36834 m 67.79416,-27.45281 -6.337,-4.68387 M 148.5,93.043413 158.91682,113.98221 M 188.46649,94.489045 170.69536,89.942963 M 158.91682,113.98221 170.69536,89.942963 148.5,93.043413 m 0,45.391317 10.41682,-24.45252 H 148.5 M 160.36329,154.96602 148.5,138.43473 v 56.93361 m 0,0 11.86329,-40.40232 m 120.22678,-82.280583 -29.32789,1.190924 -53.0147,2.152768 -9.78099,18.459916 m 37.57311,28.265925 34.67852,34.4837 11.29974,60.00551 M 200.51777,154.45547 164.86514,177.83425 148.5,195.36834 M 275.52469,78.72496 226.0396,122.75497 256.82165,78.140478 Z m 7.98773,11.884215 -57.47282,32.145795 64.0968,-44.03001 m 6.624,12.858332 -13.24798,-0.974117 6.62398,-11.884215 h -14.61172 l 5.06539,-6.039523 -23.76842,5.455041 -20.06677,19.482323 -10.71528,25.132169 z M 148.5,266.72925 160.08778,212.96329 m 39.2618,-47.80299 -14.32712,7.85238 -7.57684,11.5719 m 7.57684,-11.5719 4.54611,9.78101 8.95444,-0.68881 4.82164,-9.0922 -3.99507,-7.85238 10.60758,-1.92864 3.58177,10.19431 -3.99507,11.02085 -8.40338,7.16355 -10.19429,1.92866 -7.43908,-3.44401 -6.06149,-5.51044 7.30131,10.46982 12.26072,3.03074 11.29638,-4.9594 7.43908,-11.84743 0.55105,-13.36278 M 148.5,266.72925 163.69621,239.45401 M 92.390944,218.80278 97.845985,272.1843 81.675665,216.07526 60.829586,223.28371 97.845985,272.1843 24.982136,217.24418 M 122.78333,281.341 148.5,296.18849 M 122.78333,281.341 144.05189,258.74548 m -10.7481,-19.29147 -10.52046,41.88699 -24.937345,-9.1567 m 35.457805,-32.73029 -26.49596,9.15671 -8.961845,23.57358 z m -40.912846,-20.65123 14.416886,29.80794 7.51162,-25.03985 m -89.337314,-6.32669 35.84745,6.03953 10.13081,-16.55996 m 26.690023,-41.56345 9.781011,17.63339 -13.776081,-9.78101 m 0,0 -10.194278,0.41329 14.189348,-8.26567 m 0.826571,16.94458 -2.617456,9.50549 -2.204185,-18.59769 -6.199209,11.43414 m 32.09824,0.13786 -12.12295,-1.79088 6.06146,7.30132 -15.0159,-7.99014 7.57684,11.43415 m -25.347987,-25.6235 2.755228,5.51044 -2.204185,7.85234 6.199254,3.16851 1.239827,8.67891 7.163567,-1.51535 4.132812,6.47476 6.061484,-4.54611 6.19924,1.51537 1.23982,-4.95938 m 0.82656,33.47585 -21.928506,-4.76808 -10.715279,-2.72752 -10.715269,-9.35151 -45.97826,10.52043 m 45.97826,-94.48922 16.082443,40.47669 -50.760954,-5.99298 44.423958,10.67685 -55.723707,49.32866 56.27475,-35.96588 -10.29649,25.44545 17.735571,-13.59803 -7.020302,22.94954 18.316681,-17.99013 -7.601402,20.71765 19.862126,-23.74839 M 138.08318,113.98231 108.53351,94.48915 60.245108,97.622905 98.752504,76.029218 40.178333,78.140583 M 96.482232,154.45553 70.960396,122.75503 108.53351,94.489105 Z m 0,0 41.600948,-40.47327 -1.44647,40.98382 m -4.50185,22.86823 4.50185,-22.86823 -40.154478,-0.51055 m 17.837218,69.1154 18.98434,15.88314 3.60843,-26.49072 m -24.65915,-17.90889 24.65915,17.90889 m -24.65915,-17.90889 2.06638,28.51647 22.59277,-10.60758 m -17.35784,-28.37871 17.35784,28.37871 m -40.429988,-58.50782 -9.439393,8.77619 m 9.439393,-8.77619 1.168187,10.70483 m -1.168187,-10.70483 15.495288,18.55721 20.15734,4.82157 m 4.77736,35.12904 -4.77736,-35.12904 -12.58048,6.75033 m 17.35784,28.37871 -3.60843,26.49072 M 136.91222,212.96335 148.5,195.3684 m -67.794157,-27.45281 6.336996,-4.68387 M 148.5,93.043413 138.08318,113.98221 M 108.53351,94.489045 126.30464,89.942963 M 138.08318,113.98221 126.30464,89.942963 148.5,93.043413 m 0,45.391317 -10.41682,-24.45252 H 148.5 M 136.63671,154.96602 148.5,138.43473 v 56.93361 m 0,0 -11.86329,-40.40232 M 16.409924,72.685437 l 29.327897,1.190909 53.014683,2.152783 9.781006,18.459916 M 70.960396,122.75497 36.281885,157.23867 24.982136,217.24418 M 96.482232,154.45547 132.13486,177.83425 148.5,195.36834 M 21.475326,78.72496 70.960396,122.75497 40.178333,78.140478 Z M 13.487585,90.609175 70.960396,122.75497 6.8635881,78.72496 M 0.23960607,91.583292 13.487585,90.609175 6.8635881,78.72496 H 21.475326 l -5.065402,-6.039523 23.768422,5.455041 20.066762,19.482323 10.715288,25.132169 z M 148.5,266.72925 136.91222,212.96329 m -39.261801,-47.80299 14.327101,7.85238 7.57686,11.5719 m -7.57686,-11.5719 -4.54609,9.78101 -8.95444,-0.68881 -4.821641,-9.0922 3.99507,-7.85238 -10.60758,-1.92864 -3.581768,10.19431 3.995069,11.02085 8.403394,7.16355 10.194296,1.92866 7.43906,-3.44401 6.06149,-5.51044 -7.30131,10.46982 -12.260724,3.03074 -11.296379,-4.9594 -7.439081,-11.84743 -0.551043,-13.36278 M 148.5,266.72925 133.30379,239.45401"
       inkscape:connector-curvature="0" />
  </g>
</svg>
