<?xml version="1.0" encoding="UTF-8" standalone="no"?>
<!-- Created with Inkscape (http://www.inkscape.org/) -->

<svg
   xmlns:dc="http://purl.org/dc/elements/1.1/"
   xmlns:cc="http://creativecommons.org/ns#"
   xmlns:rdf="http://www.w3.org/1999/02/22-rdf-syntax-ns#"
   xmlns:svg="http://www.w3.org/2000/svg"
   xmlns="http://www.w3.org/2000/svg"
   xmlns:sodipodi="http://sodipodi.sourceforge.net/DTD/sodipodi-0.dtd"
   xmlns:inkscape="http://www.inkscape.org/namespaces/inkscape"
   width="297mm"
   height="297mm"
   viewBox="0 0 297 297"
   version="1.1"
   id="svg8"
   sodipodi:docname="owl2.svg"
   inkscape:version="0.92.3 (unknown)"
   inkscape:export-filename="D:\asd\works\png\owl2.svg.png"
   inkscape:export-xdpi="300"
   inkscape:export-ydpi="300">
  <title
     id="title815">owl v2</title>
  <defs
     id="defs2" />
  <sodipodi:namedview
     id="base"
     pagecolor="#0d0d0d"
     bordercolor="#666666"
     borderopacity="1.0"
     inkscape:pageopacity="0"
     inkscape:pageshadow="2"
     inkscape:zoom="0.41582467"
     inkscape:cx="593.65591"
     inkscape:cy="598.55424"
     inkscape:document-units="px"
     inkscape:current-layer="layer1"
     showgrid="false"
     units="mm"
     inkscape:object-paths="true"
     inkscape:snap-intersection-paths="true"
     inkscape:snap-smooth-nodes="true"
     inkscape:snap-page="true"
     inkscape:snap-midpoints="true"
     inkscape:window-width="1085"
     inkscape:window-height="809"
     inkscape:window-x="67"
     inkscape:window-y="27"
     inkscape:window-maximized="1" />
  <metadata
     id="metadata5">
    <rdf:RDF>
      <cc:Work
         rdf:about="">
        <dc:format>image/svg+xml</dc:format>
        <dc:type
           rdf:resource="http://purl.org/dc/dcmitype/StillImage" />
        <dc:title>owl v2</dc:title>
        <dc:creator>
          <cc:Agent>
            <dc:title>Kevyan Uehara de Moraes</dc:title>
          </cc:Agent>
        </dc:creator>
        <cc:license
           rdf:resource="http://creativecommons.org/licenses/by-nc-sa/4.0/" />
      </cc:Work>
      <cc:License
         rdf:about="http://creativecommons.org/licenses/by-nc-sa/4.0/">
        <cc:permits
           rdf:resource="http://creativecommons.org/ns#Reproduction" />
        <cc:permits
           rdf:resource="http://creativecommons.org/ns#Distribution" />
        <cc:requires
           rdf:resource="http://creativecommons.org/ns#Notice" />
        <cc:requires
           rdf:resource="http://creativecommons.org/ns#Attribution" />
        <cc:prohibits
           rdf:resource="http://creativecommons.org/ns#CommercialUse" />
        <cc:permits
           rdf:resource="http://creativecommons.org/ns#DerivativeWorks" />
        <cc:requires
           rdf:resource="http://creativecommons.org/ns#ShareAlike" />
      </cc:License>
    </rdf:RDF>
  </metadata>
  <g
     inkscape:label="Layer 1"
     inkscape:groupmode="layer"
     id="layer1"
     transform="translate(0,3.2282764e-6)">
    <path
       id="path1221-5"
       style="opacity:1;vector-effect:none;fill:none;fill-opacity:1;stroke:#ffffff;stroke-width:0.79375002;stroke-linecap:square;stroke-linejoin:bevel;stroke-miterlimit:4;stroke-dasharray:none;stroke-dashoffset:0;stroke-opacity:1;paint-order:fill markers stroke;"
       d="m 185.98427,171.38899 -3.6443,35.66211 10.80275,-37.48426 13.92646,4.81568 -24.72921,32.66858 48.67749,-36.70335 M 165.6803,213.16833 148.5,223.08736 m 17.1803,-9.91903 -14.20869,-15.09518 m 7.18038,-12.88788 7.02831,27.98306 16.65967,-6.11723 m -23.68798,-21.86583 17.70091,6.11724 5.98707,15.74859 z m 27.33228,-13.79628 -9.63137,19.91352 -5.01821,-16.72815 m 59.68277,-4.22661 -23.94828,4.03477 -6.768,-11.06306 m -17.83056,-27.76692 -6.53431,11.78018 9.20326,-6.53431 m 0,0 6.8104,0.2761 -9.47935,-5.52197 m -0.5522,11.32001 1.74863,6.35025 1.47252,-12.42439 4.14145,7.6387 m -21.44358,0.0921 8.09887,-1.19642 -4.04943,4.87773 10.03154,-5.3379 -5.06178,7.63871 m 16.93399,-17.11806 -1.84066,3.68131 1.47253,5.24584 -4.14148,2.11676 -0.82828,5.79804 -4.78569,-1.01235 -2.76098,4.32554 -4.04943,-3.03708 -4.14148,1.01236 -0.82828,-3.31317 m -0.55219,22.36391 14.64958,-3.18537 7.15845,-1.82215 7.15846,-6.24738 30.71628,7.02829 m -30.71628,-63.12456 -10.74405,27.0409 33.91142,-4.00368 -29.67792,7.13279 37.22683,32.95455 -37.59496,-24.0274 6.87868,16.99911 -11.84844,-9.08431 4.68998,15.33169 -12.23665,-12.0185 5.0782,13.84065 -13.26911,-15.86537 m -17.25609,-54.16117 19.74098,-13.022625 32.25959,2.09354 -25.72529,-14.4259 39.13112,1.41052 m -37.61443,50.983075 17.05014,-21.17787 -25.10113,-18.883365 z m 0,0 -27.79197,-27.03861 0.96633,27.37969 m 3.00751,15.27737 -3.00751,-15.27737 26.82564,-0.34108 m -11.91635,46.1733 -12.6827,10.61091 -2.41065,-17.69742 m 16.47382,-11.96423 -16.47382,11.96423 m 16.47382,-11.96423 -1.38047,19.05074 -15.09335,-7.08651 m 11.5961,-18.95871 -11.5961,18.95871 m 27.0097,-39.08679 6.30609,5.86303 m -6.30609,-5.86303 -0.78042,7.15148 m 0.78042,-7.15148 -10.35181,12.39735 -13.46632,3.2211 m -3.19157,23.46834 3.19157,-23.46834 8.40453,4.50963 m -11.5961,18.95871 2.41065,17.69742 M 156.24134,167.48785 148.5,155.73335 m 45.29063,-18.34015 -4.2335,-3.12911 M 148.5,87.374055 l 6.95907,13.988395 m 19.74098,-13.022625 -11.8722,-3.03706 m -7.86878,16.059685 7.86878,-16.059685 -14.82785,2.07129 m 0,30.324175 6.95907,-16.33578 H 148.5 m 7.9254,27.37969 -7.9254,-11.04391 v 38.03512 m 0,0 7.9254,-26.99121 m 80.31882,-54.968455 -19.59282,0.79561 -35.41705,1.43818 -6.5343,12.33235 m 25.10113,18.883365 23.16737,23.03722 7.54891,40.08734 M 183.25104,128.40106 159.43291,144.01951 148.5,155.73335 m 84.86024,-77.924895 -33.05906,29.414735 20.56429,-29.805205 z m 5.33629,7.93938 -38.39535,21.475355 42.82057,-29.414735 m 4.42524,8.59015 -8.85046,-0.65077 4.42522,-7.93938 h -9.76152 l 3.38399,-4.03477 -15.87875,3.6443 -13.40583,13.01538 -7.15846,16.789825 z M 148.5,203.40679 l 7.74134,-35.91894 m 26.22928,-31.93531 -9.57139,5.24587 -5.06179,7.73073 m 5.06179,-7.73073 3.03708,6.53431 5.98211,-0.46017 3.22115,-6.07414 -2.66895,-5.24587 7.08651,-1.28845 2.39284,6.81042 -2.66895,7.3626 -5.61397,4.78569 -6.81041,1.28846 -4.96976,-2.30081 -4.04944,-3.68131 4.87772,6.99448 8.19091,2.02472 7.54667,-3.31318 4.96976,-7.91481 0.36813,-8.92715 M 148.5,203.40679 158.65199,185.18527 m -47.63626,-13.79628 3.6443,35.66211 -10.80276,-37.48426 -13.926452,4.81568 24.729212,32.66858 -48.677495,-36.70335 m 65.337165,42.82058 17.1803,9.91903 m -17.1803,-9.91903 14.20869,-15.09518 m -7.18038,-12.88788 -7.02831,27.98306 -16.65967,-6.11723 m 23.68798,-21.86583 -17.70092,6.11724 -5.98706,15.74859 z m -27.33228,-13.79628 9.63136,19.91352 5.01822,-16.72815 m -59.682775,-4.22661 23.948283,4.03477 6.767999,-11.06306 m 17.830563,-27.76692 6.53431,11.78018 -9.20326,-6.53431 m 0,0 -6.8104,0.2761 9.47935,-5.52197 m 0.5522,11.32001 -1.74862,6.35025 -1.47253,-12.42439 -4.14145,7.6387 m 21.44358,0.0921 -8.09887,-1.19642 4.04943,4.87773 -10.03154,-5.3379 5.06179,7.63871 m -16.934,-17.11806 1.84066,3.68131 -1.47253,5.24584 4.14148,2.11676 0.82828,5.79804 4.7857,-1.01235 2.76097,4.32554 4.04944,-3.03708 4.14147,1.01236 0.82828,-3.31317 m 0.55219,22.36391 -14.64958,-3.18537 -7.15846,-1.82215 -7.158453,-6.24738 -30.716282,7.02829 m 30.716282,-63.12456 10.744053,27.0409 -33.911414,-4.00368 29.677914,7.13279 -37.226835,32.95455 37.594965,-24.0274 -6.878683,16.99911 11.848443,-9.08431 -4.68999,15.33169 12.23666,-12.0185 -5.0782,13.84065 13.26911,-15.86537 m 17.25609,-54.16117 -19.74098,-13.022625 -32.259599,2.09354 25.725289,-14.4259 -39.131119,1.41052 M 113.74896,128.4011 96.698817,107.22323 121.79995,88.339865 Z m 0,0 27.79197,-27.03861 -0.96633,27.37969 m -3.00751,15.27737 3.00751,-15.27737 -26.82564,-0.34108 m 11.91635,46.1733 12.6827,10.61091 2.41065,-17.69742 m -16.47382,-11.96423 16.47382,11.96423 m -16.47382,-11.96423 1.38047,19.05074 15.09335,-7.08651 m -11.5961,-18.95871 11.5961,18.95871 m -27.0097,-39.08679 -6.30609,5.86303 m 6.30609,-5.86303 0.78042,7.15148 m -0.78042,-7.15148 10.3518,12.39735 13.46633,3.2211 m 3.19157,23.46834 -3.19157,-23.46834 -8.40453,4.50963 m 11.5961,18.95871 -2.41065,17.69742 m 2.41065,-17.69742 7.74134,-11.7545 m -45.29063,-18.34015 4.2335,-3.12911 M 148.5,87.374055 141.54093,101.36245 m -19.74098,-13.022625 11.8722,-3.03706 m 7.86878,16.059685 -7.86878,-16.059685 14.82785,2.07129 m 0,30.324175 -6.95907,-16.33578 H 148.5 m -7.9254,27.37969 7.9254,-11.04391 v 38.03512 m 0,0 -7.9254,-26.99121 m -80.318826,-54.968455 19.592824,0.7956 35.417042,1.43819 6.53431,12.33235 M 96.698817,107.22319 73.531456,130.26041 65.982535,170.34775 M 113.74896,128.40106 137.56709,144.01951 148.5,155.73335 M 63.639772,77.808455 96.698817,107.22319 76.134521,77.417985 Z m -5.336299,7.93938 38.395344,21.475355 -42.820578,-29.414735 m -4.425224,8.59015 8.850458,-0.65077 -4.425234,-7.93938 h 9.761533 l -3.383998,-4.03477 15.878756,3.6443 13.405821,13.01538 7.158466,16.789825 z M 148.5,203.40679 140.75866,167.48785 m -26.22928,-31.93531 9.57138,5.24587 5.0618,7.73073 m -5.0618,-7.73073 -3.03707,6.53431 -5.98211,-0.46017 -3.22115,-6.07414 2.66895,-5.24587 -7.08651,-1.28845 -2.39284,6.81042 2.66895,7.3626 5.61398,4.78569 6.81041,1.28846 4.96975,-2.30081 4.04944,-3.68131 -4.87772,6.99448 -8.19091,2.02472 -7.54667,-3.31318 -4.96976,-7.91481 -0.36813,-8.92715 M 148.5,203.40679 138.34801,185.18527"
       inkscape:connector-curvature="0" />
  </g>
</svg>
