<?xml version="1.0" encoding="UTF-8" standalone="no"?>
<!-- Created with Inkscape (http://www.inkscape.org/) -->

<svg
   xmlns:dc="http://purl.org/dc/elements/1.1/"
   xmlns:cc="http://creativecommons.org/ns#"
   xmlns:rdf="http://www.w3.org/1999/02/22-rdf-syntax-ns#"
   xmlns:svg="http://www.w3.org/2000/svg"
   xmlns="http://www.w3.org/2000/svg"
   xmlns:sodipodi="http://sodipodi.sourceforge.net/DTD/sodipodi-0.dtd"
   xmlns:inkscape="http://www.inkscape.org/namespaces/inkscape"
   width="297mm"
   height="297mm"
   viewBox="0 0 297 297"
   version="1.1"
   id="svg8"
   sodipodi:docname="owl3.svg"
   inkscape:version="0.92.3 (unknown)"
   inkscape:export-filename="D:\asd\works\svg\animals\owl3.svg.png"
   inkscape:export-xdpi="300"
   inkscape:export-ydpi="300">
  <title
     id="title815">owl v3</title>
  <defs
     id="defs2" />
  <sodipodi:namedview
     id="base"
     pagecolor="#0d0d0d"
     bordercolor="#666666"
     borderopacity="1.0"
     inkscape:pageopacity="0"
     inkscape:pageshadow="2"
     inkscape:zoom="0.29403246"
     inkscape:cx="574.27061"
     inkscape:cy="424.31923"
     inkscape:document-units="px"
     inkscape:current-layer="layer1"
     showgrid="false"
     units="mm"
     inkscape:object-paths="true"
     inkscape:snap-intersection-paths="true"
     inkscape:snap-smooth-nodes="true"
     inkscape:snap-page="true"
     inkscape:snap-midpoints="true"
     inkscape:window-width="1085"
     inkscape:window-height="809"
     inkscape:window-x="67"
     inkscape:window-y="27"
     inkscape:window-maximized="1" />
  <metadata
     id="metadata5">
    <rdf:RDF>
      <cc:Work
         rdf:about="">
        <dc:format>image/svg+xml</dc:format>
        <dc:type
           rdf:resource="http://purl.org/dc/dcmitype/StillImage" />
        <dc:title>owl v3</dc:title>
        <dc:creator>
          <cc:Agent>
            <dc:title>Kevyan Uehara de Moraes</dc:title>
          </cc:Agent>
        </dc:creator>
        <cc:license
           rdf:resource="http://creativecommons.org/licenses/by-nc-sa/4.0/" />
      </cc:Work>
      <cc:License
         rdf:about="http://creativecommons.org/licenses/by-nc-sa/4.0/">
        <cc:permits
           rdf:resource="http://creativecommons.org/ns#Reproduction" />
        <cc:permits
           rdf:resource="http://creativecommons.org/ns#Distribution" />
        <cc:requires
           rdf:resource="http://creativecommons.org/ns#Notice" />
        <cc:requires
           rdf:resource="http://creativecommons.org/ns#Attribution" />
        <cc:prohibits
           rdf:resource="http://creativecommons.org/ns#CommercialUse" />
        <cc:permits
           rdf:resource="http://creativecommons.org/ns#DerivativeWorks" />
        <cc:requires
           rdf:resource="http://creativecommons.org/ns#ShareAlike" />
      </cc:License>
    </rdf:RDF>
  </metadata>
  <g
     inkscape:label="Layer 1"
     inkscape:groupmode="layer"
     id="layer1"
     transform="translate(0,5.2282763e-6)">
    <path
       id="path1847-5"
       style="opacity:1;vector-effect:none;fill:none;fill-opacity:0;stroke:#ffffff;stroke-width:0.79375002;stroke-linecap:square;stroke-linejoin:bevel;stroke-miterlimit:4;stroke-dasharray:none;stroke-dashoffset:0;stroke-opacity:1;paint-order:fill markers stroke;"
       d="m 77.718646,120.25329 0.526254,-15.52453 14.077327,1.57877 -8.946334,-4.7363 m 135.905477,18.68206 -0.52628,-15.52453 -14.07738,1.57877 8.94641,-4.7363 M 116.13528,214.97927 H 180.8647 M 161.78794,86.309815 148.5,86.967625 m 26.44433,2.10502 -13.15639,-2.76283 17.49799,19.208335 m 4.86783,-17.497995 -9.20943,1.05249 4.3416,16.445505 m 27.23368,-28.812495 -22.36585,11.3145 -4.86783,17.497995 m 27.23368,-28.812495 -27.23368,28.812495 m 38.54817,-21.181795 -11.31449,-7.6307 -5.52568,24.470885 m 36.04851,-27.628415 -30.52283,3.15753 16.44555,1.71033 m 0,0 -5.13106,5.92037 m 12.95903,-2.76284 6.24931,-8.02539 -14.07728,4.86786 z m 12.95912,-2.76284 -25.91815,5.52568 m 14.34052,1.44721 11.57763,-6.97289 -3.88114,8.0254 -13.35374,8.94633 m 5.65725,-9.99884 -14.34052,-1.44721 m -16.84017,16.840185 -21.708,4.34161 m 21.708,-4.34161 3.68378,5.13099 -25.39178,-0.78938 m 21.708,-4.34161 7.36757,0.52626 m 23.81312,-15.919235 -16.05084,7.23601 1.71032,-8.68322 -16.84017,16.840185 15.12985,-8.156965 m 0,0 10.39359,2.76283 21.05023,-7.89382 -15.39298,-2.10502 -5.65725,9.99884 m -18.15587,5.920395 5.26262,-0.13157 5.13097,3.15753 7.76228,-8.946355 -12.89325,5.788825 m -8.94641,4.7363 3.68379,-4.60473 7.76228,-8.683225 -2.49966,8.551655 m -53.80963,83.67461 21.05021,29.73343 -32.3647,-9.34104 m 0,17.76113 32.3647,-8.42009 m 50.38892,-42.88981 -15.91917,30.12812 -21.31338,-24.33932 -13.15637,37.10101 34.46975,-13.02483 m -13.5511,-36.83786 -7.76228,12.76168 37.23255,-5.7888 -0.39471,-19.73459 m -21.57642,-7.6307 -0.78942,7.36758 22.36584,0.26312 -29.07556,12.76171 6.70972,-13.02483 m 19.47148,-10.65667 -18.68206,3.28909 21.57642,7.6307 z m -75.12296,36.70631 0.3947,-17.23487 6.5782,24.33932 6.77553,-20.65552 27.43105,13.28794 -34.20658,7.36758 m 59.46688,-64.99255 8.68318,21.18179 -33.68034,-5.7888 14.99828,9.07789 -15.39299,-2.63128 14.60357,9.99886 -16.31389,0.39469 9.60417,12.63014 -17.23488,-6.5782 9.4726,19.33988 -20.52395,-19.86614 -6.9071,6.5782 -13.35373,-3.6838 -4.73629,-1.97345 m 45.78421,-23.28679 -6.70981,-14.99829 17.10331,-14.34046 14.60366,13.94576 z m -14.99828,-30.12813 8.28847,15.12984 m -39.0744,8.55164 19.20831,10.52511 11.57762,-34.20659 v 26.1812 m 0,0 8.28847,-11.05136 -3.1575,13.94576 z m -11.57762,8.02539 3.55223,3.15753 8.02539,-11.18292 z m -11.18293,10.13042 11.18293,-10.13042 -5.72303,11.84075 m 0,0 -8.74899,9.34103 3.28909,-11.05136 z M 148.5,129.19963 179.28593,105.51815 148.5,86.967625 Z m 8.02538,20.65553 L 148.5,129.19963 m 0,29.73344 8.02538,-9.07791 H 148.5 m 22.76054,-6.97289 -9.27526,8.68322 5.59148,-0.52625 -0.98674,13.55108 -4.60474,-13.02483 m 24.93136,-3.55222 -4.7363,3.2891 -0.65783,-8.81478 -6.70974,5.78882 7.36757,3.02596 -6.70976,-0.13158 -0.65781,-2.89438 m 12.36701,-9.07792 -5.65727,3.2891 5.39413,5.52568 z m -2.76288,-4.60474 -2.89439,7.89384 -10.26197,0.39468 3.55223,5.39414 -7.23601,2.76283 7.89382,0.13155 -1.97346,6.84133 8.68322,-6.70975 2.36813,7.23601 2.36817,-10.52511 5.26254,4.47317 -4.9994,-13.28795 6.70972,2.8944 m 0.39471,-6.44661 -7.10443,3.55221 -2.76288,-4.60474 m 9.86731,1.05253 -9.86731,-1.05253 -13.15636,8.28852 -3.68378,8.15697 5.92036,6.97288 11.05135,0.52626 7.63071,-6.05194 1.71032,-10.39355 z M 148.5,205.63823 l 11.31449,-20.39239 -6.9729,-7.10445 M 148.5,205.63823 v -46.70516 l 4.34159,19.20832 z M 135.21204,86.309815 148.5,86.967625 m -26.44434,2.10502 13.15638,-2.76283 -17.49799,19.208335 m -4.86787,-17.497995 9.20948,1.05249 -4.34161,16.445505 m -27.233715,-28.812495 22.365845,11.3145 4.86787,17.497995 M 90.480335,76.705655 117.71405,105.51815 m -38.548213,-21.181795 11.314498,-7.6307 5.525676,24.470885 m -36.048498,-27.628415 30.522822,3.15753 -16.445491,1.71033 m 0,0 5.130993,5.92037 m -12.959039,-2.76284 -6.249285,-8.02539 14.077331,4.86786 z m -12.959039,-2.76284 25.918078,5.52568 m -14.340463,1.44721 -11.577615,-6.97289 3.881131,8.0254 13.353731,8.94633 m -5.657247,-9.99884 14.340463,-1.44721 m 16.840174,16.840185 21.708039,4.34161 m -21.708039,-4.34161 -3.683784,5.13099 25.391823,-0.78938 m -21.708039,-4.34161 -7.367568,0.52626 m -23.813069,-15.919235 16.050794,7.23601 -1.710331,-8.68322 16.840174,16.840185 -15.129843,-8.156965 m 0,0 -10.393547,2.76283 -21.050216,-7.89382 15.392969,-2.10502 5.657247,9.99884 m 18.155822,5.920395 -5.262559,-0.13157 -5.130993,3.15753 -7.76227,-8.946355 12.893263,5.788825 m 8.946343,4.7363 -3.683784,-4.60473 -7.762275,-8.683225 2.499716,8.551655 m 53.809626,83.67461 -21.05023,29.73343 32.36472,-9.34104 m 0,17.76113 -32.36472,-8.42009 m -50.38896,-42.88981 15.919233,30.12812 21.313347,-24.33932 13.15638,37.10101 -34.469727,-13.02483 m 13.551076,-36.83786 7.762271,12.76168 -37.23258,-5.7888 0.394693,-19.73459 m 21.576477,-7.6307 0.789383,7.36758 -22.36586,0.26312 29.075616,12.76171 -6.709756,-13.02483 m -19.471452,-10.65667 18.682069,3.28909 -21.576477,7.6307 z m 75.122969,36.70631 -0.3947,-17.23487 -6.57818,24.33932 -6.77555,-20.65552 -27.43106,13.28794 34.20661,7.36758 m -59.466873,-64.99255 -8.683216,21.18179 33.680349,-5.7888 -14.99828,9.07789 15.39298,-2.63128 -14.603597,9.99886 16.313927,0.39469 -9.604171,12.63014 17.234871,-6.5782 -9.4726,19.33988 20.52397,-19.86614 6.90709,6.5782 13.35373,-3.6838 4.73631,-1.97345 m -45.78423,-23.28679 6.70977,-14.99829 -17.103313,-14.34046 -14.60359,13.94576 z m 14.99828,-30.12813 -8.28851,15.12984 m 39.07446,8.55164 -19.20833,10.52511 -11.57762,-34.20659 v 26.1812 m 0,0 -8.28851,-11.05136 3.15752,13.94576 z m 11.57762,8.02539 -3.55223,3.15753 -8.02539,-11.18292 z m 11.18293,10.13042 -11.18293,-10.13042 5.72303,11.84075 m 0,0 8.74899,9.34103 -3.28909,-11.05136 z M 148.5,129.19963 117.71405,105.51815 148.5,86.967625 Z m -8.0254,20.65553 8.0254,-20.65553 m 0,29.73344 -8.0254,-9.07791 H 148.5 m -22.76056,-6.97289 9.27526,8.68322 -5.59147,-0.52625 0.98673,13.55108 4.60474,-13.02483 m -24.93135,-3.55222 4.7363,3.2891 0.65782,-8.81478 6.70976,5.78882 -7.36758,3.02596 6.70975,-0.13158 0.65783,-2.89438 m -12.367,-9.07792 5.65724,3.2891 -5.39412,5.52568 z m 2.76283,-4.60474 2.89441,7.89384 10.26197,0.39468 -3.55221,5.39414 7.236,2.76283 -7.89383,0.13155 1.97347,6.84133 -8.68322,-6.70975 -2.36815,7.23601 -2.36815,-10.52511 -5.26255,4.47317 4.99943,-13.28795 -6.70976,2.8944 m -0.3947,-6.44661 7.10446,3.55221 2.76283,-4.60474 m -9.86729,1.05253 9.86729,-1.05253 13.15638,8.28852 3.68379,8.15697 -5.92036,6.97288 -11.05137,0.52626 -7.6307,-6.05194 -1.71033,-10.39355 z m 45.78423,69.99195 -11.31449,-20.39239 6.97288,-7.10445 M 148.5,205.63823 v -46.70516 l -4.34161,19.20832 z"
       inkscape:connector-curvature="0" />
  </g>
</svg>
