<?xml version="1.0" encoding="UTF-8" standalone="no"?>
<!-- Created with Inkscape (http://www.inkscape.org/) -->

<svg
   xmlns:dc="http://purl.org/dc/elements/1.1/"
   xmlns:cc="http://creativecommons.org/ns#"
   xmlns:rdf="http://www.w3.org/1999/02/22-rdf-syntax-ns#"
   xmlns:svg="http://www.w3.org/2000/svg"
   xmlns="http://www.w3.org/2000/svg"
   xmlns:sodipodi="http://sodipodi.sourceforge.net/DTD/sodipodi-0.dtd"
   xmlns:inkscape="http://www.inkscape.org/namespaces/inkscape"
   width="297mm"
   height="225.68452mm"
   viewBox="0 0 297 225.68452"
   version="1.1"
   id="svg8"
   sodipodi:docname="owl3.svg"
   inkscape:version="0.92.3 (unknown)"
   inkscape:export-filename="D:\asd\works\svg\animals\owl3.svg.png"
   inkscape:export-xdpi="300"
   inkscape:export-ydpi="300">
  <title
     id="title815">owl v3</title>
  <defs
     id="defs2" />
  <sodipodi:namedview
     id="base"
     pagecolor="#0d0d0d"
     bordercolor="#666666"
     borderopacity="1.0"
     inkscape:pageopacity="0"
     inkscape:pageshadow="2"
     inkscape:zoom="0.29403246"
     inkscape:cx="574.27061"
     inkscape:cy="424.31925"
     inkscape:document-units="px"
     inkscape:current-layer="layer1"
     showgrid="false"
     units="mm"
     inkscape:object-paths="true"
     inkscape:snap-intersection-paths="true"
     inkscape:snap-smooth-nodes="true"
     inkscape:snap-page="true"
     inkscape:snap-midpoints="true"
     inkscape:window-width="1085"
     inkscape:window-height="809"
     inkscape:window-x="67"
     inkscape:window-y="27"
     inkscape:window-maximized="1"
     inkscape:snap-bbox="true"
     inkscape:bbox-nodes="true"
     fit-margin-top="0"
     fit-margin-left="0"
     fit-margin-right="0"
     fit-margin-bottom="0" />
  <metadata
     id="metadata5">
    <rdf:RDF>
      <cc:Work
         rdf:about="">
        <dc:format>image/svg+xml</dc:format>
        <dc:type
           rdf:resource="http://purl.org/dc/dcmitype/StillImage" />
        <dc:title>owl v3</dc:title>
        <dc:creator>
          <cc:Agent>
            <dc:title>Kevyan Uehara de Moraes</dc:title>
          </cc:Agent>
        </dc:creator>
        <cc:license
           rdf:resource="http://creativecommons.org/licenses/by-nc-sa/4.0/" />
      </cc:Work>
      <cc:License
         rdf:about="http://creativecommons.org/licenses/by-nc-sa/4.0/">
        <cc:permits
           rdf:resource="http://creativecommons.org/ns#Reproduction" />
        <cc:permits
           rdf:resource="http://creativecommons.org/ns#Distribution" />
        <cc:requires
           rdf:resource="http://creativecommons.org/ns#Notice" />
        <cc:requires
           rdf:resource="http://creativecommons.org/ns#Attribution" />
        <cc:prohibits
           rdf:resource="http://creativecommons.org/ns#CommercialUse" />
        <cc:permits
           rdf:resource="http://creativecommons.org/ns#DerivativeWorks" />
        <cc:requires
           rdf:resource="http://creativecommons.org/ns#ShareAlike" />
      </cc:License>
    </rdf:RDF>
  </metadata>
  <g
     inkscape:label="Layer 1"
     inkscape:groupmode="layer"
     id="layer1"
     transform="translate(7.2558853e-8,-71.31548)">
    <path
       id="path1847-5"
       style="opacity:1;vector-effect:none;fill:none;fill-opacity:0;stroke:#ffffff;stroke-width:1.18814135;stroke-linecap:square;stroke-linejoin:bevel;stroke-miterlimit:4;stroke-dasharray:none;stroke-dashoffset:0;stroke-opacity:1;paint-order:fill markers stroke"
       d="m 42.549445,141.87914 0.787734,-23.23822 21.071942,2.36322 -13.391507,-7.08963 m 203.432966,27.96463 -0.78777,-23.23822 -21.07202,2.36322 13.39162,-7.08963 m -145.92822,169.7572 h 96.89159 M 168.39033,91.07013 148.5,92.054787 m 39.58375,3.150943 -19.69342,-4.1356 26.19224,28.75241 m 7.28651,-26.192252 -13.78533,1.575442 6.49882,24.61681 m 40.7653,-43.128598 -33.47879,16.936346 -7.28651,26.192252 m 40.7653,-43.128598 -40.7653,43.128598 M 252.2842,88.116115 235.34787,76.693942 227.07664,113.32371 m 53.95997,-41.356183 -45.68874,4.726415 24.61687,2.560143 m 0,0 -7.68054,8.86203 m 19.398,-4.135615 9.35441,-12.012973 -21.07187,7.286558 z m 19.39813,-4.135615 -38.79613,8.27123 m 21.46591,2.166287 17.33022,-10.437517 -5.80957,12.012989 -19.98882,13.391506 m 8.46817,-14.966978 -21.46591,-2.166287 m -25.20756,25.207595 -32.49407,6.49883 m 32.49407,-6.49883 5.51415,7.68043 -38.00822,-1.1816 m 32.49407,-6.49883 11.0283,0.78774 m 35.64517,-23.829048 -24.02603,10.831378 2.56012,-12.997665 -25.20756,25.207595 22.64744,-12.20993 m 0,0 15.55786,4.1356 31.50948,-11.816035 -23.04131,-3.150943 -8.46817,14.966978 m -27.177,8.86207 7.87747,-0.19694 7.6804,4.72641 11.61913,-13.39154 -19.29953,8.66513 m -13.39162,7.08963 5.51415,-6.89269 11.61914,-12.99767 -3.74167,12.80073 M 165.43633,239.1646 196.94578,283.67171 148.5,269.68938 m 0,26.58612 48.44578,-12.60379 m 75.42571,-64.20051 -23.82894,45.09791 -31.90338,-36.43283 -19.69339,55.53543 51.59677,-19.49649 m -20.28425,-55.14152 -11.61913,19.10258 55.73232,-8.66508 -0.59083,-29.54014 m -32.29711,-11.42217 -1.18166,11.02832 33.47877,0.39385 -43.52236,19.10264 10.04359,-19.49649 m 29.14629,-15.95166 -27.96463,4.92334 32.29711,11.42217 z m -112.44938,54.94461 0.59082,-25.79838 9.84671,36.43282 10.1421,-30.91865 41.06074,19.89033 -51.20284,11.02832 m 89.01425,-97.28546 12.9976,31.70641 -50.41512,-8.66509 22.45049,13.58843 -23.04132,-3.93869 21.85966,14.96701 -24.41979,0.5908 14.3762,18.90569 -25.79839,-9.84672 14.17926,28.9493 -30.7217,-29.73704 -10.33904,9.84671 -19.98881,-5.51417 -7.08962,-2.954 m 68.53306,-34.85732 -10.04372,-22.45051 25.60145,-21.46581 21.85979,20.875 z m -22.45049,-45.09792 12.40677,22.64741 M 148.5,155.27066 l 28.75236,15.75473 17.33021,-51.20285 v 39.18987 m 0,0 12.40677,-16.54246 -4.72637,20.87501 z m -17.33021,12.01298 5.31723,4.72641 12.01298,-16.73939 z m -16.7394,15.16393 16.7394,-15.16393 -8.56663,17.72407 m 0,0 -13.09611,13.98232 4.92334,-16.54246 z M 148.5,155.27066 194.58257,119.82254 148.5,92.054787 Z M 160.51296,186.18932 148.5,155.27066 m 0,44.50712 12.01296,-13.58846 H 148.5 m 34.06959,-10.43752 -13.88386,12.99766 8.36972,-0.78773 -1.47702,20.28422 -6.8927,-19.49649 m 37.31903,-5.31721 -7.08963,4.92336 -0.98469,-13.19459 -10.04362,8.66511 11.02831,4.52948 -10.04365,-0.19696 -0.98466,-4.33252 m 18.51182,-13.58847 -8.4682,4.92336 8.07432,8.27123 z m -4.13567,-6.8927 -4.33253,11.81606 -15.36085,0.59078 5.31723,8.07433 -10.83137,4.1356 11.81603,0.19692 -2.95401,10.24059 12.99766,-10.04363 3.54478,10.83137 3.54485,-15.75473 7.87734,6.69576 -7.48346,-19.89035 10.04359,4.33254 m 0.59083,-9.64974 -10.63442,5.3172 -4.13567,-6.8927 m 14.77009,1.5755 -14.77009,-1.5755 -19.69338,12.40684 -5.51414,12.20993 8.86202,10.43751 16.54244,0.78774 11.42219,-9.05897 2.56013,-15.55781 z M 148.5,269.68938 165.43633,239.1646 154.9988,228.53016 M 148.5,269.68938 v -69.9116 l 6.4988,28.75238 z M 128.60964,91.07013 148.5,92.054787 m -39.58377,3.150943 19.69341,-4.1356 -26.19224,28.75241 m -7.28657,-26.192252 13.7854,1.575442 -6.49883,24.61681 M 61.652046,76.693942 95.13083,93.630288 102.4174,119.82254 M 61.652046,76.693942 102.4174,119.82254 M 44.715703,88.116115 61.652046,76.693942 69.92327,113.32371 M 15.963321,71.967527 61.652046,76.693942 37.035269,79.254085 m 0,0 7.680434,8.86203 M 25.317694,83.9805 15.963321,71.967527 37.035269,79.254085 Z M 5.9196846,79.844885 44.715703,88.116115 M 23.24988,90.282402 5.9196846,79.844885 11.729237,91.857874 31.718049,105.24938 M 23.24988,90.282402 44.715703,88.116115 m 25.207567,25.207595 32.49413,6.49883 m -32.49413,-6.49883 -5.514149,7.68043 38.008279,-1.1816 m -32.49413,-6.49883 -11.028298,0.78774 M 23.24988,90.282402 47.275848,101.11378 44.715703,88.116115 69.92327,113.32371 47.275848,101.11378 m 0,0 -15.557799,4.1356 L 0.20859189,93.433345 23.24988,90.282402 31.718049,105.24938 m 27.176923,8.86207 -7.877372,-0.19694 -7.680434,4.72641 -11.619117,-13.39154 19.299551,8.66513 m 13.391521,7.08963 -5.514149,-6.89269 -11.619124,-12.99767 3.741752,12.80073 M 131.56367,239.1646 100.05419,283.67171 148.5,269.68938 m 0,26.58612 -48.44581,-12.60379 M 24.628418,219.4712 48.457455,264.56911 80.360786,228.13628 100.05419,283.67171 48.457455,264.17522 m 20.284212,-55.14152 11.619119,19.10258 -55.732368,-8.66508 0.590804,-29.54014 m 32.297202,-11.42217 1.181605,11.02832 -33.478807,0.39385 43.522445,19.10264 -10.043638,-19.49649 m -29.146252,-15.95166 27.964647,4.92334 -32.297202,11.42217 z m 112.449393,54.94461 -0.59082,-25.79838 -9.84668,36.43282 -10.14213,-30.91865 -41.060754,19.89033 51.202884,11.02832 m -89.014239,-97.28546 -12.997654,31.70641 50.415137,-8.66509 -22.45049,13.58843 23.041305,-3.93869 -21.8597,14.96701 24.419843,0.5908 -14.376205,18.90569 25.798378,-9.84672 -14.179259,28.9493 30.721734,-29.73704 10.33902,9.84671 19.98881,-5.51417 7.08965,-2.954 m -68.533086,-34.85732 10.04366,-22.45051 -25.601453,-21.46581 -21.85969,20.875 z M 102.4174,119.82254 90.010574,142.46995 M 148.5,155.27066 119.74761,171.02539 102.4174,119.82254 v 39.18987 m 0,0 -12.406826,-16.54246 4.7264,20.87501 z m 17.33021,12.01298 -5.31723,4.72641 -12.01298,-16.73939 z m 16.7394,15.16393 -16.7394,-15.16393 8.56663,17.72407 m 0,0 13.09611,13.98232 -4.92334,-16.54246 z M 148.5,155.27066 102.4174,119.82254 148.5,92.054787 Z M 136.48701,186.18932 148.5,155.27066 m 0,44.50712 -12.01299,-13.58846 H 148.5 m -34.06962,-10.43752 13.88386,12.99766 -8.3697,-0.78773 1.477,20.28422 6.8927,-19.49649 m -37.31901,-5.31721 7.08963,4.92336 0.984672,-13.19459 10.043648,8.66511 -11.02832,4.52948 10.04363,-0.19696 0.98469,-4.33252 m -18.511806,-13.58847 8.468158,4.92336 -8.074302,8.27123 z m 4.1356,-6.8927 4.332558,11.81606 15.360848,0.59078 -5.3172,8.07433 10.83136,4.1356 -11.81605,0.19692 2.95403,10.24059 -12.99766,-10.04363 -3.544815,10.83137 -3.544815,-15.75473 -7.877358,6.69576 7.483502,-19.89035 -10.043645,4.33254 m -0.590815,-9.64974 10.63446,5.3172 4.1356,-6.8927 m -14.77006,1.5755 14.77006,-1.5755 19.693406,12.40684 5.51416,12.20993 -8.86202,10.43751 -16.542475,0.78774 -11.422173,-9.05897 -2.560143,-15.55781 z M 148.5,269.68938 131.56367,239.1646 142.00117,228.53016 M 148.5,269.68938 v -69.9116 l -6.49883,28.75238 z"
       inkscape:connector-curvature="0" />
  </g>
</svg>
