<?xml version="1.0" encoding="UTF-8" standalone="no"?>
<!-- Created with Inkscape (http://www.inkscape.org/) -->

<svg
   xmlns:dc="http://purl.org/dc/elements/1.1/"
   xmlns:cc="http://creativecommons.org/ns#"
   xmlns:rdf="http://www.w3.org/1999/02/22-rdf-syntax-ns#"
   xmlns:svg="http://www.w3.org/2000/svg"
   xmlns="http://www.w3.org/2000/svg"
   xmlns:sodipodi="http://sodipodi.sourceforge.net/DTD/sodipodi-0.dtd"
   xmlns:inkscape="http://www.inkscape.org/namespaces/inkscape"
   width="297mm"
   height="297mm"
   viewBox="0 0 297 297"
   version="1.1"
   id="svg8"
   sodipodi:docname="swordfish.svg"
   inkscape:version="0.92.3 (unknown)">
  <title
     id="title819">swordifish</title>
  <defs
     id="defs2" />
  <sodipodi:namedview
     id="base"
     pagecolor="#0d0d0d"
     bordercolor="#666666"
     borderopacity="1.0"
     inkscape:pageopacity="0"
     inkscape:pageshadow="2"
     inkscape:zoom="0.49786619"
     inkscape:cx="599.33261"
     inkscape:cy="555.37446"
     inkscape:document-units="px"
     inkscape:current-layer="layer1"
     showgrid="false"
     units="mm"
     inkscape:object-paths="true"
     inkscape:snap-intersection-paths="true"
     inkscape:snap-smooth-nodes="true"
     inkscape:snap-page="true"
     inkscape:window-width="1085"
     inkscape:window-height="809"
     inkscape:window-x="67"
     inkscape:window-y="27"
     inkscape:window-maximized="1" />
  <metadata
     id="metadata5">
    <rdf:RDF>
      <cc:Work
         rdf:about="">
        <dc:format>image/svg+xml</dc:format>
        <dc:type
           rdf:resource="http://purl.org/dc/dcmitype/StillImage" />
        <dc:title>swordifish</dc:title>
        <dc:creator>
          <cc:Agent>
            <dc:title>Kevyan Uehara de Moraes</dc:title>
          </cc:Agent>
        </dc:creator>
        <cc:license
           rdf:resource="http://creativecommons.org/licenses/by-nc-sa/4.0/" />
      </cc:Work>
      <cc:License
         rdf:about="http://creativecommons.org/licenses/by-nc-sa/4.0/">
        <cc:permits
           rdf:resource="http://creativecommons.org/ns#Reproduction" />
        <cc:permits
           rdf:resource="http://creativecommons.org/ns#Distribution" />
        <cc:requires
           rdf:resource="http://creativecommons.org/ns#Notice" />
        <cc:requires
           rdf:resource="http://creativecommons.org/ns#Attribution" />
        <cc:prohibits
           rdf:resource="http://creativecommons.org/ns#CommercialUse" />
        <cc:permits
           rdf:resource="http://creativecommons.org/ns#DerivativeWorks" />
        <cc:requires
           rdf:resource="http://creativecommons.org/ns#ShareAlike" />
      </cc:License>
    </rdf:RDF>
  </metadata>
  <g
     inkscape:label="Layer 1"
     inkscape:groupmode="layer"
     id="layer1"
     transform="translate(0,5.2282763e-6)">
    <g
       id="g8913"
       transform="matrix(0.66774959,0,0,0.66774959,-193.49946,100.54977)" />
    <path
       id="path9005"
       style="opacity:1;vector-effect:none;fill:none;fill-opacity:1;stroke:#ffffff;stroke-width:0.79375002;stroke-linecap:square;stroke-linejoin:bevel;stroke-miterlimit:4;stroke-dasharray:none;stroke-dashoffset:0;stroke-opacity:1;paint-order:fill markers stroke;"
       d="m 195.35217,167.93397 15.9079,-2.93513 m 11.55401,-4.53696 -19.75335,2.82854 8.19934,1.70842 m -35.8958,-16.33077 -7.50418,27.44858 -25.34507,-5.46335 m 3.058,14.10272 22.28707,-8.63937 -4.13187,10.26708 m -32.71056,20.53388 -26.23228,12.37087 -15.83884,13.87918 m 56.62648,-48.41164 -14.55536,22.16159 -6.51026,-6.31056 m 15.64453,9.01168 -4.23053,-1.02981 m 0,0 15.42307,-5.78473 m 7.90807,-3.96788 4.47568,-12.45258 m -39.22082,14.22332 21.06562,-15.85103 -3.66693,17.64096 21.82213,-16.01325 -12.38375,16.42046 -9.43838,-0.40721 m 0.60893,-31.74368 3.058,14.10272 -10.08888,-4.1518 m 47.43627,1.5592 -19.19219,4.22031 8.42351,5.50321 m 10.76868,-9.72352 -15.06032,-6.04677 m -37.2216,-50.52105 5.92541,-2.153 m 5.32291,12.00466 -10.92164,5.19383 6.76794,-9.20388 -7.09462,-5.84161 3.39459,-3.79589 m -3.06791,18.84138 11.38201,-2.98804 m 0.16784,33.00025 6.28656,-21.57244 -13.77131,7.05138 9.52651,-10.61631 -13.59161,-4.87484 13.48565,-1.07717 m 4.35076,9.51694 -6.28656,21.57244 m 12.47584,-20.79551 -12.47584,20.79551 m 20.56236,-19.85142 -20.56236,19.85142 15.8849,-19.25914 m 16.96435,-2.72609 -32.84925,21.98523 23.86635,-18.47819 m 28.9708,15.75894 -12.43176,14.22937 10.85778,-36.97319 -25.9181,30.92642 m 27.49208,-8.1826 5.62529,5.1666 -18.05705,9.06274 m 10.85778,-36.97316 5.20907,13.61584 m -5.20907,-13.61584 1.57398,22.74382 m -6.20514,-36.39273 4.63116,13.64891 -18.41392,3.47784 m 28.66787,-5.69461 -10.25395,2.21677 m 8.7365,-25.18399 -8.7365,25.18399 10.43127,-11.73111 m -13.5452,-39.006159 -4.29639,9.772369 12.64819,4.45845 -9.86903,22.85754 13.36766,-11.53508 1.69477,13.45288 1.35484,-13.19352 2.46669,8.37872 -0.64318,-12.24905 4.09572,1.90007 -1.99568,-3.36595 3.0628,-4.06518 m -23.04563,-20.684879 -5.4702,8.69379 m 0,0 2.33305,5.352209 3.13715,-14.045999 -4.48465,-1.27352 z m -18.27173,-19.42215 -0.72796,4.64192 19.98524,4.81292 m -63.5548,5.81409 43.56956,-10.62701 m -31.68746,-27.515751 32.41542,22.873831 -14.68529,-7.02674 13.95733,11.66866 -10.34178,-4.86423 m -5.89177,69.852159 -4.2448,-3.56493 -0.10596,-5.95201 -2.10364,-1.91087 -0.46037,-2.20579 -4.1537,-4.01005 -1.16921,-7.99461 -2.53082,-1.64289 -1.94989,-2.65532 -1.4447,6.45122 0.32668,15.04548 4.0651,15.49115 7.48475,14.52107 -7.03088,9.95091 -10.97674,20.00283 -19.72202,18.68144 -30.6908,21.21503 14.85196,-7.33586 26.45596,-16.92757 15.61516,-9.32247 10.88843,-4.52064 -5.98469,6.19194 -5.1641,7.30039 9.39463,-6.27058 11.19254,-6.81454 7.90807,-3.96787 12.89919,-6.94938 10.76868,-9.72351 10.78935,-1.37561 7.2677,-7.68713 10.28261,-8.10184 11.55401,-4.53693 -10.05339,-0.38182 -9.69996,3.21036 -7.70856,4.64355 3.63509,-9.12799 5.04488,-15.8326 0.17732,-9.51435 3.82153,-4.8148 3.45254,-10.34897 1.06712,-7.43113 -1.79361,0.71733 -1.26919,3.34785 -2.10004,1.46587 -1.82351,3.87034 -3.04961,-0.25937 -3.49863,-11.32246 -8.3518,-14.230819 -1.15924,-4.27363 -2.9604,-4.73228 -1.52425,3.45877 -7.33672,-3.49302 -11.92056,-5.96174 -12.68194,-16.621409 -19.73348,-6.252422 17.73013,15.847091 3.61555,6.80443 -33.22778,15.49124 30.74567,-3.15853 12.82389,-7.46848 18.99969,14.78023 -6.25777,-0.27195 8.59082,5.624159 2.77916,27.31599 -13.78276,17.12675 -8.9829,3.50704 -3.30399,-1.37323 -4.67746,0.59228 -3.40906,-1.53637 -6.18928,-0.77697"
       inkscape:connector-curvature="0"
       sodipodi:nodetypes="cccccccccccccccccccccccccccccccccccccccccccccccccccccccccccccccccccccccccccccccccccccccccccccccccccccccccccccccccccccccccccccccccccccccccccccccccccccccccccccccccccccccccccccccccccc" />
  </g>
</svg>
