<?xml version="1.0" encoding="UTF-8" standalone="no"?>
<!-- Created with Inkscape (http://www.inkscape.org/) -->

<svg
   xmlns:dc="http://purl.org/dc/elements/1.1/"
   xmlns:cc="http://creativecommons.org/ns#"
   xmlns:rdf="http://www.w3.org/1999/02/22-rdf-syntax-ns#"
   xmlns:svg="http://www.w3.org/2000/svg"
   xmlns="http://www.w3.org/2000/svg"
   xmlns:sodipodi="http://sodipodi.sourceforge.net/DTD/sodipodi-0.dtd"
   xmlns:inkscape="http://www.inkscape.org/namespaces/inkscape"
   width="240.05215mm"
   height="297mm"
   viewBox="0 0 240.05215 297"
   version="1.1"
   id="svg8"
   sodipodi:docname="swordfish.svg"
   inkscape:version="0.92.3 (unknown)">
  <title
     id="title819">swordifish</title>
  <defs
     id="defs2" />
  <sodipodi:namedview
     id="base"
     pagecolor="#0d0d0d"
     bordercolor="#666666"
     borderopacity="1.0"
     inkscape:pageopacity="0"
     inkscape:pageshadow="2"
     inkscape:zoom="0.49786619"
     inkscape:cx="599.33261"
     inkscape:cy="555.37448"
     inkscape:document-units="px"
     inkscape:current-layer="layer1"
     showgrid="false"
     units="mm"
     inkscape:object-paths="true"
     inkscape:snap-intersection-paths="true"
     inkscape:snap-smooth-nodes="true"
     inkscape:snap-page="true"
     inkscape:window-width="1085"
     inkscape:window-height="809"
     inkscape:window-x="67"
     inkscape:window-y="27"
     inkscape:window-maximized="1"
     inkscape:snap-bbox="true"
     inkscape:bbox-nodes="true"
     fit-margin-top="0"
     fit-margin-left="0"
     fit-margin-right="0"
     fit-margin-bottom="0" />
  <metadata
     id="metadata5">
    <rdf:RDF>
      <cc:Work
         rdf:about="">
        <dc:format>image/svg+xml</dc:format>
        <dc:type
           rdf:resource="http://purl.org/dc/dcmitype/StillImage" />
        <dc:title>swordifish</dc:title>
        <dc:creator>
          <cc:Agent>
            <dc:title>Kevyan Uehara de Moraes</dc:title>
          </cc:Agent>
        </dc:creator>
        <cc:license
           rdf:resource="http://creativecommons.org/licenses/by-nc-sa/4.0/" />
      </cc:Work>
      <cc:License
         rdf:about="http://creativecommons.org/licenses/by-nc-sa/4.0/">
        <cc:permits
           rdf:resource="http://creativecommons.org/ns#Reproduction" />
        <cc:permits
           rdf:resource="http://creativecommons.org/ns#Distribution" />
        <cc:requires
           rdf:resource="http://creativecommons.org/ns#Notice" />
        <cc:requires
           rdf:resource="http://creativecommons.org/ns#Attribution" />
        <cc:prohibits
           rdf:resource="http://creativecommons.org/ns#CommercialUse" />
        <cc:permits
           rdf:resource="http://creativecommons.org/ns#DerivativeWorks" />
        <cc:requires
           rdf:resource="http://creativecommons.org/ns#ShareAlike" />
      </cc:License>
    </rdf:RDF>
  </metadata>
  <g
     inkscape:label="Layer 1"
     inkscape:groupmode="layer"
     id="layer1"
     transform="translate(0,5.2353432e-6)">
    <g
       id="g8913"
       transform="matrix(0.66774959,0,0,0.66774959,-193.49946,100.54977)" />
    <path
       id="path9005"
       style="opacity:1;vector-effect:none;fill:none;fill-opacity:1;stroke:#ffffff;stroke-width:1.27542639;stroke-linecap:square;stroke-linejoin:bevel;stroke-miterlimit:4;stroke-dasharray:none;stroke-dashoffset:0;stroke-opacity:1;paint-order:fill markers stroke"
       d="m 195.20371,179.82091 25.56139,-4.71627 m 18.5654,-7.29015 -31.7404,4.545 13.175,2.74515 m -57.67867,-26.24087 -12.05799,44.10537 -40.72538,-8.77871 m 4.91371,22.66077 35.81167,-13.88206 -6.63924,16.49752 M 91.828688,242.46124 49.677709,262.3392 24.227286,284.64077 M 115.21677,206.8512 91.828688,242.46124 81.367766,232.32121 m 25.138194,14.48029 -6.797765,-1.65474 m 0,0 24.782345,-9.29511 m 12.70698,-6.37573 7.19168,-20.00926 m -63.021434,22.85455 33.849004,-25.47001 -5.89216,28.34613 35.06459,-25.73067 -19.89866,26.38499 -15.16593,-0.65432 m 0.97845,-51.0069 4.91371,22.66077 -16.21118,-6.67127 m 76.22232,2.50538 -30.83871,6.78135 13.5352,8.84276 m 17.30351,-15.62411 -24.19947,-9.71617 m -59.809016,-81.17905 9.521166,-3.45952 m 8.55304,19.28952 -17.549285,8.34563 10.874975,-14.78912 -11.399896,-9.38651 5.45455,-6.09938 m -4.929629,30.27501 18.289025,-4.80129 m 0.26969,53.026 10.10148,-34.66338 -22.128245,11.33042 15.307545,-17.05868 -21.839495,-7.83307 21.669235,-1.73083 m 6.99096,15.29216 -10.10148,34.66338 m 20.04664,-33.41498 -20.04664,33.41498 m 33.04035,-31.89798 -33.04035,31.89798 25.52444,-30.94628 m 27.25893,-4.38038 -52.78337,35.32666 38.34932,-29.69142 m 46.55133,25.32203 -19.9758,22.86427 17.44667,-59.40986 -41.64614,49.69369 m 44.17527,-13.1481 9.03892,8.30188 -29.01472,14.56234 m 17.44667,-59.40981 8.37012,21.87842 m -8.37012,-21.87842 2.52913,36.54559 m -9.97064,-58.47716 7.44151,21.93157 -29.58815,5.58832 m 46.06457,-9.15031 -16.47642,3.56199 m 14.03813,-40.46655 -14.03813,40.46655 16.76134,-18.84997 m -21.76491,-62.676518 -6.9036,15.702599 20.32357,7.163999 -15.85791,36.72832 21.47964,-18.53498 2.72321,21.61658 2.17701,-21.19983 3.96357,13.46323 -1.03349,-19.682218 6.58115,3.053098 -3.20673,-5.408527 4.92142,-6.532079 M 185.8083,54.881938 177.01858,68.851435 m 0,0 3.74883,8.600126 5.04089,-22.569623 -7.2061,-2.046338 z M 147.65891,37.64322 146.48919,45.102026 178.6022,52.8356 M 76.480043,62.177891 146.48919,45.102026 M 95.572633,0.8887203 147.65891,37.64322 124.06205,26.352399 146.48919,45.102026 129.87165,37.286004 m -9.46711,112.240986 -6.8207,-5.72826 -0.17026,-9.56391 -3.38021,-3.07045 -0.73974,-3.54434 -6.67431,-6.4435 -1.87873,-12.84603 -4.066616,-2.63985 -3.133154,-4.26667 -2.321396,10.36606 0.524921,24.17562 6.53195,24.89174 12.026765,23.33298 -11.29747,15.98949 -17.637824,32.14127 -31.690057,30.01802 -49.31509129,34.08908 23.86466829,-11.78753 42.510396,-27.19983 25.091006,-14.97969 17.495922,-7.26392 -9.616415,9.94943 -8.297863,11.73053 15.095628,-10.07579 17.98458,-10.94985 12.70698,-6.37572 20.72688,-11.16652 17.30351,-15.62409 17.33672,-2.21038 11.678,-12.35196 16.52247,-13.01833 18.5654,-7.2901 -16.15415,-0.61352 -15.58625,5.15852 -12.38639,7.46142 5.84099,-14.66718 8.1063,-25.4404 0.28492,-15.288 6.14058,-7.73659 5.54766,-16.62911 1.71469,-11.940605 -2.88204,1.152632 -2.03938,5.379447 -3.37442,2.355413 -2.93008,6.219003 -4.90022,-0.41677 -5.62173,-18.193335 -13.41997,-22.866598 -1.86271,-6.867023 -4.75688,-7.604 -2.44922,5.557678 L 166.81329,47.22276 147.65891,37.64322 127.2811,10.935336 95.572633,0.8887203 124.06205,26.352399 l 5.8096,10.933605 -53.391607,24.891887 49.403257,-5.075241 20.60589,-12.000624 30.52939,23.749409 -10.05521,-0.436979 13.80404,9.037105 4.46566,43.892319 -22.14664,27.51989 -14.43405,5.63524 -5.30897,-2.20656 -7.51591,0.9517 -5.4778,-2.4687 -9.94516,-1.24846"
       inkscape:connector-curvature="0"
       sodipodi:nodetypes="cccccccccccccccccccccccccccccccccccccccccccccccccccccccccccccccccccccccccccccccccccccccccccccccccccccccccccccccccccccccccccccccccccccccccccccccccccccccccccccccccccccccccccccccccccc" />
  </g>
</svg>
