<?xml version="1.0" encoding="UTF-8" standalone="no"?>
<!-- Created with Inkscape (http://www.inkscape.org/) -->

<svg
   xmlns:dc="http://purl.org/dc/elements/1.1/"
   xmlns:cc="http://creativecommons.org/ns#"
   xmlns:rdf="http://www.w3.org/1999/02/22-rdf-syntax-ns#"
   xmlns:svg="http://www.w3.org/2000/svg"
   xmlns="http://www.w3.org/2000/svg"
   xmlns:sodipodi="http://sodipodi.sourceforge.net/DTD/sodipodi-0.dtd"
   xmlns:inkscape="http://www.inkscape.org/namespaces/inkscape"
   width="271.99371mm"
   height="297mm"
   viewBox="0 0 271.99371 297"
   version="1.1"
   id="svg8"
   sodipodi:docname="wasp wireframe.svg"
   inkscape:version="0.92.3 (unknown)">
  <title
     id="title185">wasp</title>
  <defs
     id="defs2" />
  <sodipodi:namedview
     id="base"
     pagecolor="#0d0d0d"
     bordercolor="#666666"
     borderopacity="1.0"
     inkscape:pageopacity="0"
     inkscape:pageshadow="2"
     inkscape:zoom="0.42150236"
     inkscape:cx="575.89865"
     inkscape:cy="595.21953"
     inkscape:document-units="px"
     inkscape:current-layer="layer1"
     showgrid="false"
     units="mm"
     inkscape:object-paths="true"
     inkscape:snap-intersection-paths="true"
     inkscape:snap-smooth-nodes="true"
     inkscape:snap-page="true"
     inkscape:showpageshadow="false"
     showborder="true"
     inkscape:window-width="1085"
     inkscape:window-height="809"
     inkscape:window-x="67"
     inkscape:window-y="27"
     inkscape:window-maximized="1"
     inkscape:snap-bbox="true"
     inkscape:bbox-nodes="true"
     fit-margin-top="0"
     fit-margin-left="0"
     fit-margin-right="0"
     fit-margin-bottom="0" />
  <metadata
     id="metadata5">
    <rdf:RDF>
      <cc:Work
         rdf:about="">
        <dc:format>image/svg+xml</dc:format>
        <dc:type
           rdf:resource="http://purl.org/dc/dcmitype/StillImage" />
        <dc:title>wasp</dc:title>
        <dc:creator>
          <cc:Agent>
            <dc:title>Kevyan Uehara de Moraes</dc:title>
          </cc:Agent>
        </dc:creator>
        <cc:license
           rdf:resource="http://creativecommons.org/licenses/by-nc-sa/4.0/" />
      </cc:Work>
      <cc:License
         rdf:about="http://creativecommons.org/licenses/by-nc-sa/4.0/">
        <cc:permits
           rdf:resource="http://creativecommons.org/ns#Reproduction" />
        <cc:permits
           rdf:resource="http://creativecommons.org/ns#Distribution" />
        <cc:requires
           rdf:resource="http://creativecommons.org/ns#Notice" />
        <cc:requires
           rdf:resource="http://creativecommons.org/ns#Attribution" />
        <cc:prohibits
           rdf:resource="http://creativecommons.org/ns#CommercialUse" />
        <cc:permits
           rdf:resource="http://creativecommons.org/ns#DerivativeWorks" />
        <cc:requires
           rdf:resource="http://creativecommons.org/ns#ShareAlike" />
      </cc:License>
    </rdf:RDF>
  </metadata>
  <g
     inkscape:label="Layer 1"
     inkscape:groupmode="layer"
     id="layer1"
     transform="translate(-3.7091171e-6,4.7744608e-6)">
    <g
       id="g1848"
       transform="matrix(0.55876524,0,0,0.55876524,-105.30342,-114.53047)"
       style="display:inline;fill:none;stroke:#ffffff;stroke-width:1.29877257;stroke-miterlimit:4;stroke-dasharray:none;stroke-opacity:1">
      <g
         id="g1673"
         style="fill:none;stroke:#ffffff;stroke-width:1.29877257;stroke-miterlimit:4;stroke-dasharray:none;stroke-opacity:1">
        <path
           id="path1500"
           style="opacity:1;vector-effect:none;fill:none;fill-opacity:1;stroke:#ffffff;stroke-width:1.29877257;stroke-linecap:butt;stroke-linejoin:miter;stroke-miterlimit:4;stroke-dasharray:none;stroke-dashoffset:0;stroke-opacity:1"
           d="m 318.66845,478.04814 -0.0348,6.96473 48.04798,-27.85541 z m -29.02931,8.41446 -23.92045,4.65983 -44.42369,38.41769 z m 77.04249,-29.30514 -48.04795,27.85541 28.99443,-10.25161 3.003,-2.27815 z m -165.68277,137.62025 33.65431,-22.67783 11.49424,23.29914 z m 99.51051,-97.9847 18.15911,-18.74487 -53.67465,40.5155 35.51554,-21.77063 -2.92889,14.93731 8.00565,-17.08713 z m -13.91221,32.80351 -6.15066,-7.76154 -27.87888,23.2379 z m -60.74589,2.84304 -4.55627,-2.89944 68.34414,-43.07752 z m 81.4376,-8.51245 1.09313,24.66653 3.62431,36.96797 13.66883,-45.25211 z m 233.90163,57.80357 5.49167,35.29307 -12.44777,-13.61932 z m 0.659,69.70746 -8.67682,33.20624 32.25435,15.12037 z m -37.48973,-51.10904 -8.95941,25.11252 -18.98479,0.26218 z m -15.918,-35.55931 -0.48375,19.74333 22.99175,-3.22177 z m -3.55908,-28.72972 v -45.25128 l -16.84109,18.01265 z m 4.98827,136.92667 1.74817,-12.44905 19.47708,8.64021 z m -15.38582,-13.76705 9.81177,-2.636 11.10345,-31.12207 -18.98479,0.26218 z m -19.47708,-58.5777 11.5691,2.05022 -0.56649,47.84438 z m 32.94996,-16.10887 16.40175,15.81598 -27.9442,25.3747 z m -21.38086,18.15909 21.86461,-37.90242 -0.48375,19.74333 z m -17.13399,26.94574 -10.10465,-53.15926 23.72397,2.78244 -8.05443,21.38086 z m 35.43952,-93.57788 -21.8202,43.20106 25.37928,-14.47134 z m 27.38507,4.10044 -3.6611,20.79508 10.98332,20.64864 14.64442,21.8202 z m 1.31801,-33.09641 27.60473,74.68658 -28.92274,-41.29728 -12.00842,-15.23021 z m -55.94172,33.3893 -22.11308,-27.23864 3.80755,63.26393 z m 27.23864,-49.64461 13.61931,9.95821 -13.61931,35.29307 z m -3.51466,-37.48973 9.37243,-0.14644 -5.85777,37.63617 -16.84109,18.01265 z m -17.65843,0.027 9.01822,0.19268 -4.68622,55.28272 z m -11.70135,-2.79589 -12.52328,27.73766 18.15908,62.16559 10.39755,-31.63196 z m -75.93365,27.81088 -0.17687,-20.35515 -25.26662,14.49723 16.05052,-15.32565 -42.55976,4.03852 62.27705,-29.27778 -19.71727,25.23926 9.21608,0.82842 22.78138,-10.87294 z m 11.57147,26.45435 18.07456,-11.91257 8.90545,12.2191 24.85889,-26.8341 -33.76434,14.615 0.31065,-20.19259 30.5248,-28.83681 -5.78455,-2.26989 -13.86731,-13.00634 -14.8079,22.05652 -26.02172,27.70733 29.95668,-5.65081 z m 8.34069,17.28901 -19.91216,-43.74336 -7.42549,70.04551 z m -71.86489,-60.88841 -34.48273,25.26662 29.02934,-8.41446 z m 7.45572,52.08652 22.57428,-11.90845 -38.52125,-0.10355 z m -19.57128,72.27911 22.67783,-9.63032 41.39046,-97.59026 z m 0,0 13.66883,-45.25211 25.47372,-28.26962 z m 0,0 -21.53876,-15.94697 16.82132,-45.68753 1.09313,24.66653 z m -14.42583,-73.83129 -13.74023,50.11794 -31.27263,-16.77538 34.02954,-15.47636 z m -10.98332,17.8662 13.91221,-32.80351 -20.06287,25.04197 z m -51.94399,42.50336 17.91445,-27.027 18.22511,42.042 z m -8.8019,-39.66032 63.78787,-45.97696 -24.64531,32.10104 z m -36.34665,50.94746 3.93496,-21.021 59.12804,-17.29314 z m 162.99042,54.15755 12.74269,-23.44971 14.59497,35.15106 16.89055,-22.7033 -4.9821,20.11451 10.66582,-6.73087 -5.68372,-13.38364 -31.48552,-12.44776 -25.27245,9.36668 z m 61.19907,-6.93797 -22.97508,-18.56196 6.00422,14.49798 z m 10.25162,-0.51776 -24.58649,-24.19486 -8.64021,6.15066 z m -70.2771,-42.20751 17.28042,7.76155 19.47709,-2.63599 -10.69043,15.52309 -8.78666,-12.8871 -35.7324,7.6151 z m -18.98449,-11.95004 18.98449,11.95004 -20.94153,-0.14644 z m 48.71268,10.19271 -14.74771,-37.73746 -14.98048,39.49479 29.72819,-1.75733 10.39754,-6.00421 5.85777,-11.71554 -11.71554,-1.318 z m 4.53977,-19.03775 -19.28748,-18.69971 31.29591,9.91305 z m 51.40193,9.37244 -27.97085,0.73221 -11.5691,13.17999 3.954,9.37243 z m -3.17368,43.8963 5.07403,-7.14508 -1.90035,-36.75122 -22.11308,35.58595 z m -36.21982,-62.0554 14.68106,-53.19768 -0.32953,14.97573 25.18842,-41.80983 -18.30553,44.44583 14.35153,-9.51888 -28.26374,49.64461 13.91221,-40.12573 -6.88289,-2.636 z m 105.59947,-169.58982 -11.14292,12.89447 -21.67375,51.91448 8.64021,-0.21966 13.03354,-51.69482 7.62217,35.04998 z m 14.91145,30.44421 -9.94097,-14.29014 15.42922,-32.20459 -1.13907,-16.05052 -11.18359,33.033 -3.10656,15.22211 -0.82841,24.64531 z m -12.65473,-69.31779 10.99791,4.70151 -13.25463,34.17207 z m -19.54985,-8.24246 -33.86142,59.43869 -17.83386,42.82099 15.45217,6.67674 2.38169,-49.49773 32.92945,1.24263 z m -57.47982,99.98979 -7.24002,-26.26096 34.47865,-38.10129 -7.46866,-7.10255 33.53573,-29.94785 -26.06707,37.0504 -12.52098,26.57963 z m -9.15572,-46.60887 0.58872,8.60659 17.57332,-25.33486 10.47076,-19.98964 8.64021,-11.27621 25.18841,-6.80966 -16.21866,-6.77305 -10.65386,2.70923 -5.61068,15.32409 -6.73086,0.36244 -21.38343,30.65131 16.29811,-4.19851 z m 68.1888,-89.10626 19.88193,-6.93797 6.52375,23.71335 -2.69234,15.53275 -11.70133,9.52677 -13.56527,-6.10956 -4.17412,-1.42286 0.0321,-20.94432 4.14203,22.36718 25.26662,-3.41721 -29.40865,-18.94997 32.10099,3.41722 z m 4.59695,95.73585 7.62217,35.04998 -20.65571,16.64484 z m -7.08218,0.67081 -23.60979,51.05099 -11.70135,-2.79589 2.38169,-49.49773 z m 38.6248,-29.6158 -5.48825,46.49473 -9.94097,-14.29014 z m -18.14298,-22.82306 -2.25672,38.87358 -11.14292,12.89447 z m -19.54985,-8.24246 13.56527,6.10956 -14.49724,54.57176 z m -30.24119,35.62754 -7.46866,-7.10255 -27.00999,45.20384 z m -7.46866,-7.10255 8.34732,-23.13819 25.18838,-6.80966 z m -81.8924,178.26782 -33.96497,27.54475 18.98449,11.95004 z m -33.43246,54.87144 -2.48955,-15.52309 20.94153,0.14644 z m 64.58192,-12.88709 -0.14644,-21.96664 11.71554,8.78665 z m -11.86198,-23.28464 -19.28748,-18.69971 14.74771,37.73746 z m 12.00843,-8.78666 -31.29591,-9.91305 27.33765,-26.30215 18.63932,-16.98248 z m 14.35153,-38.22195 0.32953,-14.97573 24.85889,-26.8341 z m 6.88289,2.636 18.30553,-44.44583 -3.954,34.92695 z m -9.81177,54.47726 -4.10044,-14.35153 28.26374,-49.64461 3.80755,63.26393 z m 27.97085,-0.73221 -35.58595,23.28463 13.47287,12.30132 z m 1.90035,36.75122 8.2043,16.40804 -10.10465,-53.15926 z m -10.04452,6.42021 -13.96891,-7.58548 18.9394,8.31035 z m -28.78738,20.29614 -5.68372,-13.38364 16.97086,4.06398 -22.97508,-18.56196 33.2267,18.0442 -10.25162,0.51776 z m 130.76571,44.71812 32.25435,15.12037 -13.9122,15.08376 z m -22.07647,-15.48648 -21.22525,3.80884 17.85703,16.10758 z m -3.36822,19.91642 23.43108,15.2302 2.01361,-19.66014 -11.82537,-17.97603 z m 7.61616,-80.28599 5.49758,44.2041 -14.43174,-20.73849 z m 5.49758,44.2041 -29.2226,7.52526 19.47708,8.64021 10.10465,-2.63599 20.64864,-15.08377 z m -5.49758,-44.2041 3.22072,-8.45923 23.28463,51.10904 z m 4.24583,-27.2041 14.64442,21.8202 12.44777,13.61932 -4.83267,34.41439 z m -53.01282,21.08798 21.38086,-18.15909 -11.54245,41.19068 -1.93043,33.49589 -8.47447,-8.6831 z m -17.13399,26.94574 5.56489,-28.99596 11.00261,49.8946 z m 38.9986,-64.84816 -25.37928,14.47134 -8.05443,21.38086 11.5691,2.05022 z m -0.48375,19.74333 22.99175,-3.22177 0.14644,11.71554 -6.73644,7.32221 z m 0.48375,-19.74333 -3.55908,-28.72972 21.96663,34.4144 4.10045,10.83688 z m 23.82599,-24.33639 28.92274,41.29728 -6.9561,21.67375 z m -12.00842,-15.23021 8.34732,35.7324 3.6611,-20.79508 z m -60.77437,-46.93538 -3.954,34.92695 22.11308,27.23864 z m 24.22463,-24.94177 -11.70135,-2.79589 16.03335,58.27129 z m 9.01822,0.19268 8.64021,-0.21966 -13.32643,55.50238 z m 18.01264,-0.3661 7.02932,9.81176 15.81599,44.07972 -13.32643,18.15909 -1.75734,-24.45619 -13.61931,-9.95821 z m -33.09641,87.28078 10.39755,-31.63196 16.84109,27.23863 -21.8202,43.20106 -23.72397,-2.78244 z m -256.64519,54.34431 -11.49424,-11.39069 63.063,-38.31414 -17.91445,27.027 z m 45.14855,0.62131 24.64532,-8.28414 -36.13956,-15.015 z m 24.64532,-8.28414 -18.22511,-42.042 31.27263,16.77538 z m 29.71664,-90.32187 -13.91221,32.80351 10.98332,-17.8662 z m 0,0 -20.06287,25.04197 -15.45267,-3.27134 z m 18.15911,-18.74487 -0.0348,6.96473 -13.04755,9.63032 z m -29.02934,8.41446 -24.64531,32.10104 53.67462,-40.5155 z m 34.48273,-25.26662 -58.40318,29.92645 23.92045,-4.65983 z m -114.11401,88.43318 11.28714,-20.08904 -27.85542,32.8259 59.12804,-17.29314 12.42621,-26.50924 -39.14256,13.87592 z m 114.11401,-88.43318 -5.45339,16.85216 48.01315,-20.89068 z m 44.52724,87.19056 7.42549,-70.04551 -41.39046,97.59026 z m 37.38217,-75.69632 -29.95668,5.65081 11.57147,26.45435 8.34069,17.28901 18.63932,-16.98248 -8.90545,-12.2191 -18.07456,11.91257 z m -90.40066,28.58028 -8.34175,22.65661 18.38627,16.38239 25.47372,-28.26962 24.92574,-33.69885 -0.17687,-20.35515 -11.90845,30.75486 -14.70434,-1.55328 -22.88493,7.45573 -10.76939,6.62731 38.52125,0.10355 -22.57428,11.90845 z m 120.92546,-57.41709 -30.5248,28.83681 -0.31065,20.19259 33.76434,-14.615 z m -12.61035,186.23543 7.24862,-10.45872 -13.96891,-7.58548 6.72029,18.0442 m -213.93787,-80.45968 11.28714,-20.08904 4.55627,2.89944 -15.84341,17.1896 m 101.99845,35.93245 64.06829,-107.22058 -24.92574,33.69885 z m 111.93942,44.52723 7.24862,-10.45872 -13.96891,-7.58548 6.72029,18.0442 m 83.85548,-280.25265 5.71675,-11.65967 -11.70133,9.52677 5.98458,2.1329 m -297.79335,199.79297 11.28714,-20.08904 4.55627,2.89944 -15.84341,17.1896 m 101.99845,35.93245 64.06829,-107.22058 -12.70663,17.44122 -12.21911,16.25763 z m 145.19841,-249.45456 4.79925,-6.02098 5.85457,3.31175 -10.65382,2.70923 m -63.41036,244.01274 -10.39754,6.00421 -12.44777,9.51888 19.47709,-2.63599 3.36822,-12.8871 m 30.15137,49.96905 7.24862,-10.45872 -13.96891,-7.58548 6.72029,18.0442 m 83.85548,-280.25265 5.71675,-11.65967 -11.70133,9.52677 5.98458,2.1329 m -297.79335,199.79297 11.28714,-20.08904 4.55627,2.89944 -15.84341,17.1896 m 101.99845,35.93245 64.06829,-107.22058 -12.70663,17.44122 -12.21911,16.25763 z m 197.64941,-196.37747 10.61424,-19.1799 -6.64843,19.63749 z m -74.05507,5.93957 23.28818,-48.14318 -8.34732,23.13819 -15.26893,25.55403 m 1.2835,48.18066 8.93311,-40.05251 8.90075,-2.76848 3.62023,-23.81115 30.24117,-35.62754 -33.8614,59.43869 -17.83386,42.82099 m 73.13048,-14.34426 -4.14207,-40.79938 8.07704,0.93196 -3.10656,15.22211 z m -36.95874,24.00957 14.59157,-51.24367 7.08218,-0.67081 7.41506,-53.90095 5.98458,2.1329 -13.39964,51.76805 z m 33.60895,-160.86901 1.75733,-24.45619 6.00422,6.88288 -0.21966,-8.12766 -1.46445,-22.77208 7.02933,4.75944 -1.31801,-6.37033 -5.85777,-22.99175 -10.91009,-3.73433 5.49166,-1.24477 5.41843,4.9791 6.15066,11.05655 -0.29289,11.9352 1.31801,6.37033 -5.56488,18.01264 0.21966,8.12766 -7.76155,17.57331 m 36.61107,-36.3914 21.23442,-4.75944 7.90799,-0.14644 3.07533,-5.34522 -10.98332,5.49166 -16.1821,-1.17155 m -22.47919,27.60474 21.08797,-13.17998 0.659,-3.14855 -21.74697,16.32853 m -15.83442,20.99836 7.4871,-1.66771 15.59631,-13.39966 -1.53766,-2.92888 -14.05865,16.32854 -10.83688,-4.613 3.34978,6.28071 m -25.57728,20.29613 -44.40464,-1.75454 0.65901,-6.80966 43.74563,8.5642 -23.79995,-24.32077 12.7846,-4.89207 11.01539,29.21284 m 29.40865,18.94997 35.06798,-0.71487 -32.37564,-14.81788 21.46554,-9.19898 6.9561,10.10466 3.954,13.9122 -35.06798,0.71487 34.62865,19.7141 -6.44355,3.00212 -28.1851,-22.71622 m -119.7236,241.94327 -10.39754,6.00421 -12.44777,9.51888 19.47709,-2.63599 3.36822,-12.8871 m 29.68539,-197.6749 -8.15808,-17.15883 v -8.78666 l -16.84109,-45.6906 1.61088,-13.32643 18.30554,-30.7533 8.05443,-7.6151 12.74065,-6.00421 2.48955,-3.22177 V 220.7456 l 7.90799,-14.05865 6.00422,22.8453 -6.00422,18.59842 -3.80755,15.81598 -13.47287,16.84109 -10.69043,8.05444 -12.00843,11.12976 -3.22178,15.66953 14.79088,10.39755 23.68374,25.75458 m -44.91816,206.50601 -0.29289,10.10466 11.71554,8.78665 -4.10044,-14.35153 -7.32221,-4.53978 m -20.20931,50.23039 11.5497,4.88227 5.43784,13.13037 L 379.73571,608.53 m -8.78666,-12.8871 12.44777,-9.51888 10.39754,-6.00421 6.00421,10.2511 -0.43933,15.52309 -8.9331,-12.88709 -19.47709,2.63599 m 52.99668,34.44596 7.24862,-10.45872 -13.96891,-7.58548 6.72029,18.0442 m -24.58649,-24.19486 -8.64021,6.15066 -0.29289,-19.03775 8.9331,12.88709 17.8662,6.15066 6.72029,18.0442 -24.58649,-24.19486 m -19.62353,2.636 -44.51906,-5.272 5.99125,5.80987 z m 0,0 -38.52781,0.53787 -1.24262,14.39369 25.27245,-9.36668 -12.74269,23.44971 27.33766,11.70135 11.90845,-2.58879 4.9821,-20.11451 -16.89055,22.7033 -14.59497,-35.15106 13.83369,-5.3099 m 0.66429,-0.25498 -8.78666,-12.8871 -35.7324,7.6151 z m -14.49798,5.56488 14.49798,-5.56488 10.69043,-15.52309 -19.47709,2.63599 -17.28042,-7.76155 29.72819,-1.75733 10.39754,-6.00421 5.85777,-11.71554 -11.71554,-1.318 12.00843,-8.78666 14.35153,-38.22195 6.88289,2.636 -13.91221,40.12573 4.10044,14.35153 -11.71554,-8.78665 0.14644,21.96664 3.954,9.37243 13.47287,12.30132 -17.8662,-6.15066 -8.9331,-12.88709 0.29289,19.03775 6.00422,14.49798 z m 126.3814,46.42283 29.2226,-7.52526 21.00777,-1.55429 -20.64864,15.08377 -10.10465,2.63599 -3.36822,19.91642 13.61932,-22.40597 11.82537,17.97603 -2.01361,19.66014 20.35576,10.54399 -18.34215,-30.20413 8.67682,-33.20624 23.57753,48.32661 -4.68622,-24.16331 -14.05864,-58.57769 -4.83267,34.41439 -22.25952,-69.85391 -1.02511,18.74487 23.28463,51.10904 -26.50535,-42.64981 5.49758,44.2041 -14.43174,-20.73849 -14.79086,28.26375 m 8.64021,-135.3145 8.34732,35.7324 10.98332,20.64864 -1.02511,18.74487 -12.15488,31.92484 -14.79086,28.26375 -4.83266,34.4144 5.85776,10.10465 -0.29288,30.31396 -3.36822,0.43934 -11.12976,-28.55663 3.95399,-8.78666 2.48955,-41.88306 20.06286,-56.23459 6.73644,-7.32221 -0.14644,-11.71554 -4.10045,-10.83688 -21.96663,-34.4144 L 498.502,500.747 Z m -32.4008,-191.80537 -28.15391,-15.92581 0.65901,-6.80966 9.29921,-10.03143 9.07954,-5.12555 14.35153,-5.49166 15.46808,1.77164 11.258,-0.0875 8.2741,-23.5043 0.95189,-4.75944 0.21967,-16.18209 3.14855,-3.07533 0.14644,-4.39333 -5.34521,-4.46655 1.02511,-11.20298 -6.44355,-0.51256 -0.43933,-7.76155 5.49166,-1.24477 5.41843,4.9791 6.15066,11.05655 -0.29289,11.9352 1.31801,6.37033 -5.56488,18.01264 0.21966,8.12766 -7.76155,17.57331 10.83688,4.613 3.0021,-10.32433 5.34522,-9.00632 2.48955,-5.56488 8.93311,-12.66743 6.00421,-3.44144 5.05232,-5.93099 10.10466,-4.97911 4.68622,0.21967 1.90377,-2.05022 6.9561,0.21967 3.51467,2.26988 -3.07533,5.34522 -7.90799,0.14644 -16.91432,10.10466 -0.659,3.14855 -13.61931,13.39965 -1.75733,2.78244 1.53766,2.92888 -5.19877,10.76366 -5.12555,5.93099 2.87722,4.48227 12.35298,8.40482 6.9561,10.10466 3.954,13.9122 -0.43933,20.42897 -6.44355,3.00212 -16.89794,-4.28401 -6.006,-2.07103 -10.99791,-4.70151 5.71675,-11.65967 2.69234,-15.53275 9.11256,-17.6038 -15.63631,-6.10955 -21.12455,-7.14507 1.24262,14.08304 -5.69535,13.35816 -16.25073,14.17127 m 39.94267,16.43834 5.71675,-11.65967 -11.70133,9.52677 5.98458,2.1329 m -39.94267,-16.43837 16.2187,6.77305 0.0321,-20.94432 -16.25073,14.17127 m -7e-5,0 16.25073,-14.17127 -0.0321,20.94432 0.0321,-20.94432 4.14207,22.36718 25.26662,-3.41721 -29.40869,-18.94997 32.10103,3.41722 9.11256,-17.6038 -15.63631,-6.10955 6.52375,23.71335 -26.40568,-16.77538 19.88193,-6.93797 -21.12455,-7.14507 1.24262,14.08304 -5.69535,13.35816 m -39.24609,32.56703 12.34154,-15.68653 -5.61068,15.32409 z m -23.24736,43.18107 1.86393,-12.52976 16.29811,-4.19851 -18.16204,16.72827 m 98.84012,24.17933 19.1969,-16.81752 25.84741,-15.74276 8.05444,-1.68411 13.54609,-11.42265 14.71765,-25.26163 4.46655,-14.27832 1.318,-15.15698 24.74908,-15.23021 12.52098,-17.5733 -23.94364,4.10043 -26.57963,35.87885 -11.86198,19.84319 -5.71133,16.69465 0.36611,9.29921 -6.51677,6.07744 -31.55874,3.73433 -9.66532,-3.22178 -3.45755,-5.73357 -5.48825,46.49473 m -18.4322,17.50024 7.66282,-7.14507 0.82841,-24.64531 3.10656,-15.22211 11.18359,-33.033 -6.006,-2.07103 -13.25463,34.17207 -3.52075,47.94445 m -78.49222,-21.33166 27.00999,-45.20384 8.34732,-23.13819 -8.64021,11.27621 -10.47076,19.98964 -17.57332,25.33486 1.32698,11.74132 m 40.17808,38.00348 9.01822,0.19268 21.67375,-51.91448 13.39964,-51.76805 -5.98458,-2.1329 -14.49724,54.57176 -23.60979,51.05099 m -32.93806,-11.74252 14.71765,-37.78262 12.52098,-26.57963 26.06707,-37.0504 4.17412,1.42286 -33.86142,59.43869 -17.83386,42.82099 -5.78454,-2.26989 m 5.78454,2.26989 15.45217,6.67674 -12.52328,27.73766 z m -170.83739,47.26902 52.60428,-32.10103 49.60128,-25.47373 2.29258,-4.92447 21.93852,-10.19409 -13.56528,-15.73986 -18.2251,-18.63931 -20.6068,-15.32566 0.0518,-4.97048 3.59843,-3.003 18.45809,-61.71683 -0.62131,-9.11255 5.90245,-8.85367 0.31066,-19.36418 -2.84768,-5.59179 8.69835,-37.95171 1.44973,0.10355 5.90244,45.45921 -5.28113,6.52376 -0.36243,16.25762 -6.16133,13.61706 0.82841,8.69834 -17.8109,53.48446 7.35217,10.40696 26.66458,21.17632 37.64105,21.43521 7.24001,26.26096 -13.86732,-13.00634 -10.58887,-0.39331 -6.88289,6.80966 -13.03354,-3.07533 -62.27705,29.27778 z m 133.71377,-56.1289 6.88289,-6.80966 10.58887,0.39331 -17.47176,6.41635 m -32.75083,22.16393 32.75083,-22.16393 17.47176,-6.41635 z m 2e-5,0 32.75081,-22.16393 -13.03354,-3.07533 -19.71729,25.23926 m -61.09552,37.48573 13.08234,-16.59505 -18.15908,18.74487 z m -8.00563,17.08713 8.00563,-17.08713 -21.74586,67.20507 13.74023,-50.11794 m -45.01286,33.34256 27.87888,-23.2379 -15.45267,-3.27134 z m -42.55976,4.55628 11.28714,-20.08904 4.55627,2.89944 -15.84341,17.1896 m 165.88987,-91.64328 -9.2161,-0.82842 50.22259,-28.58028 -41.00649,29.4087 m 0,0 41.00649,-29.4087 -18.22511,18.53576 -22.78138,10.87294 m 22.78138,-10.87294 18.22511,-18.53576 -14.8079,22.05652 -26.02172,27.70733 22.60451,-31.22809 m -86.6728,138.44867 64.06829,-107.22058 -12.70663,17.44122 -12.21911,16.25763 z m -80.66679,48.66931 14.08303,-20.29614 7.66283,-1.65683 17.70735,-25.16307 13.04752,-25.26662 21.74586,-67.20507 13.04751,-9.63032 28.99449,-10.25161 3.003,-2.27815 25.26662,-14.49723 -11.90845,30.75486 -14.70434,-1.55328 -22.88493,7.45573 -10.76939,6.62731 -25.16307,68.34414 -15.63631,29.40869 -15.42921,16.05052 -4.86693,8.69834 z m 250.02851,-180.93186 20.65571,-16.64484 29.09803,-2.58879 29.61579,-0.20711 31.68684,-34.48273 7.24862,-4.14206 36.65731,-39.14256 0.72486,-7.45572 36.59415,-17.08628 0.76883,1.20816 -26.25014,28.57494 h -6.00421 l -12.22809,11.64232 -24.52942,34.41439 -32.51062,26.28675 -3.36822,8.78666 -11.42265,4.17366 h -9.88499 l -42.61528,8.34732 6.37032,5.34521 12.2281,62.67815 16.98753,58.72415 -27.93766,-74.23293 -15.48306,-44.53337 -7.02932,-9.81176 -9.37243,0.14644"
           inkscape:connector-curvature="0" />
      </g>
    </g>
  </g>
</svg>
