<?xml version="1.0" encoding="UTF-8" standalone="no"?>
<!-- Created with Inkscape (http://www.inkscape.org/) -->

<svg
   xmlns:dc="http://purl.org/dc/elements/1.1/"
   xmlns:cc="http://creativecommons.org/ns#"
   xmlns:rdf="http://www.w3.org/1999/02/22-rdf-syntax-ns#"
   xmlns:svg="http://www.w3.org/2000/svg"
   xmlns="http://www.w3.org/2000/svg"
   xmlns:sodipodi="http://sodipodi.sourceforge.net/DTD/sodipodi-0.dtd"
   xmlns:inkscape="http://www.inkscape.org/namespaces/inkscape"
   width="297mm"
   height="117.07172mm"
   viewBox="0 0 297 117.07172"
   version="1.1"
   id="svg8"
   sodipodi:docname="white shark wireframe.svg"
   inkscape:version="0.92.3 (unknown)">
  <title
     id="title816">shark</title>
  <defs
     id="defs2" />
  <sodipodi:namedview
     id="base"
     pagecolor="#0d0d0d"
     bordercolor="#666666"
     borderopacity="1.0"
     inkscape:pageopacity="0"
     inkscape:pageshadow="2"
     inkscape:zoom="0.54474109"
     inkscape:cx="566.86033"
     inkscape:cy="493.42934"
     inkscape:document-units="px"
     inkscape:current-layer="layer1"
     showgrid="false"
     units="mm"
     inkscape:object-paths="true"
     inkscape:snap-intersection-paths="true"
     inkscape:snap-smooth-nodes="true"
     inkscape:snap-page="true"
     showguides="false"
     inkscape:window-width="1085"
     inkscape:window-height="809"
     inkscape:window-x="67"
     inkscape:window-y="27"
     inkscape:window-maximized="1"
     inkscape:snap-bbox="true"
     inkscape:bbox-nodes="true"
     fit-margin-top="0"
     fit-margin-left="0"
     fit-margin-right="0"
     fit-margin-bottom="0" />
  <metadata
     id="metadata5">
    <rdf:RDF>
      <cc:Work
         rdf:about="">
        <dc:format>image/svg+xml</dc:format>
        <dc:type
           rdf:resource="http://purl.org/dc/dcmitype/StillImage" />
        <dc:title>shark</dc:title>
        <dc:creator>
          <cc:Agent>
            <dc:title>Kevyan Uehara de Moraes</dc:title>
          </cc:Agent>
        </dc:creator>
        <cc:license
           rdf:resource="http://creativecommons.org/licenses/by-nc-sa/4.0/" />
      </cc:Work>
      <cc:License
         rdf:about="http://creativecommons.org/licenses/by-nc-sa/4.0/">
        <cc:permits
           rdf:resource="http://creativecommons.org/ns#Reproduction" />
        <cc:permits
           rdf:resource="http://creativecommons.org/ns#Distribution" />
        <cc:requires
           rdf:resource="http://creativecommons.org/ns#Notice" />
        <cc:requires
           rdf:resource="http://creativecommons.org/ns#Attribution" />
        <cc:prohibits
           rdf:resource="http://creativecommons.org/ns#CommercialUse" />
        <cc:permits
           rdf:resource="http://creativecommons.org/ns#DerivativeWorks" />
        <cc:requires
           rdf:resource="http://creativecommons.org/ns#ShareAlike" />
      </cc:License>
    </rdf:RDF>
  </metadata>
  <g
     inkscape:label="Layer 1"
     inkscape:groupmode="layer"
     id="layer1"
     transform="translate(-3.9178779e-7,-179.92828)">
    <path
       id="path180"
       style="opacity:1;vector-effect:none;fill:none;fill-opacity:1;stroke:#ffffff;stroke-width:0.70854425;stroke-linecap:square;stroke-linejoin:bevel;stroke-miterlimit:4;stroke-dasharray:none;stroke-dashoffset:0;stroke-opacity:1;paint-order:fill markers stroke"
       d="m 29.33691,250.90245 19.851812,-5.43519 -7.050335,11.77639 m -20.970053,-18.75978 0.285582,11.32569 m 4.296757,-24.10972 -6.511404,9.79398 -13.3355818,4.63094 M 21.168334,238.48387 5.9036872,240.12476 19.191042,236.7477 m 1.977292,1.73617 8.168576,12.41858 -5.950149,-13.57602 m 0,0 25.801961,8.14083 M 23.24208,235.34914 49.188722,245.46726 m -25.946642,-10.11812 2.508593,-9.6493 m -4.051841,8.68476 4.051841,-8.68476 m -22.0823748,8.1212 2.235389,6.30372 19.8469858,-14.42492 z m -3.25493212,0.60879 3.25493212,-0.60879 -2.5779392,-1.54693 m 24.660314,-6.57427 23.438049,19.76742 2.410637,19.1912 m 14.745616,-14.05685 -7.038543,-31.44923 -10.11771,26.31488 z m 0,0 19.013019,-10.62272 m -33.758635,24.67957 14.745616,-14.05685 -3.653516,22.36433 m 0,0 22.666535,-32.98705 m 12.297793,24.16154 -12.297793,-24.16154 -7.554645,23.52122 m 0,0 19.852438,0.64032 m -34.964328,8.82551 15.11189,-9.46583 14.595718,8.79066 5.25672,-8.15034 m -46.056428,0.51803 -9.460972,-7.41481 -1.496487,8.85494 m 10.957459,-1.44013 11.0921,8.30748 m -12.15311,-1.15743 -9.896449,-5.70992 10.957462,-1.44013 z m -17.410135,-4.42633 7.513686,-1.28359 0.154671,5.70992 z m -2.501045,-4.71641 10.014734,3.43282 -2.296108,-6.21914 m -5.217581,7.50273 -2.501045,-4.71641 m -2.586544,3.74136 5.087591,0.97505 -3.713133,1.43628 m -6.49481,-18.49738 -1.466357,-0.51152 m 7.217062,15.11761 1.137759,-1.37476 0.818432,-0.88664 1.705077,-0.3069 1.53456,-0.81844 1.686095,-0.60384 1.24662,-0.55561 1.546274,-0.50153 1.694058,-1.17845 m -9.295835,-7.11037 1.972867,0.83578 m -4.954215,-1.73022 1.57424,0.20626 m -7.576085,0.10069 1.159448,-0.68202 1.841474,0.1023 1.466362,-0.27281 m 71.427678,13.98987 13.358773,-9.69356 -25.656566,-14.46799 m 25.656566,14.46799 4.77443,7.90916 m -4.77443,-7.90916 19.82114,7.08932 M 85.357994,239.97893 59.306432,219.15242 m 26.051562,20.82651 13.696359,-16.01124 m 20.270507,-11.08992 -20.270507,11.08992 -39.747921,-4.81527 m 66.754838,9.83084 -27.006917,-5.01557 m 51.916587,-6.45215 -51.916587,6.45215 26.340557,-8.22541 m 20.96977,29.78271 -61.006686,-5.54606 40.703276,-10.99567 m 34.91607,20.88212 -49.96278,4.58154 35.35012,-8.92193 m -30.57569,16.83109 12.94372,3.01872 m 2.10299,-3.83856 -15.04671,0.81984 m 0,0 -18.133203,1.7844 m 17.072223,8.48788 1.06098,-10.27228 12.39424,8.00566 m -0.48226,3.18296 -12.97296,-0.91634 13.45522,-2.26662 m -7.89474,14.27394 -22.632703,-20.4952 17.072223,8.48788 m -15.57721,-1.10917 20.35164,12.63533 m -15.62542,-3.56873 15.62542,3.56873 m 0,0 -4.77443,-11.52616 m 16.34882,13.93753 -16.34882,-13.93753 12.97296,5.64256 m 3.37586,8.29497 -11.57439,-2.41137 m -10.1276,2.12202 v 0 l 10.1276,-2.12202 m -1.35035,8.00566 1.35035,-8.00566 m 15.9148,9.74183 -15.9148,-9.74183 14.27508,6.36596 m 1.63972,3.37587 -17.26515,-1.73617 m 17.26515,1.73617 -8.10209,1.92905 10.32051,0.67518 m 9.35596,-28.45371 -17.22667,-4.55622 31.21239,-13.62527 z m 40.19931,-10.91746 12.61319,1.4783 m 27.14469,-4.67189 -39.75788,3.19359 8.17999,2.09217 m -49.00624,-13.69659 -20.30341,-16.54173 m 48.50782,32.96643 -3.12742,-3.87238 m -2.1924,4.89541 2.1924,-4.89541 -10.41082,6.87329 3.9245,-11.75474 -10.05456,12.8255 6.07655,-16.15598 -14.61266,-4.34039 21.26794,-1.54325 m 0,0 -41.57135,-14.99848 m 41.57135,14.99848 -6.65528,5.88364 7.79452,6.52574 m 20.56275,-8.02075 -28.35727,1.49501 14.61267,2.74893 m 13.84105,-17.45804 -21.79844,8.82547 m 33.17992,-3.32764 -33.17992,3.32764 21.70199,4.38863 m 0,0 -13.7446,4.24394 m 7.0411,1.83261 7.87946,0.62494 -1.17596,-6.70149 2.76258,6.24753 m -2.76258,-6.24753 -6.7035,6.07655 5.51033,1.87599 m 1.28962,-21.16664 -63.36979,-6.17301 m 63.36979,6.17301 -29.59377,-14.09418 -33.77602,7.92117 24.90967,-11.46772 m 34.91981,40.71706 -3.25964,-3.78568 -7.0411,-1.83261 m 4.00788,6.42222 3.03322,-4.58961 2.85042,6.03641 m 0.40922,1.50045 -6.29286,-2.94725 5.88364,1.4468 m -16.70967,-4.09221 6.81815,-3.77681 m 4.00788,6.42222 -5.64262,0.62832 1.63474,-7.05054 z m 6.77027,5.94817 0.27282,-1.94377 -3.06912,1.32996 2.31889,-2.38711 -5.72903,0.92075 -0.56383,-3.868 -1.95967,2.53804 m 23.17432,-20.92047 -11.47793,7.71627 m 32.21538,-3.37587 -32.21538,3.37587 16.68641,1.4468 m 0,0 -14.40124,4.86888 m 6.99078,5.38806 1.19356,-1.4664 -4.4332,0.61387 m -5.93986,-24.06531 11.38148,5.49783 m 33.77497,-6.63349 -45.15645,1.13566 33.83479,-3.45454 m 3.68296,22.23409 -20.92779,-4.11865 m 28.97571,2.61819 -28.97571,-2.61819 15.52897,-4.82267 m 13.31034,10.57818 -7.91152,-1.63686 8.04792,-1.50046 -13.44674,-7.44086 m 13.03752,-10.97389 -33.77497,6.63349 20.73745,4.3404 m 13.03752,-10.97389 -11.32166,-2.31888 m 0,0 10.23042,-0.54562 m 10.094,3.68294 -22.04028,10.15545 13.03752,-10.97389 m 15.802,8.94836 -28.83952,2.02553 21.90388,6.48603 m 0.1364,-16.64148 6.79924,8.12992 m 0,0 -6.93564,8.51156 m 10.23042,-2.04609 -3.29478,-6.46547 0.83948,-6.62945 m 2.4553,13.09492 30.96405,-3.27374 -34.25883,-3.19173 8.20537,-6.62945 m 31.39666,44.53556 -5.4796,-1.97705 m 4.9106,-2.18249 -4.9106,2.18249 m 0,0 3.68295,-10.77604 m -2.04609,-11.86727 -13.91337,4.77419 15.95946,7.09308 -9.13918,3.54655 m -1.77327,-48.96957 8.86636,12.27649 -20.18802,-3.00093 18.68756,14.18617 -26.05346,-9.82118 m 5.45622,15.00459 20.59724,-5.18341 -12.41291,14.86821 m 13.91337,-26.05345 -3.41016,-17.73272 11.04885,-1.77327 m -11.04885,1.77327 12.14012,-10.23041 m -7.36591,3.95575 7.36591,-3.95575 m -1.09127,8.45714 1.09127,-8.45714 -5.31983,-0.54563 m -138.58799,11.04884 -25.57603,-1.77326 m 0,0 -6.07005,-2.86451 m 22.77972,0.81844 v 0 l -16.70967,2.04607 m 24.62118,-8.45714 -24.62118,8.45714 m 13.09493,-9.61659 -13.09493,9.61659 m 21.21105,-29.87281 -21.21105,29.87281 4.02396,-14.8682 m 21.55207,-20.46082 -13.91337,8.18432 9.54839,-2.72811 -17.18709,15.00461 m 17.18709,-15.00461 -8.11612,20.25622 m 9.20737,-7.84331 -9.20737,7.84331 m 11.52625,1.15945 -11.52625,-1.15945 11.66267,-2.2507 m 0.95483,7.77512 -9.00276,2.0461 7.91151,-6.41107 m 6.54748,9.41198 -14.45899,-3.00091 8.86636,3.81933 m -131.779898,19.2322 2.50779,-2.3631 1.687929,2.94183 z m 1.977295,1.73617 2.218424,-1.15744 -0.144678,-1.97729 -1.543251,-0.96454 -2.45956,1.10922 -0.04823,1.25388 z m 164.313193,21.99942 0.40922,-2.25073 2.25069,-1.90969 2.36913,-1.25105 1.58662,-0.45396 m -14.45897,6.95667 -3.68295,-1.90972 -5.18341,-3.27373 m -40.58863,13.97062 0.54948,-4.98694 2.10299,-3.83856 m -31.6849,9.98295 -1.495013,-7.37871 m 39.979873,32.3601 -2.21842,-2.60423 -1.63972,-3.37587 -2.70069,-3.95459 -3.37586,-8.29497 v -4.72622 l 0.48226,-3.18296 7.90917,-0.86807 10.89922,-1.4468 7.90917,-2.02551 6.13006,-1.07076 8.21842,-1.97788 5.31982,-1.02303 3.06913,-0.37512 2.5235,1.32996 3.41014,1.46636 2.7963,0.61381 h 2.72812 l -2.4553,-1.94377 -0.75023,-1.05715 -0.40922,-1.50045 4.50139,-0.51152 5.388,-0.75023 3.23964,0.85253 3.03503,0.0682 -1.84147,-1.53455 12.27649,-1.94378 9.68479,-1.90967 5.18341,-0.81844 5.047,2.4553 2.86452,-0.81844 0.1364,-3.13732 8.45714,-0.95483 10.23042,-2.04609 10.36681,1.90967 8.18433,9.6848 6.82028,10.63963 5.45623,7.22949 6.82027,6.00184 -1.34065,-4.02479 -0.56902,-4.15954 -1.22765,-8.59355 -2.04609,-11.86727 -1.50046,-10.09402 1.50046,-11.18524 3.68296,-9.6848 3.95573,-9.82119 2.86455,0.81843 -1.77328,-9.27557 -0.40922,-6.95669 -4.91061,6.41106 -2.04608,4.50138 -4.77419,6.27466 -5.45622,5.45623 -11.32166,9.27556 -7.3659,4.36499 h -7.36589 l -7.63872,-1.50047 -9.00276,-0.81844 -1.09124,-2.8645 0.54562,-3.81937 -5.72903,2.3189 -5.04701,2.04609 -15.00459,-1.63688 -13.36775,-2.04607 -18.68756,-3.54655 -16.36866,-3.41014 -8.86635,-3.54655 5.59263,-0.81842 -5.45623,-5.04701 -1.09125,-4.36497 0.13642,-3.41015 -2.4553,-5.59261 -0.68203,-6.27466 -0.40922,-6.13825 4.36498,-5.45621 h -4.63779 l -9.27558,8.18432 -7.6387,12.2765 -10.09401,12.00369 -60.018428,6.27465 -33.555759,6.54746 -24.660314,6.57427 -0.67699024,2.15572 3.06912304,3.27373 2.4211981,2.4212 6.5815651,4.46729 7.604606,4.43318 1.364058,0.78433 0.306909,1.19354 1.97788,2.35299 -0.818432,-3.03501 2.18249,2.5917 -0.341016,-2.4894 2.284794,2.5917 -0.818433,-2.86451 1.534561,0.54562 1.670967,2.4212 -0.09673,-2.21494 1.407109,0.68818 1.213109,1.90188 0.759759,-1.0661 4.491859,1.88452 3.660594,1.69834 1.269049,1.23438 -2.406142,1.67097 -1.151632,-0.31251 -0.234821,1.27734 v 0 l -1.423689,-0.84827 -0.122584,1.3498 -1.491181,-1.10366 0.24456,1.65927 -1.719489,-1.15773 0.03339,1.76157 -1.534562,-1.53457 v 2.35301 l -1.828771,-1.90314 0.123695,2.21004 -1.807371,-1.70507 0.988939,2.59171 -2.932721,-1.26175 1.794963,2.63651 -0.630352,1.47996 1.37446,2.41133 4.919119,1.35034 6.462366,1.63971 h 9.741781 l 12.15311,1.15743 29.707605,-0.67517 6.751719,-0.77162 4.72621,9.0666 5.49783,5.69075 8.77725,5.88364 9.16306,3.66522"
       inkscape:connector-curvature="0" />
  </g>
</svg>
