<?xml version="1.0" encoding="UTF-8" standalone="no"?>
<!-- Created with Inkscape (http://www.inkscape.org/) -->

<svg
   xmlns:dc="http://purl.org/dc/elements/1.1/"
   xmlns:cc="http://creativecommons.org/ns#"
   xmlns:rdf="http://www.w3.org/1999/02/22-rdf-syntax-ns#"
   xmlns:svg="http://www.w3.org/2000/svg"
   xmlns="http://www.w3.org/2000/svg"
   xmlns:sodipodi="http://sodipodi.sourceforge.net/DTD/sodipodi-0.dtd"
   xmlns:inkscape="http://www.inkscape.org/namespaces/inkscape"
   width="297mm"
   height="297mm"
   viewBox="0 0 297 297"
   version="1.1"
   id="svg8"
   sodipodi:docname="white shark.svg"
   inkscape:version="0.92.3 (unknown)">
  <title
     id="title816">shark</title>
  <defs
     id="defs2" />
  <sodipodi:namedview
     id="base"
     pagecolor="#0d0d0d"
     bordercolor="#666666"
     borderopacity="1.0"
     inkscape:pageopacity="0"
     inkscape:pageshadow="2"
     inkscape:zoom="0.54474109"
     inkscape:cx="566.86033"
     inkscape:cy="640.28811"
     inkscape:document-units="px"
     inkscape:current-layer="layer1"
     showgrid="false"
     units="mm"
     inkscape:object-paths="true"
     inkscape:snap-intersection-paths="true"
     inkscape:snap-smooth-nodes="true"
     inkscape:snap-page="true"
     showguides="false"
     inkscape:window-width="1085"
     inkscape:window-height="809"
     inkscape:window-x="67"
     inkscape:window-y="27"
     inkscape:window-maximized="1" />
  <metadata
     id="metadata5">
    <rdf:RDF>
      <cc:Work
         rdf:about="">
        <dc:format>image/svg+xml</dc:format>
        <dc:type
           rdf:resource="http://purl.org/dc/dcmitype/StillImage" />
        <dc:title>shark</dc:title>
        <dc:creator>
          <cc:Agent>
            <dc:title>Kevyan Uehara de Moraes</dc:title>
          </cc:Agent>
        </dc:creator>
        <cc:license
           rdf:resource="http://creativecommons.org/licenses/by-nc-sa/4.0/" />
      </cc:Work>
      <cc:License
         rdf:about="http://creativecommons.org/licenses/by-nc-sa/4.0/">
        <cc:permits
           rdf:resource="http://creativecommons.org/ns#Reproduction" />
        <cc:permits
           rdf:resource="http://creativecommons.org/ns#Distribution" />
        <cc:requires
           rdf:resource="http://creativecommons.org/ns#Notice" />
        <cc:requires
           rdf:resource="http://creativecommons.org/ns#Attribution" />
        <cc:prohibits
           rdf:resource="http://creativecommons.org/ns#CommercialUse" />
        <cc:permits
           rdf:resource="http://creativecommons.org/ns#DerivativeWorks" />
        <cc:requires
           rdf:resource="http://creativecommons.org/ns#ShareAlike" />
      </cc:License>
    </rdf:RDF>
  </metadata>
  <g
     inkscape:label="Layer 1"
     inkscape:groupmode="layer"
     id="layer1"
     transform="translate(0,3.2282764e-6)">
    <path
       id="path180"
       style="opacity:1;vector-effect:none;fill:none;fill-opacity:1;stroke:#ffffff;stroke-width:0.52916668;stroke-linecap:square;stroke-linejoin:bevel;stroke-miterlimit:4;stroke-dasharray:none;stroke-dashoffset:0;stroke-opacity:1;paint-order:fill markers stroke;"
       d="m 59.498551,157.79073 14.826057,-4.0592 -5.265447,8.79504 m -15.6612,-14.01049 0.213283,8.45844 m 3.208975,-18.00602 -4.862954,7.3145 -9.959499,3.45856 m 11.400195,-1.22548 -11.400195,1.22548 9.923481,-2.52211 m 1.476714,1.29663 6.10059,9.27465 -4.443788,-10.13907 m 0,0 19.269845,6.07987 m -19.377898,-7.55658 19.377898,7.55658 m -19.377898,-7.55658 1.873509,-7.20645 m -3.026063,6.4861 3.026063,-6.4861 m -16.491923,6.06521 1.66947,4.70785 14.822453,-10.77306 z m -2.430902,0.45467 2.430902,-0.45467 -1.925299,-1.1553 m 18.417222,-4.90991 17.504389,14.76303 1.800352,14.33269 m 11.012564,-10.49817 -5.256641,-23.48743 -7.556275,19.65291 z m 0,0 14.199616,-7.93343 m -25.21218,18.4316 11.012564,-10.49817 -2.728579,16.7025 m 0,0 16.928195,-24.63593 m 9.18444,18.04472 -9.18444,-18.04472 -5.642085,17.5665 m 0,0 14.826525,0.47822 m -26.112635,6.59121 11.28611,-7.06943 10.900615,6.56519 3.92591,-6.08697 m -34.39662,0.38688 -7.065799,-5.53765 -1.117631,6.61319 m 8.18343,-1.07554 8.283985,6.20433 m -9.076386,-0.86441 -7.391029,-4.26438 8.183432,-1.07554 z m -13.002524,-3.30575 5.611495,-0.95863 0.115514,4.26438 z m -1.867871,-3.52238 7.479368,2.56375 -1.714817,-4.64468 m -3.89668,5.60331 -1.867871,-3.52238 m -1.931726,2.79418 3.799599,0.7282 -2.773103,1.07267 m -4.850561,-13.81452 -1.095129,-0.38202 m 5.389965,11.29038 0.84972,-1.02672 0.611235,-0.66217 1.273413,-0.22921 1.146066,-0.61124 1.259237,-0.45097 0.931021,-0.41495 1.154814,-0.37456 1.265184,-0.88011 m -6.942468,-5.31028 1.473409,0.62419 m -3.699989,-1.29219 1.1757,0.15404 m -5.658096,0.0752 0.865918,-0.50936 1.37528,0.0764 1.095132,-0.20374 m 53.344795,10.44814 9.97682,-7.2395 -19.16126,-10.80522 m 19.16126,10.80522 3.56572,5.90685 m -3.56572,-5.90685 14.80315,5.29456 m -33.96441,-16.09978 -19.456257,-15.554 m 19.456257,15.554 10.22894,-11.95778 m 15.13876,-8.28236 -15.13876,8.28236 -29.685197,-3.59622 m 49.854947,7.34203 -20.16975,-3.74581 m 38.7732,-4.8187 -38.7732,4.8187 19.67209,-6.14304 m 15.66099,22.24282 -45.56202,-4.142 30.39869,-8.21197 m 26.0766,15.59553 -37.31403,3.42166 26.40076,-6.66322 m -22.83504,12.57007 9.66684,2.25449 m 1.57059,-2.86678 -11.23743,0.61229 m 0,0 -13.54254,1.33265 m 12.75016,6.33906 0.79238,-7.67171 9.25647,5.97892 m -0.36017,2.37715 -9.68868,-0.68436 10.04885,-1.69279 m -5.89608,10.6603 -16.90293,-15.30657 12.75016,6.33906 m -11.63363,-0.82837 15.19935,9.43653 m -11.66964,-2.66526 11.66964,2.66526 m 0,0 -3.56572,-8.60816 m 12.2099,10.40906 -12.2099,-10.40906 9.68868,4.21407 m 2.52122,6.19499 -8.64418,-1.8009 m -7.56366,1.5848 v 0 l 7.56366,-1.5848 m -1.00849,5.97892 1.00849,-5.97892 m 11.88575,7.27555 -11.88575,-7.27555 10.66115,4.75433 m 1.2246,2.52122 -12.89424,-1.29663 m 12.89424,1.29663 -6.05093,1.44069 7.70773,0.50425 m 6.98737,-21.25027 -12.8655,-3.40275 23.31055,-10.17585 z m 30.02231,-8.15356 9.41999,1.10405 m 20.27265,-3.48914 -29.69264,2.38509 6.10912,1.56251 m -36.59965,-10.22911 -15.16333,-12.35397 m 36.22741,24.62053 -2.33567,-2.89203 m -1.63736,3.65607 1.63736,-3.65607 -7.77518,5.13322 2.93096,-8.77887 -7.50911,9.57855 4.53819,-12.06587 -10.91327,-3.24156 15.88367,-1.15256 m 0,0 -31.047,-11.20141 m 31.047,11.20141 -4.9704,4.39412 5.82123,4.87366 m 15.35701,-5.99019 -21.17824,1.11653 10.91327,2.053 m 10.337,-13.0383 -16.27987,6.59118 m 24.77998,-2.4852 -24.77998,2.4852 16.20784,3.27759 m 0,0 -10.26497,3.16953 m 5.25855,1.36866 5.88467,0.46673 -0.87825,-5.00492 2.0632,4.66588 m -2.0632,-4.66588 -5.00642,4.53819 4.11532,1.40106 m 0.96313,-15.80802 -47.32687,-4.61023 m 47.32687,4.61023 -22.1017,-10.52605 -25.22517,5.91582 18.60345,-8.56451 m 26.07939,30.40898 -2.43442,-2.82728 -5.25855,-1.36866 m 2.99323,4.79635 2.26532,-3.42769 2.1288,4.50821 m 0.30562,1.12059 -4.69974,-2.20111 4.39412,1.08052 m -12.47939,-3.05621 5.09204,-2.82066 m 2.99323,4.79635 -4.21411,0.46925 1.22088,-5.2656 z m 5.05629,4.44231 0.20375,-1.45168 -2.29213,0.99326 1.73183,-1.78278 -4.27865,0.68765 -0.42109,-2.88876 -1.46355,1.8955 m 17.30743,-15.62417 -8.57214,5.76279 m 24.05962,-2.52122 -24.05962,2.52122 12.46202,1.08052 m 0,0 -10.75537,3.63626 m 5.22097,4.024 0.89139,-1.09516 -3.31087,0.45846 m -4.43611,-17.97285 8.50011,4.10598 m 25.22438,-4.95413 -33.72449,0.84815 25.26906,-2.57998 m 2.75057,16.60523 -15.62964,-3.07596 m 21.64012,1.95536 -21.64012,-1.95536 11.5976,-3.60174 m 9.94065,7.90017 -5.90861,-1.22247 6.01048,-1.1206 -10.04252,-5.5571 m 9.7369,-8.1957 -25.22438,4.95413 15.48748,3.24157 m 9.7369,-8.1957 -8.45543,-1.73183 m 0,0 7.64045,-0.40749 m 7.53857,2.75056 -16.46049,7.58446 9.7369,-8.1957 m 11.80151,6.68296 -21.53841,1.51274 16.35862,4.844 m 0.10187,-12.42846 5.07792,6.07172 m 0,0 -5.17979,6.35674 m 7.64045,-1.52809 -2.46066,-4.82865 0.62695,-4.95112 m 1.83371,9.77977 23.12508,-2.44495 -25.58574,-2.3837 6.12807,-4.95112 m 23.44817,33.26078 -4.09237,-1.47653 m 3.66742,-1.62996 -3.66742,1.62996 m 0,0 2.75056,-8.04794 m -1.52809,-8.86291 -10.39101,3.56554 11.9191,5.29737 -6.82547,2.64869 m -1.32434,-36.57226 6.62172,9.16853 -15.07715,-2.2412 13.95655,10.59475 -19.45767,-7.33482 m 4.0749,11.20598 15.38277,-3.87116 -9.27041,11.10412 m 10.39101,-19.45767 -2.54683,-13.24344 8.25168,-1.32434 m -8.25168,1.32434 9.06668,-7.64044 m -5.50113,2.9543 5.50113,-2.9543 m -0.815,6.3161 0.815,-6.3161 -3.97304,-0.4075 m -103.50257,8.25168 -19.10111,-1.32434 m 0,0 -4.53333,-2.13932 m 17.01272,0.61124 v 0 l -12.47939,1.52808 m 18.388,-6.3161 -18.388,6.3161 m 9.77977,-7.18202 -9.77977,7.18202 m 15.84119,-22.3101 -15.84119,22.3101 3.00524,-11.10411 m 16.09587,-15.28089 -10.39101,6.11235 7.13109,-2.03745 -12.83595,11.20599 m 12.83595,-11.20599 -6.06142,15.12808 m 6.8764,-5.85767 -6.8764,5.85767 m 8.60823,0.86592 -8.60823,-0.86592 8.71011,-1.6809 m 0.7131,5.80674 -6.72359,1.5281 5.90861,-4.78802 m 4.88989,7.02921 -10.7985,-2.24119 6.62172,2.85242 m -98.418033,14.36331 1.872909,-1.76485 1.260607,2.19706 z m 1.476716,1.29663 1.6568,-0.86442 -0.108051,-1.47671 -1.152556,-0.72035 -1.836889,0.8284 -0.03602,0.93645 z m 122.715087,16.42997 0.30562,-1.68093 1.6809,-1.42622 1.76935,-0.93433 1.18495,-0.33904 m -10.79849,5.1955 -2.75056,-1.42625 -3.87116,-2.44494 m -30.31307,10.43377 0.41037,-3.72443 1.57059,-2.86678 m -23.66344,7.45563 -1.11653,-5.51069 m 29.85843,24.16771 -1.6568,-1.94494 -1.2246,-2.52122 -2.01697,-2.95343 -2.52122,-6.19499 v -3.52971 l 0.36017,-2.37715 5.90686,-0.64831 8.13993,-1.08052 5.90686,-1.51273 4.57815,-0.79968 6.13782,-1.47715 3.97303,-0.76404 2.29214,-0.28015 1.88464,0.99326 2.54682,1.09513 2.08838,0.45842 h 2.03746 l -1.83371,-1.45168 -0.5603,-0.78952 -0.30562,-1.12059 3.3618,-0.38202 4.02396,-0.5603 2.41948,0.6367 2.26667,0.0509 -1.37528,-1.14606 9.16853,-1.45169 7.23296,-1.42621 3.87116,-0.61124 3.76928,1.83371 2.13933,-0.61124 0.10187,-2.34307 6.3161,-0.7131 7.64045,-1.52809 7.74231,1.42621 6.11236,7.23296 5.09363,7.94606 4.07491,5.39925 5.09363,4.48239 -1.00125,-3.00586 -0.42496,-3.10649 -0.91686,-6.41798 -1.52809,-8.86291 -1.1206,-7.53858 1.1206,-8.35355 2.75057,-7.23296 2.95428,-7.33482 2.13935,0.61123 -1.32435,-6.92733 -0.30562,-5.19551 -3.66742,4.78801 -1.52809,3.3618 -3.56554,4.68614 -4.0749,4.07491 -8.45543,6.92733 -5.50112,3.25993 h -5.50112 l -5.70487,-1.1206 -6.72359,-0.61124 -0.81498,-2.13932 0.40749,-2.85244 -4.27865,1.73184 -3.76929,1.52809 -11.20598,-1.22248 -9.98352,-1.52808 -13.95655,-2.64869 -12.22471,-2.54682 -6.62172,-2.64869 4.17678,-0.61123 -4.07491,-3.76929 -0.81498,-3.25992 0.10188,-2.54682 -1.83371,-4.17677 -0.50936,-4.68614 -0.30562,-4.58427 3.25992,-4.0749 h -3.46367 l -6.92734,6.11235 -5.70486,9.16854 -7.53857,8.96479 -44.823957,4.68614 -25.060664,4.88988 -18.417222,4.90991 -0.505601,1.60997 2.292133,2.44494 1.808239,1.80824 4.915353,3.33633 5.679397,3.31086 1.018728,0.58577 0.229211,0.89138 1.477153,1.7573 -0.611235,-2.26666 1.629963,1.93558 -0.254683,-1.85918 1.706367,1.93558 -0.611235,-2.13932 1.146066,0.40749 1.247939,1.80824 -0.07224,-1.6542 1.05088,0.51396 0.905994,1.42039 0.567416,-0.7962 3.354684,1.40743 2.733865,1.26838 0.947772,0.92188 -1.796994,1.24794 -0.860081,-0.23339 -0.175373,0.95396 v 0 l -1.063263,-0.63352 -0.09155,1.00808 -1.113668,-0.82425 0.182646,1.2392 -1.284177,-0.86463 0.02494,1.3156 -1.146067,-1.14607 v 1.75731 l -1.365793,-1.42133 0.09238,1.65054 -1.349811,-1.27341 0.738576,1.93558 -2.190263,-0.94232 1.340544,1.96904 -0.47077,1.10529 1.026497,1.80087 3.673777,1.00848 4.826331,1.2246 h 7.275517 l 9.076386,0.86441 22.186723,-0.50424 5.04243,-0.57628 3.52971,6.77127 4.10598,4.25006 6.55517,4.39412 6.84331,2.73732"
       inkscape:connector-curvature="0" />
  </g>
</svg>
