<?xml version="1.0" encoding="UTF-8" standalone="no"?>
<!-- Created with Inkscape (http://www.inkscape.org/) -->

<svg
   xmlns:dc="http://purl.org/dc/elements/1.1/"
   xmlns:cc="http://creativecommons.org/ns#"
   xmlns:rdf="http://www.w3.org/1999/02/22-rdf-syntax-ns#"
   xmlns:svg="http://www.w3.org/2000/svg"
   xmlns="http://www.w3.org/2000/svg"
   xmlns:sodipodi="http://sodipodi.sourceforge.net/DTD/sodipodi-0.dtd"
   xmlns:inkscape="http://www.inkscape.org/namespaces/inkscape"
   width="232.32835mm"
   height="297mm"
   viewBox="0 0 232.32835 297"
   version="1.1"
   id="svg8"
   sodipodi:docname="wolf simplified wireframe.svg"
   inkscape:version="0.92.3 (unknown)">
  <title
     id="title10">wolf simplified wireframe</title>
  <defs
     id="defs2" />
  <sodipodi:namedview
     id="base"
     pagecolor="#0d0d0d"
     bordercolor="#666666"
     borderopacity="1.0"
     inkscape:pageopacity="0"
     inkscape:pageshadow="2"
     inkscape:zoom="0.27054465"
     inkscape:cx="358.12376"
     inkscape:cy="496.9641"
     inkscape:document-units="px"
     inkscape:current-layer="layer1"
     showgrid="false"
     units="mm"
     inkscape:object-paths="true"
     inkscape:snap-intersection-paths="true"
     inkscape:snap-smooth-nodes="true"
     inkscape:snap-page="true"
     fit-margin-top="0"
     fit-margin-left="0"
     fit-margin-right="0"
     fit-margin-bottom="0"
     inkscape:window-width="1085"
     inkscape:window-height="809"
     inkscape:window-x="67"
     inkscape:window-y="27"
     inkscape:window-maximized="1"
     inkscape:snap-bbox="true"
     inkscape:bbox-nodes="true" />
  <metadata
     id="metadata5">
    <rdf:RDF>
      <cc:Work
         rdf:about="">
        <dc:format>image/svg+xml</dc:format>
        <dc:type
           rdf:resource="http://purl.org/dc/dcmitype/StillImage" />
        <dc:title>wolf simplified wireframe</dc:title>
        <dc:creator>
          <cc:Agent>
            <dc:title>Kevyan Uehara de Moraes</dc:title>
          </cc:Agent>
        </dc:creator>
        <cc:license
           rdf:resource="http://creativecommons.org/licenses/by-nc-sa/4.0/" />
      </cc:Work>
      <cc:License
         rdf:about="http://creativecommons.org/licenses/by-nc-sa/4.0/">
        <cc:permits
           rdf:resource="http://creativecommons.org/ns#Reproduction" />
        <cc:permits
           rdf:resource="http://creativecommons.org/ns#Distribution" />
        <cc:requires
           rdf:resource="http://creativecommons.org/ns#Notice" />
        <cc:requires
           rdf:resource="http://creativecommons.org/ns#Attribution" />
        <cc:prohibits
           rdf:resource="http://creativecommons.org/ns#CommercialUse" />
        <cc:permits
           rdf:resource="http://creativecommons.org/ns#DerivativeWorks" />
        <cc:requires
           rdf:resource="http://creativecommons.org/ns#ShareAlike" />
      </cc:License>
    </rdf:RDF>
  </metadata>
  <g
     inkscape:label="Layer 1"
     inkscape:groupmode="layer"
     id="layer1"
     transform="translate(-72.492613,-0.22901432)">
    <path
       id="path11"
       d="m 196.33967,211.24047 97.5866,34.39438 M 83.219403,35.467807 104.26146,54.163269 83.0872,43.234638 m -9.804924,-9.452416 9.937127,1.685585 -0.132038,7.766831 m 0.132038,-7.766831 7.711746,0.209305 m -17.527687,-7.271071 9.815941,7.061766 -1.652518,-7.954118 m 9.364264,8.163423 11.942181,-1.509299 1.38813,19.995456 z m 23.642021,-8.097338 -11.69984,6.588039 18.58531,0.903386 m -26.56144,-8.725301 7.97613,7.821915 -1.88385,-14.850614 m 0,-9.9040758 v 9.9040758 l 13.58369,8.262575 M 91.526062,9.6004104 100.98948,19.317199 94.8972,26.345898 M 100.98948,9.4131232 114.57317,27.579774 M 100.98948,9.4131232 110.49695,14.502864 M 91.526062,9.6004104 100.98948,9.4131232 m 2.06013,-8.394794 -2.06013,8.394794 -2.721159,-7.1719183 m 23.190319,32.8299941 -17.19718,19.09207 m 0,0 -12.316756,8.482912 m -1.421164,7.766848 13.73792,-16.24976 m -10.344748,34.163022 10.344748,-34.163022 8.92359,25.481805 m -19.268338,8.681217 19.268338,-8.681217 -17.946327,28.544486 20.182727,34.17402 -2.2364,-62.718506 23.23436,34.713866 -5.59652,-44.37557 35.76047,22.41914 -1.41016,-15.93027 m -34.35031,-6.48887 -17.63784,9.661704 8.27359,-44.573875 z m 21.84628,-8.901555 -21.84628,8.901555 4.69315,-30.285124 m 70.83788,103.513624 -23.17929,27.7072 -16.59127,-78.51656 -30.16395,21.95643 -20.99796,28.00464 1.97201,39.26382 m -11.08289,-16.83364 9.11088,-22.43018 -19.312425,-5.32108 m 32.378335,69.36162 -13.06591,-64.04054 31.07834,41.15869 36.67484,-12.6032 -46.75522,-56.56013 10.08038,69.16333 49.83988,27.7182 -38.6138,4.70417 m 90.94348,-49.31109 -65.49472,4.28552 93.45532,28.81991 -80.29028,11.50149 -13.16504,-40.3214 m 20.09461,85.61139 100.91368,36.90618 -107.84325,-82.19617 z m -74.78188,-50.12634 29.23851,9.54052 -11.22608,-32.42237 z m 2.24741,82.68093 24.74369,7.34817 -22.20982,-29.54699 24.45723,-50.94159 -25.72417,21.24035 M 90.931149,35.677112 l -9.364264,-8.163423 -8.163423,0.892352 -0.121186,5.376181 9.804908,9.452416 8.857503,19.411543 -1.421147,7.766848 3.393156,17.913262 v 0 l 1.322011,19.863269 0.870302,28.85294 10.201551,27.75126 11.08288,16.83364 11.0939,24.77672 3.51432,30.78087 1.26695,29.70124 -2.53386,22.19882 -7.0948,7.49139 31.83849,-0.14322 2.24743,-80.48858 45.54335,40.58582 10.11338,38.67989 90.8003,-1.77371 -10.25663,-47.80179 -17.29633,-45.89587 -27.96059,-33.10543 -42.31545,-23.42168 -39.77056,-50.80936 6.0372,-6.125346 -7.44734,-9.804924 -9.13291,-7.215969 -3.37112,-8.174456 -17.15313,-21.383585 -14.05742,-4.627031 -6.88547,-7.491425 -4.07622,-13.07691 -3.28299,-5.827873 -4.16433,-7.6566618 -4.781289,1.2228593 -6.742276,7.3592219 3.371138,16.7454876 z m 39.891741,34.306258 25.21743,-0.727099 10.54304,23.146239"
       style="fill:none;stroke:#ffffff;stroke-width:1.30517352;stroke-linecap:square;stroke-linejoin:bevel;stroke-miterlimit:4;stroke-dasharray:none;stroke-opacity:1"
       inkscape:connector-curvature="0" />
  </g>
</svg>
