<?xml version="1.0" encoding="UTF-8" standalone="no"?>
<!-- Created with Inkscape (http://www.inkscape.org/) -->

<svg
   xmlns:dc="http://purl.org/dc/elements/1.1/"
   xmlns:cc="http://creativecommons.org/ns#"
   xmlns:rdf="http://www.w3.org/1999/02/22-rdf-syntax-ns#"
   xmlns:svg="http://www.w3.org/2000/svg"
   xmlns="http://www.w3.org/2000/svg"
   xmlns:sodipodi="http://sodipodi.sourceforge.net/DTD/sodipodi-0.dtd"
   xmlns:inkscape="http://www.inkscape.org/namespaces/inkscape"
   width="106.39001mm"
   height="297mm"
   viewBox="0 0 106.39001 297"
   version="1.1"
   id="svg8"
   sodipodi:docname="ballerina.svg"
   inkscape:version="0.92.3 (unknown)">
  <defs
     id="defs2" />
  <sodipodi:namedview
     id="base"
     pagecolor="#0d0d0d"
     bordercolor="#666666"
     borderopacity="1.0"
     inkscape:pageopacity="0"
     inkscape:pageshadow="2"
     inkscape:zoom="0.42150236"
     inkscape:cx="491.91584"
     inkscape:cy="537.93581"
     inkscape:document-units="px"
     inkscape:current-layer="layer1"
     showgrid="false"
     units="mm"
     inkscape:object-paths="true"
     inkscape:snap-intersection-paths="true"
     inkscape:snap-smooth-nodes="true"
     inkscape:snap-page="true"
     inkscape:window-width="1085"
     inkscape:window-height="809"
     inkscape:window-x="67"
     inkscape:window-y="27"
     inkscape:window-maximized="1"
     inkscape:snap-object-midpoints="true"
     inkscape:snap-midpoints="true"
     fit-margin-top="0"
     fit-margin-left="0"
     fit-margin-right="0"
     fit-margin-bottom="0"
     inkscape:snap-bbox="true"
     inkscape:bbox-nodes="true" />
  <metadata
     id="metadata5">
    <rdf:RDF>
      <cc:Work
         rdf:about="">
        <dc:format>image/svg+xml</dc:format>
        <dc:type
           rdf:resource="http://purl.org/dc/dcmitype/StillImage" />
        <dc:title></dc:title>
        <dc:creator>
          <cc:Agent>
            <dc:title>Kevyan Uehara de Moraes</dc:title>
          </cc:Agent>
        </dc:creator>
        <cc:license
           rdf:resource="http://creativecommons.org/licenses/by-nc-sa/4.0/" />
      </cc:Work>
      <cc:License
         rdf:about="http://creativecommons.org/licenses/by-nc-sa/4.0/">
        <cc:permits
           rdf:resource="http://creativecommons.org/ns#Reproduction" />
        <cc:permits
           rdf:resource="http://creativecommons.org/ns#Distribution" />
        <cc:requires
           rdf:resource="http://creativecommons.org/ns#Notice" />
        <cc:requires
           rdf:resource="http://creativecommons.org/ns#Attribution" />
        <cc:prohibits
           rdf:resource="http://creativecommons.org/ns#CommercialUse" />
        <cc:permits
           rdf:resource="http://creativecommons.org/ns#DerivativeWorks" />
        <cc:requires
           rdf:resource="http://creativecommons.org/ns#ShareAlike" />
      </cc:License>
    </rdf:RDF>
  </metadata>
  <g
     inkscape:label="Layer 1"
     inkscape:groupmode="layer"
     id="layer1"
     transform="translate(1.7622907e-6,-2.4233183e-6)">
    <g
       id="g19"
       transform="matrix(1.2936456,0,0,1.2936456,-134.51623,-58.727256)"
       inkscape:export-filename="/home/uehara/Desktop/works/png/minimalist/ballerina.png"
       inkscape:export-xdpi="480"
       inkscape:export-ydpi="480"
       style="fill:#ffffff">
      <path
         sodipodi:nodetypes="csccccccsssccccccccsc"
         inkscape:connector-curvature="0"
         id="path46"
         d="m 135.37398,95.993546 c -2.12381,0.05975 -3.96865,0.664069 -5.44573,1.521823 -2.95416,1.715508 -4.8688,4.249441 -6.647,7.082291 -4.98896,7.94786 -5.00453,20.48708 -3.29687,31.63867 0.85382,5.57579 1.75965,8.2538 3.13892,12.38936 1.37928,4.13556 3.02234,7.94307 4.50365,11.02275 l -2.85547,-8.89063 c -1.4328,-4.87347 -2.63873,-9.7753 -3.48046,-14.72265 -1.68429,-10.99899 -1.53929,-23.32553 3.11132,-30.73438 1.77979,-2.83537 3.60535,-5.13997 6.18997,-6.64088 2.58462,-1.500914 6.00262,-2.314918 11.74558,-0.372792 5.48261,1.854082 7.92424,9.170342 4.81445,14.054692 -2.00801,3.15384 -5.83335,5.54078 -9.125,5.79101 -1.64582,0.12512 -3.32653,0.0988 -4.48717,-0.91058 -1.16065,-1.00939 -3.15835,-2.90535 -3.43861,-5.5445 v 0 c 0.30506,2.87265 1.30475,4.91725 2.76758,6.18946 1.46283,1.2722 3.34574,1.72949 5.25977,1.58398 3.82805,-0.29101 7.8922,-2.87201 10.13867,-6.40039 3.59259,-5.64267 0.84985,-13.866282 -5.50586,-16.015625 -2.97949,-1.007589 -5.26393,-1.101362 -7.38774,-1.041609 z"
         style="color:#000000;font-style:normal;font-variant:normal;font-weight:normal;font-stretch:normal;font-size:medium;line-height:normal;font-family:sans-serif;font-variant-ligatures:normal;font-variant-position:normal;font-variant-caps:normal;font-variant-numeric:normal;font-variant-alternates:normal;font-feature-settings:normal;text-indent:0;text-align:start;text-decoration:none;text-decoration-line:none;text-decoration-style:solid;text-decoration-color:#000000;letter-spacing:normal;word-spacing:normal;text-transform:none;writing-mode:lr-tb;direction:ltr;text-orientation:mixed;dominant-baseline:auto;baseline-shift:baseline;text-anchor:start;white-space:normal;shape-padding:0;clip-rule:nonzero;display:inline;overflow:visible;visibility:visible;opacity:1;isolation:auto;mix-blend-mode:normal;color-interpolation:sRGB;color-interpolation-filters:linearRGB;solid-color:#000000;solid-opacity:1;vector-effect:none;fill:#ffffff;fill-opacity:1;fill-rule:nonzero;stroke:none;stroke-width:1.32291675;stroke-linecap:butt;stroke-linejoin:miter;stroke-miterlimit:4;stroke-dasharray:none;stroke-dashoffset:0;stroke-opacity:1;color-rendering:auto;image-rendering:auto;shape-rendering:auto;text-rendering:auto;enable-background:accumulate" />
      <path
         sodipodi:nodetypes="cscccccccccsccsccccccss"
         inkscape:connector-curvature="0"
         id="path50"
         transform="matrix(0.26458334,0,0,0.26458334,0,1.2459043e-6)"
         d="m 452.53125,171.57812 c -37.71878,52.15782 -57.73693,100.7269 -49.26563,148.16016 5.44981,30.5152 24.84166,59.10095 38.32618,83.4043 l 3.07617,-4.78906 c -13.51439,-24.11388 -31.47127,-51.41126 -36.48633,-79.49219 -8.16998,-45.74605 7.15309,-95.84757 44.34961,-147.28321 z m 24.17969,279.70899 -2.22852,5.59766 c 9.48691,13.66242 19.4419,27.48827 28.71485,41.51171 l 3.93359,-3.11328 c -9.90203,-14.96588 -20.49959,-29.62991 -30.41992,-43.99609 z m 45.94922,69.08398 -4.37696,2.41602 c 16.77486,29.58435 27.60881,59.9425 22.38868,91.34961 -5.73128,34.48248 -28.15954,62.13187 -56.51563,86.56055 -28.35609,24.42863 -62.52915,45.5043 -91.15234,66.86328 l 2.21484,4.39257 c 109.53777,-32.94295 200.28774,-41.82125 308.61523,-7.72851 v 0 C 599.19644,731.29314 511.59223,733.6486 407.6875,763.30859 c 25.87824,-18.48933 54.64295,-37.21339 79.73047,-58.82617 28.78152,-24.79513 52.17954,-53.39196 58.18555,-89.52734 5.48594,-33.00645 -5.87482,-64.48612 -22.94336,-94.58399 z"
         style="color:#000000;font-style:normal;font-variant:normal;font-weight:normal;font-stretch:normal;font-size:medium;line-height:normal;font-family:sans-serif;font-variant-ligatures:normal;font-variant-position:normal;font-variant-caps:normal;font-variant-numeric:normal;font-variant-alternates:normal;font-feature-settings:normal;text-indent:0;text-align:start;text-decoration:none;text-decoration-line:none;text-decoration-style:solid;text-decoration-color:#000000;letter-spacing:normal;word-spacing:normal;text-transform:none;writing-mode:lr-tb;direction:ltr;text-orientation:mixed;dominant-baseline:auto;baseline-shift:baseline;text-anchor:start;white-space:normal;shape-padding:0;clip-rule:nonzero;display:inline;overflow:visible;visibility:visible;opacity:1;isolation:auto;mix-blend-mode:normal;color-interpolation:sRGB;color-interpolation-filters:linearRGB;solid-color:#000000;solid-opacity:1;vector-effect:none;fill:#ffffff;fill-opacity:1;fill-rule:nonzero;stroke:none;stroke-width:5;stroke-linecap:butt;stroke-linejoin:miter;stroke-miterlimit:4;stroke-dasharray:none;stroke-dashoffset:0;stroke-opacity:1;color-rendering:auto;image-rendering:auto;shape-rendering:auto;text-rendering:auto;enable-background:accumulate" />
      <path
         sodipodi:nodetypes="ccscccsscccczcccccsccc"
         inkscape:connector-curvature="0"
         id="path52"
         transform="matrix(0.26458334,0,0,0.26458334,0,1.2459043e-6)"
         d="m 559.15625,179.41602 v 0 c 68.64639,24.68731 89.9298,94.91559 85.47461,151.97265 -3.25126,41.63884 -39.9198,88.34469 -78.07031,125.75781 -38.10192,37.36555 -77.34906,65.51984 -85.50391,71.47461 l 2.9707,4.01953 c 8.07968,-5.8991 47.62752,-34.26817 86.03125,-71.92968 38.4802,-37.73643 76.11002,-84.71597 79.5625,-128.93164 4.58325,-58.69739 -19.49601,-126.84075 -90.46484,-152.36328 z M 445.64062,562.45117 c -0.69966,0.80352 -1.39803,1.60896 -2.09179,2.42578 -13.87896,16.34071 -26.40979,35.0254 -28.47266,51.53321 -2.53296,20.2693 6.64287,37.25036 10.04287,42.41907 3.40001,5.16872 20.73109,21.286 20.73109,21.286 v 0 0 c -1.6893,-3.1239 -4.13412,-5.78283 -6.8931,-9.10156 -2.75894,-3.31869 -6.15786,-7.25338 -9.3457,-12.09961 -6.37572,-9.69241 -11.9426,-22.86992 -9.56641,-41.88476 1.8025,-14.42408 13.7096,-32.90422 27.3125,-48.91992 0.29537,-0.34777 0.59574,-0.68764 0.89258,-1.03321 z"
         style="color:#000000;font-style:normal;font-variant:normal;font-weight:normal;font-stretch:normal;font-size:medium;line-height:normal;font-family:sans-serif;font-variant-ligatures:normal;font-variant-position:normal;font-variant-caps:normal;font-variant-numeric:normal;font-variant-alternates:normal;font-feature-settings:normal;text-indent:0;text-align:start;text-decoration:none;text-decoration-line:none;text-decoration-style:solid;text-decoration-color:#000000;letter-spacing:normal;word-spacing:normal;text-transform:none;writing-mode:lr-tb;direction:ltr;text-orientation:mixed;dominant-baseline:auto;baseline-shift:baseline;text-anchor:start;white-space:normal;shape-padding:0;clip-rule:nonzero;display:inline;overflow:visible;visibility:visible;opacity:1;isolation:auto;mix-blend-mode:normal;color-interpolation:sRGB;color-interpolation-filters:linearRGB;solid-color:#000000;solid-opacity:1;vector-effect:none;fill:#ffffff;fill-opacity:1;fill-rule:nonzero;stroke:none;stroke-width:5;stroke-linecap:butt;stroke-linejoin:miter;stroke-miterlimit:4;stroke-dasharray:none;stroke-dashoffset:0;stroke-opacity:1;color-rendering:auto;image-rendering:auto;shape-rendering:auto;text-rendering:auto;enable-background:accumulate" />
      <path
         sodipodi:nodetypes="ccccc"
         inkscape:connector-curvature="0"
         id="path58"
         d="m 128.91406,211.24219 -1.11914,0.70508 c 11.11141,17.61212 14.21139,45.3955 2.89063,63.0332 v 0 c 11.6883,-18.21033 9.62628,-45.67226 -1.77149,-63.73828 z"
         style="color:#000000;font-style:normal;font-variant:normal;font-weight:normal;font-stretch:normal;font-size:medium;line-height:normal;font-family:sans-serif;font-variant-ligatures:normal;font-variant-position:normal;font-variant-caps:normal;font-variant-numeric:normal;font-variant-alternates:normal;font-feature-settings:normal;text-indent:0;text-align:start;text-decoration:none;text-decoration-line:none;text-decoration-style:solid;text-decoration-color:#000000;letter-spacing:normal;word-spacing:normal;text-transform:none;writing-mode:lr-tb;direction:ltr;text-orientation:mixed;dominant-baseline:auto;baseline-shift:baseline;text-anchor:start;white-space:normal;shape-padding:0;clip-rule:nonzero;display:inline;overflow:visible;visibility:visible;opacity:1;isolation:auto;mix-blend-mode:normal;color-interpolation:sRGB;color-interpolation-filters:linearRGB;solid-color:#000000;solid-opacity:1;vector-effect:none;fill:#ffffff;fill-opacity:1;fill-rule:nonzero;stroke:none;stroke-width:1.32291675;stroke-linecap:butt;stroke-linejoin:miter;stroke-miterlimit:4;stroke-dasharray:none;stroke-dashoffset:0;stroke-opacity:1;color-rendering:auto;image-rendering:auto;shape-rendering:auto;text-rendering:auto;enable-background:accumulate" />
      <path
         sodipodi:nodetypes="ccccc"
         inkscape:connector-curvature="0"
         id="path64"
         d="m 157.62109,211.58984 c -10.71519,15.73634 -12.16035,36.77229 -5.39648,54.31836 l 1.23437,-0.47656 c -6.61318,-17.15518 -6.27488,-38.51403 4.16211,-53.8418 z"
         style="color:#000000;font-style:normal;font-variant:normal;font-weight:normal;font-stretch:normal;font-size:medium;line-height:normal;font-family:sans-serif;font-variant-ligatures:normal;font-variant-position:normal;font-variant-caps:normal;font-variant-numeric:normal;font-variant-alternates:normal;font-feature-settings:normal;text-indent:0;text-align:start;text-decoration:none;text-decoration-line:none;text-decoration-style:solid;text-decoration-color:#000000;letter-spacing:normal;word-spacing:normal;text-transform:none;writing-mode:lr-tb;direction:ltr;text-orientation:mixed;dominant-baseline:auto;baseline-shift:baseline;text-anchor:start;white-space:normal;shape-padding:0;clip-rule:nonzero;display:inline;overflow:visible;visibility:visible;opacity:1;isolation:auto;mix-blend-mode:normal;color-interpolation:sRGB;color-interpolation-filters:linearRGB;solid-color:#000000;solid-opacity:1;vector-effect:none;fill:#ffffff;fill-opacity:1;fill-rule:nonzero;stroke:none;stroke-width:1.32291675;stroke-linecap:butt;stroke-linejoin:miter;stroke-miterlimit:4;stroke-dasharray:none;stroke-dashoffset:0;stroke-opacity:1;color-rendering:auto;image-rendering:auto;shape-rendering:auto;text-rendering:auto;enable-background:accumulate" />
    </g>
  </g>
</svg>
