<?xml version="1.0" encoding="UTF-8" standalone="no"?>
<!-- Created with Inkscape (http://www.inkscape.org/) -->

<svg
   xmlns:dc="http://purl.org/dc/elements/1.1/"
   xmlns:cc="http://creativecommons.org/ns#"
   xmlns:rdf="http://www.w3.org/1999/02/22-rdf-syntax-ns#"
   xmlns:svg="http://www.w3.org/2000/svg"
   xmlns="http://www.w3.org/2000/svg"
   xmlns:sodipodi="http://sodipodi.sourceforge.net/DTD/sodipodi-0.dtd"
   xmlns:inkscape="http://www.inkscape.org/namespaces/inkscape"
   width="143.61102mm"
   height="297mm"
   viewBox="0 0 143.61102 297"
   version="1.1"
   id="svg8"
   sodipodi:docname="light bulb.svg"
   inkscape:version="0.92.3 (unknown)"
   inkscape:export-filename="/home/uehara/Desktop/works/png/light bulb.png"
   inkscape:export-xdpi="480"
   inkscape:export-ydpi="480">
  <defs
     id="defs2" />
  <sodipodi:namedview
     id="base"
     pagecolor="#0d0d0d"
     bordercolor="#666666"
     borderopacity="1.0"
     inkscape:pageopacity="0"
     inkscape:pageshadow="2"
     inkscape:zoom="0.42150238"
     inkscape:cx="609.11798"
     inkscape:cy="598.37346"
     inkscape:document-units="px"
     inkscape:current-layer="layer1"
     showgrid="false"
     units="mm"
     inkscape:object-paths="true"
     inkscape:snap-intersection-paths="true"
     inkscape:snap-smooth-nodes="true"
     inkscape:snap-page="true"
     inkscape:window-width="1085"
     inkscape:window-height="809"
     inkscape:window-x="67"
     inkscape:window-y="27"
     inkscape:window-maximized="1"
     inkscape:snap-object-midpoints="true"
     inkscape:snap-midpoints="true"
     inkscape:measure-start="0,0"
     inkscape:measure-end="0,0"
     inkscape:snap-bbox="true"
     inkscape:bbox-nodes="true"
     fit-margin-top="0"
     fit-margin-left="0"
     fit-margin-right="0"
     fit-margin-bottom="0" />
  <metadata
     id="metadata5">
    <rdf:RDF>
      <cc:Work
         rdf:about="">
        <dc:format>image/svg+xml</dc:format>
        <dc:type
           rdf:resource="http://purl.org/dc/dcmitype/StillImage" />
        <dc:title></dc:title>
        <dc:creator>
          <cc:Agent>
            <dc:title>Kevyan Uehara de Moraes</dc:title>
          </cc:Agent>
        </dc:creator>
        <cc:license
           rdf:resource="http://creativecommons.org/licenses/by-nc-sa/4.0/" />
      </cc:Work>
      <cc:License
         rdf:about="http://creativecommons.org/licenses/by-nc-sa/4.0/">
        <cc:permits
           rdf:resource="http://creativecommons.org/ns#Reproduction" />
        <cc:permits
           rdf:resource="http://creativecommons.org/ns#Distribution" />
        <cc:requires
           rdf:resource="http://creativecommons.org/ns#Notice" />
        <cc:requires
           rdf:resource="http://creativecommons.org/ns#Attribution" />
        <cc:prohibits
           rdf:resource="http://creativecommons.org/ns#CommercialUse" />
        <cc:permits
           rdf:resource="http://creativecommons.org/ns#DerivativeWorks" />
        <cc:requires
           rdf:resource="http://creativecommons.org/ns#ShareAlike" />
      </cc:License>
    </rdf:RDF>
  </metadata>
  <g
     inkscape:label="Layer 1"
     inkscape:groupmode="layer"
     id="layer1"
     transform="translate(-7.4606505e-6,2.213582e-6)">
    <g
       id="g23"
       style="fill:#ffffff"
       transform="matrix(1.7699366,0,0,1.7699366,-172.83635,-117.23216)">
      <path
         id="rect890"
         d="m 146.24534,66.23523 c -2.32844,5e-6 -4.60195,0.05263 -6.79803,0.152963 -2.19607,0.100338 -4.315,0.248658 -6.33502,0.439764 -2.02002,0.191109 -3.94099,0.4248 -5.74125,0.697117 -1.80027,0.272317 -3.47942,0.583112 -5.01623,0.927076 -1.5368,0.343961 -2.93034,0.72004 -4.16306,1.128612 -0.61635,0.204285 -1.19272,0.416779 -1.72651,0.637169 -0.53377,0.220393 -1.0249,0.448771 -1.47174,0.685232 -0.44685,0.236458 -0.85058,0.480832 -1.20768,0.737422 -0.35711,0.256593 -0.66768,0.52532 -0.92914,0.811319 -0.26146,0.286001 -0.47522,0.596609 -0.62373,0.925526 -0.14853,0.328916 -0.23207,0.67632 -0.23203,1.035595 v 0.0041 0.0036 c 0.003,0.229727 0.039,0.453673 0.1049,0.671277 0.0659,0.217601 0.16169,0.428998 0.28371,0.633553 0.12201,0.204554 0.26993,0.402664 0.44079,0.593246 0.17086,0.190579 0.36477,0.373634 0.57723,0.54932 0.28823,0.23835 0.67019,0.459025 1.09089,0.672311 0.4207,0.213286 0.87989,0.4191 1.32292,0.628386 -0.4437,0.20964 -0.90348,0.416361 -1.32447,0.629936 -0.42097,0.213574 -0.80302,0.43402 -1.09141,0.672825 -0.31862,0.263829 -0.5725,0.550055 -0.77101,0.851627 -0.19852,0.301578 -0.34146,0.618421 -0.43976,0.945163 h -0.19379 v 0.654741 0.0078 0.0062 c 0.003,0.311177 0.0847,0.606357 0.21807,0.889871 0.13335,0.283512 0.31918,0.555318 0.53227,0.819071 0.0588,0.0741 0.0404,0.172812 0.10542,0.243911 0.0764,0.0836 0.22733,0.14601 0.31213,0.226862 0.0908,0.0856 0.13924,0.184867 0.23874,0.267165 0.12068,0.0998 0.37112,0.174887 0.5054,0.271817 0.35983,0.25994 0.62856,0.545775 1.08055,0.784966 0.19252,0.101881 0.58381,0.164672 0.79272,0.263552 -0.43513,0.206975 -0.88846,0.410969 -1.30432,0.621665 -0.41585,0.210698 -0.79424,0.428143 -1.07848,0.663527 -0.21248,0.175975 -0.40598,0.359963 -0.57671,0.550871 -0.17072,0.190904 -0.31858,0.388866 -0.44028,0.593762 -0.12171,0.204893 -0.21728,0.416647 -0.28268,0.634587 -0.0654,0.21794 -0.10083,0.442275 -0.10283,0.672309 v 0.0057 0.0062 c 0.003,0.229727 0.039,0.453673 0.1049,0.671277 0.0659,0.217604 0.16169,0.428998 0.28371,0.633552 0.12201,0.204555 0.26993,0.402149 0.44079,0.592731 0.17086,0.190579 0.36477,0.37415 0.57723,0.549836 0.28823,0.238344 0.67019,0.458509 1.09089,0.671795 0.4207,0.213286 0.87989,0.419611 1.32292,0.628902 -0.44376,0.209653 -0.90351,0.416401 -1.32447,0.630451 -0.42095,0.214051 -0.80299,0.435547 -1.09141,0.674378 -0.31832,0.263589 -0.57194,0.548841 -0.77049,0.850077 -0.19854,0.301234 -0.34189,0.618255 -0.44028,0.944645 h -0.19379 v 0.656291 0.0057 0.0062 c 0.003,0.254476 0.0542,0.499935 0.14108,0.737423 0.0869,0.237487 0.20969,0.467085 0.35708,0.690398 0.13489,0.208071 0.33553,0.392988 0.52141,0.58601 0.13784,0.142089 0.22572,0.300114 0.38706,0.433565 0.0494,0.04089 0.15501,0.07078 0.20671,0.111106 0.14554,0.113972 0.22786,0.249481 0.3886,0.3576 0.34052,0.229047 0.98792,0.395787 1.4025,0.609267 0.14356,0.0736 0.26326,0.1526 0.416,0.2248 -0.44379,0.20967 -0.90406,0.41586 -1.3255,0.62942 -0.42144,0.21355 -0.80401,0.43448 -1.09244,0.67334 -0.21248,0.17598 -0.40598,0.35944 -0.57671,0.55035 -0.17072,0.1909 -0.31858,0.38886 -0.44028,0.59377 -0.12171,0.20489 -0.21728,0.41665 -0.28268,0.63458 -0.0654,0.21794 -0.10083,0.44227 -0.10283,0.67231 v 0.0408 l 0.006,0.0413 c 0,0 0.1561,1.36878 0.3607,3.59048 0.1072,1.16418 0.22284,3.0046 0.34107,4.56303 l 5.2e-4,5.3e-4 c 0.10735,1.41501 0.21756,2.52002 0.30955,4.14341 0.0967,1.70601 0.17797,3.497 0.23047,5.30665 0.0529,1.80968 0.0764,3.63798 0.0589,5.41776 -0.0175,1.77979 -0.0764,3.51097 -0.18965,5.12734 -0.11321,1.61636 -0.28109,3.11754 -0.51573,4.43693 -0.23463,1.3193 -0.59838,2.80349 -1.05523,4.38939 -0.45685,1.58592 -1.00669,3.27381 -1.61386,5.00125 -0.60718,1.72744 -1.27138,3.49405 -1.95698,5.23792 -0.6856,1.74387 -1.3925,3.46477 -2.08463,5.09996 -1.38426,3.27038 -2.70845,6.20388 -3.6866,8.31939 -0.97816,2.11551 -1.61024,3.41323 -1.61024,3.41323 l -0.0243,0.0486 -0.0155,0.0527 c -0.39106,1.31592 -0.766407,2.64443 -1.110009,3.98425 -0.343601,1.33983 -0.655134,2.69131 -0.918807,4.0535 -0.263671,1.36219 -0.479695,2.73508 -0.630968,4.1181 -0.15127,1.38302 -0.23803,2.77625 -0.24443,4.17856 v 0.002 c -0.0011,0.86645 0.0213,1.73165 0.06615,2.59468 0.04484,0.86303 0.112135,1.7241 0.202054,2.58175 0.08992,0.85766 0.202136,1.71231 0.336415,2.56264 0.134271,0.85033 0.29078,1.69626 0.468704,2.53732 0.177922,0.84106 0.377553,1.67697 0.598414,2.50682 0.220858,0.82985 0.462973,1.65344 0.726047,2.47013 0.26308,0.81669 0.54703,1.62671 0.85163,2.42828 0.30459,0.80158 0.62973,1.59518 0.97513,2.3797 0.3454,0.78452 0.71109,1.55992 1.09658,2.32544 0.38549,0.76552 0.79107,1.52093 1.21594,2.2655 0.42487,0.74455 0.8692,1.47819 1.33274,2.19986 0.46353,0.72167 0.94597,1.43121 1.44746,2.12804 0.50149,0.69683 1.0219,1.38099 1.56062,2.05103 0.53873,0.67004 1.09595,1.32602 1.67122,1.96733 0.57526,0.6413 1.16865,1.26782 1.77974,1.87843 0.6111,0.61063 1.24,1.20537 1.88619,1.78336 h 0.002 c 1.15397,1.02878 2.34304,1.99272 3.56361,2.89181 1.22057,0.89909 2.47254,1.73334 3.75068,2.50321 1.27814,0.76986 2.58264,1.47556 3.90932,2.11666 1.32669,0.64111 2.67541,1.21782 4.04161,1.73065 1.3662,0.51283 2.74983,0.96168 4.14652,1.34668 1.39668,0.38501 2.80641,0.7061 4.22455,0.96377 1.41815,0.25766 2.84461,0.4516 4.27519,0.5824 1.43057,0.13077 2.8655,0.19857 4.29948,0.20257 h 0.002 0.002 c 1.43397,-0.004 2.86885,-0.0718 4.29948,-0.20257 1.43062,-0.1308 2.85696,-0.32473 4.27519,-0.5824 1.41824,-0.25766 2.82828,-0.57876 4.22507,-0.96377 1.39681,-0.385 2.78071,-0.83385 4.14703,-1.34668 1.36632,-0.51283 2.71482,-1.08954 4.04162,-1.73065 1.3268,-0.6411 2.63161,-1.3468 3.90984,-2.11666 1.27823,-0.76987 2.53005,-1.60412 3.75067,-2.50321 1.22062,-0.89909 2.41016,-1.86302 3.56412,-2.89181 l 0.49403,-0.43925 c -5.53021,3.63374 -5.50507,3.54657 -8.79636,5.43636 -2.38547,1.36968 -3.22836,1.57771 -4.13618,2.01641 -0.90782,0.43871 -2.02303,0.72706 -3.35174,1.22577 -1.32871,0.4987 -2.61504,0.69949 -3.9734,1.07383 -1.35835,0.37435 -2.7295,0.68639 -4.10879,0.9369 -1.37927,0.25051 -2.76687,0.43919 -4.1584,0.56637 -1.39151,0.12721 -2.78714,0.19341 -4.18218,0.19741 -1.3952,-0.004 -2.79054,-0.0698 -4.18217,-0.19689 -1.39163,-0.12711 -2.77956,-0.31592 -4.15892,-0.56638 -1.37937,-0.25046 -2.75038,-0.56257 -4.10879,-0.93689 -1.35841,-0.37432 -2.70407,-0.81077 -4.03283,-1.30948 -1.32876,-0.4987 -2.64061,-1.0595 -3.93103,-1.6831 -1.29042,-0.6236 -2.55948,-1.30977 -3.80287,-2.05879 -1.24339,-0.74902 -2.46121,-1.56108 -3.64887,-2.43603 -1.18767,-0.87495 -2.34526,-1.81289 -3.46852,-2.8143 -0.6278,-0.56157 -1.23861,-1.1397 -1.83245,-1.73322 -0.59385,-0.59352 -1.17044,-1.20269 -1.72961,-1.82625 -0.55918,-0.62355 -1.1009,-1.26138 -1.62471,-1.91306 -0.5238,-0.65167 -1.03001,-1.31683 -1.51773,-1.99471 -0.97542,-1.35575 -1.87795,-2.76204 -2.70475,-4.21111 -0.82679,-1.44907 -1.57751,-2.94091 -2.24999,-4.46795 -0.67248,-1.52705 -1.26676,-3.0896 -1.77922,-4.6793 -0.51248,-1.5897 -0.94306,-3.20661 -1.28984,-4.84363 -0.346783,-1.63702 -0.609572,-3.29401 -0.784964,-4.963 -0.0877,-0.83451 -0.153623,-1.67185 -0.197403,-2.51148 -0.04377,-0.83962 -0.06539,-1.68156 -0.0646,-2.52439 v -0.002 c 0,-0.001 -2e-6,-0.001 0,-0.002 0.0063,-1.34834 0.09036,-2.69212 0.237194,-4.03127 0.146841,-1.33914 0.356362,-2.67356 0.613399,-4.00183 0.257034,-1.32826 0.561754,-2.65045 0.898654,-3.96616 0.33691,-1.31572 0.70599,-2.62489 1.09244,-3.92638 0.0147,-0.0301 0.64691,-1.32802 1.62109,-3.43545 0.97419,-2.10743 2.29064,-5.02433 3.67419,-8.29303 0.69581,-1.6439 1.40686,-3.37126 2.09755,-5.12372 0.69068,-1.75246 1.3606,-3.53014 1.97456,-5.27513 0.61397,-1.745 1.17195,-3.45726 1.63762,-5.07876 0.46566,-1.6215 0.83944,-3.15211 1.08521,-4.53409 0.24576,-1.3819 0.4198,-2.93109 0.53692,-4.58473 0.1171,-1.65366 0.1772,-3.41162 0.1943,-5.21157 0.0171,-1.79995 -0.009,-3.64194 -0.063,-5.46272 -0.0544,-1.82078 -0.13732,-3.62045 -0.23462,-5.33662 -0.0587,-1.03599 -0.1309,-1.67961 -0.1974,-2.63654 -0.15233,-2.19228 -0.30959,-4.50107 -0.45165,-6.04097 -0.2041,-2.21236 -0.36084,-3.58102 -0.36484,-3.61632 v -0.002 c 0.002,-0.20032 0.0633,-0.42117 0.20878,-0.66145 0.14544,-0.24027 0.37505,-0.50034 0.71313,-0.78032 0.33366,-0.27633 0.76861,-0.55952 1.29656,-0.84232 0.52795,-0.2828 1.14871,-0.56511 1.85363,-0.83923 0.56588,0.21269 0.89462,0.47158 1.54151,0.66921 1.03585,0.31648 2.17286,0.61408 3.40083,0.88935 1.22796,0.27526 2.54657,0.52895 3.94498,0.75861 1.3984,0.22965 2.87685,0.43529 4.42402,0.61495 1.54716,0.17965 3.16318,0.33311 4.83743,0.45837 l 0.65991,0.0491 c -1.52887,-0.17809 -8.6076,-1.92915 -9.98389,-2.15543 -1.37628,-0.22628 -2.68675,-0.66628 -3.88607,-0.93483 -1.19932,-0.26854 -2.0127,-0.64026 -3.01067,-0.94516 -0.72618,-0.22187 -1.32186,-0.45751 -1.85518,-0.6997 -0.53332,-0.242191 -1.00457,-0.490539 -1.48105,-0.737425 -0.55274,-0.287581 -1.24448,-0.575506 -1.60145,-0.857827 -0.0797,-0.0644 -0.14194,-0.126037 -0.21084,-0.189137 -0.27822,-0.250362 -0.48882,-0.488389 -0.63045,-0.709517 -0.14165,-0.221126 -0.21404,-0.425262 -0.21704,-0.608748 0.002,-0.199959 0.0637,-0.419754 0.20877,-0.658874 0.14509,-0.239122 0.37401,-0.497591 0.71107,-0.776697 0.33845,-0.28026 0.7768,-0.568452 1.31051,-0.855763 0.53371,-0.287311 1.16251,-0.574104 1.88257,-0.851628 l 1.60197,-0.617016 -1.60197,-0.617017 c -0.71911,-0.277156 -1.34758,-0.563054 -1.88102,-0.849561 -0.53344,-0.286507 -0.97146,-0.573754 -1.31,-0.853694 -0.33714,-0.278797 -0.56621,-0.537951 -0.71158,-0.777213 -0.14533,-0.239266 -0.20732,-0.458661 -0.21032,-0.658358 0.002,-0.199948 0.0631,-0.41978 0.20774,-0.659392 0.14461,-0.239614 0.37301,-0.499144 0.71003,-0.778245 0.3384,-0.28025 0.77732,-0.567902 1.31155,-0.854729 0.53422,-0.286827 1.16359,-0.572553 1.8836,-0.850077 l 0.0646,-0.02532 c 0.74356,0.282345 1.44959,0.571905 2.2226,0.848011 0.77301,0.276104 1.61311,0.538298 2.62517,0.764813 1.5368,0.343966 3.21648,0.654756 5.01674,0.927073 1.80026,0.27232 3.72124,0.506524 5.74126,0.697633 2.02002,0.191105 4.13893,0.338915 6.33501,0.43925 2.19608,0.100333 4.46908,0.152956 6.79752,0.152961 2.34672,3e-6 4.63727,-0.05309 6.84919,-0.155027 2.21192,-0.101942 4.3454,-0.252434 6.37791,-0.446485 2.0325,-0.194053 3.96429,-0.432151 5.77277,-0.708485 1.80849,-0.276336 3.49343,-0.591206 5.03329,-0.939993 l 0.6444,-0.146246 c -1.50428,0.34073 -9.66918,0.787101 -11.67474,0.886251 -2.90799,-0.08286 -2.65335,-0.08067 -6.21357,0.03256 -2.19179,0.101529 -4.46271,0.155035 -6.78925,0.15503 -2.30844,-5e-6 -4.56245,-0.0526 -6.73861,-0.152448 -2.17616,-0.09985 -4.27433,-0.246991 -6.27197,-0.436147 -1.99763,-0.189158 -3.8945,-0.419896 -5.66735,-0.687813 -1.77285,-0.267917 -3.42192,-0.572855 -4.92373,-0.90899 -1.31126,-0.293309 -2.4507,-0.61836 -3.46026,-0.961696 -1.00956,-0.34334 -1.88879,-0.70506 -2.67994,-1.071253 -0.72011,-0.33554 -1.42767,-0.670047 -1.88102,-1.003557 -0.14457,-0.108231 -0.33503,-0.216591 -0.45114,-0.322461 -0.27434,-0.248399 -0.48362,-0.484918 -0.62476,-0.704866 -0.14115,-0.219951 -0.21404,-0.423299 -0.21704,-0.60565 0.002,-0.199959 0.0637,-0.41978 0.20877,-0.659389 0.14509,-0.239609 0.37401,-0.499142 0.71107,-0.778248 0.33845,-0.28026 0.7768,-0.567386 1.31051,-0.854213 0.53371,-0.286824 1.16251,-0.573066 1.88257,-0.850593 l 1.60197,-0.617532 -1.60197,-0.617019 c -0.71911,-0.277154 -1.34758,-0.563052 -1.88102,-0.849559 -0.53344,-0.286506 -0.97146,-0.573754 -1.31,-0.853696 -0.33768,-0.279236 -0.56731,-0.539197 -0.71313,-0.77928 -0.14584,-0.240086 -0.20784,-0.460023 -0.21084,-0.659908 5.3e-4,-0.159113 0.0342,-0.324009 0.1142,-0.499711 0.0801,-0.175699 0.20655,-0.362286 0.39171,-0.564824 0.18585,-0.20329 0.42889,-0.414629 0.72606,-0.628386 0.29718,-0.213754 0.64828,-0.430212 1.05109,-0.643371 0.80564,-0.426321 1.81321,-0.840573 2.99465,-1.232482 1.18144,-0.391906 2.34034,-0.879301 3.84215,-1.21543 1.50182,-0.336135 3.4049,-0.775187 4.88445,-1.045932 1.47955,-0.270746 2.01067,-0.36494 3.02152,-0.535366 1.38824,-0.234048 3.06093,-0.392761 5.8906,-0.796335 2.33894,-0.333584 7.39321,-0.69786 10.66343,-1.012341 z m -10.03918,38.56406 c -1.65706,-0.12397 1.52886,0.17808 0,0 z m -9.71362,-24.977809 -0.20464,1.308447 0.65423,0.101285 c 1.37105,0.214305 2.81434,0.406506 4.32066,0.574127 1.50631,0.167624 3.07563,0.311018 4.69739,0.427363 1.62177,0.116343 3.29624,0.205663 5.01365,0.266134 1.71741,0.06047 3.47773,0.09198 5.27099,0.09199 1.91881,3e-6 3.79978,-0.03606 5.63118,-0.104905 1.83139,-0.06885 3.61293,-0.17059 5.3325,-0.302823 1.71956,-0.132236 3.3771,-0.294593 4.96042,-0.484725 1.58332,-0.190132 3.09281,-0.408053 4.51548,-0.650605 l 0.65216,-0.111106 c -7.24986,0.371266 -7.67887,0.330028 -10.24279,0.371038 -2.56392,0.04101 -3.40472,0.0306 -5.3361,-0.05995 -1.81406,-0.08505 -3.61057,0.02066 -5.51285,0.02066 -1.77779,0 -3.52269,-0.03093 -5.22448,-0.09095 -1.70179,-0.06003 -3.36039,-0.148863 -4.96559,-0.264068 -1.6052,-0.115204 -3.15718,-0.257161 -4.6452,-0.422711 -1.48801,-0.165547 -2.91204,-0.354806 -4.26227,-0.565859 z m 44.42985,15.404227 c 0,0 -10.56906,0.603224 -11.57397,0.699183 -1.00491,0.09596 -4.12257,0.118795 -6.31435,0.220141 -2.19179,0.101341 -4.46271,0.15452 -6.78925,0.154514 -2.35763,0 -4.65577,-0.05423 -6.87503,-0.158131 l -0.66197,-0.03101 -0.0605,1.320334 0.65991,0.03101 c 2.23986,0.104822 4.55913,0.162264 6.93756,0.162264 2.34672,0 4.63728,-0.05342 6.8492,-0.155546 2.21192,-0.102122 4.34488,-0.253223 6.37739,-0.447519 2.0325,-0.194297 3.96429,-0.431964 5.77277,-0.708486 1.80849,-0.276518 3.49394,-0.591717 5.0338,-0.940509 z"
         style="opacity:1;fill:#ffffff;fill-opacity:1;stroke:none;stroke-width:0.79374993;stroke-miterlimit:4;stroke-dasharray:none;stroke-dashoffset:0;stroke-opacity:1;paint-order:markers fill stroke"
         inkscape:connector-curvature="0" />
      <path
         id="path1056"
         d="m 146.61431,111.72961 c -0.85792,11.6439 -2.13679,23.51691 6.0818,36.10943 h -4.85707 l -16.48271,1.32188 h 17.80459 5.96708 l -0.72088,-1.03715 c -8.73935,-12.61131 -8.67715,-24.39162 -7.79281,-36.39416 z"
         style="color:#000000;font-style:normal;font-variant:normal;font-weight:normal;font-stretch:normal;font-size:medium;line-height:normal;font-family:sans-serif;font-variant-ligatures:normal;font-variant-position:normal;font-variant-caps:normal;font-variant-numeric:normal;font-variant-alternates:normal;font-feature-settings:normal;text-indent:0;text-align:start;text-decoration:none;text-decoration-line:none;text-decoration-style:solid;text-decoration-color:#000000;letter-spacing:normal;word-spacing:normal;text-transform:none;writing-mode:lr-tb;direction:ltr;text-orientation:mixed;dominant-baseline:auto;baseline-shift:baseline;text-anchor:start;white-space:normal;shape-padding:0;clip-rule:nonzero;display:inline;overflow:visible;visibility:visible;opacity:1;isolation:auto;mix-blend-mode:normal;color-interpolation:sRGB;color-interpolation-filters:linearRGB;solid-color:#000000;solid-opacity:1;vector-effect:none;fill:#ffffff;fill-opacity:1;fill-rule:nonzero;stroke:none;stroke-width:1.32291675;stroke-linecap:butt;stroke-linejoin:miter;stroke-miterlimit:4;stroke-dasharray:none;stroke-dashoffset:0;stroke-opacity:1;color-rendering:auto;image-rendering:auto;shape-rendering:auto;text-rendering:auto;enable-background:accumulate"
         inkscape:connector-curvature="0" />
      <path
         inkscape:connector-curvature="0"
         id="path1058"
         d="m 110.80178,201.63388 -0.45898,0.17188 -0.69531,0.25976 0.33007,0.66211 -0.0215,-0.0508 c 2.09116,5.22892 5.3613,9.90515 9.55469,13.66406 l 0.002,0.002 c 11.24463,10.00222 27.47075,12.1016 40.89062,5.29101 l 0.004,-0.002 0.5918,-0.29687 v 0 c -12.93611,6.56701 -29.76189,3.6538 -40.60161,-5.98824 -4.04035,-3.62203 -7.19017,-8.12575 -9.20508,-13.16406 l -0.0332,-0.0859 z"
         style="color:#000000;font-style:normal;font-variant:normal;font-weight:normal;font-stretch:normal;font-size:medium;line-height:normal;font-family:sans-serif;font-variant-ligatures:normal;font-variant-position:normal;font-variant-caps:normal;font-variant-numeric:normal;font-variant-alternates:normal;font-feature-settings:normal;text-indent:0;text-align:start;text-decoration:none;text-decoration-line:none;text-decoration-style:solid;text-decoration-color:#000000;letter-spacing:normal;word-spacing:normal;text-transform:none;writing-mode:lr-tb;direction:ltr;text-orientation:mixed;dominant-baseline:auto;baseline-shift:baseline;text-anchor:start;white-space:normal;shape-padding:0;clip-rule:nonzero;display:inline;overflow:visible;visibility:visible;opacity:1;isolation:auto;mix-blend-mode:normal;color-interpolation:sRGB;color-interpolation-filters:linearRGB;solid-color:#000000;solid-opacity:1;vector-effect:none;fill:#ffffff;fill-opacity:1;fill-rule:nonzero;stroke:none;stroke-width:1.32291675;stroke-linecap:square;stroke-linejoin:miter;stroke-miterlimit:4;stroke-dasharray:none;stroke-dashoffset:0;stroke-opacity:1;paint-order:markers fill stroke;color-rendering:auto;image-rendering:auto;shape-rendering:auto;text-rendering:auto;enable-background:accumulate"
         sodipodi:nodetypes="ccccccccccccccc" />
    </g>
  </g>
</svg>
